<svg xmlns="http://www.w3.org/2000/svg" xmlns:xlink="http://www.w3.org/1999/xlink" viewBox="0 0 690 760"><defs><linearGradient id="a" x1="118.09" y1="616.26" x2="119.38" y2="616.26" gradientTransform="matrix(0, -13.93, 12.13, -7.37, -7002.68, 6343.72)" gradientUnits="userSpaceOnUse"><stop offset="0" stop-color="#fff"/><stop offset="0.16" stop-color="#bdbdbd"/><stop offset="0.36" stop-color="#6d6d6d"/><stop offset="0.53" stop-color="#323232"/><stop offset="0.66" stop-color="#0e0e0e"/><stop offset="0.72"/><stop offset="1"/></linearGradient><linearGradient id="b" x1="118.38" y1="616.26" x2="119.67" y2="616.26" gradientTransform="matrix(0, -13.93, 12.13, -7.37, -7002.68, 6330.07)" xlink:href="#a"/><linearGradient id="c" x1="67.59" y1="643.06" x2="69.94" y2="643.06" gradientTransform="matrix(0, -6.43, -5.6, -3.4, 3836.79, 3115.15)" xlink:href="#a"/><linearGradient id="d" x1="66.27" y1="643.06" x2="68.62" y2="643.06" gradientTransform="matrix(0, -6.43, -5.6, -3.4, 3836.79, 3121.43)" xlink:href="#a"/><linearGradient id="e" x1="64.95" y1="643.06" x2="67.3" y2="643.06" gradientTransform="matrix(0, -6.43, -5.6, -3.4, 3836.79, 3127.72)" gradientUnits="userSpaceOnUse"><stop offset="0" stop-color="#fff"/><stop offset="0.22" stop-color="#bbb"/><stop offset="0.5" stop-color="#6c6c6c"/><stop offset="0.73" stop-color="#323232"/><stop offset="0.9" stop-color="#0e0e0e"/><stop offset="0.99"/><stop offset="1"/></linearGradient><linearGradient id="f" x1="85.43" y1="632.84" x2="87.78" y2="632.84" gradientTransform="matrix(0, -26.36, 22.97, -13.94, -14059.48, 11745.4)" xlink:href="#e"/><linearGradient id="g" x1="94" y1="630.61" x2="96.35" y2="630.61" gradientTransform="matrix(0, -123.98, 108.01, -65.57, -67634.53, 53619.76)" xlink:href="#e"/><linearGradient id="h" x1="84.89" y1="631.46" x2="87.24" y2="631.46" gradientTransform="matrix(0, -25.72, 22.4, -13.6, -13729.01, 11487.88)" xlink:href="#e"/><linearGradient id="i" x1="84.61" y1="632.91" x2="86.96" y2="632.91" gradientTransform="matrix(0, -21.48, 18.71, -11.36, -11385.38, 9628.37)" xlink:href="#e"/><linearGradient id="j" x1="72.05" y1="634.32" x2="74.39" y2="634.32" gradientTransform="matrix(0, -11.59, 10.1, -6.13, -5965.82, 5413.23)" xlink:href="#a"/><linearGradient id="k" x1="73.37" y1="634.32" x2="75.72" y2="634.32" gradientTransform="matrix(0, -11.59, 10.1, -6.13, -5965.82, 5401.87)" xlink:href="#a"/><linearGradient id="l" x1="74.69" y1="634.32" x2="77.04" y2="634.32" gradientTransform="matrix(0, -11.59, 10.1, -6.13, -5965.82, 5390.49)" xlink:href="#a"/><linearGradient id="m" x1="89.4" y1="633.12" x2="91.75" y2="633.12" gradientTransform="matrix(0, -31.68, -27.6, -16.76, 17688.55, 13968.34)" xlink:href="#e"/><linearGradient id="n" x1="93.29" y1="630.58" x2="95.64" y2="630.58" gradientTransform="matrix(0, -86.4, 75.27, -45.7, -47025.08, 37488.78)" xlink:href="#a"/><linearGradient id="o" x1="48.07" y1="641.72" x2="50.43" y2="641.72" gradientTransform="matrix(0, -5.35, 4.66, -2.83, -2533.68, 2714.9)" xlink:href="#a"/><linearGradient id="p" x1="46.76" y1="641.72" x2="49.11" y2="641.72" gradientTransform="matrix(0, -5.35, 4.66, -2.83, -2533.68, 2720.13)" xlink:href="#a"/><linearGradient id="q" x1="45.44" y1="641.72" x2="47.79" y2="641.72" gradientTransform="matrix(0, -5.35, 4.66, -2.83, -2533.68, 2725.36)" xlink:href="#e"/><linearGradient id="r" x1="89.48" y1="632.41" x2="91.83" y2="632.41" gradientTransform="matrix(0, -21.48, 18.71, -11.36, -11392.32, 9555.01)" xlink:href="#e"/><linearGradient id="s" x1="67.64" y1="639.71" x2="69.99" y2="639.71" gradientTransform="matrix(0, -5.35, 4.66, -2.83, -2540.62, 2641.55)" xlink:href="#a"/><linearGradient id="t" x1="66.33" y1="639.71" x2="68.68" y2="639.71" gradientTransform="matrix(0, -5.35, 4.66, -2.83, -2540.62, 2646.79)" xlink:href="#a"/><linearGradient id="u" x1="65.01" y1="639.71" x2="67.35" y2="639.71" gradientTransform="matrix(0, -5.35, 4.66, -2.83, -2540.62, 2652.01)" xlink:href="#e"/><linearGradient id="v" x1="91.72" y1="631.05" x2="94.07" y2="631.05" gradientTransform="matrix(0, -21.48, 18.71, -11.36, -11411.15, 9530.87)" xlink:href="#e"/><linearGradient id="w" x1="76.63" y1="634.26" x2="78.98" y2="634.26" gradientTransform="matrix(0, -5.35, 4.66, -2.83, -2559.44, 2617.37)" xlink:href="#a"/><linearGradient id="x" x1="93.76" y1="631.3" x2="96.11" y2="631.3" gradientTransform="matrix(0, -76.22, -66.4, -40.31, 42133.81, 33055.81)" xlink:href="#e"/><linearGradient id="y" x1="75.31" y1="634.26" x2="77.66" y2="634.26" gradientTransform="matrix(0, -5.35, 4.66, -2.83, -2559.44, 2622.61)" xlink:href="#a"/><linearGradient id="z" x1="73.99" y1="634.26" x2="76.34" y2="634.26" gradientTransform="matrix(0, -5.35, 4.66, -2.83, -2559.44, 2627.83)" xlink:href="#e"/><linearGradient id="aa" x1="85.55" y1="631.14" x2="87.9" y2="631.14" gradientTransform="matrix(0, -13.88, 12.1, -7.34, -7247.68, 6312.62)" xlink:href="#e"/><linearGradient id="ab" x1="51.9" y1="634.6" x2="54.25" y2="634.6" gradientTransform="matrix(0, -3.46, 3.01, -1.83, -1525.81, 1843.79)" xlink:href="#a"/><linearGradient id="ac" x1="50.58" y1="634.6" x2="52.93" y2="634.6" gradientTransform="matrix(0, -3.46, 3.01, -1.83, -1525.81, 1847.18)" xlink:href="#a"/><linearGradient id="ad" x1="49.27" y1="634.6" x2="51.62" y2="634.6" gradientTransform="matrix(0, -3.46, 3.01, -1.83, -1525.81, 1850.56)" xlink:href="#e"/><linearGradient id="ae" x1="83.03" y1="631.14" x2="85.38" y2="631.14" gradientTransform="matrix(0, -13.88, 12.1, -7.34, -7247.68, 6338.56)" xlink:href="#e"/><linearGradient id="af" x1="41.78" y1="634.6" x2="44.13" y2="634.6" gradientTransform="matrix(0, -3.46, 3.01, -1.83, -1525.81, 1869.73)" xlink:href="#a"/><linearGradient id="ag" x1="40.46" y1="634.6" x2="42.81" y2="634.6" gradientTransform="matrix(0, -3.46, 3.01, -1.83, -1525.81, 1873.11)" xlink:href="#a"/><linearGradient id="ah" x1="39.14" y1="634.6" x2="41.49" y2="634.6" gradientTransform="matrix(0, -3.46, 3.01, -1.83, -1525.81, 1876.49)" xlink:href="#e"/><linearGradient id="ai" x1="87.7" y1="631.73" x2="90.05" y2="631.73" gradientTransform="matrix(0, -30.91, -26.93, -16.35, 17291.08, 13659.5)" xlink:href="#e"/><linearGradient id="aj" x1="80.51" y1="631.14" x2="82.86" y2="631.14" gradientTransform="matrix(0, -13.88, 12.1, -7.34, -7247.68, 6364.5)" xlink:href="#e"/><linearGradient id="ak" x1="31.66" y1="634.6" x2="34.01" y2="634.6" gradientTransform="matrix(0, -3.46, 3.01, -1.83, -1525.81, 1895.67)" xlink:href="#a"/><linearGradient id="al" x1="30.34" y1="634.6" x2="32.69" y2="634.6" gradientTransform="matrix(0, -3.46, 3.01, -1.83, -1525.81, 1899.05)" xlink:href="#a"/><linearGradient id="am" x1="29.02" y1="634.6" x2="31.37" y2="634.6" gradientTransform="matrix(0, -3.46, 3.01, -1.83, -1525.81, 1902.43)" xlink:href="#e"/><linearGradient id="an" x1="89.46" y1="633.28" x2="91.81" y2="633.28" gradientTransform="matrix(0, -25.81, -22.49, -13.65, 14475.48, 11423.95)" xlink:href="#e"/><linearGradient id="ao" x1="80.99" y1="634.95" x2="83.34" y2="634.95" gradientTransform="matrix(0, -13.93, -12.13, -7.37, 7961.75, 6357.39)" xlink:href="#a"/><linearGradient id="ap" x1="82.32" y1="634.95" x2="84.67" y2="634.95" gradientTransform="matrix(0, -13.93, -12.13, -7.37, 7961.75, 6343.72)" xlink:href="#a"/><linearGradient id="aq" x1="83.64" y1="634.95" x2="85.99" y2="634.95" gradientTransform="matrix(0, -13.93, -12.13, -7.37, 7961.75, 6330.07)" xlink:href="#a"/><linearGradient id="ar" x1="84.97" y1="634.95" x2="87.32" y2="634.95" gradientTransform="matrix(0, -13.93, -12.13, -7.37, 7961.75, 6316.41)" xlink:href="#a"/><linearGradient id="as" x1="472.37" y1="154.67" x2="480.21" y2="154.67" gradientUnits="userSpaceOnUse"><stop offset="0" stop-color="#bababa"/><stop offset="1" stop-color="#ebebeb"/></linearGradient><linearGradient id="at" x1="472.37" y1="136.98" x2="480.21" y2="136.98" xlink:href="#as"/><linearGradient id="au" x1="234.64" y1="492.63" x2="234.64" y2="481.51" gradientUnits="userSpaceOnUse"><stop offset="0" stop-color="#fff"/><stop offset="0.17" stop-color="#ececec"/><stop offset="0.53" stop-color="#c8c8c8"/><stop offset="0.72" stop-color="#bababa"/><stop offset="1" stop-color="#d6d6d6"/></linearGradient><linearGradient id="av" x1="234.64" y1="507.39" x2="234.64" y2="496.26" xlink:href="#au"/><linearGradient id="aw" x1="234.64" y1="522.17" x2="234.64" y2="511.05" xlink:href="#au"/><linearGradient id="ax" x1="475.32" y1="665.83" x2="475.32" y2="612.14" xlink:href="#au"/><linearGradient id="ay" x1="475.32" y1="611.96" x2="475.32" y2="331.07" xlink:href="#au"/><linearGradient id="az" x1="418.41" y1="714.25" x2="418.41" y2="657.75" xlink:href="#au"/><linearGradient id="ba" x1="457.38" y1="620.04" x2="457.38" y2="572.88" xlink:href="#au"/><linearGradient id="bb" x1="438.12" y1="688.5" x2="438.12" y2="668.46" xlink:href="#au"/><linearGradient id="bc" x1="438.12" y1="661.8" x2="438.12" y2="641.76" xlink:href="#au"/><linearGradient id="bd" x1="438.12" y1="635.08" x2="438.12" y2="615.03" xlink:href="#au"/><linearGradient id="be" x1="213.08" y1="522.56" x2="213.08" y2="458.03" xlink:href="#au"/><linearGradient id="bf" x1="438.12" y1="609.72" x2="438.12" y2="419.89" xlink:href="#au"/><linearGradient id="bg" x1="457.38" y1="640.9" x2="457.38" y2="631.65" xlink:href="#au"/><linearGradient id="bh" x1="457.38" y1="653.18" x2="457.38" y2="643.92" xlink:href="#au"/><linearGradient id="bi" x1="457.38" y1="665.46" x2="457.38" y2="656.2" xlink:href="#au"/><linearGradient id="bj" x1="441.09" y1="447.71" x2="441.09" y2="400.55" xlink:href="#au"/><linearGradient id="bk" x1="441.09" y1="468.54" x2="441.09" y2="459.28" xlink:href="#au"/><linearGradient id="bl" x1="441.09" y1="480.83" x2="441.09" y2="471.57" xlink:href="#au"/><linearGradient id="bm" x1="441.09" y1="493.12" x2="441.09" y2="483.86" xlink:href="#au"/><linearGradient id="bn" x1="396.85" y1="390.97" x2="396.85" y2="343.81" xlink:href="#au"/><linearGradient id="bo" x1="396.85" y1="411.72" x2="396.85" y2="402.47" xlink:href="#au"/><linearGradient id="bp" x1="213.08" y1="454.27" x2="213.08" y2="286.9" xlink:href="#au"/><linearGradient id="bq" x1="396.85" y1="424" x2="396.85" y2="414.75" xlink:href="#au"/><linearGradient id="br" x1="396.85" y1="436.3" x2="396.85" y2="427.05" xlink:href="#au"/><linearGradient id="bs" x1="386.17" y1="489.45" x2="386.17" y2="458.96" xlink:href="#au"/><linearGradient id="bt" x1="386.17" y1="502.91" x2="386.17" y2="496.93" xlink:href="#au"/><linearGradient id="bu" x1="386.17" y1="510.86" x2="386.17" y2="504.88" xlink:href="#au"/><linearGradient id="bv" x1="386.17" y1="518.8" x2="386.17" y2="512.82" xlink:href="#au"/><linearGradient id="bw" x1="386.17" y1="550.4" x2="386.17" y2="519.91" xlink:href="#au"/><linearGradient id="bx" x1="386.17" y1="563.86" x2="386.17" y2="557.87" xlink:href="#au"/><linearGradient id="by" x1="386.17" y1="571.8" x2="386.17" y2="565.82" xlink:href="#au"/><linearGradient id="bz" x1="386.17" y1="579.75" x2="386.17" y2="573.77" xlink:href="#au"/><linearGradient id="ca" x1="281.48" y1="620.66" x2="281.48" y2="552.81" xlink:href="#au"/><linearGradient id="cb" x1="386.17" y1="611.35" x2="386.17" y2="580.86" xlink:href="#au"/><linearGradient id="cc" x1="386.17" y1="624.81" x2="386.17" y2="618.83" xlink:href="#au"/><linearGradient id="cd" x1="386.17" y1="632.75" x2="386.17" y2="626.76" xlink:href="#au"/><linearGradient id="ce" x1="386.17" y1="640.7" x2="386.17" y2="634.71" xlink:href="#au"/><linearGradient id="cf" x1="234.64" y1="467.62" x2="234.64" y2="410.94" xlink:href="#au"/><linearGradient id="cg" x1="257.79" y1="549.84" x2="257.79" y2="525.75" xlink:href="#au"/><linearGradient id="ch" x1="257.79" y1="517.72" x2="257.79" y2="493.64" xlink:href="#au"/><linearGradient id="ci" x1="257.79" y1="485.63" x2="257.79" y2="461.54" xlink:href="#au"/><linearGradient id="cj" x1="257.79" y1="453.54" x2="257.79" y2="429.45" xlink:href="#au"/><clipPath id="cl"><polygon points="478.77 156.71 470.24 161.89 470.24 152.63 478.77 147.45 478.77 156.71" style="fill:url(#as)"/></clipPath><mask id="cm" x="470.24" y="142.27" width="8.52" height="24.79" maskUnits="userSpaceOnUse"><polygon points="478.77 161.89 478.77 142.28 470.24 147.45 470.24 167.06 478.77 161.89" style="fill:url(#a)"/></mask><linearGradient id="cn" x1="118.09" y1="616.27" x2="119.39" y2="616.27" gradientTransform="matrix(0, -13.93, 12.13, -7.37, -7002.7, 6343.72)" xlink:href="#as"/><clipPath id="cp"><polygon points="478.77 139.02 470.24 144.2 470.24 134.93 478.77 129.76 478.77 139.02" style="fill:url(#at)"/></clipPath><mask id="cq" x="470.24" y="124.58" width="8.52" height="24.79" maskUnits="userSpaceOnUse"><polygon points="478.77 144.2 478.77 124.58 470.24 129.76 470.24 149.37 478.77 144.2" style="fill:url(#b)"/></mask><linearGradient id="cr" x1="118.38" y1="616.27" x2="119.67" y2="616.27" gradientTransform="matrix(0, -13.93, 12.13, -7.37, -7002.7, 6330.07)" xlink:href="#as"/><clipPath id="ct"><polygon points="205.34 519.82 220.81 529.21 220.81 477.47 205.34 468.08 205.34 519.82" style="fill:url(#be)"/></clipPath><mask id="cu" x="205.34" y="458.69" width="15.47" height="79.91" maskUnits="userSpaceOnUse"><polygon points="205.34 529.21 205.34 458.69 220.81 468.08 220.81 538.6 205.34 529.21" style="fill:url(#m)"/></mask><linearGradient id="cv" x1="89.4" y1="633.12" x2="91.75" y2="633.12" gradientTransform="matrix(0, -31.68, -27.6, -16.76, 17688.52, 13968.27)" xlink:href="#au"/><clipPath id="cx"><polygon points="205.34 449.62 220.81 459.01 220.81 334.54 205.34 325.15 205.34 449.62" style="fill:url(#bp)"/></clipPath><mask id="cy" x="205.34" y="315.76" width="15.47" height="152.64" maskUnits="userSpaceOnUse"><polygon points="205.34 459.01 205.34 315.76 220.81 325.15 220.81 468.4 205.34 459.01" style="fill:url(#x)"/></mask><linearGradient id="cz" x1="93.76" y1="631.29" x2="96.11" y2="631.29" gradientTransform="matrix(0, -76.22, -66.4, -40.31, 42133.61, 33055.81)" xlink:href="#au"/><clipPath id="db"><polygon points="278.34 618.88 284.61 622.68 284.61 572.22 278.34 568.41 278.34 618.88" style="fill:url(#ca)"/></clipPath><mask id="dc" x="278.34" y="564.6" width="6.27" height="61.89" maskUnits="userSpaceOnUse"><polygon points="278.34 622.68 278.34 564.6 284.61 568.41 284.61 626.49 278.34 622.68" style="fill:url(#ai)"/></mask><linearGradient id="dd" x1="87.69" y1="631.73" x2="90.04" y2="631.73" gradientTransform="matrix(0, -30.91, -26.93, -16.35, 17291.08, 13659.33)" xlink:href="#au"/><clipPath id="df"><polygon points="232.02 466.07 237.26 469.25 237.26 427.1 232.02 423.92 232.02 466.07" style="fill:url(#cf)"/></clipPath><mask id="dg" x="232.02" y="420.74" width="5.24" height="51.69" maskUnits="userSpaceOnUse"><polygon points="232.02 469.25 232.02 420.74 237.26 423.92 237.26 472.43 232.02 469.25" style="fill:url(#an)"/></mask><linearGradient id="dh" x1="89.46" y1="633.28" x2="91.81" y2="633.28" gradientTransform="matrix(0, -25.81, -22.49, -13.65, 14475.48, 11423.91)" xlink:href="#au"/><clipPath id="dj"><polygon points="250.06 546.97 265.52 556.36 265.52 539.55 250.06 530.16 250.06 546.97" style="fill:url(#cg)"/></clipPath><mask id="dk" x="250.06" y="520.77" width="15.47" height="44.97" maskUnits="userSpaceOnUse"><polygon points="250.06 556.36 250.06 520.77 265.52 530.16 265.52 565.75 250.06 556.36" style="fill:url(#ao)"/></mask><linearGradient id="dl" x1="81" y1="634.96" x2="83.35" y2="634.96" gradientTransform="matrix(0, -13.93, -12.13, -7.37, 7961.76, 6357.39)" xlink:href="#au"/><clipPath id="dn"><polygon points="250.06 514.87 265.52 524.26 265.52 507.45 250.06 498.06 250.06 514.87" style="fill:url(#ch)"/></clipPath><mask id="do" x="250.06" y="488.67" width="15.47" height="44.98" maskUnits="userSpaceOnUse"><polygon points="250.06 524.26 250.06 488.67 265.52 498.06 265.52 533.65 250.06 524.26" style="fill:url(#ap)"/></mask><linearGradient id="dp" x1="82.32" y1="634.96" x2="84.67" y2="634.96" gradientTransform="matrix(0, -13.93, -12.13, -7.37, 7961.76, 6343.72)" xlink:href="#au"/><clipPath id="dr"><polygon points="250.06 482.76 265.52 492.15 265.52 475.35 250.06 465.96 250.06 482.76" style="fill:url(#ci)"/></clipPath><mask id="ds" x="250.06" y="456.57" width="15.47" height="44.97" maskUnits="userSpaceOnUse"><polygon points="250.06 492.15 250.06 456.57 265.52 465.96 265.52 501.54 250.06 492.15" style="fill:url(#aq)"/></mask><linearGradient id="dt" x1="83.65" y1="634.96" x2="85.99" y2="634.96" gradientTransform="matrix(0, -13.93, -12.13, -7.37, 7961.76, 6330.07)" xlink:href="#au"/><clipPath id="dv"><polygon points="250.06 450.67 265.52 460.05 265.52 443.25 250.06 433.86 250.06 450.67" style="fill:url(#cj)"/></clipPath><mask id="dw" x="250.06" y="424.47" width="15.47" height="44.97" maskUnits="userSpaceOnUse"><polygon points="250.06 460.05 250.06 424.47 265.52 433.86 265.52 469.44 250.06 460.05" style="fill:url(#ar)"/></mask><linearGradient id="dx" x1="84.97" y1="634.96" x2="87.32" y2="634.96" gradientTransform="matrix(0, -13.93, -12.13, -7.37, 7961.76, 6316.41)" xlink:href="#au"/><clipPath id="dz"><polygon points="231.06 491.28 238.21 495.62 238.21 487.86 231.06 483.52 231.06 491.28" style="fill:url(#au)"/></clipPath><mask id="ea" x="231.07" y="479.19" width="7.14" height="20.76" maskUnits="userSpaceOnUse"><polygon points="231.06 495.62 231.06 479.19 238.21 483.52 238.21 499.95 231.06 495.62" style="fill:url(#c)"/></mask><linearGradient id="eb" x1="67.59" y1="643.06" x2="69.94" y2="643.06" gradientTransform="matrix(0, -6.43, -5.6, -3.4, 3836.79, 3115.15)" xlink:href="#au"/><clipPath id="ed"><polygon points="231.06 506.05 238.21 510.39 238.21 502.63 231.06 498.29 231.06 506.05" style="fill:url(#av)"/></clipPath><mask id="ee" x="231.07" y="493.96" width="7.14" height="20.76" maskUnits="userSpaceOnUse"><polygon points="231.06 510.39 231.06 493.96 238.21 498.29 238.21 514.72 231.06 510.39" style="fill:url(#d)"/></mask><linearGradient id="ef" x1="66.27" y1="643.06" x2="68.62" y2="643.06" gradientTransform="matrix(0, -6.43, -5.6, -3.4, 3836.79, 3121.43)" xlink:href="#au"/><clipPath id="eh"><polygon points="231.06 520.82 238.21 525.16 238.21 517.4 231.06 513.06 231.06 520.82" style="fill:url(#aw)"/></clipPath><mask id="ei" x="231.07" y="508.73" width="7.14" height="20.76" maskUnits="userSpaceOnUse"><polygon points="231.06 525.16 231.06 508.73 238.21 513.06 238.21 529.49 231.06 525.16" style="fill:url(#e)"/></mask><linearGradient id="ej" x1="64.95" y1="643.06" x2="67.3" y2="643.06" gradientTransform="matrix(0, -6.43, -5.6, -3.4, 3836.79, 3127.72)" xlink:href="#au"/><clipPath id="el"><polygon points="468.89 628.29 468.89 671.34 481.76 663.52 481.76 620.48 468.89 628.29" style="fill:url(#ax)"/></clipPath><mask id="em" x="468.89" y="612.66" width="12.87" height="66.49" maskUnits="userSpaceOnUse"><polygon points="481.76 671.34 481.76 612.66 468.89 620.48 468.89 679.15 481.76 671.34" style="fill:url(#f)"/></mask><linearGradient id="en" x1="85.43" y1="632.84" x2="87.78" y2="632.84" gradientTransform="matrix(0, -26.36, 22.97, -13.94, -14059.48, 11745.43)" xlink:href="#au"/><clipPath id="ep"><polygon points="468.89 410.48 468.89 612.92 481.76 605.11 481.76 402.66 468.89 410.48" style="fill:url(#ay)"/></clipPath><mask id="eq" x="468.89" y="394.85" width="12.87" height="225.89" maskUnits="userSpaceOnUse"><polygon points="481.76 612.92 481.76 394.85 468.89 402.66 468.89 620.74 481.76 612.92" style="fill:url(#g)"/></mask><linearGradient id="er" x1="94" y1="630.61" x2="96.35" y2="630.61" gradientTransform="matrix(0, -123.98, 108.01, -65.57, -67634.53, 53619.51)" xlink:href="#au"/><clipPath id="et"><polygon points="415.8 673.89 415.8 715.88 421.01 712.72 421.01 670.72 415.8 673.89" style="fill:url(#az)"/></clipPath><mask id="eu" x="415.8" y="667.55" width="5.22" height="51.5" maskUnits="userSpaceOnUse"><polygon points="421.01 715.88 421.01 667.55 415.8 670.72 415.8 719.05 421.01 715.88" style="fill:url(#h)"/></mask><linearGradient id="ev" x1="84.89" y1="631.46" x2="87.24" y2="631.46" gradientTransform="matrix(0, -25.72, 22.4, -13.6, -13729.01, 11487.88)" xlink:href="#au"/><clipPath id="ex"><polygon points="455.21 586.37 455.21 621.45 459.56 618.8 459.56 583.73 455.21 586.37" style="fill:url(#ba)"/></clipPath><mask id="ey" x="455.21" y="581.08" width="4.35" height="43.01" maskUnits="userSpaceOnUse"><polygon points="459.56 621.45 459.56 581.08 455.21 583.73 455.21 624.09 459.56 621.45" style="fill:url(#i)"/></mask><linearGradient id="ez" x1="84.61" y1="632.91" x2="86.96" y2="632.91" gradientTransform="matrix(0, -21.48, 18.71, -11.36, -11385.38, 9628.37)" xlink:href="#au"/><clipPath id="fb"><polygon points="431.69 679.94 431.69 693.93 444.55 686.11 444.55 672.13 431.69 679.94" style="fill:url(#bb)"/></clipPath><mask id="fc" x="431.69" y="664.32" width="12.87" height="37.42" maskUnits="userSpaceOnUse"><polygon points="444.55 693.93 444.55 664.32 431.69 672.13 431.69 701.74 444.55 693.93" style="fill:url(#j)"/></mask><linearGradient id="fd" x1="72.05" y1="634.32" x2="74.39" y2="634.32" gradientTransform="matrix(0, -11.59, 10.1, -6.13, -5965.82, 5413.23)" xlink:href="#au"/><clipPath id="ff"><polygon points="431.69 653.23 431.69 667.22 444.55 659.4 444.55 645.42 431.69 653.23" style="fill:url(#bc)"/></clipPath><mask id="fg" x="431.69" y="637.61" width="12.87" height="37.42" maskUnits="userSpaceOnUse"><polygon points="444.55 667.22 444.55 637.61 431.69 645.42 431.69 675.03 444.55 667.22" style="fill:url(#k)"/></mask><linearGradient id="fh" x1="73.37" y1="634.32" x2="75.72" y2="634.32" gradientTransform="matrix(0, -11.59, 10.1, -6.13, -5965.82, 5401.87)" xlink:href="#au"/><clipPath id="fj"><polygon points="431.69 626.52 431.69 640.5 444.55 632.69 444.55 618.71 431.69 626.52" style="fill:url(#bd)"/></clipPath><mask id="fk" x="431.69" y="610.9" width="12.87" height="37.42" maskUnits="userSpaceOnUse"><polygon points="444.55 640.5 444.55 610.9 431.69 618.71 431.69 648.32 444.55 640.5" style="fill:url(#l)"/></mask><linearGradient id="fl" x1="74.69" y1="634.32" x2="77.04" y2="634.32" gradientTransform="matrix(0, -11.59, 10.1, -6.13, -5965.82, 5390.49)" xlink:href="#au"/><clipPath id="fn"><polygon points="431.69 509.55 431.69 613.8 444.55 605.98 444.55 501.74 431.69 509.55" style="fill:url(#bf)"/></clipPath><mask id="fo" x="431.69" y="493.92" width="12.87" height="127.69" maskUnits="userSpaceOnUse"><polygon points="444.55 613.8 444.55 493.92 431.69 501.74 431.69 621.61 444.55 613.8" style="fill:url(#n)"/></mask><linearGradient id="fp" x1="93.29" y1="630.58" x2="95.64" y2="630.58" gradientTransform="matrix(0, -86.4, 75.27, -45.7, -47025.08, 37488.78)" xlink:href="#au"/><clipPath id="fr"><polygon points="454.41 636.93 454.41 643.39 460.35 639.78 460.35 633.32 454.41 636.93" style="fill:url(#bg)"/></clipPath><mask id="fs" x="454.41" y="629.72" width="5.94" height="17.28" maskUnits="userSpaceOnUse"><polygon points="460.35 643.39 460.35 629.72 454.41 633.32 454.41 646.99 460.35 643.39" style="fill:url(#o)"/></mask><linearGradient id="ft" x1="48.07" y1="641.72" x2="50.43" y2="641.72" gradientTransform="matrix(0, -5.35, 4.66, -2.83, -2533.68, 2714.9)" xlink:href="#au"/><clipPath id="fv"><polygon points="454.41 649.22 454.41 655.68 460.35 652.07 460.35 645.61 454.41 649.22" style="fill:url(#bh)"/></clipPath><mask id="fw" x="454.41" y="642.01" width="5.94" height="17.28" maskUnits="userSpaceOnUse"><polygon points="460.35 655.68 460.35 642 454.41 645.61 454.41 659.28 460.35 655.68" style="fill:url(#p)"/></mask><linearGradient id="fx" x1="46.76" y1="641.72" x2="49.11" y2="641.72" gradientTransform="matrix(0, -5.35, 4.66, -2.83, -2533.68, 2720.13)" xlink:href="#au"/><clipPath id="fz"><polygon points="454.41 661.51 454.41 667.97 460.35 664.36 460.35 657.9 454.41 661.51" style="fill:url(#bi)"/></clipPath><mask id="ga" x="454.41" y="654.3" width="5.94" height="17.28" maskUnits="userSpaceOnUse"><polygon points="460.35 667.97 460.35 654.3 454.41 657.9 454.41 671.57 460.35 667.97" style="fill:url(#q)"/></mask><linearGradient id="gb" x1="45.44" y1="641.72" x2="47.79" y2="641.72" gradientTransform="matrix(0, -5.35, 4.66, -2.83, -2533.68, 2725.36)" xlink:href="#au"/><clipPath id="gd"><polygon points="438.91 414.02 438.91 449.1 443.27 446.45 443.27 411.38 438.91 414.02" style="fill:url(#bj)"/></clipPath><mask id="ge" x="438.91" y="408.73" width="4.36" height="43.01" maskUnits="userSpaceOnUse"><polygon points="443.27 449.1 443.27 408.73 438.91 411.38 438.91 451.74 443.27 449.1" style="fill:url(#r)"/></mask><linearGradient id="gf" x1="89.48" y1="632.41" x2="91.83" y2="632.41" gradientTransform="matrix(0, -21.48, 18.71, -11.36, -11392.32, 9555.01)" xlink:href="#au"/><clipPath id="gh"><polygon points="438.12 464.58 438.12 471.04 444.06 467.43 444.06 460.97 438.12 464.58" style="fill:url(#bk)"/></clipPath><mask id="gi" x="438.12" y="457.36" width="5.94" height="17.28" maskUnits="userSpaceOnUse"><polygon points="444.06 471.04 444.06 457.37 438.12 460.97 438.12 474.64 444.06 471.04" style="fill:url(#s)"/></mask><linearGradient id="gj" x1="67.64" y1="639.71" x2="69.99" y2="639.71" gradientTransform="matrix(0, -5.35, 4.66, -2.83, -2540.62, 2641.55)" xlink:href="#au"/><clipPath id="gl"><polygon points="438.12 476.87 438.12 483.33 444.06 479.72 444.06 473.26 438.12 476.87" style="fill:url(#bl)"/></clipPath><mask id="gm" x="438.12" y="469.65" width="5.94" height="17.28" maskUnits="userSpaceOnUse"><polygon points="444.06 483.33 444.06 469.65 438.12 473.26 438.12 486.94 444.06 483.33" style="fill:url(#t)"/></mask><linearGradient id="gn" x1="66.33" y1="639.71" x2="68.68" y2="639.71" gradientTransform="matrix(0, -5.35, 4.66, -2.83, -2540.62, 2646.79)" xlink:href="#au"/><clipPath id="gp"><polygon points="438.12 489.16 438.12 495.62 444.06 492.01 444.06 485.56 438.12 489.16" style="fill:url(#bm)"/></clipPath><mask id="gq" x="438.12" y="481.95" width="5.94" height="17.28" maskUnits="userSpaceOnUse"><polygon points="444.06 495.62 444.06 481.95 438.12 485.56 438.12 499.22 444.06 495.62" style="fill:url(#u)"/></mask><linearGradient id="gr" x1="65.01" y1="639.71" x2="67.35" y2="639.71" gradientTransform="matrix(0, -5.35, 4.66, -2.83, -2540.62, 2652.01)" xlink:href="#au"/><clipPath id="gt"><polygon points="394.67 357.21 394.67 392.28 399.03 389.63 399.03 354.56 394.67 357.21" style="fill:url(#bn)"/></clipPath><mask id="gu" x="394.67" y="351.92" width="4.35" height="43" maskUnits="userSpaceOnUse"><polygon points="399.03 392.28 399.03 351.92 394.67 354.56 394.67 394.92 399.03 392.28" style="fill:url(#v)"/></mask><linearGradient id="gv" x1="91.72" y1="631.05" x2="94.07" y2="631.05" gradientTransform="matrix(0, -21.48, 18.71, -11.36, -11411.15, 9530.87)" xlink:href="#au"/><clipPath id="gx"><polygon points="393.88 407.76 393.88 414.22 399.82 410.61 399.82 404.15 393.88 407.76" style="fill:url(#bo)"/></clipPath><mask id="gy" x="393.88" y="400.55" width="5.94" height="17.28" maskUnits="userSpaceOnUse"><polygon points="399.82 414.22 399.82 400.55 393.88 404.15 393.88 417.83 399.82 414.22" style="fill:url(#w)"/></mask><linearGradient id="gz" x1="76.63" y1="634.26" x2="78.98" y2="634.26" gradientTransform="matrix(0, -5.35, 4.66, -2.83, -2559.44, 2617.37)" xlink:href="#au"/><clipPath id="hb"><polygon points="393.88 420.05 393.88 426.51 399.82 422.9 399.82 416.44 393.88 420.05" style="fill:url(#bq)"/></clipPath><mask id="hc" x="393.88" y="412.84" width="5.94" height="17.28" maskUnits="userSpaceOnUse"><polygon points="399.82 426.51 399.82 412.84 393.88 416.44 393.88 430.12 399.82 426.51" style="fill:url(#y)"/></mask><linearGradient id="hd" x1="75.31" y1="634.26" x2="77.66" y2="634.26" gradientTransform="matrix(0, -5.35, 4.66, -2.83, -2559.44, 2622.61)" xlink:href="#au"/><clipPath id="hf"><polygon points="393.88 432.34 393.88 438.8 399.82 435.19 399.82 428.74 393.88 432.34" style="fill:url(#br)"/></clipPath><mask id="hg" x="393.88" y="425.13" width="5.94" height="17.28" maskUnits="userSpaceOnUse"><polygon points="399.82 438.8 399.82 425.13 393.88 428.74 393.88 442.41 399.82 438.8" style="fill:url(#z)"/></mask><linearGradient id="hh" x1="73.99" y1="634.26" x2="76.34" y2="634.26" gradientTransform="matrix(0, -5.35, 4.66, -2.83, -2559.44, 2627.83)" xlink:href="#au"/><clipPath id="hj"><polygon points="384.76 467.67 384.76 490.34 387.58 488.63 387.58 465.96 384.76 467.67" style="fill:url(#bs)"/></clipPath><mask id="hk" x="384.76" y="464.25" width="2.82" height="27.8" maskUnits="userSpaceOnUse"><polygon points="387.58 490.34 387.58 464.25 384.76 465.96 384.76 492.05 387.58 490.34" style="fill:url(#aa)"/></mask><linearGradient id="hl" x1="85.55" y1="631.14" x2="87.9" y2="631.14" gradientTransform="matrix(0, -13.88, 12.1, -7.34, -7247.68, 6312.64)" xlink:href="#au"/><clipPath id="hn"><polygon points="384.25 500.35 384.25 504.53 388.09 502.19 388.09 498.02 384.25 500.35" style="fill:url(#bt)"/></clipPath><mask id="ho" x="384.25" y="495.69" width="3.84" height="11.17" maskUnits="userSpaceOnUse"><polygon points="388.09 504.53 388.09 495.69 384.25 498.02 384.25 506.86 388.09 504.53" style="fill:url(#ab)"/></mask><linearGradient id="hp" x1="51.9" y1="634.6" x2="54.25" y2="634.6" gradientTransform="matrix(0, -3.46, 3.01, -1.83, -1525.81, 1843.8)" xlink:href="#au"/><clipPath id="hr"><polygon points="384.25 508.29 384.25 512.47 388.09 510.14 388.09 505.96 384.25 508.29" style="fill:url(#bu)"/></clipPath><mask id="hs" x="384.25" y="503.63" width="3.84" height="11.17" maskUnits="userSpaceOnUse"><polygon points="388.09 512.47 388.09 503.63 384.25 505.96 384.25 514.8 388.09 512.47" style="fill:url(#ac)"/></mask><linearGradient id="ht" x1="50.58" y1="634.6" x2="52.93" y2="634.6" gradientTransform="matrix(0, -3.46, 3.01, -1.83, -1525.81, 1847.18)" xlink:href="#au"/><clipPath id="hv"><polygon points="384.25 516.24 384.25 520.41 388.09 518.08 388.09 513.91 384.25 516.24" style="fill:url(#bv)"/></clipPath><mask id="hw" x="384.25" y="511.57" width="3.84" height="11.17" maskUnits="userSpaceOnUse"><polygon points="388.09 520.41 388.09 511.57 384.25 513.91 384.25 522.74 388.09 520.41" style="fill:url(#ad)"/></mask><linearGradient id="hx" x1="49.26" y1="634.6" x2="51.61" y2="634.6" gradientTransform="matrix(0, -3.46, 3.01, -1.83, -1525.81, 1850.56)" xlink:href="#au"/><clipPath id="hz"><polygon points="384.76 528.62 384.76 551.29 387.58 549.58 387.58 526.91 384.76 528.62" style="fill:url(#bw)"/></clipPath><mask id="ia" x="384.76" y="525.2" width="2.82" height="27.81" maskUnits="userSpaceOnUse"><polygon points="387.58 551.29 387.58 525.2 384.76 526.91 384.76 553 387.58 551.29" style="fill:url(#ae)"/></mask><linearGradient id="ib" x1="83.03" y1="631.14" x2="85.38" y2="631.14" gradientTransform="matrix(0, -13.88, 12.1, -7.34, -7247.68, 6338.58)" xlink:href="#au"/><clipPath id="id"><polygon points="384.25 561.3 384.25 565.47 388.09 563.14 388.09 558.96 384.25 561.3" style="fill:url(#bx)"/></clipPath><mask id="ie" x="384.25" y="556.63" width="3.84" height="11.17" maskUnits="userSpaceOnUse"><polygon points="388.09 565.47 388.09 556.63 384.25 558.97 384.25 567.8 388.09 565.47" style="fill:url(#af)"/></mask><linearGradient id="if" x1="41.78" y1="634.6" x2="44.13" y2="634.6" gradientTransform="matrix(0, -3.46, 3.01, -1.83, -1525.81, 1869.74)" xlink:href="#au"/><clipPath id="ih"><polygon points="384.25 569.24 384.25 573.42 388.09 571.09 388.09 566.91 384.25 569.24" style="fill:url(#by)"/></clipPath><mask id="ii" x="384.25" y="564.58" width="3.84" height="11.17" maskUnits="userSpaceOnUse"><polygon points="388.09 573.42 388.09 564.58 384.25 566.91 384.25 575.75 388.09 573.42" style="fill:url(#ag)"/></mask><linearGradient id="ij" x1="40.46" y1="634.6" x2="42.81" y2="634.6" gradientTransform="matrix(0, -3.46, 3.01, -1.83, -1525.81, 1873.11)" xlink:href="#au"/><clipPath id="il"><polygon points="384.25 577.19 384.25 581.36 388.09 579.03 388.09 574.86 384.25 577.19" style="fill:url(#bz)"/></clipPath><mask id="im" x="384.25" y="572.52" width="3.84" height="11.17" maskUnits="userSpaceOnUse"><polygon points="388.09 581.36 388.09 572.52 384.25 574.86 384.25 583.7 388.09 581.36" style="fill:url(#ah)"/></mask><linearGradient id="in" x1="39.14" y1="634.6" x2="41.49" y2="634.6" gradientTransform="matrix(0, -3.46, 3.01, -1.83, -1525.81, 1876.5)" xlink:href="#au"/><clipPath id="ip"><polygon points="384.76 589.57 384.76 612.24 387.58 610.53 387.58 587.86 384.76 589.57" style="fill:url(#cb)"/></clipPath><mask id="iq" x="384.76" y="586.15" width="2.82" height="27.81" maskUnits="userSpaceOnUse"><polygon points="387.58 612.24 387.58 586.15 384.76 587.86 384.76 613.95 387.58 612.24" style="fill:url(#aj)"/></mask><linearGradient id="ir" x1="80.51" y1="631.14" x2="82.86" y2="631.14" gradientTransform="matrix(0, -13.88, 12.1, -7.34, -7247.68, 6364.51)" xlink:href="#au"/><clipPath id="it"><polygon points="384.25 622.25 384.25 626.42 388.09 624.09 388.09 619.92 384.25 622.25" style="fill:url(#cc)"/></clipPath><mask id="iu" x="384.25" y="617.58" width="3.84" height="11.17" maskUnits="userSpaceOnUse"><polygon points="388.09 626.42 388.09 617.58 384.25 619.92 384.25 628.76 388.09 626.42" style="fill:url(#ak)"/></mask><linearGradient id="iv" x1="31.65" y1="634.6" x2="34" y2="634.6" gradientTransform="matrix(0, -3.46, 3.01, -1.83, -1525.81, 1895.67)" xlink:href="#au"/><clipPath id="ix"><polygon points="384.25 630.19 384.25 634.37 388.09 632.03 388.09 627.86 384.25 630.19" style="fill:url(#cd)"/></clipPath><mask id="iy" x="384.25" y="625.53" width="3.84" height="11.17" maskUnits="userSpaceOnUse"><polygon points="388.09 634.37 388.09 625.53 384.25 627.86 384.25 636.7 388.09 634.37" style="fill:url(#al)"/></mask><linearGradient id="iz" x1="30.34" y1="634.6" x2="32.69" y2="634.6" gradientTransform="matrix(0, -3.46, 3.01, -1.83, -1525.81, 1899.05)" xlink:href="#au"/><clipPath id="jb"><polygon points="384.25 638.14 384.25 642.31 388.09 639.98 388.09 635.8 384.25 638.14" style="fill:url(#ce)"/></clipPath><mask id="jc" x="384.25" y="633.47" width="3.84" height="11.17" maskUnits="userSpaceOnUse"><polygon points="388.09 642.31 388.09 633.47 384.25 635.8 384.25 644.64 388.09 642.31" style="fill:url(#am)"/></mask><linearGradient id="jd" x1="29.02" y1="634.6" x2="31.37" y2="634.6" gradientTransform="matrix(0, -3.46, 3.01, -1.83, -1525.81, 1902.43)" xlink:href="#au"/></defs><title>b1-2</title><rect width="690" height="760" style="fill:none"/><polygon points="478.77 156.71 470.24 161.89 470.24 152.63 478.77 147.45 478.77 156.71" style="fill:url(#as)"/><g style="clip-path:url(#cl)"><g style="mask:url(#cm)"><polygon points="478.77 161.89 478.77 142.28 470.24 147.45 470.24 167.06 478.77 161.89" style="fill:url(#cn)"/></g></g><polygon points="478.77 139.02 470.24 144.2 470.24 134.93 478.77 129.76 478.77 139.02" style="fill:url(#at)"/><g style="clip-path:url(#cp)"><g style="mask:url(#cq)"><polygon points="478.77 144.2 478.77 124.58 470.24 129.76 470.24 149.37 478.77 144.2" style="fill:url(#cr)"/></g></g><polygon points="205.34 519.82 220.81 529.21 220.81 477.47 205.34 468.08 205.34 519.82" style="fill:url(#be)"/><g style="clip-path:url(#ct)"><g style="mask:url(#cu)"><polygon points="205.34 529.21 205.34 458.69 220.81 468.08 220.81 538.6 205.34 529.21" style="fill:url(#cv)"/></g></g><polygon points="205.34 449.62 220.81 459.01 220.81 334.54 205.34 325.15 205.34 449.62" style="fill:url(#bp)"/><g style="clip-path:url(#cx)"><g style="mask:url(#cy)"><polygon points="205.34 459.01 205.34 315.76 220.81 325.15 220.81 468.4 205.34 459.01" style="fill:url(#cz)"/></g></g><polygon points="278.34 618.88 284.61 622.68 284.61 572.22 278.34 568.41 278.34 618.88" style="fill:url(#ca)"/><g style="clip-path:url(#db)"><g style="mask:url(#dc)"><polygon points="278.34 622.68 278.34 564.6 284.61 568.41 284.61 626.49 278.34 622.68" style="fill:url(#dd)"/></g></g><polygon points="232.02 466.07 237.26 469.25 237.26 427.1 232.02 423.92 232.02 466.07" style="fill:url(#cf)"/><g style="clip-path:url(#df)"><g style="mask:url(#dg)"><polygon points="232.02 469.25 232.02 420.74 237.26 423.92 237.26 472.43 232.02 469.25" style="fill:url(#dh)"/></g></g><polygon points="250.06 546.97 265.52 556.36 265.52 539.55 250.06 530.16 250.06 546.97" style="fill:url(#cg)"/><g style="clip-path:url(#dj)"><g style="mask:url(#dk)"><polygon points="250.06 556.36 250.06 520.77 265.52 530.16 265.52 565.75 250.06 556.36" style="fill:url(#dl)"/></g></g><polygon points="250.06 514.87 265.52 524.26 265.52 507.45 250.06 498.06 250.06 514.87" style="fill:url(#ch)"/><g style="clip-path:url(#dn)"><g style="mask:url(#do)"><polygon points="250.06 524.26 250.06 488.67 265.52 498.06 265.52 533.65 250.06 524.26" style="fill:url(#dp)"/></g></g><polygon points="250.06 482.76 265.52 492.15 265.52 475.35 250.06 465.96 250.06 482.76" style="fill:url(#ci)"/><g style="clip-path:url(#dr)"><g style="mask:url(#ds)"><polygon points="250.06 492.15 250.06 456.57 265.52 465.96 265.52 501.54 250.06 492.15" style="fill:url(#dt)"/></g></g><polygon points="250.06 450.67 265.52 460.05 265.52 443.25 250.06 433.86 250.06 450.67" style="fill:url(#cj)"/><g style="clip-path:url(#dv)"><g style="mask:url(#dw)"><polygon points="250.06 460.05 250.06 424.47 265.52 433.86 265.52 469.44 250.06 460.05" style="fill:url(#dx)"/></g></g><polygon points="231.06 491.28 238.21 495.62 238.21 487.86 231.06 483.52 231.06 491.28" style="fill:url(#au)"/><g style="clip-path:url(#dz)"><g style="mask:url(#ea)"><polygon points="231.06 495.62 231.06 479.19 238.21 483.52 238.21 499.95 231.06 495.62" style="fill:url(#eb)"/></g></g><polygon points="231.06 506.05 238.21 510.39 238.21 502.63 231.06 498.29 231.06 506.05" style="fill:url(#av)"/><g style="clip-path:url(#ed)"><g style="mask:url(#ee)"><polygon points="231.06 510.39 231.06 493.96 238.21 498.29 238.21 514.72 231.06 510.39" style="fill:url(#ef)"/></g></g><polygon points="231.06 520.82 238.21 525.16 238.21 517.4 231.06 513.06 231.06 520.82" style="fill:url(#aw)"/><g style="clip-path:url(#eh)"><g style="mask:url(#ei)"><polygon points="231.06 525.16 231.06 508.73 238.21 513.06 238.21 529.49 231.06 525.16" style="fill:url(#ej)"/></g></g><polygon points="468.89 628.29 468.89 671.34 481.76 663.52 481.76 620.48 468.89 628.29" style="fill:url(#ax)"/><g style="clip-path:url(#el)"><g style="mask:url(#em)"><polygon points="481.76 671.34 481.76 612.66 468.89 620.48 468.89 679.15 481.76 671.34" style="fill:url(#en)"/></g></g><polygon points="468.89 410.48 468.89 612.92 481.76 605.11 481.76 402.66 468.89 410.48" style="fill:url(#ay)"/><g style="clip-path:url(#ep)"><g style="mask:url(#eq)"><polygon points="481.76 612.92 481.76 394.85 468.89 402.66 468.89 620.74 481.76 612.92" style="fill:url(#er)"/></g></g><polygon points="415.8 673.89 415.8 715.88 421.01 712.72 421.01 670.72 415.8 673.89" style="fill:url(#az)"/><g style="clip-path:url(#et)"><g style="mask:url(#eu)"><polygon points="421.01 715.88 421.01 667.55 415.8 670.72 415.8 719.05 421.01 715.88" style="fill:url(#ev)"/></g></g><polygon points="455.21 586.37 455.21 621.45 459.56 618.8 459.56 583.73 455.21 586.37" style="fill:url(#ba)"/><g style="clip-path:url(#ex)"><g style="mask:url(#ey)"><polygon points="459.56 621.45 459.56 581.08 455.21 583.73 455.21 624.09 459.56 621.45" style="fill:url(#ez)"/></g></g><polygon points="431.69 679.94 431.69 693.93 444.55 686.11 444.55 672.13 431.69 679.94" style="fill:url(#bb)"/><g style="clip-path:url(#fb)"><g style="mask:url(#fc)"><polygon points="444.55 693.93 444.55 664.32 431.69 672.13 431.69 701.74 444.55 693.93" style="fill:url(#fd)"/></g></g><polygon points="431.69 653.23 431.69 667.22 444.55 659.4 444.55 645.42 431.69 653.23" style="fill:url(#bc)"/><g style="clip-path:url(#ff)"><g style="mask:url(#fg)"><polygon points="444.55 667.22 444.55 637.61 431.69 645.42 431.69 675.03 444.55 667.22" style="fill:url(#fh)"/></g></g><polygon points="431.69 626.52 431.69 640.5 444.55 632.69 444.55 618.71 431.69 626.52" style="fill:url(#bd)"/><g style="clip-path:url(#fj)"><g style="mask:url(#fk)"><polygon points="444.55 640.5 444.55 610.9 431.69 618.71 431.69 648.32 444.55 640.5" style="fill:url(#fl)"/></g></g><polygon points="431.69 509.55 431.69 613.8 444.55 605.98 444.55 501.74 431.69 509.55" style="fill:url(#bf)"/><g style="clip-path:url(#fn)"><g style="mask:url(#fo)"><polygon points="444.55 613.8 444.55 493.92 431.69 501.74 431.69 621.61 444.55 613.8" style="fill:url(#fp)"/></g></g><polygon points="454.41 636.93 454.41 643.39 460.35 639.78 460.35 633.32 454.41 636.93" style="fill:url(#bg)"/><g style="clip-path:url(#fr)"><g style="mask:url(#fs)"><polygon points="460.35 643.39 460.35 629.72 454.41 633.32 454.41 646.99 460.35 643.39" style="fill:url(#ft)"/></g></g><polygon points="454.41 649.22 454.41 655.68 460.35 652.07 460.35 645.61 454.41 649.22" style="fill:url(#bh)"/><g style="clip-path:url(#fv)"><g style="mask:url(#fw)"><polygon points="460.35 655.68 460.35 642 454.41 645.61 454.41 659.28 460.35 655.68" style="fill:url(#fx)"/></g></g><polygon points="454.41 661.51 454.41 667.97 460.35 664.36 460.35 657.9 454.41 661.51" style="fill:url(#bi)"/><g style="clip-path:url(#fz)"><g style="mask:url(#ga)"><polygon points="460.35 667.97 460.35 654.3 454.41 657.9 454.41 671.57 460.35 667.97" style="fill:url(#gb)"/></g></g><polygon points="438.91 414.02 438.91 449.1 443.27 446.45 443.27 411.38 438.91 414.02" style="fill:url(#bj)"/><g style="clip-path:url(#gd)"><g style="mask:url(#ge)"><polygon points="443.27 449.1 443.27 408.73 438.91 411.38 438.91 451.74 443.27 449.1" style="fill:url(#gf)"/></g></g><polygon points="438.12 464.58 438.12 471.04 444.06 467.43 444.06 460.97 438.12 464.58" style="fill:url(#bk)"/><g style="clip-path:url(#gh)"><g style="mask:url(#gi)"><polygon points="444.06 471.04 444.06 457.37 438.12 460.97 438.12 474.64 444.06 471.04" style="fill:url(#gj)"/></g></g><polygon points="438.12 476.87 438.12 483.33 444.06 479.72 444.06 473.26 438.12 476.87" style="fill:url(#bl)"/><g style="clip-path:url(#gl)"><g style="mask:url(#gm)"><polygon points="444.06 483.33 444.06 469.65 438.12 473.26 438.12 486.94 444.06 483.33" style="fill:url(#gn)"/></g></g><polygon points="438.12 489.16 438.12 495.62 444.06 492.01 444.06 485.56 438.12 489.16" style="fill:url(#bm)"/><g style="clip-path:url(#gp)"><g style="mask:url(#gq)"><polygon points="444.06 495.62 444.06 481.95 438.12 485.56 438.12 499.22 444.06 495.62" style="fill:url(#gr)"/></g></g><polygon points="394.67 357.21 394.67 392.28 399.03 389.63 399.03 354.56 394.67 357.21" style="fill:url(#bn)"/><g style="clip-path:url(#gt)"><g style="mask:url(#gu)"><polygon points="399.03 392.28 399.03 351.92 394.67 354.56 394.67 394.92 399.03 392.28" style="fill:url(#gv)"/></g></g><polygon points="393.88 407.76 393.88 414.22 399.82 410.61 399.82 404.15 393.88 407.76" style="fill:url(#bo)"/><g style="clip-path:url(#gx)"><g style="mask:url(#gy)"><polygon points="399.82 414.22 399.82 400.55 393.88 404.15 393.88 417.83 399.82 414.22" style="fill:url(#gz)"/></g></g><polygon points="393.88 420.05 393.88 426.51 399.82 422.9 399.82 416.44 393.88 420.05" style="fill:url(#bq)"/><g style="clip-path:url(#hb)"><g style="mask:url(#hc)"><polygon points="399.82 426.51 399.82 412.84 393.88 416.44 393.88 430.12 399.82 426.51" style="fill:url(#hd)"/></g></g><polygon points="393.88 432.34 393.88 438.8 399.82 435.19 399.82 428.74 393.88 432.34" style="fill:url(#br)"/><g style="clip-path:url(#hf)"><g style="mask:url(#hg)"><polygon points="399.82 438.8 399.82 425.13 393.88 428.74 393.88 442.41 399.82 438.8" style="fill:url(#hh)"/></g></g><polygon points="384.76 467.67 384.76 490.34 387.58 488.63 387.58 465.96 384.76 467.67" style="fill:url(#bs)"/><g style="clip-path:url(#hj)"><g style="mask:url(#hk)"><polygon points="387.58 490.34 387.58 464.25 384.76 465.96 384.76 492.05 387.58 490.34" style="fill:url(#hl)"/></g></g><polygon points="384.25 500.35 384.25 504.53 388.09 502.19 388.09 498.02 384.25 500.35" style="fill:url(#bt)"/><g style="clip-path:url(#hn)"><g style="mask:url(#ho)"><polygon points="388.09 504.53 388.09 495.69 384.25 498.02 384.25 506.86 388.09 504.53" style="fill:url(#hp)"/></g></g><polygon points="384.25 508.29 384.25 512.47 388.09 510.14 388.09 505.96 384.25 508.29" style="fill:url(#bu)"/><g style="clip-path:url(#hr)"><g style="mask:url(#hs)"><polygon points="388.09 512.47 388.09 503.63 384.25 505.96 384.25 514.8 388.09 512.47" style="fill:url(#ht)"/></g></g><polygon points="384.25 516.24 384.25 520.41 388.09 518.08 388.09 513.91 384.25 516.24" style="fill:url(#bv)"/><g style="clip-path:url(#hv)"><g style="mask:url(#hw)"><polygon points="388.09 520.41 388.09 511.57 384.25 513.91 384.25 522.74 388.09 520.41" style="fill:url(#hx)"/></g></g><polygon points="384.76 528.62 384.76 551.29 387.58 549.58 387.58 526.91 384.76 528.62" style="fill:url(#bw)"/><g style="clip-path:url(#hz)"><g style="mask:url(#ia)"><polygon points="387.58 551.29 387.58 525.2 384.76 526.91 384.76 553 387.58 551.29" style="fill:url(#ib)"/></g></g><polygon points="384.25 561.3 384.25 565.47 388.09 563.14 388.09 558.96 384.25 561.3" style="fill:url(#bx)"/><g style="clip-path:url(#id)"><g style="mask:url(#ie)"><polygon points="388.09 565.47 388.09 556.63 384.25 558.96 384.25 567.8 388.09 565.47" style="fill:url(#if)"/></g></g><polygon points="384.25 569.24 384.25 573.42 388.09 571.09 388.09 566.91 384.25 569.24" style="fill:url(#by)"/><g style="clip-path:url(#ih)"><g style="mask:url(#ii)"><polygon points="388.09 573.42 388.09 564.58 384.25 566.91 384.25 575.75 388.09 573.42" style="fill:url(#ij)"/></g></g><polygon points="384.25 577.19 384.25 581.36 388.09 579.03 388.09 574.86 384.25 577.19" style="fill:url(#bz)"/><g style="clip-path:url(#il)"><g style="mask:url(#im)"><polygon points="388.09 581.36 388.09 572.52 384.25 574.86 384.25 583.7 388.09 581.36" style="fill:url(#in)"/></g></g><polygon points="384.76 589.57 384.76 612.24 387.58 610.53 387.58 587.86 384.76 589.57" style="fill:url(#cb)"/><g style="clip-path:url(#ip)"><g style="mask:url(#iq)"><polygon points="387.58 612.24 387.58 586.15 384.76 587.86 384.76 613.95 387.58 612.24" style="fill:url(#ir)"/></g></g><polygon points="384.25 622.25 384.25 626.42 388.09 624.09 388.09 619.92 384.25 622.25" style="fill:url(#cc)"/><g style="clip-path:url(#it)"><g style="mask:url(#iu)"><polygon points="388.09 626.42 388.09 617.58 384.25 619.92 384.25 628.76 388.09 626.42" style="fill:url(#iv)"/></g></g><polygon points="384.25 630.19 384.25 634.37 388.09 632.03 388.09 627.86 384.25 630.19" style="fill:url(#cd)"/><g style="clip-path:url(#ix)"><g style="mask:url(#iy)"><polygon points="388.09 634.37 388.09 625.53 384.25 627.86 384.25 636.7 388.09 634.37" style="fill:url(#iz)"/></g></g><polygon points="384.25 638.14 384.25 642.31 388.09 639.98 388.09 635.8 384.25 638.14" style="fill:url(#ce)"/><g style="clip-path:url(#jb)"><g style="mask:url(#jc)"><polygon points="388.09 642.31 388.09 633.47 384.25 635.8 384.25 644.64 388.09 642.31" style="fill:url(#jd)"/></g></g></svg>