<svg xmlns="http://www.w3.org/2000/svg" xmlns:xlink="http://www.w3.org/1999/xlink" viewBox="0 0 690 760"><defs><linearGradient id="a" x1="91.96" y1="625.34" x2="93.88" y2="625.34" gradientTransform="matrix(0.44, 21.11, 36.61, 0.28, -22845.99, -1816.19)" gradientUnits="userSpaceOnUse"><stop offset="0" stop-color="#fff"/><stop offset="0.29" stop-color="#a6a6a6"/><stop offset="0.54" stop-color="#5f5f5f"/><stop offset="0.75" stop-color="#2c2c2c"/><stop offset="0.91" stop-color="#0c0c0c"/><stop offset="1"/><stop offset="1"/></linearGradient><radialGradient id="b" cx="73.82" cy="626.24" r="1.92" gradientTransform="matrix(7.97, 4.61, 0, -9.03, -512.34, 5651.86)" gradientUnits="userSpaceOnUse"><stop offset="0"/><stop offset="0"/><stop offset="0.2" stop-color="#030303"/><stop offset="0.33" stop-color="#0c0c0c"/><stop offset="0.45" stop-color="#1b1b1b"/><stop offset="0.55" stop-color="#303030"/><stop offset="0.65" stop-color="#4c4c4c"/><stop offset="0.74" stop-color="#6f6f6f"/><stop offset="0.83" stop-color="#979797"/><stop offset="0.91" stop-color="#c7c7c7"/><stop offset="0.99" stop-color="#fafafa"/><stop offset="1" stop-color="#fff"/></radialGradient><linearGradient id="c" x1="88.24" y1="620.38" x2="90.46" y2="620.38" gradientTransform="matrix(0.21, 10.21, 17.7, 0.13, -10911.42, -671.02)" gradientUnits="userSpaceOnUse"><stop offset="0" stop-color="#fff"/><stop offset="0" stop-color="#fff"/><stop offset="0.25" stop-color="#fdfdfd"/><stop offset="0.37" stop-color="#f5f5f5"/><stop offset="0.46" stop-color="#e8e8e8"/><stop offset="0.54" stop-color="#d6d6d6"/><stop offset="0.6" stop-color="#bebebe"/><stop offset="0.66" stop-color="#a1a1a1"/><stop offset="0.72" stop-color="#7e7e7e"/><stop offset="0.77" stop-color="#555"/><stop offset="0.82" stop-color="#292929"/><stop offset="0.86"/><stop offset="1"/></linearGradient><linearGradient id="d" x1="86.39" y1="638.16" x2="87.77" y2="638.16" xlink:href="#a"/><radialGradient id="e" cx="132.69" cy="670.04" r="1.38" xlink:href="#b"/><radialGradient id="f" cx="61.93" cy="632.32" r="1.38" gradientTransform="matrix(-8.68, 5.01, 0, -9.83, 1094.24, 6117.95)" gradientUnits="userSpaceOnUse"><stop offset="0"/><stop offset="0"/><stop offset="0.37" stop-color="#020202"/><stop offset="0.51" stop-color="#090909"/><stop offset="0.6" stop-color="#141414"/><stop offset="0.68" stop-color="#252525"/><stop offset="0.75" stop-color="#3b3b3b"/><stop offset="0.81" stop-color="#575757"/><stop offset="0.86" stop-color="#777"/><stop offset="0.91" stop-color="#9d9d9d"/><stop offset="0.95" stop-color="#c8c8c8"/><stop offset="0.99" stop-color="#f6f6f6"/><stop offset="1" stop-color="#fff"/></radialGradient><linearGradient id="g" x1="78.92" y1="644.74" x2="80.3" y2="644.74" gradientTransform="matrix(0.25, 11.7, 20.29, 0.15, -12551.76, -827.58)" gradientUnits="userSpaceOnUse"><stop offset="0"/><stop offset="0"/><stop offset="0.09" stop-color="#363636"/><stop offset="0.2" stop-color="#6a6a6a"/><stop offset="0.3" stop-color="#989898"/><stop offset="0.4" stop-color="#bdbdbd"/><stop offset="0.5" stop-color="#dadada"/><stop offset="0.6" stop-color="#efefef"/><stop offset="0.7" stop-color="#fbfbfb"/><stop offset="0.8" stop-color="#fff"/><stop offset="1" stop-color="#fff"/></linearGradient><linearGradient id="h" x1="93.87" y1="674.08" x2="95.25" y2="674.08" gradientTransform="matrix(6.98, 11.94, 6.98, -3.88, -4818.51, 1691.77)" xlink:href="#g"/><linearGradient id="i" x1="78.48" y1="614.94" x2="79.86" y2="614.94" gradientTransform="matrix(-9.12, 15.61, -9.12, -5.06, 6889.79, 2088.2)" xlink:href="#g"/><linearGradient id="j" x1="59.65" y1="661.57" x2="61.03" y2="661.57" gradientTransform="matrix(0.11, 5.46, 9.47, 0.07, -5717.23, -170.66)" xlink:href="#g"/><linearGradient id="k" x1="91.65" y1="724.43" x2="93.03" y2="724.43" gradientTransform="matrix(3.26, 5.57, 3.26, -1.81, -2109.58, 1003.92)" xlink:href="#g"/><linearGradient id="l" x1="58.7" y1="597.81" x2="60.08" y2="597.81" gradientTransform="matrix(-4.26, 7.28, -4.26, -2.36, 3351.73, 1188.99)" xlink:href="#g"/><radialGradient id="m" cx="115.49" cy="646.93" r="1.92" xlink:href="#f"/><linearGradient id="n" x1="97.22" y1="628.14" x2="99.1" y2="628.14" gradientTransform="matrix(0, -158.7, -158.7, 0, 100235.71, 15636.37)" gradientUnits="userSpaceOnUse"><stop offset="0" stop-color="#fff"/><stop offset="0.06" stop-color="#d3d3d3"/><stop offset="0.14" stop-color="#a2a2a2"/><stop offset="0.22" stop-color="#777"/><stop offset="0.31" stop-color="#525252"/><stop offset="0.4" stop-color="#343434"/><stop offset="0.5" stop-color="#1d1d1d"/><stop offset="0.6" stop-color="#0d0d0d"/><stop offset="0.71" stop-color="#030303"/><stop offset="0.86"/><stop offset="1"/></linearGradient><linearGradient id="o" x1="76.34" y1="646.89" x2="77.94" y2="646.89" xlink:href="#c"/><linearGradient id="p" x1="100.34" y1="652.49" x2="106.09" y2="652.49" gradientTransform="matrix(0, -13.88, 12.1, -7.34, -7247.68, 6312.62)" gradientUnits="userSpaceOnUse"><stop offset="0" stop-color="#fff"/><stop offset="0.22" stop-color="#bbb"/><stop offset="0.5" stop-color="#6c6c6c"/><stop offset="0.73" stop-color="#323232"/><stop offset="0.9" stop-color="#0e0e0e"/><stop offset="0.99"/><stop offset="1"/></linearGradient><linearGradient id="q" x1="111.55" y1="720.31" x2="113.91" y2="720.31" gradientTransform="matrix(0, -3.46, 3.01, -1.83, -1525.81, 1843.79)" gradientUnits="userSpaceOnUse"><stop offset="0" stop-color="#fff"/><stop offset="0.16" stop-color="#bdbdbd"/><stop offset="0.36" stop-color="#6d6d6d"/><stop offset="0.53" stop-color="#323232"/><stop offset="0.66" stop-color="#0e0e0e"/><stop offset="0.72"/><stop offset="1"/></linearGradient><linearGradient id="r" x1="108.92" y1="720.31" x2="111.27" y2="720.31" gradientTransform="matrix(0, -3.46, 3.01, -1.83, -1525.81, 1850.56)" xlink:href="#p"/><linearGradient id="s" x1="109.37" y1="720.31" x2="111.72" y2="720.31" xlink:href="#q"/><linearGradient id="t" x1="99.7" y1="631.7" x2="105.45" y2="631.7" gradientTransform="matrix(0, -13.88, -12.1, -7.34, 7645.82, 6312.62)" xlink:href="#p"/><linearGradient id="u" x1="108.99" y1="636.87" x2="111.35" y2="636.87" gradientTransform="matrix(0, -3.46, -3.01, -1.83, 1923.94, 1843.79)" xlink:href="#q"/><linearGradient id="v" x1="106.36" y1="636.87" x2="108.71" y2="636.87" gradientTransform="matrix(0, -3.46, -3.01, -1.83, 1923.94, 1850.56)" xlink:href="#p"/><linearGradient id="w" x1="106.81" y1="636.87" x2="109.16" y2="636.87" gradientTransform="matrix(0, -3.46, -3.01, -1.83, 1923.94, 1843.79)" xlink:href="#q"/><linearGradient id="x" x1="89.31" y1="621.63" x2="91.23" y2="621.63" xlink:href="#g"/><linearGradient id="y" x1="89.9" y1="628.06" x2="93.14" y2="628.06" gradientTransform="matrix(0, -13.88, -12.1, -7.34, 7687.69, 6312.62)" xlink:href="#p"/><linearGradient id="z" x1="67.89" y1="622.22" x2="71.13" y2="622.22" gradientTransform="matrix(0, -3.46, -3.01, -1.83, 1965.81, 1843.79)" xlink:href="#q"/><linearGradient id="aa" x1="63.5" y1="622.22" x2="66.75" y2="622.22" gradientTransform="matrix(0, -3.46, -3.01, -1.83, 1965.81, 1850.56)" xlink:href="#p"/><linearGradient id="ab" x1="64.87" y1="622.22" x2="68.11" y2="622.22" gradientTransform="matrix(0, -3.46, -3.01, -1.83, 1965.81, 1843.79)" xlink:href="#q"/><linearGradient id="ac" x1="99.21" y1="624.93" x2="100.5" y2="624.93" gradientTransform="matrix(0, -25.81, 22.49, -13.65, -13516.42, 11423.95)" xlink:href="#p"/><linearGradient id="ad" x1="108.43" y1="609.54" x2="109.73" y2="609.54" gradientTransform="matrix(0, -6.43, 5.6, -3.4, -2877.72, 3115.15)" xlink:href="#q"/><linearGradient id="ae" x1="108.14" y1="609.54" x2="109.44" y2="609.54" gradientTransform="matrix(0, -6.43, 5.6, -3.4, -2877.72, 3121.43)" xlink:href="#q"/><linearGradient id="af" x1="107.85" y1="609.54" x2="109.15" y2="609.54" gradientTransform="matrix(0, -6.43, 5.6, -3.4, -2877.72, 3127.72)" xlink:href="#p"/><linearGradient id="ag" x1="85.58" y1="644.57" x2="86.87" y2="644.57" gradientTransform="matrix(0, -13.93, -12.13, -7.37, 7961.75, 6343.72)" xlink:href="#q"/><linearGradient id="ah" x1="85.87" y1="644.57" x2="87.16" y2="644.57" gradientTransform="matrix(0, -13.93, -12.13, -7.37, 7961.75, 6330.07)" xlink:href="#q"/><linearGradient id="ai" x1="84.94" y1="615.66" x2="86.86" y2="615.66" gradientTransform="matrix(6.98, 11.94, 6.98, -3.88, -4818.51, 1691.77)" xlink:href="#g"/><linearGradient id="aj" x1="87.04" y1="644.57" x2="88.34" y2="644.57" gradientTransform="matrix(0, -13.93, -12.13, -7.37, 7961.75, 6330.07)" xlink:href="#q"/><linearGradient id="ak" x1="96.66" y1="647.43" x2="98.58" y2="647.43" gradientTransform="matrix(-9.12, 15.61, -9.12, -5.06, 6889.79, 2088.2)" xlink:href="#g"/><linearGradient id="al" x1="82.42" y1="612.02" x2="84.34" y2="612.02" gradientTransform="matrix(0.11, 5.46, 9.47, 0.07, -5717.23, -170.66)" xlink:href="#g"/><linearGradient id="am" x1="72.9" y1="599.43" x2="74.82" y2="599.43" gradientTransform="matrix(3.26, 5.57, 3.26, -1.81, -2109.58, 1003.92)" xlink:href="#g"/><linearGradient id="an" x1="98.02" y1="667.63" x2="99.94" y2="667.63" gradientTransform="matrix(-4.26, 7.28, -4.26, -2.36, 3351.73, 1188.99)" xlink:href="#g"/><linearGradient id="ao" x1="96.44" y1="631.08" x2="99.07" y2="631.08" xlink:href="#n"/><linearGradient id="ap" x1="68.56" y1="321.91" x2="103.56" y2="321.91" gradientUnits="userSpaceOnUse"><stop offset="0" stop-color="#fff" stop-opacity="0"/><stop offset="0.34" stop-color="#fff" stop-opacity="0.12"/><stop offset="1" stop-color="#fff" stop-opacity="0.4"/></linearGradient><linearGradient id="aq" x1="68.56" y1="336.75" x2="86.06" y2="336.75" gradientUnits="userSpaceOnUse"><stop offset="0" stop-color="#c2c2c2" stop-opacity="0.2"/><stop offset="0.31" stop-color="#b2b2b2" stop-opacity="0.17"/><stop offset="0.7" stop-color="#858585" stop-opacity="0.09"/><stop offset="1" stop-color="#545454" stop-opacity="0"/></linearGradient><linearGradient id="ar" x1="76.34" y1="329.28" x2="94.52" y2="329.28" xlink:href="#ap"/><linearGradient id="as" x1="80.15" y1="333.12" x2="86.4" y2="333.12" xlink:href="#ap"/><linearGradient id="at" x1="80.15" y1="333.12" x2="86.4" y2="333.12" xlink:href="#ap"/><linearGradient id="au" x1="84.04" y1="333.12" x2="92.21" y2="333.12" xlink:href="#ap"/><linearGradient id="aw" x1="539.98" y1="201.61" x2="565.12" y2="201.61" xlink:href="#ap"/><linearGradient id="ax" x1="539.98" y1="212.27" x2="552.55" y2="212.27" xlink:href="#aq"/><linearGradient id="ay" x1="553.95" y1="207.38" x2="563.72" y2="217.16" gradientUnits="userSpaceOnUse"><stop offset="0" stop-color="#919191" stop-opacity="0"/><stop offset="0.74" stop-color="#767676" stop-opacity="0.29"/><stop offset="1" stop-color="#6b6b6b" stop-opacity="0.4"/></linearGradient><linearGradient id="az" x1="88.01" y1="329.94" x2="101.62" y2="343.55" xlink:href="#ay"/><linearGradient id="ba" x1="537.36" y1="204.8" x2="565.35" y2="204.8" xlink:href="#ap"/><linearGradient id="bb" x1="543.21" y1="210.71" x2="552.83" y2="210.71" xlink:href="#ap"/><linearGradient id="bc" x1="549.21" y1="210.71" x2="561.78" y2="210.71" xlink:href="#ap"/><linearGradient id="bd" x1="545.57" y1="206.91" x2="558.63" y2="206.91" xlink:href="#ap"/><linearGradient id="be" x1="545.58" y1="206.91" x2="558.63" y2="206.91" xlink:href="#ap"/><linearGradient id="bf" x1="548.31" y1="209.67" x2="552.8" y2="209.67" xlink:href="#ap"/><linearGradient id="bg" x1="548.31" y1="209.67" x2="552.8" y2="209.67" xlink:href="#ap"/><linearGradient id="bh" x1="551.1" y1="209.67" x2="556.97" y2="209.67" xlink:href="#ap"/><linearGradient id="bj" x1="643.12" y1="98.51" x2="646.64" y2="98.51" gradientUnits="userSpaceOnUse"><stop offset="0" stop-color="#bababa"/><stop offset="1" stop-color="#ebebeb"/></linearGradient><linearGradient id="bk" x1="643.46" y1="138.18" x2="646.99" y2="138.18" xlink:href="#bj"/><linearGradient id="bl" x1="643.46" y1="154.07" x2="646.99" y2="154.07" xlink:href="#bj"/><linearGradient id="bm" x1="643.46" y1="145.74" x2="646.99" y2="145.74" xlink:href="#bj"/><linearGradient id="bn" x1="3.81" y1="260" x2="7.34" y2="260" xlink:href="#bj"/><linearGradient id="bo" x1="4.15" y1="299.66" x2="7.68" y2="299.66" xlink:href="#bj"/><linearGradient id="bp" x1="64.91" y1="326.34" x2="103.88" y2="326.34" xlink:href="#ap"/><linearGradient id="bq" x1="4.15" y1="315.55" x2="7.68" y2="315.55" xlink:href="#bj"/><linearGradient id="br" x1="4.15" y1="307.23" x2="7.68" y2="307.23" xlink:href="#bj"/><linearGradient id="bs" x1="89.31" y1="435.86" x2="94.18" y2="435.86" xlink:href="#bj"/><linearGradient id="bt" x1="89.78" y1="467.77" x2="94.65" y2="467.77" xlink:href="#bj"/><linearGradient id="bu" x1="89.78" y1="489.71" x2="94.65" y2="489.71" xlink:href="#bj"/><linearGradient id="bv" x1="89.78" y1="478.21" x2="94.65" y2="478.21" xlink:href="#bj"/><linearGradient id="bw" x1="535.34" y1="319.12" x2="538.95" y2="319.12" xlink:href="#bj"/><linearGradient id="bx" x1="535.68" y1="342.81" x2="539.3" y2="342.81" xlink:href="#bj"/><linearGradient id="by" x1="535.69" y1="350.95" x2="539.3" y2="350.95" xlink:href="#bj"/><linearGradient id="bz" x1="535.68" y1="359.09" x2="539.3" y2="359.09" xlink:href="#bj"/><linearGradient id="ca" x1="138.98" y1="398.98" x2="146.82" y2="398.98" xlink:href="#bj"/><linearGradient id="cb" x1="138.98" y1="381.28" x2="146.82" y2="381.28" xlink:href="#bj"/><linearGradient id="cc" x1="138.98" y1="364.93" x2="146.82" y2="364.93" xlink:href="#bj"/><linearGradient id="cd" x1="73.04" y1="334.57" x2="86.45" y2="334.57" xlink:href="#ap"/><linearGradient id="ce" x1="81.4" y1="334.57" x2="98.9" y2="334.57" xlink:href="#ap"/><linearGradient id="cf" x1="76.34" y1="329.28" x2="94.52" y2="329.28" xlink:href="#ap"/><clipPath id="ch"><polygon points="68.56 321.77 86.04 331.86 103.56 321.78 85.62 311.95 68.56 321.77" style="fill:url(#ap)"/></clipPath><mask id="ci" x="68.13" y="311.68" width="35.85" height="20.46" maskUnits="userSpaceOnUse"><polygon points="103.56 311.95 103.99 332.13 68.56 331.86 68.13 311.68 103.56 311.95" style="fill:url(#a)"/></mask><linearGradient id="cj" x1="91.96" y1="625.34" x2="93.88" y2="625.34" gradientTransform="matrix(0.44, 21.11, 36.61, 0.28, -22845.99, -1816.19)" gradientUnits="userSpaceOnUse"><stop offset="0" stop-color="#7d7d7d"/><stop offset="1" stop-color="#e5f7ff"/><stop offset="1" stop-color="#d1d1d1"/></linearGradient><clipPath id="cl"><polygon points="68.56 341.61 86.06 351.72 86.06 331.89 68.56 321.78 68.56 341.61" style="fill:url(#aq)"/></clipPath><mask id="cm" x="68.56" y="311.67" width="17.5" height="50.16" maskUnits="userSpaceOnUse"><polygon points="68.56 311.67 86.06 321.78 86.06 361.83 68.56 351.72 68.56 311.67" style="fill:url(#b)"/></mask><linearGradient id="cn" x1="72.87" y1="626.3" x2="75.07" y2="626.3" gradientTransform="matrix(7.97, 4.61, 0, -9.03, -512.34, 5651.87)" gradientUnits="userSpaceOnUse"><stop offset="0" stop-color="#36ffff" stop-opacity="0.1"/><stop offset="0.21" stop-color="#2f8bcb" stop-opacity="0.05"/><stop offset="0.49" stop-color="#2b34a4" stop-opacity="0.01"/><stop offset="0.86" stop-color="#291898" stop-opacity="0"/></linearGradient><clipPath id="cp"><polygon points="86.06 331.89 86.06 351.72 103.56 341.61 103.56 321.78 86.06 331.89" style="fill:url(#az)"/></clipPath><mask id="cq" x="86.06" y="311.67" width="17.5" height="50.17" maskUnits="userSpaceOnUse"><polygon points="103.56 311.67 86.06 321.78 86.06 361.83 103.56 351.72 103.56 311.67" style="fill:url(#m)"/></mask><linearGradient id="cr" x1="114.18" y1="646.9" x2="116.19" y2="646.9" gradientTransform="matrix(-8.68, 5.01, 0, -9.83, 1094.24, 6117.95)" xlink:href="#cn"/><clipPath id="cs"/><clipPath id="cu"><polygon points="96.06 326.27 86.34 331.87 76.65 326.27 86.11 320.82 96.06 326.27" style="fill:url(#bp)"/></clipPath><mask id="cv" x="76.41" y="320.67" width="19.88" height="11.34" maskUnits="userSpaceOnUse"><polygon points="96.06 320.82 96.29 332.02 76.65 331.87 76.41 320.67 96.06 320.82" style="fill:url(#x)"/></mask><linearGradient id="cw" x1="89.31" y1="621.63" x2="91.23" y2="621.63" gradientTransform="matrix(0.25, 11.7, 20.29, 0.15, -12551.76, -827.58)" xlink:href="#ap"/><clipPath id="cz"><polygon points="86.36 342.87 76.65 337.27 76.65 326.27 86.36 331.88 86.36 342.87" style="fill:url(#cd)"/></clipPath><mask id="da" x="69.32" y="322.21" width="24.36" height="24.73" maskUnits="userSpaceOnUse"><polygon points="83.98 322.21 93.68 338.81 79.03 346.94 69.32 330.34 83.98 322.21" style="fill:url(#ai)"/></mask><linearGradient id="db" x1="84.94" y1="615.66" x2="86.86" y2="615.66" gradientTransform="matrix(6.98, 11.94, 6.98, -3.88, -4818.51, 1691.77)" xlink:href="#ap"/><clipPath id="de"><polygon points="86.36 342.87 96.06 337.27 96.06 326.27 86.36 331.88 86.36 342.87" style="fill:url(#ce)"/></clipPath><mask id="df" x="79.03" y="322.21" width="24.35" height="24.73" maskUnits="userSpaceOnUse"><polygon points="88.73 322.21 79.03 338.81 93.68 346.94 103.38 330.34 88.73 322.21" style="fill:url(#ak)"/></mask><linearGradient id="dg" x1="96.66" y1="647.43" x2="98.58" y2="647.43" gradientTransform="matrix(-9.12, 15.61, -9.12, -5.06, 6889.79, 2088.2)" xlink:href="#ap"/><clipPath id="di"><rect x="81.83" y="326.71" width="9.05" height="5.15" style="fill:url(#cf)"/></clipPath><clipPath id="dk"><polygon points="90.88 329.25 86.35 331.86 81.83 329.25 86.24 326.7 90.88 329.25" style="fill:url(#ar)"/></clipPath><mask id="dl" x="81.72" y="326.63" width="9.27" height="5.29" maskUnits="userSpaceOnUse"><polygon points="90.88 326.7 90.99 331.93 81.83 331.86 81.72 326.63 90.88 326.7" style="fill:url(#al)"/></mask><linearGradient id="dm" x1="82.41" y1="612.02" x2="84.34" y2="612.02" gradientTransform="matrix(0.11, 5.46, 9.47, 0.07, -5717.24, -170.66)" xlink:href="#ap"/><clipPath id="do"><rect x="81.83" y="329.25" width="4.53" height="7.74" style="fill:url(#as)"/></clipPath><clipPath id="dq"><polygon points="86.36 336.99 81.83 334.38 81.83 329.25 86.36 331.86 86.36 336.99" style="fill:url(#at)"/></clipPath><mask id="dr" x="78.41" y="327.35" width="11.36" height="11.54" maskUnits="userSpaceOnUse"><polygon points="85.25 327.35 89.77 335.1 82.94 338.89 78.41 331.15 85.25 327.35" style="fill:url(#am)"/></mask><linearGradient id="ds" x1="72.91" y1="599.43" x2="74.83" y2="599.43" gradientTransform="matrix(3.26, 5.57, 3.26, -1.81, -2109.58, 1003.92)" xlink:href="#ap"/><clipPath id="du"><rect x="86.36" y="329.25" width="4.53" height="7.74" style="fill:url(#au)"/></clipPath><clipPath id="dw"><polygon points="86.36 336.99 90.88 334.38 90.88 329.25 86.36 331.86 86.36 336.99" style="fill:url(#au)"/></clipPath><mask id="dx" x="82.94" y="327.35" width="11.36" height="11.54" maskUnits="userSpaceOnUse"><polygon points="87.46 327.35 82.94 335.1 89.77 338.89 94.3 331.15 87.46 327.35" style="fill:url(#an)"/></mask><linearGradient id="dy" x1="98.02" y1="667.63" x2="99.94" y2="667.63" gradientTransform="matrix(-4.26, 7.28, -4.26, -2.36, 3351.73, 1188.99)" xlink:href="#ap"/><clipPath id="dz"><polygon points="71.11 45.48 71.11 320.12 86.31 330.27 101.01 320.12 101.01 41.15 71.11 45.48" style="fill:none"/></clipPath><mask id="ea" x="71.11" y="41.15" width="29.9" height="289.12" maskUnits="userSpaceOnUse"><rect x="71.11" y="41.15" width="29.9" height="289.12" style="fill:url(#ao)"/></mask><linearGradient id="eb" x1="96.45" y1="631.08" x2="99.07" y2="631.08" gradientTransform="matrix(0, -158.7, -158.7, 0, 100235.71, 15636.37)" gradientUnits="userSpaceOnUse"><stop offset="0" stop-color="#c6b89e"/><stop offset="0.2" stop-color="#b7ad9c" stop-opacity="0.67"/><stop offset="0.4" stop-color="#a9a49a" stop-opacity="0.38"/><stop offset="0.56" stop-color="#a09e99" stop-opacity="0.17"/><stop offset="0.69" stop-color="#9a9998" stop-opacity="0.05"/><stop offset="0.77" stop-color="#989898" stop-opacity="0"/></linearGradient><clipPath id="ec"><polygon points="76.27 320.77 86.05 326.42 95.86 320.77 85.81 315.27 76.27 320.77" style="fill:none"/></clipPath><mask id="ed" x="76.03" y="315.12" width="20.07" height="11.45" maskUnits="userSpaceOnUse"><polygon points="95.86 315.27 96.09 326.57 76.27 326.42 76.03 315.12 95.86 315.27" style="fill:url(#c)"/></mask><linearGradient id="ee" x1="88.24" y1="620.38" x2="90.46" y2="620.38" gradientTransform="matrix(0.21, 10.21, 17.7, 0.13, -10911.42, -671.02)" gradientUnits="userSpaceOnUse"><stop offset="0" stop-color="#ff0d0d"/><stop offset="0.07" stop-color="#ff170c"/><stop offset="0.18" stop-color="#ff310a"/><stop offset="0.31" stop-color="#ff5a06"/><stop offset="0.43" stop-color="#ff8102"/><stop offset="0.54" stop-color="#ff5c06"/><stop offset="0.67" stop-color="#ff3a09"/><stop offset="0.8" stop-color="#ff210b"/><stop offset="0.91" stop-color="#ff120d"/><stop offset="1" stop-color="#ff0d0d"/></linearGradient><clipPath id="eg"><polygon points="539.99 201.52 552.54 208.76 565.12 201.52 552.24 194.46 539.99 201.52" style="fill:url(#aw)"/></clipPath><mask id="eh" x="539.68" y="194.27" width="25.75" height="14.69" maskUnits="userSpaceOnUse"><polygon points="565.12 194.46 565.43 208.96 539.99 208.76 539.68 194.27 565.12 194.46" style="fill:url(#d)"/></mask><linearGradient id="ei" x1="86.39" y1="638.16" x2="87.77" y2="638.16" xlink:href="#cj"/><clipPath id="ek"><polygon points="539.99 215.76 552.55 223.02 552.55 208.78 539.99 201.52 539.99 215.76" style="fill:url(#ax)"/></clipPath><mask id="el" x="539.98" y="194.26" width="12.57" height="36.02" maskUnits="userSpaceOnUse"><polygon points="539.99 194.26 552.55 201.52 552.55 230.28 539.99 223.02 539.99 194.26" style="fill:url(#e)"/></mask><linearGradient id="em" x1="132.01" y1="670.08" x2="133.59" y2="670.08" xlink:href="#cn"/><clipPath id="eo"><polygon points="552.55 208.78 552.55 223.02 565.12 215.76 565.12 201.52 552.55 208.78" style="fill:url(#ay)"/></clipPath><mask id="ep" x="552.55" y="194.26" width="12.57" height="36.02" maskUnits="userSpaceOnUse"><polygon points="565.12 194.26 552.55 201.52 552.55 230.28 565.12 223.02 565.12 194.26" style="fill:url(#f)"/></mask><linearGradient id="eq" x1="60.98" y1="632.29" x2="62.43" y2="632.29" gradientTransform="matrix(-8.68, 5.01, 0, -9.83, 1094.24, 6117.95)" xlink:href="#cn"/><clipPath id="et"><polygon points="559.73 204.75 552.75 208.77 545.79 204.75 552.59 200.83 559.73 204.75" style="fill:url(#ba)"/></clipPath><mask id="eu" x="545.63" y="200.73" width="14.28" height="8.15" maskUnits="userSpaceOnUse"><polygon points="559.73 200.83 559.9 208.87 545.79 208.77 545.63 200.73 559.73 200.83" style="fill:url(#g)"/></mask><linearGradient id="ev" x1="78.92" y1="644.74" x2="80.3" y2="644.74" gradientTransform="matrix(0.25, 11.7, 20.29, 0.15, -12551.76, -827.58)" xlink:href="#ap"/><clipPath id="ey"><polygon points="552.76 216.67 545.79 212.64 545.79 204.75 552.76 208.78 552.76 216.67" style="fill:url(#bb)"/></clipPath><mask id="ez" x="540.54" y="201.83" width="17.49" height="17.76" maskUnits="userSpaceOnUse"><polygon points="551.06 201.83 558.02 213.75 547.5 219.59 540.53 207.67 551.06 201.83" style="fill:url(#h)"/></mask><linearGradient id="fa" x1="93.87" y1="674.08" x2="95.25" y2="674.08" gradientTransform="matrix(6.98, 11.94, 6.98, -3.88, -4818.51, 1691.77)" xlink:href="#ap"/><clipPath id="fd"><polygon points="552.76 216.67 559.73 212.64 559.73 204.75 552.76 208.78 552.76 216.67" style="fill:url(#bc)"/></clipPath><mask id="fe" x="547.5" y="201.83" width="17.49" height="17.76" maskUnits="userSpaceOnUse"><polygon points="554.47 201.83 547.5 213.75 558.02 219.59 564.99 207.67 554.47 201.83" style="fill:url(#i)"/></mask><linearGradient id="ff" x1="78.48" y1="614.94" x2="79.86" y2="614.94" gradientTransform="matrix(-9.12, 15.61, -9.12, -5.06, 6889.79, 2088.2)" xlink:href="#ap"/><clipPath id="fh"><rect x="549.51" y="205.06" width="6.5" height="3.7" style="fill:url(#bd)"/></clipPath><clipPath id="fj"><polygon points="556.01 206.89 552.76 208.76 549.51 206.89 552.68 205.06 556.01 206.89" style="fill:url(#be)"/></clipPath><mask id="fk" x="549.44" y="205.01" width="6.66" height="3.8" maskUnits="userSpaceOnUse"><polygon points="556.01 205.06 556.09 208.81 549.51 208.76 549.44 205.01 556.01 205.06" style="fill:url(#j)"/></mask><linearGradient id="fl" x1="59.64" y1="661.57" x2="61.02" y2="661.57" gradientTransform="matrix(0.11, 5.46, 9.47, 0.07, -5717.24, -170.66)" xlink:href="#ap"/><clipPath id="fn"><rect x="549.51" y="206.89" width="3.25" height="5.56" style="fill:url(#bf)"/></clipPath><clipPath id="fp"><polygon points="552.76 212.45 549.51 210.57 549.51 206.89 552.76 208.76 552.76 212.45" style="fill:url(#bg)"/></clipPath><mask id="fq" x="547.06" y="205.52" width="8.16" height="8.28" maskUnits="userSpaceOnUse"><polygon points="551.97 205.52 555.22 211.08 550.31 213.81 547.06 208.25 551.97 205.52" style="fill:url(#k)"/></mask><linearGradient id="fr" x1="91.65" y1="724.43" x2="93.03" y2="724.43" gradientTransform="matrix(3.26, 5.57, 3.26, -1.81, -2109.58, 1003.92)" xlink:href="#ap"/><clipPath id="ft"><rect x="552.77" y="206.89" width="3.25" height="5.56" style="fill:url(#bh)"/></clipPath><clipPath id="fv"><polygon points="552.76 212.45 556.01 210.57 556.01 206.89 552.76 208.76 552.76 212.45" style="fill:url(#bh)"/></clipPath><mask id="fw" x="550.31" y="205.52" width="8.16" height="8.28" maskUnits="userSpaceOnUse"><polygon points="553.56 205.52 550.31 211.08 555.22 213.81 558.47 208.25 553.56 205.52" style="fill:url(#l)"/></mask><linearGradient id="fx" x1="58.7" y1="597.81" x2="60.08" y2="597.81" gradientTransform="matrix(-4.26, 7.28, -4.26, -2.36, 3351.73, 1188.99)" xlink:href="#ap"/><clipPath id="fy"><polygon points="541.82 3.11 541.82 200.33 552.73 207.62 563.29 200.33 563.29 0 541.82 3.11" style="fill:none"/></clipPath><mask id="fz" x="541.82" y="0" width="21.47" height="207.62" maskUnits="userSpaceOnUse"><rect x="541.82" width="21.47" height="207.62" style="fill:url(#n)"/></mask><linearGradient id="ga" x1="97.22" y1="628.14" x2="99.1" y2="628.14" xlink:href="#eb"/><clipPath id="gb"><polygon points="545.52 200.79 552.54 204.85 559.59 200.8 552.38 196.84 545.52 200.79" style="fill:none"/></clipPath><mask id="gc" x="545.35" y="196.74" width="14.41" height="8.22" maskUnits="userSpaceOnUse"><polygon points="559.59 196.84 559.76 204.96 545.52 204.85 545.35 196.74 559.59 196.84" style="fill:url(#o)"/></mask><linearGradient id="gd" x1="76.34" y1="646.89" x2="77.94" y2="646.89" xlink:href="#ee"/><clipPath id="gf"><polygon points="643.01 73.81 643.01 127.25 645.83 125.57 645.83 69.78 643.01 73.81" style="fill:url(#bj)"/></clipPath><mask id="gg" x="643.01" y="65.74" width="2.82" height="65.54" maskUnits="userSpaceOnUse"><polygon points="645.83 127.25 645.83 65.74 643.01 69.78 643.01 131.29 645.83 127.25" style="fill:url(#p)"/></mask><linearGradient id="gh" x1="100.34" y1="652.49" x2="105.88" y2="652.49" gradientTransform="matrix(0, -13.88, 12.1, -7.34, -7247.68, 6312.64)" xlink:href="#bj"/><clipPath id="gj"><polygon points="642.5 137.26 642.5 141.43 646.35 139.1 646.35 134.93 642.5 137.26" style="fill:url(#bk)"/></clipPath><mask id="gk" x="642.5" y="132.59" width="3.84" height="11.17" maskUnits="userSpaceOnUse"><polygon points="646.35 141.43 646.35 132.59 642.5 134.93 642.5 143.77 646.35 141.43" style="fill:url(#q)"/></mask><linearGradient id="gl" x1="111.55" y1="720.31" x2="113.9" y2="720.31" gradientTransform="matrix(0, -3.46, 3.01, -1.83, -1525.81, 1843.8)" xlink:href="#bj"/><clipPath id="gn"><polygon points="642.5 153.15 642.5 157.32 646.35 154.99 646.35 150.82 642.5 153.15" style="fill:url(#bl)"/></clipPath><mask id="go" x="642.5" y="148.48" width="3.84" height="11.17" maskUnits="userSpaceOnUse"><polygon points="646.35 157.32 646.35 148.49 642.5 150.82 642.5 159.65 646.35 157.32" style="fill:url(#r)"/></mask><linearGradient id="gp" x1="108.91" y1="720.31" x2="111.26" y2="720.31" gradientTransform="matrix(0, -3.46, 3.01, -1.83, -1525.81, 1850.56)" xlink:href="#bj"/><clipPath id="gr"><polygon points="642.5 144.82 642.5 149 646.35 146.66 646.35 142.49 642.5 144.82" style="fill:url(#bm)"/></clipPath><mask id="gs" x="642.5" y="140.16" width="3.84" height="11.17" maskUnits="userSpaceOnUse"><polygon points="646.35 149 646.35 140.16 642.5 142.49 642.5 151.33 646.35 149" style="fill:url(#s)"/></mask><linearGradient id="gt" x1="109.37" y1="720.31" x2="111.72" y2="720.31" gradientTransform="matrix(0, -3.46, 3.01, -1.83, -1525.81, 1843.8)" xlink:href="#bj"/><clipPath id="gv"><polygon points="6.53 235.29 6.53 288.74 3.71 287.05 3.71 231.26 6.53 235.29" style="fill:url(#bn)"/></clipPath><mask id="gw" x="3.71" y="227.23" width="2.82" height="65.54" maskUnits="userSpaceOnUse"><polygon points="3.71 288.74 3.71 227.23 6.53 231.26 6.53 292.77 3.71 288.74" style="fill:url(#t)"/></mask><linearGradient id="gx" x1="99.7" y1="631.7" x2="105.24" y2="631.7" gradientTransform="matrix(0, -13.88, -12.1, -7.34, 7645.82, 6312.64)" xlink:href="#bj"/><clipPath id="gz"><polygon points="7.04 298.75 7.04 302.92 3.19 300.58 3.19 296.41 7.04 298.75" style="fill:url(#bo)"/></clipPath><mask id="ha" x="3.19" y="294.08" width="3.84" height="11.17" maskUnits="userSpaceOnUse"><polygon points="3.19 302.92 3.19 294.08 7.04 296.41 7.04 305.25 3.19 302.92" style="fill:url(#u)"/></mask><linearGradient id="hb" x1="108.99" y1="636.87" x2="111.34" y2="636.87" gradientTransform="matrix(0, -3.46, -3.01, -1.83, 1923.94, 1843.8)" xlink:href="#bj"/><clipPath id="hd"><polygon points="7.04 314.63 7.04 318.81 3.19 316.47 3.19 312.3 7.04 314.63" style="fill:url(#bq)"/></clipPath><mask id="he" x="3.19" y="309.97" width="3.84" height="11.17" maskUnits="userSpaceOnUse"><polygon points="3.19 318.81 3.19 309.97 7.04 312.3 7.04 321.14 3.19 318.81" style="fill:url(#v)"/></mask><linearGradient id="hf" x1="106.36" y1="636.87" x2="108.71" y2="636.87" gradientTransform="matrix(0, -3.46, -3.01, -1.83, 1923.94, 1850.56)" xlink:href="#bj"/><clipPath id="hh"><polygon points="7.04 306.31 7.04 310.48 3.19 308.14 3.19 303.97 7.04 306.31" style="fill:url(#br)"/></clipPath><mask id="hi" x="3.19" y="301.64" width="3.84" height="11.17" maskUnits="userSpaceOnUse"><polygon points="3.19 310.48 3.19 301.64 7.04 303.97 7.04 312.81 3.19 310.48" style="fill:url(#w)"/></mask><linearGradient id="hj" x1="106.81" y1="636.87" x2="109.16" y2="636.87" gradientTransform="matrix(0, -3.46, -3.01, -1.83, 1923.94, 1843.8)" xlink:href="#bj"/><clipPath id="hl"><polygon points="93.06 421.39 93.06 452.69 89.17 450.33 89.17 419.03 93.06 421.39" style="fill:url(#bs)"/></clipPath><mask id="hm" x="89.17" y="416.66" width="3.89" height="38.39" maskUnits="userSpaceOnUse"><polygon points="89.17 452.69 89.17 416.66 93.06 419.03 93.06 455.05 89.17 452.69" style="fill:url(#y)"/></mask><linearGradient id="hn" x1="89.9" y1="628.06" x2="93.14" y2="628.06" gradientTransform="matrix(0, -13.88, -12.1, -7.34, 7687.69, 6312.64)" xlink:href="#bj"/><clipPath id="hp"><polygon points="93.76 466.51 93.76 472.27 88.46 469.05 88.46 463.28 93.76 466.51" style="fill:url(#bt)"/></clipPath><mask id="hq" x="88.46" y="460.06" width="5.31" height="15.42" maskUnits="userSpaceOnUse"><polygon points="88.46 472.27 88.46 460.06 93.76 463.28 93.76 475.49 88.46 472.27" style="fill:url(#z)"/></mask><linearGradient id="hr" x1="67.89" y1="622.22" x2="71.13" y2="622.22" gradientTransform="matrix(0, -3.46, -3.01, -1.83, 1965.81, 1843.8)" xlink:href="#bj"/><clipPath id="ht"><polygon points="93.76 488.44 93.76 494.2 88.46 490.98 88.46 485.22 93.76 488.44" style="fill:url(#bu)"/></clipPath><mask id="hu" x="88.46" y="482" width="5.31" height="15.42" maskUnits="userSpaceOnUse"><polygon points="88.46 494.2 88.46 482 93.76 485.22 93.76 497.42 88.46 494.2" style="fill:url(#aa)"/></mask><linearGradient id="hv" x1="63.5" y1="622.22" x2="66.74" y2="622.22" gradientTransform="matrix(0, -3.46, -3.01, -1.83, 1965.81, 1850.56)" xlink:href="#bj"/><clipPath id="hx"><polygon points="93.76 476.94 93.76 482.7 88.46 479.48 88.46 473.72 93.76 476.94" style="fill:url(#bv)"/></clipPath><mask id="hy" x="88.46" y="470.5" width="5.31" height="15.42" maskUnits="userSpaceOnUse"><polygon points="88.46 482.7 88.46 470.5 93.76 473.72 93.76 485.93 88.46 482.7" style="fill:url(#ab)"/></mask><linearGradient id="hz" x1="64.87" y1="622.22" x2="68.11" y2="622.22" gradientTransform="matrix(0, -3.46, -3.01, -1.83, 1965.81, 1843.8)" xlink:href="#bj"/><clipPath id="ib"><polygon points="538.12 329.86 535.24 331.61 535.24 308.38 538.12 306.63 538.12 329.86" style="fill:url(#bw)"/></clipPath><mask id="ic" x="535.23" y="304.87" width="2.89" height="28.49" maskUnits="userSpaceOnUse"><polygon points="538.12 331.61 538.12 304.88 535.24 306.63 535.24 333.36 538.12 331.61" style="fill:url(#ac)"/></mask><linearGradient id="id" x1="99.2" y1="624.93" x2="100.5" y2="624.93" gradientTransform="matrix(0, -25.81, 22.49, -13.65, -13516.42, 11423.91)" xlink:href="#bj"/><clipPath id="if"><polygon points="538.64 343.75 534.71 346.14 534.71 341.86 538.64 339.48 538.64 343.75" style="fill:url(#bx)"/></clipPath><mask id="ig" x="534.71" y="337.09" width="3.93" height="11.44" maskUnits="userSpaceOnUse"><polygon points="538.64 346.14 538.64 337.09 534.71 339.48 534.71 348.53 538.64 346.14" style="fill:url(#ad)"/></mask><linearGradient id="ih" x1="108.43" y1="609.54" x2="109.72" y2="609.54" gradientTransform="matrix(0, -6.43, 5.6, -3.4, -2877.72, 3115.15)" xlink:href="#bj"/><clipPath id="ij"><polygon points="538.64 351.89 534.71 354.28 534.71 350 538.64 347.61 538.64 351.89" style="fill:url(#by)"/></clipPath><mask id="ik" x="534.71" y="345.23" width="3.93" height="11.44" maskUnits="userSpaceOnUse"><polygon points="538.64 354.28 538.64 345.23 534.71 347.61 534.71 356.67 538.64 354.28" style="fill:url(#ae)"/></mask><linearGradient id="il" x1="108.14" y1="609.54" x2="109.44" y2="609.54" gradientTransform="matrix(0, -6.43, 5.6, -3.4, -2877.72, 3121.43)" xlink:href="#bj"/><clipPath id="in"><polygon points="538.64 360.03 534.71 362.42 534.71 358.14 538.64 355.75 538.64 360.03" style="fill:url(#bz)"/></clipPath><mask id="io" x="534.71" y="353.37" width="3.93" height="11.44" maskUnits="userSpaceOnUse"><polygon points="538.64 362.42 538.64 353.37 534.71 355.75 534.71 364.81 538.64 362.42" style="fill:url(#af)"/></mask><linearGradient id="ip" x1="107.85" y1="609.54" x2="109.15" y2="609.54" gradientTransform="matrix(0, -6.43, 5.6, -3.4, -2877.72, 3127.72)" xlink:href="#bj"/><clipPath id="ir"><polygon points="136.85 401.02 145.38 406.19 145.38 396.93 136.85 391.76 136.85 401.02" style="fill:url(#ca)"/></clipPath><mask id="is" x="136.85" y="386.58" width="8.52" height="24.79" maskUnits="userSpaceOnUse"><polygon points="136.85 406.19 136.85 386.58 145.38 391.76 145.38 411.37 136.85 406.19" style="fill:url(#ag)"/></mask><linearGradient id="it" x1="85.58" y1="644.57" x2="86.87" y2="644.57" gradientTransform="matrix(0, -13.93, -12.13, -7.37, 7961.76, 6343.72)" xlink:href="#bj"/><clipPath id="iv"><polygon points="136.85 383.33 145.38 388.5 145.38 379.24 136.85 374.07 136.85 383.33" style="fill:url(#cb)"/></clipPath><mask id="iw" x="136.85" y="368.89" width="8.52" height="24.78" maskUnits="userSpaceOnUse"><polygon points="136.85 388.5 136.85 368.89 145.38 374.07 145.38 393.68 136.85 388.5" style="fill:url(#ah)"/></mask><linearGradient id="ix" x1="85.87" y1="644.57" x2="87.16" y2="644.57" gradientTransform="matrix(0, -13.93, -12.13, -7.37, 7961.76, 6330.07)" xlink:href="#bj"/><clipPath id="iz"><polygon points="136.85 366.97 145.38 372.15 145.38 362.88 136.85 357.71 136.85 366.97" style="fill:url(#cc)"/></clipPath><mask id="ja" x="136.85" y="352.54" width="8.52" height="24.79" maskUnits="userSpaceOnUse"><polygon points="136.85 372.15 136.85 352.54 145.38 357.71 145.38 377.32 136.85 372.15" style="fill:url(#aj)"/></mask><linearGradient id="jb" x1="87.04" y1="644.57" x2="88.34" y2="644.57" gradientTransform="matrix(0, -13.93, -12.13, -7.37, 7961.76, 6330.07)" xlink:href="#bj"/></defs><title>b1-3</title><rect width="690" height="760" style="fill:none"/><polygon points="68.56 321.77 86.04 331.86 103.56 321.78 85.62 311.95 68.56 321.77" style="fill:url(#ap)"/><g style="clip-path:url(#ch)"><g style="mask:url(#ci)"><polygon points="103.56 311.95 103.99 332.13 68.56 331.86 68.13 311.68 103.56 311.95" style="fill:url(#cj)"/></g></g><polygon points="68.56 341.61 86.06 351.72 86.06 331.89 68.56 321.78 68.56 341.61" style="fill:url(#aq)"/><g style="clip-path:url(#cl)"><g style="mask:url(#cm)"><polygon points="68.56 311.67 86.06 321.78 86.06 361.83 68.56 351.72 68.56 311.67" style="fill:url(#cn)"/></g></g><polygon points="86.06 331.89 86.06 351.72 103.56 341.61 103.56 321.78 86.06 331.89" style="fill:url(#az)"/><g style="clip-path:url(#cp)"><g style="mask:url(#cq)"><polygon points="103.56 311.67 86.06 321.78 86.06 361.83 103.56 351.72 103.56 311.67" style="fill:url(#cr)"/></g></g><g style="clip-path:url(#cs)"><polygon points="96.06 326.27 86.34 331.87 76.65 326.27 86.11 320.82 96.06 326.27" style="fill:url(#bp)"/><g style="clip-path:url(#cu)"><g style="mask:url(#cv)"><polygon points="96.06 320.82 96.29 332.02 76.65 331.87 76.41 320.67 96.06 320.82" style="fill:url(#cw)"/></g></g></g><g style="clip-path:url(#cs)"><polygon points="86.36 342.87 76.65 337.27 76.65 326.27 86.36 331.88 86.36 342.87" style="fill:url(#cd)"/><g style="clip-path:url(#cz)"><g style="mask:url(#da)"><polygon points="83.98 322.21 93.68 338.81 79.03 346.94 69.32 330.34 83.98 322.21" style="fill:url(#db)"/></g></g></g><g style="clip-path:url(#cs)"><polygon points="86.36 342.87 96.06 337.27 96.06 326.27 86.36 331.88 86.36 342.87" style="fill:url(#ce)"/><g style="clip-path:url(#de)"><g style="mask:url(#df)"><polygon points="88.73 322.21 79.03 338.81 93.68 346.94 103.38 330.34 88.73 322.21" style="fill:url(#dg)"/></g></g></g><rect x="81.83" y="326.71" width="9.05" height="5.15" style="fill:url(#cf)"/><g style="clip-path:url(#di)"><polygon points="90.88 329.25 86.35 331.86 81.83 329.25 86.24 326.7 90.88 329.25" style="fill:url(#ar)"/><g style="clip-path:url(#dk)"><g style="mask:url(#dl)"><polygon points="90.88 326.7 90.99 331.93 81.83 331.86 81.72 326.63 90.88 326.7" style="fill:url(#dm)"/></g></g></g><rect x="81.83" y="329.25" width="4.53" height="7.74" style="fill:url(#as)"/><g style="clip-path:url(#do)"><polygon points="86.36 336.99 81.83 334.38 81.83 329.25 86.36 331.86 86.36 336.99" style="fill:url(#at)"/><g style="clip-path:url(#dq)"><g style="mask:url(#dr)"><polygon points="85.25 327.35 89.77 335.1 82.94 338.89 78.41 331.15 85.25 327.35" style="fill:url(#ds)"/></g></g></g><rect x="86.36" y="329.25" width="4.53" height="7.74" style="fill:url(#au)"/><g style="clip-path:url(#du)"><polygon points="86.36 336.99 90.88 334.38 90.88 329.25 86.36 331.86 86.36 336.99" style="fill:url(#au)"/><g style="clip-path:url(#dw)"><g style="mask:url(#dx)"><polygon points="87.46 327.35 82.94 335.1 89.77 338.89 94.3 331.15 87.46 327.35" style="fill:url(#dy)"/></g></g></g><g style="clip-path:url(#dz)"><g style="mask:url(#ea)"><rect x="71.11" y="41.15" width="29.9" height="289.12" style="opacity:0.89;fill:url(#eb)"/></g></g><g style="clip-path:url(#ec)"><g style="mask:url(#ed)"><polygon points="95.86 315.27 96.09 326.57 76.27 326.42 76.03 315.12 95.86 315.27" style="fill:url(#ee)"/></g></g><polygon points="539.99 201.52 552.54 208.76 565.12 201.52 552.24 194.46 539.99 201.52" style="fill:url(#aw)"/><g style="clip-path:url(#eg)"><g style="mask:url(#eh)"><polygon points="565.12 194.46 565.43 208.96 539.99 208.76 539.68 194.27 565.12 194.46" style="fill:url(#ei)"/></g></g><polygon points="539.99 215.76 552.55 223.02 552.55 208.78 539.99 201.52 539.99 215.76" style="fill:url(#ax)"/><g style="clip-path:url(#ek)"><g style="mask:url(#el)"><polygon points="539.99 194.26 552.55 201.52 552.55 230.28 539.99 223.02 539.99 194.26" style="fill:url(#em)"/></g></g><polygon points="552.55 208.78 552.55 223.02 565.12 215.76 565.12 201.52 552.55 208.78" style="fill:url(#ay)"/><g style="clip-path:url(#eo)"><g style="mask:url(#ep)"><polygon points="565.12 194.26 552.55 201.52 552.55 230.28 565.12 223.02 565.12 194.26" style="fill:url(#eq)"/></g></g><g style="clip-path:url(#cs)"><polygon points="559.73 204.75 552.75 208.77 545.79 204.75 552.59 200.83 559.73 204.75" style="fill:url(#ba)"/><g style="clip-path:url(#et)"><g style="mask:url(#eu)"><polygon points="559.73 200.83 559.9 208.87 545.79 208.77 545.63 200.73 559.73 200.83" style="fill:url(#ev)"/></g></g></g><g style="clip-path:url(#cs)"><polygon points="552.76 216.67 545.79 212.64 545.79 204.75 552.76 208.78 552.76 216.67" style="fill:url(#bb)"/><g style="clip-path:url(#ey)"><g style="mask:url(#ez)"><polygon points="551.06 201.83 558.02 213.75 547.5 219.59 540.53 207.67 551.06 201.83" style="fill:url(#fa)"/></g></g></g><g style="clip-path:url(#cs)"><polygon points="552.76 216.67 559.73 212.64 559.73 204.75 552.76 208.78 552.76 216.67" style="fill:url(#bc)"/><g style="clip-path:url(#fd)"><g style="mask:url(#fe)"><polygon points="554.47 201.83 547.5 213.75 558.02 219.59 564.99 207.67 554.47 201.83" style="fill:url(#ff)"/></g></g></g><rect x="549.51" y="205.06" width="6.5" height="3.7" style="fill:url(#bd)"/><g style="clip-path:url(#fh)"><polygon points="556.01 206.89 552.76 208.76 549.51 206.89 552.68 205.06 556.01 206.89" style="fill:url(#be)"/><g style="clip-path:url(#fj)"><g style="mask:url(#fk)"><polygon points="556.01 205.06 556.09 208.81 549.51 208.76 549.44 205.01 556.01 205.06" style="fill:url(#fl)"/></g></g></g><rect x="549.51" y="206.89" width="3.25" height="5.56" style="fill:url(#bf)"/><g style="clip-path:url(#fn)"><polygon points="552.76 212.45 549.51 210.57 549.51 206.89 552.76 208.76 552.76 212.45" style="fill:url(#bg)"/><g style="clip-path:url(#fp)"><g style="mask:url(#fq)"><polygon points="551.97 205.52 555.22 211.08 550.31 213.81 547.06 208.25 551.97 205.52" style="fill:url(#fr)"/></g></g></g><rect x="552.77" y="206.89" width="3.25" height="5.56" style="fill:url(#bh)"/><g style="clip-path:url(#ft)"><polygon points="552.76 212.45 556.01 210.57 556.01 206.89 552.76 208.76 552.76 212.45" style="fill:url(#bh)"/><g style="clip-path:url(#fv)"><g style="mask:url(#fw)"><polygon points="553.56 205.52 550.31 211.08 555.22 213.81 558.47 208.25 553.56 205.52" style="fill:url(#fx)"/></g></g></g><g style="clip-path:url(#fy)"><g style="mask:url(#fz)"><rect x="541.82" width="21.47" height="207.62" style="opacity:0.89;fill:url(#ga)"/></g></g><g style="clip-path:url(#gb)"><g style="mask:url(#gc)"><polygon points="559.59 196.84 559.76 204.96 545.52 204.85 545.35 196.74 559.59 196.84" style="fill:url(#gd)"/></g></g><polygon points="643.01 73.81 643.01 127.25 645.83 125.57 645.83 69.78 643.01 73.81" style="fill:url(#bj)"/><g style="clip-path:url(#gf)"><g style="mask:url(#gg)"><polygon points="645.83 129.6 645.83 68.09 643.01 69.78 643.01 131.29 645.83 129.6" style="fill:url(#gh)"/></g></g><polygon points="642.5 137.26 642.5 141.43 646.35 139.1 646.35 134.93 642.5 137.26" style="fill:url(#bk)"/><g style="clip-path:url(#gj)"><g style="mask:url(#gk)"><polygon points="646.35 141.43 646.35 132.59 642.5 134.93 642.5 143.77 646.35 141.43" style="fill:url(#gl)"/></g></g><polygon points="642.5 153.15 642.5 157.32 646.35 154.99 646.35 150.82 642.5 153.15" style="fill:url(#bl)"/><g style="clip-path:url(#gn)"><g style="mask:url(#go)"><polygon points="646.35 157.32 646.35 148.49 642.5 150.82 642.5 159.65 646.35 157.32" style="fill:url(#gp)"/></g></g><polygon points="642.5 144.82 642.5 149 646.35 146.66 646.35 142.49 642.5 144.82" style="fill:url(#bm)"/><g style="clip-path:url(#gr)"><g style="mask:url(#gs)"><polygon points="646.35 149 646.35 140.16 642.5 142.49 642.5 151.33 646.35 149" style="fill:url(#gt)"/></g></g><polygon points="6.53 235.29 6.53 288.74 3.71 287.05 3.71 231.26 6.53 235.29" style="fill:url(#bn)"/><g style="clip-path:url(#gv)"><g style="mask:url(#gw)"><polygon points="3.71 291.09 3.71 229.58 6.53 231.26 6.53 292.77 3.71 291.09" style="fill:url(#gx)"/></g></g><polygon points="7.04 298.75 7.04 302.92 3.19 300.58 3.19 296.41 7.04 298.75" style="fill:url(#bo)"/><g style="clip-path:url(#gz)"><g style="mask:url(#ha)"><polygon points="3.19 302.92 3.19 294.08 7.04 296.41 7.04 305.25 3.19 302.92" style="fill:url(#hb)"/></g></g><polygon points="7.04 314.63 7.04 318.81 3.19 316.47 3.19 312.3 7.04 314.63" style="fill:url(#bq)"/><g style="clip-path:url(#hd)"><g style="mask:url(#he)"><polygon points="3.19 318.81 3.19 309.97 7.04 312.3 7.04 321.14 3.19 318.81" style="fill:url(#hf)"/></g></g><polygon points="7.04 306.31 7.04 310.48 3.19 308.14 3.19 303.97 7.04 306.31" style="fill:url(#br)"/><g style="clip-path:url(#hh)"><g style="mask:url(#hi)"><polygon points="3.19 310.48 3.19 301.64 7.04 303.97 7.04 312.81 3.19 310.48" style="fill:url(#hj)"/></g></g><polygon points="93.06 421.39 93.06 452.69 89.17 450.33 89.17 419.03 93.06 421.39" style="fill:url(#bs)"/><g style="clip-path:url(#hl)"><g style="mask:url(#hm)"><polygon points="89.17 452.69 89.17 416.66 93.06 419.03 93.06 455.05 89.17 452.69" style="fill:url(#hn)"/></g></g><polygon points="93.76 466.51 93.76 472.27 88.46 469.05 88.46 463.28 93.76 466.51" style="fill:url(#bt)"/><g style="clip-path:url(#hp)"><g style="mask:url(#hq)"><polygon points="88.46 472.27 88.46 460.06 93.76 463.28 93.76 475.49 88.46 472.27" style="fill:url(#hr)"/></g></g><polygon points="93.76 488.44 93.76 494.2 88.46 490.98 88.46 485.22 93.76 488.44" style="fill:url(#bu)"/><g style="clip-path:url(#ht)"><g style="mask:url(#hu)"><polygon points="88.46 494.2 88.46 482 93.76 485.22 93.76 497.42 88.46 494.2" style="fill:url(#hv)"/></g></g><polygon points="93.76 476.94 93.76 482.7 88.46 479.48 88.46 473.72 93.76 476.94" style="fill:url(#bv)"/><g style="clip-path:url(#hx)"><g style="mask:url(#hy)"><polygon points="88.46 482.7 88.46 470.5 93.76 473.72 93.76 485.93 88.46 482.7" style="fill:url(#hz)"/></g></g><polygon points="538.12 329.86 535.24 331.61 535.24 308.38 538.12 306.63 538.12 329.86" style="fill:url(#bw)"/><g style="clip-path:url(#ib)"><g style="mask:url(#ic)"><polygon points="538.12 331.61 538.12 304.88 535.24 306.63 535.24 333.36 538.12 331.61" style="fill:url(#id)"/></g></g><polygon points="538.64 343.75 534.71 346.14 534.71 341.86 538.64 339.48 538.64 343.75" style="fill:url(#bx)"/><g style="clip-path:url(#if)"><g style="mask:url(#ig)"><polygon points="538.64 346.14 538.64 337.09 534.71 339.48 534.71 348.53 538.64 346.14" style="fill:url(#ih)"/></g></g><polygon points="538.64 351.89 534.71 354.28 534.71 350 538.64 347.61 538.64 351.89" style="fill:url(#by)"/><g style="clip-path:url(#ij)"><g style="mask:url(#ik)"><polygon points="538.64 354.28 538.64 345.23 534.71 347.61 534.71 356.67 538.64 354.28" style="fill:url(#il)"/></g></g><polygon points="538.64 360.03 534.71 362.42 534.71 358.14 538.64 355.75 538.64 360.03" style="fill:url(#bz)"/><g style="clip-path:url(#in)"><g style="mask:url(#io)"><polygon points="538.64 362.42 538.64 353.37 534.71 355.75 534.71 364.81 538.64 362.42" style="fill:url(#ip)"/></g></g><polygon points="136.85 401.02 145.38 406.19 145.38 396.93 136.85 391.76 136.85 401.02" style="fill:url(#ca)"/><g style="clip-path:url(#ir)"><g style="mask:url(#is)"><polygon points="136.85 406.19 136.85 386.58 145.38 391.76 145.38 411.37 136.85 406.19" style="fill:url(#it)"/></g></g><polygon points="136.85 383.33 145.38 388.5 145.38 379.24 136.85 374.07 136.85 383.33" style="fill:url(#cb)"/><g style="clip-path:url(#iv)"><g style="mask:url(#iw)"><polygon points="136.85 388.5 136.85 368.89 145.38 374.07 145.38 393.68 136.85 388.5" style="fill:url(#ix)"/></g></g><polygon points="136.85 366.97 145.38 372.15 145.38 362.88 136.85 357.71 136.85 366.97" style="fill:url(#cc)"/><g style="clip-path:url(#iz)"><g style="mask:url(#ja)"><polygon points="136.85 372.15 136.85 352.54 145.38 357.71 145.38 377.32 136.85 372.15" style="fill:url(#jb)"/></g></g></svg>