<svg xmlns="http://www.w3.org/2000/svg" xmlns:xlink="http://www.w3.org/1999/xlink" viewBox="0 0 690 760"><defs><linearGradient id="a" x1="102.92" y1="624.48" x2="107.14" y2="624.48" gradientTransform="matrix(0.44, 21.11, 36.61, 0.28, -22845.99, -1816.19)" gradientUnits="userSpaceOnUse"><stop offset="0" stop-color="#fff"/><stop offset="0.29" stop-color="#a6a6a6"/><stop offset="0.54" stop-color="#5f5f5f"/><stop offset="0.75" stop-color="#2c2c2c"/><stop offset="0.91" stop-color="#0c0c0c"/><stop offset="1"/><stop offset="1"/></linearGradient><radialGradient id="b" cx="69.06" cy="593.32" r="4.22" gradientTransform="matrix(7.97, 4.61, 0, -9.03, -512.34, 5651.86)" gradientUnits="userSpaceOnUse"><stop offset="0"/><stop offset="0"/><stop offset="0.2" stop-color="#030303"/><stop offset="0.33" stop-color="#0c0c0c"/><stop offset="0.45" stop-color="#1b1b1b"/><stop offset="0.55" stop-color="#303030"/><stop offset="0.65" stop-color="#4c4c4c"/><stop offset="0.74" stop-color="#6f6f6f"/><stop offset="0.83" stop-color="#979797"/><stop offset="0.91" stop-color="#c7c7c7"/><stop offset="0.99" stop-color="#fafafa"/><stop offset="1" stop-color="#fff"/></radialGradient><radialGradient id="c" cx="70.25" cy="603.55" r="2.4" xlink:href="#b"/><radialGradient id="d" cx="118.31" cy="629.16" r="2.4" gradientTransform="matrix(-8.68, 5.01, 0, -9.83, 1094.24, 6117.95)" gradientUnits="userSpaceOnUse"><stop offset="0"/><stop offset="0"/><stop offset="0.37" stop-color="#020202"/><stop offset="0.51" stop-color="#090909"/><stop offset="0.6" stop-color="#141414"/><stop offset="0.68" stop-color="#252525"/><stop offset="0.75" stop-color="#3b3b3b"/><stop offset="0.81" stop-color="#575757"/><stop offset="0.86" stop-color="#777"/><stop offset="0.91" stop-color="#9d9d9d"/><stop offset="0.95" stop-color="#c8c8c8"/><stop offset="0.99" stop-color="#f6f6f6"/><stop offset="1" stop-color="#fff"/></radialGradient><linearGradient id="e" x1="104.95" y1="620.16" x2="107.35" y2="620.16" gradientTransform="matrix(0.25, 11.7, 20.29, 0.15, -12551.76, -827.58)" gradientUnits="userSpaceOnUse"><stop offset="0"/><stop offset="0"/><stop offset="0.09" stop-color="#363636"/><stop offset="0.2" stop-color="#6a6a6a"/><stop offset="0.3" stop-color="#989898"/><stop offset="0.4" stop-color="#bdbdbd"/><stop offset="0.5" stop-color="#dadada"/><stop offset="0.6" stop-color="#efefef"/><stop offset="0.7" stop-color="#fbfbfb"/><stop offset="0.8" stop-color="#fff"/><stop offset="1" stop-color="#fff"/></linearGradient><linearGradient id="f" x1="95.57" y1="600.85" x2="97.97" y2="600.85" gradientTransform="matrix(6.98, 11.94, 6.98, -3.88, -4818.51, 1691.77)" xlink:href="#e"/><linearGradient id="g" x1="106.15" y1="640.38" x2="108.54" y2="640.38" gradientTransform="matrix(-9.12, 15.61, -9.12, -5.06, 6889.79, 2088.2)" xlink:href="#e"/><linearGradient id="h" x1="116.38" y1="608.87" x2="118.78" y2="608.87" gradientTransform="matrix(0.11, 5.46, 9.47, 0.07, -5717.23, -170.66)" xlink:href="#e"/><linearGradient id="i" x1="96.03" y1="567.87" x2="98.43" y2="567.87" gradientTransform="matrix(3.26, 5.57, 3.26, -1.81, -2109.58, 1003.92)" xlink:href="#e"/><linearGradient id="j" x1="118.66" y1="652.67" x2="121.06" y2="652.67" gradientTransform="matrix(-4.26, 7.28, -4.26, -2.36, 3351.73, 1188.99)" xlink:href="#e"/><linearGradient id="k" x1="112.86" y1="618.64" x2="117.08" y2="618.64" gradientTransform="matrix(0.21, 10.21, 17.7, 0.13, -10911.42, -671.02)" gradientUnits="userSpaceOnUse"><stop offset="0" stop-color="#fff"/><stop offset="0" stop-color="#fff"/><stop offset="0.25" stop-color="#fdfdfd"/><stop offset="0.37" stop-color="#f5f5f5"/><stop offset="0.46" stop-color="#e8e8e8"/><stop offset="0.54" stop-color="#d6d6d6"/><stop offset="0.6" stop-color="#bebebe"/><stop offset="0.66" stop-color="#a1a1a1"/><stop offset="0.72" stop-color="#7e7e7e"/><stop offset="0.77" stop-color="#555"/><stop offset="0.82" stop-color="#292929"/><stop offset="0.86"/><stop offset="1"/></linearGradient><linearGradient id="l" x1="94.89" y1="631.03" x2="96.17" y2="631.03" gradientTransform="matrix(0, -144.33, -144.33, 0, 91138.98, 14297.77)" gradientUnits="userSpaceOnUse"><stop offset="0" stop-color="#fff"/><stop offset="0.05" stop-color="#d2d2d2"/><stop offset="0.12" stop-color="#a1a1a1"/><stop offset="0.19" stop-color="#767676"/><stop offset="0.26" stop-color="#515151"/><stop offset="0.34" stop-color="#343434"/><stop offset="0.42" stop-color="#1d1d1d"/><stop offset="0.5" stop-color="#0d0d0d"/><stop offset="0.6" stop-color="#030303"/><stop offset="0.72"/><stop offset="1"/></linearGradient><radialGradient id="m" cx="117.64" cy="619.84" r="4.22" xlink:href="#d"/><linearGradient id="n" x1="110.56" y1="620.1" x2="114.78" y2="620.1" xlink:href="#e"/><linearGradient id="o" x1="99.65" y1="595" x2="103.87" y2="595" gradientTransform="matrix(6.98, 11.94, 6.98, -3.88, -4818.51, 1691.77)" xlink:href="#e"/><linearGradient id="p" x1="109.11" y1="635.86" x2="113.33" y2="635.86" gradientTransform="matrix(-9.12, 15.61, -9.12, -5.06, 6889.79, 2088.2)" xlink:href="#e"/><linearGradient id="q" x1="130.04" y1="608.72" x2="134.26" y2="608.72" gradientTransform="matrix(0.11, 5.46, 9.47, 0.07, -5717.23, -170.66)" xlink:href="#e"/><linearGradient id="r" x1="106.09" y1="556.1" x2="110.31" y2="556.1" gradientTransform="matrix(3.26, 5.57, 3.26, -1.81, -2109.58, 1003.92)" xlink:href="#e"/><linearGradient id="s" x1="126.18" y1="643.56" x2="130.4" y2="643.56" gradientTransform="matrix(-4.26, 7.28, -4.26, -2.36, 3351.73, 1188.99)" xlink:href="#e"/><linearGradient id="t" x1="100.46" y1="624.53" x2="102.86" y2="624.53" xlink:href="#a"/><linearGradient id="u" x1="21.63" y1="579.78" x2="98.56" y2="579.78" gradientUnits="userSpaceOnUse"><stop offset="0" stop-color="#fff" stop-opacity="0"/><stop offset="0.34" stop-color="#fff" stop-opacity="0.12"/><stop offset="1" stop-color="#fff" stop-opacity="0.4"/></linearGradient><linearGradient id="v" x1="21.63" y1="612.4" x2="60.09" y2="612.4" gradientUnits="userSpaceOnUse"><stop offset="0" stop-color="#c2c2c2" stop-opacity="0.2"/><stop offset="0.31" stop-color="#b2b2b2" stop-opacity="0.17"/><stop offset="0.7" stop-color="#858585" stop-opacity="0.09"/><stop offset="1" stop-color="#545454" stop-opacity="0"/></linearGradient><linearGradient id="w" x1="38.75" y1="595.99" x2="78.68" y2="595.99" xlink:href="#u"/><linearGradient id="x" x1="47.1" y1="604.42" x2="60.85" y2="604.42" xlink:href="#u"/><linearGradient id="y" x1="47.11" y1="604.42" x2="60.85" y2="604.42" xlink:href="#u"/><linearGradient id="z" x1="55.65" y1="604.42" x2="73.61" y2="604.42" xlink:href="#u"/><linearGradient id="ab" x1="38.23" y1="506.71" x2="81.96" y2="506.71" xlink:href="#u"/><linearGradient id="ac" x1="38.23" y1="525.25" x2="60.09" y2="525.25" xlink:href="#v"/><linearGradient id="ad" x1="62.53" y1="516.75" x2="79.52" y2="533.75" gradientUnits="userSpaceOnUse"><stop offset="0" stop-color="#919191" stop-opacity="0"/><stop offset="0.74" stop-color="#767676" stop-opacity="0.29"/><stop offset="1" stop-color="#6b6b6b" stop-opacity="0.4"/></linearGradient><linearGradient id="ae" x1="33.68" y1="512.25" x2="82.35" y2="512.25" xlink:href="#u"/><linearGradient id="af" x1="64.37" y1="597.45" x2="94.28" y2="627.35" xlink:href="#ad"/><linearGradient id="ag" x1="43.84" y1="522.53" x2="60.58" y2="522.53" xlink:href="#u"/><linearGradient id="ah" x1="54.27" y1="522.53" x2="76.14" y2="522.53" xlink:href="#u"/><linearGradient id="ai" x1="47.96" y1="515.92" x2="70.66" y2="515.92" xlink:href="#u"/><linearGradient id="aj" x1="47.96" y1="515.92" x2="70.66" y2="515.92" xlink:href="#u"/><linearGradient id="ak" x1="52.71" y1="520.71" x2="60.52" y2="520.71" xlink:href="#u"/><linearGradient id="al" x1="52.71" y1="520.71" x2="60.52" y2="520.71" xlink:href="#u"/><linearGradient id="am" x1="57.57" y1="520.71" x2="67.77" y2="520.71" xlink:href="#u"/><linearGradient id="ao" x1="13.62" y1="589.54" x2="99.25" y2="589.54" xlink:href="#u"/><linearGradient id="ap" x1="31.49" y1="607.62" x2="60.94" y2="607.62" xlink:href="#u"/><linearGradient id="aq" x1="49.85" y1="607.62" x2="88.32" y2="607.62" xlink:href="#u"/><linearGradient id="ar" x1="38.74" y1="595.99" x2="78.68" y2="595.99" xlink:href="#u"/><clipPath id="at"><polygon points="21.63 579.5 60.04 601.66 98.56 579.5 59.12 557.9 21.63 579.5" style="fill:url(#u)"/></clipPath><mask id="au" x="20.7" y="557.31" width="78.79" height="44.95" maskUnits="userSpaceOnUse"><polygon points="98.56 557.9 99.49 602.26 21.63 601.66 20.7 557.31 98.56 557.9" style="fill:url(#a)"/></mask><linearGradient id="av" x1="102.92" y1="624.48" x2="107.14" y2="624.48" gradientTransform="matrix(0.44, 21.11, 36.61, 0.28, -22845.99, -1816.19)" gradientUnits="userSpaceOnUse"><stop offset="0" stop-color="#7d7d7d"/><stop offset="1" stop-color="#e5f7ff"/><stop offset="1" stop-color="#d1d1d1"/></linearGradient><clipPath id="ax"><polygon points="21.63 623.07 60.09 645.29 60.09 601.72 21.63 579.5 21.63 623.07" style="fill:url(#v)"/></clipPath><mask id="ay" x="21.63" y="557.29" width="38.46" height="110.23" maskUnits="userSpaceOnUse"><polygon points="21.63 557.29 60.09 579.5 60.09 667.51 21.63 645.29 21.63 557.29" style="fill:url(#b)"/></mask><linearGradient id="az" x1="66.98" y1="593.44" x2="71.81" y2="593.44" gradientTransform="matrix(7.97, 4.61, 0, -9.03, -512.34, 5651.87)" gradientUnits="userSpaceOnUse"><stop offset="0" stop-color="#36ffff" stop-opacity="0.1"/><stop offset="0.21" stop-color="#2f8bcb" stop-opacity="0.05"/><stop offset="0.49" stop-color="#2b34a4" stop-opacity="0.01"/><stop offset="0.86" stop-color="#291898" stop-opacity="0"/></linearGradient><clipPath id="bb"><polygon points="60.09 601.72 60.09 645.29 98.56 623.07 98.56 579.5 60.09 601.72" style="fill:url(#af)"/></clipPath><mask id="bc" x="60.09" y="557.28" width="38.46" height="110.24" maskUnits="userSpaceOnUse"><polygon points="98.56 557.28 60.09 579.5 60.09 667.52 98.56 645.29 98.56 557.28" style="fill:url(#m)"/></mask><linearGradient id="bd" x1="114.75" y1="619.77" x2="119.19" y2="619.77" gradientTransform="matrix(-8.68, 5.01, 0, -9.83, 1094.24, 6117.95)" xlink:href="#az"/><clipPath id="be"/><clipPath id="bg"><polygon points="82.06 589.38 60.71 601.67 39.41 589.38 60.2 577.4 82.06 589.38" style="fill:url(#ao)"/></clipPath><mask id="bh" x="38.9" y="577.07" width="43.68" height="24.93" maskUnits="userSpaceOnUse"><polygon points="82.06 577.4 82.58 602 39.41 601.67 38.9 577.07 82.06 577.4" style="fill:url(#n)"/></mask><linearGradient id="bi" x1="110.56" y1="620.1" x2="114.78" y2="620.1" gradientTransform="matrix(0.25, 11.7, 20.29, 0.15, -12551.76, -827.58)" xlink:href="#u"/><clipPath id="bl"><polygon points="60.74 625.86 39.41 613.54 39.41 589.38 60.74 601.7 60.74 625.86" style="fill:url(#ap)"/></clipPath><mask id="bm" x="23.32" y="580.44" width="53.52" height="54.35" maskUnits="userSpaceOnUse"><polygon points="55.52 580.44 76.84 616.92 44.64 634.8 23.32 598.32 55.52 580.44" style="fill:url(#o)"/></mask><linearGradient id="bn" x1="99.65" y1="595" x2="103.87" y2="595" gradientTransform="matrix(6.98, 11.94, 6.98, -3.88, -4818.51, 1691.77)" xlink:href="#u"/><clipPath id="bq"><polygon points="60.74 625.86 82.06 613.54 82.06 589.38 60.74 601.7 60.74 625.86" style="fill:url(#aq)"/></clipPath><mask id="br" x="44.64" y="580.45" width="53.52" height="54.34" maskUnits="userSpaceOnUse"><polygon points="65.97 580.45 44.64 616.92 76.84 634.79 98.16 598.32 65.97 580.45" style="fill:url(#p)"/></mask><linearGradient id="bs" x1="109.11" y1="635.86" x2="113.33" y2="635.86" gradientTransform="matrix(-9.12, 15.61, -9.12, -5.06, 6889.79, 2088.2)" xlink:href="#u"/><clipPath id="bu"><rect x="50.79" y="590.33" width="19.89" height="11.31" style="fill:url(#ar)"/></clipPath><clipPath id="bw"><polygon points="70.69 595.92 60.73 601.65 50.8 595.92 60.49 590.33 70.69 595.92" style="fill:url(#w)"/></clipPath><mask id="bx" x="50.55" y="590.17" width="20.37" height="11.63" maskUnits="userSpaceOnUse"><polygon points="70.69 590.33 70.93 601.8 50.8 601.65 50.55 590.17 70.69 590.33" style="fill:url(#q)"/></mask><linearGradient id="by" x1="130.04" y1="608.72" x2="134.26" y2="608.72" gradientTransform="matrix(0.11, 5.46, 9.47, 0.07, -5717.24, -170.66)" xlink:href="#u"/><clipPath id="ca"><rect x="50.79" y="595.92" width="9.95" height="17.01" style="fill:url(#x)"/></clipPath><clipPath id="cc"><polygon points="60.74 612.93 50.8 607.19 50.8 595.92 60.74 601.66 60.74 612.93" style="fill:url(#y)"/></clipPath><mask id="cd" x="43.29" y="591.75" width="24.97" height="25.35" maskUnits="userSpaceOnUse"><polygon points="58.3 591.75 68.25 608.76 53.23 617.1 43.28 600.09 58.3 591.75" style="fill:url(#r)"/></mask><linearGradient id="ce" x1="106.09" y1="556.1" x2="110.31" y2="556.1" gradientTransform="matrix(3.26, 5.57, 3.26, -1.81, -2109.58, 1003.92)" xlink:href="#u"/><clipPath id="cg"><rect x="60.74" y="595.92" width="9.94" height="17.01" style="fill:url(#z)"/></clipPath><clipPath id="ci"><polygon points="60.74 612.93 70.69 607.19 70.69 595.92 60.74 601.66 60.74 612.93" style="fill:url(#z)"/></clipPath><mask id="cj" x="53.23" y="591.75" width="24.97" height="25.35" maskUnits="userSpaceOnUse"><polygon points="63.18 591.75 53.23 608.76 68.25 617.1 78.2 600.09 63.18 591.75" style="fill:url(#s)"/></mask><linearGradient id="ck" x1="126.18" y1="643.56" x2="130.4" y2="643.56" gradientTransform="matrix(-4.26, 7.28, -4.26, -2.36, 3351.73, 1188.99)" xlink:href="#u"/><clipPath id="cm"><polygon points="38.23 506.55 60.06 519.15 81.96 506.55 59.54 494.27 38.23 506.55" style="fill:url(#ab)"/></clipPath><mask id="cn" x="37.7" y="493.93" width="44.78" height="25.55" maskUnits="userSpaceOnUse"><polygon points="81.96 494.27 82.49 519.48 38.23 519.15 37.7 493.93 81.96 494.27" style="fill:url(#t)"/></mask><linearGradient id="co" x1="100.46" y1="624.53" x2="102.86" y2="624.53" xlink:href="#av"/><clipPath id="cq"><polygon points="38.23 531.32 60.09 543.95 60.09 519.18 38.23 506.55 38.23 531.32" style="fill:url(#ac)"/></clipPath><mask id="cr" x="38.23" y="493.92" width="21.86" height="62.65" maskUnits="userSpaceOnUse"><polygon points="38.23 493.92 60.09 506.55 60.09 556.58 38.23 543.95 38.23 493.92" style="fill:url(#c)"/></mask><linearGradient id="cs" x1="69.07" y1="603.62" x2="71.81" y2="603.62" xlink:href="#az"/><clipPath id="cu"><polygon points="60.09 519.18 60.09 543.95 81.96 531.32 81.96 506.55 60.09 519.18" style="fill:url(#ad)"/></clipPath><mask id="cv" x="60.09" y="493.92" width="21.86" height="62.66" maskUnits="userSpaceOnUse"><polygon points="81.96 493.92 60.09 506.55 60.09 556.58 81.96 543.95 81.96 493.92" style="fill:url(#d)"/></mask><linearGradient id="cw" x1="116.67" y1="629.13" x2="119.19" y2="629.13" gradientTransform="matrix(-8.68, 5.01, 0, -9.83, 1094.24, 6117.95)" xlink:href="#az"/><clipPath id="cz"><polygon points="72.58 512.16 60.45 519.15 48.34 512.16 60.16 505.36 72.58 512.16" style="fill:url(#ae)"/></clipPath><mask id="da" x="48.05" y="505.17" width="24.83" height="14.17" maskUnits="userSpaceOnUse"><polygon points="72.58 505.36 72.88 519.34 48.34 519.15 48.05 505.17 72.58 505.36" style="fill:url(#e)"/></mask><linearGradient id="db" x1="104.95" y1="620.16" x2="107.35" y2="620.16" gradientTransform="matrix(0.25, 11.7, 20.29, 0.15, -12551.76, -827.58)" xlink:href="#u"/><clipPath id="de"><polygon points="60.46 532.9 48.34 525.89 48.34 512.16 60.46 519.17 60.46 532.9" style="fill:url(#ag)"/></clipPath><mask id="df" x="39.19" y="507.08" width="30.42" height="30.89" maskUnits="userSpaceOnUse"><polygon points="57.49 507.08 69.61 527.82 51.31 537.98 39.19 517.25 57.49 507.08" style="fill:url(#f)"/></mask><linearGradient id="dg" x1="95.57" y1="600.85" x2="97.97" y2="600.85" gradientTransform="matrix(6.98, 11.94, 6.98, -3.88, -4818.51, 1691.77)" xlink:href="#u"/><clipPath id="dj"><polygon points="60.46 532.9 72.58 525.89 72.58 512.16 60.46 519.17 60.46 532.9" style="fill:url(#ah)"/></clipPath><mask id="dk" x="51.31" y="507.09" width="30.42" height="30.89" maskUnits="userSpaceOnUse"><polygon points="63.43 507.09 51.31 527.82 69.61 537.98 81.73 517.25 63.43 507.09" style="fill:url(#g)"/></mask><linearGradient id="dl" x1="106.15" y1="640.38" x2="108.54" y2="640.38" gradientTransform="matrix(-9.12, 15.61, -9.12, -5.06, 6889.79, 2088.2)" xlink:href="#u"/><clipPath id="dn"><rect x="54.81" y="512.71" width="11.31" height="6.43" style="fill:url(#ai)"/></clipPath><clipPath id="dp"><polygon points="66.11 515.88 60.45 519.14 54.81 515.88 60.32 512.7 66.11 515.88" style="fill:url(#aj)"/></clipPath><mask id="dq" x="54.67" y="512.61" width="11.58" height="6.61" maskUnits="userSpaceOnUse"><polygon points="66.11 512.7 66.25 519.22 54.81 519.14 54.67 512.62 66.11 512.7" style="fill:url(#h)"/></mask><linearGradient id="dr" x1="116.38" y1="608.87" x2="118.78" y2="608.87" gradientTransform="matrix(0.11, 5.46, 9.47, 0.07, -5717.24, -170.66)" xlink:href="#u"/><clipPath id="dt"><rect x="54.81" y="515.88" width="5.66" height="9.67" style="fill:url(#ak)"/></clipPath><clipPath id="dv"><polygon points="60.46 525.55 54.81 522.29 54.81 515.88 60.46 519.15 60.46 525.55" style="fill:url(#al)"/></clipPath><mask id="dw" x="50.54" y="513.51" width="14.19" height="14.41" maskUnits="userSpaceOnUse"><polygon points="59.08 513.51 64.73 523.18 56.19 527.92 50.54 518.25 59.08 513.51" style="fill:url(#i)"/></mask><linearGradient id="dx" x1="96.04" y1="567.87" x2="98.44" y2="567.87" gradientTransform="matrix(3.26, 5.57, 3.26, -1.81, -2109.58, 1003.92)" xlink:href="#u"/><clipPath id="dz"><rect x="60.46" y="515.88" width="5.65" height="9.67" style="fill:url(#am)"/></clipPath><clipPath id="eb"><polygon points="60.46 525.55 66.11 522.29 66.11 515.88 60.46 519.15 60.46 525.55" style="fill:url(#am)"/></clipPath><mask id="ec" x="56.19" y="513.51" width="14.19" height="14.41" maskUnits="userSpaceOnUse"><polygon points="61.85 513.51 56.19 523.18 64.73 527.92 70.39 518.25 61.85 513.51" style="fill:url(#j)"/></mask><linearGradient id="ed" x1="118.66" y1="652.67" x2="121.06" y2="652.67" gradientTransform="matrix(-4.26, 7.28, -4.26, -2.36, 3351.73, 1188.99)" xlink:href="#u"/><clipPath id="ee"><polygon points="42.16 578.68 60.71 589.4 79.33 578.68 60.27 568.24 42.16 578.68" style="fill:none"/></clipPath><mask id="ef" x="41.7" y="567.95" width="38.07" height="21.73" maskUnits="userSpaceOnUse"><polygon points="79.33 568.24 79.78 589.68 42.16 589.4 41.7 567.95 79.33 568.24" style="fill:url(#k)"/></mask><linearGradient id="eg" x1="112.86" y1="618.64" x2="117.08" y2="618.64" gradientTransform="matrix(0.21, 10.21, 17.7, 0.13, -10911.42, -671.02)" gradientUnits="userSpaceOnUse"><stop offset="0" stop-color="#ff0d0d"/><stop offset="0.07" stop-color="#ff170c"/><stop offset="0.18" stop-color="#ff310a"/><stop offset="0.31" stop-color="#ff5a06"/><stop offset="0.43" stop-color="#ff8102"/><stop offset="0.54" stop-color="#ff5c06"/><stop offset="0.67" stop-color="#ff3a09"/><stop offset="0.8" stop-color="#ff210b"/><stop offset="0.91" stop-color="#ff120d"/><stop offset="1" stop-color="#ff0d0d"/></linearGradient><clipPath id="eh"><polygon points="21.63 452.46 21.63 579.5 60.74 601.66 98.56 579.5 98.56 425.25 21.63 452.46" style="fill:none"/></clipPath><mask id="ei" x="21.63" y="472.76" width="76.92" height="128.91" maskUnits="userSpaceOnUse"><rect x="21.63" y="472.76" width="76.92" height="128.91" style="fill:url(#l)"/></mask><linearGradient id="ej" x1="94.89" y1="631.03" x2="96.17" y2="631.03" gradientTransform="matrix(0, -144.33, -144.33, 0, 91138.98, 14297.77)" gradientUnits="userSpaceOnUse"><stop offset="0" stop-color="#c6b89e"/><stop offset="0.2" stop-color="#b7ad9c" stop-opacity="0.67"/><stop offset="0.4" stop-color="#a9a49a" stop-opacity="0.38"/><stop offset="0.56" stop-color="#a09e99" stop-opacity="0.17"/><stop offset="0.69" stop-color="#9a9998" stop-opacity="0.05"/><stop offset="0.77" stop-color="#989898" stop-opacity="0"/></linearGradient></defs><title>b1-4</title><rect width="690" height="760" style="fill:none"/><polygon points="21.63 579.5 60.04 601.66 98.56 579.5 59.12 557.9 21.63 579.5" style="fill:url(#u)"/><g style="clip-path:url(#at)"><g style="mask:url(#au)"><polygon points="98.56 557.9 99.49 602.26 21.63 601.66 20.7 557.31 98.56 557.9" style="fill:url(#av)"/></g></g><polygon points="21.63 623.07 60.09 645.29 60.09 601.72 21.63 579.5 21.63 623.07" style="fill:url(#v)"/><g style="clip-path:url(#ax)"><g style="mask:url(#ay)"><polygon points="21.63 557.29 60.09 579.5 60.09 667.51 21.63 645.29 21.63 557.29" style="fill:url(#az)"/></g></g><polygon points="60.09 601.72 60.09 645.29 98.56 623.07 98.56 579.5 60.09 601.72" style="fill:url(#af)"/><g style="clip-path:url(#bb)"><g style="mask:url(#bc)"><polygon points="98.56 557.28 60.09 579.5 60.09 667.52 98.56 645.29 98.56 557.28" style="fill:url(#bd)"/></g></g><g style="clip-path:url(#be)"><polygon points="82.06 589.38 60.71 601.67 39.41 589.38 60.2 577.4 82.06 589.38" style="fill:url(#ao)"/><g style="clip-path:url(#bg)"><g style="mask:url(#bh)"><polygon points="82.06 577.4 82.58 602 39.41 601.67 38.9 577.07 82.06 577.4" style="fill:url(#bi)"/></g></g></g><g style="clip-path:url(#be)"><polygon points="60.74 625.86 39.41 613.54 39.41 589.38 60.74 601.7 60.74 625.86" style="fill:url(#ap)"/><g style="clip-path:url(#bl)"><g style="mask:url(#bm)"><polygon points="55.52 580.44 76.84 616.92 44.64 634.8 23.32 598.32 55.52 580.44" style="fill:url(#bn)"/></g></g></g><g style="clip-path:url(#be)"><polygon points="60.74 625.86 82.06 613.54 82.06 589.38 60.74 601.7 60.74 625.86" style="fill:url(#aq)"/><g style="clip-path:url(#bq)"><g style="mask:url(#br)"><polygon points="65.97 580.45 44.64 616.92 76.84 634.79 98.16 598.32 65.97 580.45" style="fill:url(#bs)"/></g></g></g><rect x="50.79" y="590.33" width="19.89" height="11.31" style="fill:url(#ar)"/><g style="clip-path:url(#bu)"><polygon points="70.69 595.92 60.73 601.65 50.8 595.92 60.49 590.33 70.69 595.92" style="fill:url(#w)"/><g style="clip-path:url(#bw)"><g style="mask:url(#bx)"><polygon points="70.69 590.33 70.93 601.8 50.8 601.65 50.55 590.17 70.69 590.33" style="fill:url(#by)"/></g></g></g><rect x="50.79" y="595.92" width="9.95" height="17.01" style="fill:url(#x)"/><g style="clip-path:url(#ca)"><polygon points="60.74 612.93 50.8 607.19 50.8 595.92 60.74 601.66 60.74 612.93" style="fill:url(#y)"/><g style="clip-path:url(#cc)"><g style="mask:url(#cd)"><polygon points="58.3 591.75 68.25 608.76 53.23 617.1 43.28 600.09 58.3 591.75" style="fill:url(#ce)"/></g></g></g><rect x="60.74" y="595.92" width="9.94" height="17.01" style="fill:url(#z)"/><g style="clip-path:url(#cg)"><polygon points="60.74 612.93 70.69 607.19 70.69 595.92 60.74 601.66 60.74 612.93" style="fill:url(#z)"/><g style="clip-path:url(#ci)"><g style="mask:url(#cj)"><polygon points="63.18 591.75 53.23 608.76 68.25 617.1 78.2 600.09 63.18 591.75" style="fill:url(#ck)"/></g></g></g><polygon points="38.23 506.55 60.06 519.15 81.96 506.55 59.54 494.27 38.23 506.55" style="fill:url(#ab)"/><g style="clip-path:url(#cm)"><g style="mask:url(#cn)"><polygon points="81.96 494.27 82.49 519.48 38.23 519.15 37.7 493.93 81.96 494.27" style="fill:url(#co)"/></g></g><polygon points="38.23 531.32 60.09 543.95 60.09 519.18 38.23 506.55 38.23 531.32" style="fill:url(#ac)"/><g style="clip-path:url(#cq)"><g style="mask:url(#cr)"><polygon points="38.23 493.92 60.09 506.55 60.09 556.58 38.23 543.95 38.23 493.92" style="fill:url(#cs)"/></g></g><polygon points="60.09 519.18 60.09 543.95 81.96 531.32 81.96 506.55 60.09 519.18" style="fill:url(#ad)"/><g style="clip-path:url(#cu)"><g style="mask:url(#cv)"><polygon points="81.96 493.92 60.09 506.55 60.09 556.58 81.96 543.95 81.96 493.92" style="fill:url(#cw)"/></g></g><g style="clip-path:url(#be)"><polygon points="72.58 512.16 60.45 519.15 48.34 512.16 60.16 505.36 72.58 512.16" style="fill:url(#ae)"/><g style="clip-path:url(#cz)"><g style="mask:url(#da)"><polygon points="72.58 505.36 72.88 519.34 48.34 519.15 48.05 505.17 72.58 505.36" style="fill:url(#db)"/></g></g></g><g style="clip-path:url(#be)"><polygon points="60.46 532.9 48.34 525.89 48.34 512.16 60.46 519.17 60.46 532.9" style="fill:url(#ag)"/><g style="clip-path:url(#de)"><g style="mask:url(#df)"><polygon points="57.49 507.08 69.61 527.82 51.31 537.98 39.19 517.25 57.49 507.08" style="fill:url(#dg)"/></g></g></g><g style="clip-path:url(#be)"><polygon points="60.46 532.9 72.58 525.89 72.58 512.16 60.46 519.17 60.46 532.9" style="fill:url(#ah)"/><g style="clip-path:url(#dj)"><g style="mask:url(#dk)"><polygon points="63.43 507.09 51.31 527.82 69.61 537.98 81.73 517.25 63.43 507.09" style="fill:url(#dl)"/></g></g></g><rect x="54.81" y="512.71" width="11.31" height="6.43" style="fill:url(#ai)"/><g style="clip-path:url(#dn)"><polygon points="66.11 515.88 60.45 519.14 54.81 515.88 60.32 512.7 66.11 515.88" style="fill:url(#aj)"/><g style="clip-path:url(#dp)"><g style="mask:url(#dq)"><polygon points="66.11 512.7 66.25 519.22 54.81 519.14 54.67 512.62 66.11 512.7" style="fill:url(#dr)"/></g></g></g><rect x="54.81" y="515.88" width="5.66" height="9.67" style="fill:url(#ak)"/><g style="clip-path:url(#dt)"><polygon points="60.46 525.55 54.81 522.29 54.81 515.88 60.46 519.15 60.46 525.55" style="fill:url(#al)"/><g style="clip-path:url(#dv)"><g style="mask:url(#dw)"><polygon points="59.08 513.51 64.73 523.18 56.19 527.92 50.54 518.25 59.08 513.51" style="fill:url(#dx)"/></g></g></g><rect x="60.46" y="515.88" width="5.65" height="9.67" style="fill:url(#am)"/><g style="clip-path:url(#dz)"><polygon points="60.46 525.55 66.11 522.29 66.11 515.88 60.46 519.15 60.46 525.55" style="fill:url(#am)"/><g style="clip-path:url(#eb)"><g style="mask:url(#ec)"><polygon points="61.85 513.51 56.19 523.18 64.73 527.92 70.39 518.25 61.85 513.51" style="fill:url(#ed)"/></g></g></g><g style="clip-path:url(#ee)"><g style="mask:url(#ef)"><polygon points="79.33 568.24 79.78 589.68 42.16 589.4 41.7 567.95 79.33 568.24" style="fill:url(#eg)"/></g></g><g style="clip-path:url(#eh)"><g style="mask:url(#ei)"><rect x="21.63" y="472.76" width="76.92" height="128.91" style="opacity:0.89;fill:url(#ej)"/></g></g><path d="M57.28,667a3.78,3.78,0,0,1-1,2.74,3.63,3.63,0,0,1-2.73,1.08,3.58,3.58,0,0,1-2.71-1.08,3.8,3.8,0,0,1-1-2.74V665.4a3.81,3.81,0,0,1,1-2.74,3.56,3.56,0,0,1,2.7-1.09,3.63,3.63,0,0,1,2.73,1.09,3.78,3.78,0,0,1,1.05,2.74Zm-1.81-1.63a2.73,2.73,0,0,0-.53-1.73,1.73,1.73,0,0,0-1.45-.68,1.69,1.69,0,0,0-1.43.67,2.8,2.8,0,0,0-.51,1.73V667a2.81,2.81,0,0,0,.51,1.75,1.7,1.7,0,0,0,1.43.68,1.73,1.73,0,0,0,1.45-.68,2.79,2.79,0,0,0,.52-1.75Z" style="fill:#333"/><path d="M64.72,663.1H62.17v7.62H60.36V663.1H57.83v-1.39h6.9Z" style="fill:#333"/><path d="M72.33,667.65v0a2.93,2.93,0,0,1-.89,2.31,3.56,3.56,0,0,1-2.53.85,3.52,3.52,0,0,1-2.64-1,3.71,3.71,0,0,1-1-2.69v-1.79a3.77,3.77,0,0,1,1-2.69,3.38,3.38,0,0,1,2.58-1.05,3.74,3.74,0,0,1,2.61.86,2.93,2.93,0,0,1,.92,2.34v0H70.58a2,2,0,0,0-.43-1.36,1.7,1.7,0,0,0-1.33-.47,1.51,1.51,0,0,0-1.29.66,2.8,2.8,0,0,0-.48,1.68v1.8a2.72,2.72,0,0,0,.5,1.69,1.61,1.61,0,0,0,1.36.66,1.59,1.59,0,0,0,1.25-.46,2,2,0,0,0,.41-1.35Z" style="fill:#333"/></svg>