<svg xmlns="http://www.w3.org/2000/svg" viewBox="0 0 550 550"><title>Монтажная область 1</title><path d="M406.92,218.33C401.82,214.48,351,173,275,173s-126.82,41.48-131.92,45.33L274.88,382.56Z" style="fill:#0067f0;fill-opacity:0.2923460006713867"/><path d="M275,3V41.85c128.77,0,233.15,104.38,233.15,233.15S403.76,508.15,275,508.15c-125.46,0-227.75-99.09-232.93-223.28H3.18C8.38,430.52,128.07,547,275,547c150.23,0,272-121.78,272-272S425.22,3,275,3Z" style="fill:#0067f0"/><path d="M274.88,382.56,371,263.1c-4.87-3.74-41.48-33.43-96-33.43s-91.12,29.69-96,33.43Z" style="fill:#0067f0"/></svg>