<svg width="15" height="15" viewBox="0 0 15 15" fill="none" xmlns="http://www.w3.org/2000/svg">
<path d="M6.55401 9.44055C7.22554 9.61788 8.69318 10.0055 8.9265 9.06797C9.16559 8.10939 7.74222 7.79004 7.04769 7.63421C6.97007 7.6168 6.90157 7.60143 6.8455 7.58744L6.39357 9.3989C6.43963 9.41033 6.49359 9.42459 6.55401 9.44055Z" fill="#C6AA76"/>
<path d="M7.18721 6.79356C7.74706 6.94296 8.96831 7.26884 9.18106 6.41674C9.39829 5.54518 8.21135 5.28246 7.63166 5.15414C7.56646 5.13971 7.50894 5.12698 7.46196 5.11527L7.05223 6.75822C7.09092 6.76787 7.13633 6.77999 7.18721 6.79356Z" fill="#C6AA76"/>
<path fill-rule="evenodd" clip-rule="evenodd" d="M5.68502 14.7755C9.70379 15.7774 13.7737 13.3322 14.7755 9.31434C15.7773 5.29626 13.3321 1.22614 9.31352 0.224433C5.29591 -0.777272 1.22601 1.66817 0.224665 5.68649C-0.777633 9.70411 1.66786 13.7737 5.68502 14.7755ZM9.15715 4.53918C10.1962 4.89708 10.9562 5.43355 10.8068 6.43151C10.6988 7.16205 10.2937 7.51572 9.75603 7.6397C10.4944 8.02407 10.8701 8.61352 10.5122 9.63539C10.068 10.9045 9.01275 11.0116 7.60939 10.7461L7.26881 12.1108L6.44583 11.9058L6.78197 10.5593C6.56866 10.5063 6.35068 10.4501 6.12611 10.3891L5.78881 11.7419L4.96677 11.5369L5.30737 10.1695C5.23048 10.1498 5.15311 10.1297 5.07519 10.1093C4.9583 10.0789 4.84019 10.0481 4.72066 10.0181L3.64968 9.75116L4.05824 8.80922C4.05824 8.80922 4.66463 8.97047 4.65644 8.95852C4.88941 9.01617 4.99279 8.8643 5.03357 8.76305L5.57175 6.60565C5.59196 6.6105 5.61175 6.61546 5.63084 6.62025L5.65871 6.62721C5.62591 6.61409 5.59614 6.60565 5.57317 6.59979L5.95711 5.05973C5.96719 4.88489 5.90696 4.66434 5.57365 4.58114C5.58653 4.57247 4.97593 4.43255 4.97593 4.43255L5.19486 3.55365L6.32981 3.83701L6.32888 3.84122C6.49951 3.88365 6.67532 3.92396 6.85439 3.96474L7.19169 2.61335L8.0142 2.81842L7.68371 4.14333C7.90451 4.19372 8.12672 4.24458 8.34306 4.29849L8.67123 2.98225L9.49421 3.18732L9.15715 4.53918Z" fill="#C6AA76"/>
</svg>
