<svg width="25" height="24" viewBox="0 0 25 24" fill="none" xmlns="http://www.w3.org/2000/svg">
<path d="M0 1.93079C0 1.04126 0.721103 0.32016 1.61063 0.32016H23.3894C24.2789 0.32016 25 1.04126 25 1.93079C25 2.82031 24.2789 3.54142 23.3894 3.54142H1.61063C0.721105 3.54142 0 2.82031 0 1.93079Z" fill="#221835"/>
<path d="M6.73077 11.7096C6.73077 10.8201 7.45187 10.099 8.3414 10.099H23.3894C24.2789 10.099 25 10.8201 25 11.7096C25 12.5991 24.2789 13.3202 23.3894 13.3202H8.3414C7.45187 13.3202 6.73077 12.5991 6.73077 11.7096Z" fill="#221835"/>
<path d="M0 21.4884C0 20.5989 0.721103 19.8778 1.61063 19.8778H23.3894C24.2789 19.8778 25 20.5989 25 21.4884C25 22.378 24.2789 23.0991 23.3894 23.0991H1.61063C0.721105 23.0991 0 22.378 0 21.4884Z" fill="#221835"/>
</svg>
