<svg width="15" height="15" viewBox="0 0 15 15" fill="none" xmlns="http://www.w3.org/2000/svg">
<path d="M0.828003 0H14.172C14.3916 0 14.6022 0.0872498 14.7574 0.242523C14.9127 0.397797 15 0.608398 15 0.828003V14.172C15 14.3916 14.9127 14.6022 14.7574 14.7575C14.6022 14.9128 14.3916 15 14.172 15H10.3566V9.19919H12.312L12.6049 6.9288H10.3566V5.48279C10.3566 4.827 10.5385 4.38 11.4792 4.38H12.6708V2.3544C12.5983 2.34674 12.5258 2.33957 12.4531 2.33289C11.9449 2.28616 11.4347 2.2637 10.9242 2.26559C9.19556 2.26559 8.01245 3.3204 8.01245 5.25781V6.9288H6.06421V9.19919H8.01245V15H0.828003C0.608398 15 0.397827 14.9128 0.242554 14.7575C0.0872803 14.6022 0 14.3916 0 14.172V0.828003C0 0.608398 0.0872803 0.397797 0.242554 0.242523C0.397827 0.0872498 0.608398 0 0.828003 0Z" fill="#959595"/>
</svg>
