<svg width="15" height="15" viewBox="0 0 15 15" fill="none" xmlns="http://www.w3.org/2000/svg">
<path fill-rule="evenodd" clip-rule="evenodd" d="M7.5 0C3.3584 0 0 3.44251 0 7.68984C0 11.087 2.14884 13.9688 5.12968 14.986C5.50448 15.0559 5.64169 14.8189 5.64169 14.6155C5.64169 14.4328 5.63524 13.949 5.63156 13.3075C3.54533 13.772 3.10516 12.2766 3.10516 12.2766C2.76398 11.3887 2.27224 11.1517 2.27224 11.1517C1.59126 10.675 2.32381 10.6844 2.32381 10.6844C3.07661 10.7387 3.47258 11.4774 3.47258 11.4774C4.14159 12.6518 5.22822 12.3129 5.6555 12.1166C5.72364 11.6195 5.91748 11.2806 6.13159 11.0885C4.4662 10.894 2.71518 10.2346 2.71518 7.28815C2.71518 6.44888 3.00755 5.76255 3.48732 5.22491C3.41043 5.03043 3.15259 4.24874 3.561 3.18998C3.561 3.18998 4.19087 2.98324 5.62328 3.97828C6.22138 3.80787 6.86321 3.72244 7.50091 3.7196C8.13815 3.72244 8.77908 3.80787 9.37856 3.97828C10.8105 2.98324 11.4395 3.18998 11.4395 3.18998C11.8488 4.24874 11.5909 5.03043 11.5141 5.22491C11.9943 5.76255 12.2848 6.44888 12.2848 7.28815C12.2848 10.2421 10.531 10.8921 8.86013 11.0823C9.12948 11.3202 9.36889 11.7894 9.36889 12.5069C9.36889 13.535 9.35969 14.3639 9.35969 14.6164C9.35969 14.8222 9.4946 15.0606 9.87537 14.986C12.8535 13.9674 15 11.0871 15 7.69079C15.0005 3.44252 11.6425 0 7.5 0Z" fill="#C6AA76"/>
</svg>
