<svg width="35" height="35" viewBox="0 0 35 35" fill="none" xmlns="http://www.w3.org/2000/svg">
<circle cx="17.5" cy="17.5" r="17.5" fill="url(#paint0_linear)"/>
<path d="M13.6591 13.292H10V23.877H13.6591V13.292Z" fill="#FF2B0A"/>
<path d="M11.8306 8C10.6845 8 9.78726 9.06614 10.0457 10.2669C10.196 10.9647 10.758 11.5253 11.4496 11.6659C12.6288 11.9056 13.6601 11.0021 13.6601 9.85154C13.6599 8.83063 12.8421 8 11.8306 8Z" fill="#FF2B0A"/>
<path d="M25.6854 16.5432C25.4393 14.5481 24.4534 13.2915 21.7888 13.2915C19.8978 13.2915 19.146 13.5903 18.7122 14.4256V13.2915H15.75V23.8765H18.7985V18.3357C18.7985 16.9525 19.0575 15.9077 20.747 15.9077C22.4124 15.9077 22.5462 17.1936 22.5462 18.4255V23.8767H25.6856C25.6856 23.8767 25.7435 17.0095 25.6854 16.5432Z" fill="#FF2B0A"/>
<defs>
<linearGradient id="paint0_linear" x1="-4" y1="45" x2="27.5" y2="3" gradientUnits="userSpaceOnUse">
<stop stop-color="#CFCFCF"/>
<stop offset="1" stop-color="#F1F1F1"/>
</linearGradient>
</defs>
</svg>
