<svg id="Layer_1" data-name="Layer 1" xmlns="http://www.w3.org/2000/svg" viewBox="0 0 122.36 174"><defs><style>.cls-1{fill:#555759;}.cls-2{fill:#e15829;}</style></defs><title>FF_V</title><g id="_Group_" data-name="&lt;Group&gt;"><g id="_Group_2" data-name="&lt;Group&gt;"><g id="_Group_3" data-name="&lt;Group&gt;"><polygon id="_Path_" data-name="&lt;Path&gt;" class="cls-1" points="0 154.74 3.59 154.74 3.59 147.72 12.18 147.72 12.18 144.8 3.59 144.8 3.59 140.71 12.66 140.71 12.66 137.79 0 137.79 0 154.74"/><path id="_Compound_Path_" data-name="&lt;Compound Path&gt;" class="cls-1" d="M386.35,348.17a5.28,5.28,0,0,0-2.09-.51h-5a5.11,5.11,0,0,0-2.07.52,10.89,10.89,0,0,0-2.47,2,2.55,2.55,0,0,0-.53,1.66v8.84a2.55,2.55,0,0,0,.53,1.65,10.82,10.82,0,0,0,2.49,2,5.09,5.09,0,0,0,2.05.51h5a5.29,5.29,0,0,0,2.1-.52,10.75,10.75,0,0,0,2.44-2,2.59,2.59,0,0,0,.56-1.66v-8.84a2.59,2.59,0,0,0-.57-1.66A11.53,11.53,0,0,0,386.35,348.17Zm-.57,12.49a4.23,4.23,0,0,1-1.54,1.28h-4.84l-.08,0a5.13,5.13,0,0,1-1.56-1.26v-8.75a4.5,4.5,0,0,1,1.58-1.34h4.91a4.85,4.85,0,0,1,1.53,1.27.11.11,0,0,1,0,.06Z" transform="translate(-359.52 -210.01)"/><path id="_Compound_Path_2" data-name="&lt;Compound Path&gt;" class="cls-1" d="M403.74,357.41a10.24,10.24,0,0,0,1.81-1.54,2.8,2.8,0,0,0,.62-1.73v-2.42a2.92,2.92,0,0,0-.62-1.76,10.25,10.25,0,0,0-1.81-1.53,4.9,4.9,0,0,0-2.42-.64h-9.46v16.95h3.59V358h3.62l4.49,6.72h4l-4.74-6.91A4,4,0,0,0,403.74,357.41Zm-1.16-3.17a2.72,2.72,0,0,1-1.29.86h-5.84v-4.39h6a3.81,3.81,0,0,1,1.14.92c0,.05,0,.12,0,.14v2.31A1.37,1.37,0,0,1,402.58,354.24Z" transform="translate(-359.52 -210.01)"/><polygon id="_Path_2" data-name="&lt;Path&gt;" class="cls-1" points="58.86 146.05 54.07 137.79 49.97 137.79 49.97 154.74 53.53 154.74 53.53 143.32 57.66 150.57 59.99 150.57 64.19 143.3 64.19 154.74 67.72 154.74 67.72 137.79 63.68 137.79 58.86 146.05"/><path id="_Compound_Path_3" data-name="&lt;Compound Path&gt;" class="cls-1" d="M441.92,348.17a5.28,5.28,0,0,0-2.09-.51h-5a5.11,5.11,0,0,0-2.07.52,10.89,10.89,0,0,0-2.47,2,2.55,2.55,0,0,0-.53,1.66v8.84a2.55,2.55,0,0,0,.53,1.65,10.82,10.82,0,0,0,2.49,2,5.09,5.09,0,0,0,2.05.51h5a5.28,5.28,0,0,0,2.1-.52,10.75,10.75,0,0,0,2.44-2,2.59,2.59,0,0,0,.56-1.66v-8.84a2.59,2.59,0,0,0-.57-1.66A11.54,11.54,0,0,0,441.92,348.17Zm-.57,12.49a4.23,4.23,0,0,1-1.54,1.28H435l-.08,0a5.13,5.13,0,0,1-1.56-1.26v-8.75a4.5,4.5,0,0,1,1.58-1.34h4.91a4.84,4.84,0,0,1,1.53,1.27.11.11,0,0,1,0,.06Z" transform="translate(-359.52 -210.01)"/><path id="_Path_3" data-name="&lt;Path&gt;" class="cls-1" d="M452.69,350.6h0l.08,0h4.47a4.63,4.63,0,0,1,1.56,1.3l.5.84,3.49-.85-.24-.44a6.9,6.9,0,0,0-.95-1.45,5.93,5.93,0,0,0-4.3-2.34h-4.68a5.11,5.11,0,0,0-2.07.52,10.89,10.89,0,0,0-2.47,2,2.55,2.55,0,0,0-.53,1.66v1.64a3.25,3.25,0,0,0,2.63,3.14l8.66,1.88a.57.57,0,0,1,.36.51v1.62A4.37,4.37,0,0,1,457.6,362h-5.15a4.86,4.86,0,0,1-1.61-1.32l-.46-.78-3.46.78.24.45a8.7,8.7,0,0,0,.91,1.47,6,6,0,0,0,4.34,2.34h5.31a5.11,5.11,0,0,0,2.07-.52,10.84,10.84,0,0,0,2.48-2,2.55,2.55,0,0,0,.53-1.66v-1.83a3.31,3.31,0,0,0-2.69-3.09l-8.63-1.94a.5.5,0,0,1-.33-.46v-1.5A4.85,4.85,0,0,1,452.69,350.6Z" transform="translate(-359.52 -210.01)"/><path id="_Compound_Path_4" data-name="&lt;Compound Path&gt;" class="cls-1" d="M474.89,347.79h-4.13l-7,16.95h3.81l1.46-3.6h7.57l1.43,3.6h3.84Zm.56,10.45H470.2l2.63-6.5Z" transform="translate(-359.52 -210.01)"/></g><g id="_Group_4" data-name="&lt;Group&gt;"><polygon id="_Path_4" data-name="&lt;Path&gt;" class="cls-1" points="0 173.88 3.29 173.88 3.29 167.56 11.02 167.56 11.02 164.89 3.29 164.89 3.29 161.25 11.45 161.25 11.45 158.57 0 158.57 0 173.88"/><rect id="_Path_5" data-name="&lt;Path&gt;" class="cls-1" x="14.2" y="158.57" width="3.28" height="15.3"/><polygon id="_Path_6" data-name="&lt;Path&gt;" class="cls-1" points="30.55 168.61 24.13 158.57 20.6 158.57 20.6 173.88 23.86 173.88 23.86 163.94 30.34 173.88 33.8 173.88 33.8 158.57 30.55 158.57 30.55 168.61"/><path id="_Compound_Path_5" data-name="&lt;Compound Path&gt;" class="cls-1" d="M401.86,368.58l-6.31,15.3H399l1.32-3.24h6.78l1.29,3.24h3.52l-6.31-15.3Zm4.21,9.41h-4.65l2.33-5.76Z" transform="translate(-359.52 -210.01)"/><polygon id="_Path_7" data-name="&lt;Path&gt;" class="cls-1" points="64.52 168.61 58.11 158.57 54.58 158.57 54.58 173.88 57.84 173.88 57.84 163.94 64.31 173.88 67.78 173.88 67.78 158.57 64.52 158.57 64.52 168.61"/><path id="_Path_8" data-name="&lt;Path&gt;" class="cls-1" d="M433.64,372.28a4.73,4.73,0,0,1,1.37-1.14h3.69a3.84,3.84,0,0,1,1.62,1.59l.14.35,3.24-.79-.23-.42a6.24,6.24,0,0,0-.85-1.31,5.36,5.36,0,0,0-3.9-2.12h-3.81a4.63,4.63,0,0,0-1.87.47,10.44,10.44,0,0,0-2.21,1.83,2.28,2.28,0,0,0-.51,1.48v8a2.35,2.35,0,0,0,.51,1.5,9.51,9.51,0,0,0,2.22,1.82,4.78,4.78,0,0,0,1.89.46h3.78a5.61,5.61,0,0,0,3.89-2.11h0a5.44,5.44,0,0,0,.87-1.36l.19-.41-3.21-.71-.14.34a3.69,3.69,0,0,1-1.59,1.56H435a4,4,0,0,1-1.37-1.12v-7.79S433.64,372.31,433.64,372.28Z" transform="translate(-359.52 -210.01)"/><rect id="_Path_9" data-name="&lt;Path&gt;" class="cls-1" x="86.72" y="158.57" width="3.28" height="15.3"/><path id="_Compound_Path_6" data-name="&lt;Compound Path&gt;" class="cls-1" d="M458.06,368.58l-6.31,15.3h3.48l1.32-3.24h6.78l1.29,3.24h3.52l-6.31-15.3Zm4.21,9.41h-4.65l2.33-5.76Z" transform="translate(-359.52 -210.01)"/><polygon id="_Path_10" data-name="&lt;Path&gt;" class="cls-1" points="114.33 171.2 114.33 158.57 111.05 158.57 111.05 173.88 122.36 173.88 122.36 171.2 114.33 171.2"/></g></g><g id="_Group_5" data-name="&lt;Group&gt;"><g id="_Group_6" data-name="&lt;Group&gt;"><polygon id="_Path_11" data-name="&lt;Path&gt;" class="cls-2" points="0 61.18 48.67 61.18 44.84 34.41 0 34.41 0 61.18"/><polygon id="_Path_12" data-name="&lt;Path&gt;" class="cls-1" points="0 122.36 34.97 122.36 27.32 68.83 0 68.83 0 122.36"/><rect id="_Path_13" data-name="&lt;Path&gt;" class="cls-2" width="57.36" height="26.77"/></g><g id="_Group_7" data-name="&lt;Group&gt;"><polygon id="_Path_14" data-name="&lt;Path&gt;" class="cls-2" points="122.36 61.18 73.69 61.18 77.51 34.41 122.36 34.41 122.36 61.18"/><polygon id="_Path_15" data-name="&lt;Path&gt;" class="cls-1" points="122.36 122.36 87.39 122.36 95.04 68.83 122.36 68.83 122.36 122.36"/><rect id="_Path_16" data-name="&lt;Path&gt;" class="cls-2" x="65" width="57.36" height="26.77"/></g></g></g><g id="_Group_8" data-name="&lt;Group&gt;"><g id="_Group_9" data-name="&lt;Group&gt;"><g id="_Group_10" data-name="&lt;Group&gt;"><polygon id="_Path_17" data-name="&lt;Path&gt;" class="cls-1" points="0 154.74 3.59 154.74 3.59 147.72 12.18 147.72 12.18 144.8 3.59 144.8 3.59 140.71 12.66 140.71 12.66 137.79 0 137.79 0 154.74"/><path id="_Compound_Path_7" data-name="&lt;Compound Path&gt;" class="cls-1" d="M386.35,348.17a5.28,5.28,0,0,0-2.09-.51h-5a5.11,5.11,0,0,0-2.07.52,10.89,10.89,0,0,0-2.47,2,2.55,2.55,0,0,0-.53,1.66v8.84a2.55,2.55,0,0,0,.53,1.65,10.82,10.82,0,0,0,2.49,2,5.09,5.09,0,0,0,2.05.51h5a5.29,5.29,0,0,0,2.1-.52,10.75,10.75,0,0,0,2.44-2,2.59,2.59,0,0,0,.56-1.66v-8.84a2.59,2.59,0,0,0-.57-1.66A11.53,11.53,0,0,0,386.35,348.17Zm-.57,12.49a4.23,4.23,0,0,1-1.54,1.28h-4.84l-.08,0a5.13,5.13,0,0,1-1.56-1.26v-8.75a4.5,4.5,0,0,1,1.58-1.34h4.91a4.85,4.85,0,0,1,1.53,1.27.11.11,0,0,1,0,.06Z" transform="translate(-359.52 -210.01)"/><path id="_Compound_Path_8" data-name="&lt;Compound Path&gt;" class="cls-1" d="M403.74,357.41a10.24,10.24,0,0,0,1.81-1.54,2.8,2.8,0,0,0,.62-1.73v-2.42a2.92,2.92,0,0,0-.62-1.76,10.25,10.25,0,0,0-1.81-1.53,4.9,4.9,0,0,0-2.42-.64h-9.46v16.95h3.59V358h3.62l4.49,6.72h4l-4.74-6.91A4,4,0,0,0,403.74,357.41Zm-1.16-3.17a2.72,2.72,0,0,1-1.29.86h-5.84v-4.39h6a3.81,3.81,0,0,1,1.14.92c0,.05,0,.12,0,.14v2.31A1.37,1.37,0,0,1,402.58,354.24Z" transform="translate(-359.52 -210.01)"/><polygon id="_Path_18" data-name="&lt;Path&gt;" class="cls-1" points="58.86 146.05 54.07 137.79 49.97 137.79 49.97 154.74 53.53 154.74 53.53 143.32 57.66 150.57 59.99 150.57 64.19 143.3 64.19 154.74 67.72 154.74 67.72 137.79 63.68 137.79 58.86 146.05"/><path id="_Compound_Path_9" data-name="&lt;Compound Path&gt;" class="cls-1" d="M441.92,348.17a5.28,5.28,0,0,0-2.09-.51h-5a5.11,5.11,0,0,0-2.07.52,10.89,10.89,0,0,0-2.47,2,2.55,2.55,0,0,0-.53,1.66v8.84a2.55,2.55,0,0,0,.53,1.65,10.82,10.82,0,0,0,2.49,2,5.09,5.09,0,0,0,2.05.51h5a5.28,5.28,0,0,0,2.1-.52,10.75,10.75,0,0,0,2.44-2,2.59,2.59,0,0,0,.56-1.66v-8.84a2.59,2.59,0,0,0-.57-1.66A11.54,11.54,0,0,0,441.92,348.17Zm-.57,12.49a4.23,4.23,0,0,1-1.54,1.28H435l-.08,0a5.13,5.13,0,0,1-1.56-1.26v-8.75a4.5,4.5,0,0,1,1.58-1.34h4.91a4.84,4.84,0,0,1,1.53,1.27.11.11,0,0,1,0,.06Z" transform="translate(-359.52 -210.01)"/><path id="_Path_19" data-name="&lt;Path&gt;" class="cls-1" d="M452.69,350.6h0l.08,0h4.47a4.63,4.63,0,0,1,1.56,1.3l.5.84,3.49-.85-.24-.44a6.9,6.9,0,0,0-.95-1.45,5.93,5.93,0,0,0-4.3-2.34h-4.68a5.11,5.11,0,0,0-2.07.52,10.89,10.89,0,0,0-2.47,2,2.55,2.55,0,0,0-.53,1.66v1.64a3.25,3.25,0,0,0,2.63,3.14l8.66,1.88a.57.57,0,0,1,.36.51v1.62A4.37,4.37,0,0,1,457.6,362h-5.15a4.86,4.86,0,0,1-1.61-1.32l-.46-.78-3.46.78.24.45a8.7,8.7,0,0,0,.91,1.47,6,6,0,0,0,4.34,2.34h5.31a5.11,5.11,0,0,0,2.07-.52,10.84,10.84,0,0,0,2.48-2,2.55,2.55,0,0,0,.53-1.66v-1.83a3.31,3.31,0,0,0-2.69-3.09l-8.63-1.94a.5.5,0,0,1-.33-.46v-1.5A4.85,4.85,0,0,1,452.69,350.6Z" transform="translate(-359.52 -210.01)"/><path id="_Compound_Path_10" data-name="&lt;Compound Path&gt;" class="cls-1" d="M474.89,347.79h-4.13l-7,16.95h3.81l1.46-3.6h7.57l1.43,3.6h3.84Zm.56,10.45H470.2l2.63-6.5Z" transform="translate(-359.52 -210.01)"/></g><g id="_Group_11" data-name="&lt;Group&gt;"><polygon id="_Path_20" data-name="&lt;Path&gt;" class="cls-1" points="0 173.88 3.29 173.88 3.29 167.56 11.02 167.56 11.02 164.89 3.29 164.89 3.29 161.25 11.45 161.25 11.45 158.57 0 158.57 0 173.88"/><rect id="_Path_21" data-name="&lt;Path&gt;" class="cls-1" x="14.2" y="158.57" width="3.28" height="15.3"/><polygon id="_Path_22" data-name="&lt;Path&gt;" class="cls-1" points="30.55 168.61 24.13 158.57 20.6 158.57 20.6 173.88 23.86 173.88 23.86 163.94 30.34 173.88 33.8 173.88 33.8 158.57 30.55 158.57 30.55 168.61"/><path id="_Compound_Path_11" data-name="&lt;Compound Path&gt;" class="cls-1" d="M401.86,368.58l-6.31,15.3H399l1.32-3.24h6.78l1.29,3.24h3.52l-6.31-15.3Zm4.21,9.41h-4.65l2.33-5.76Z" transform="translate(-359.52 -210.01)"/><polygon id="_Path_23" data-name="&lt;Path&gt;" class="cls-1" points="64.52 168.61 58.11 158.57 54.58 158.57 54.58 173.88 57.84 173.88 57.84 163.94 64.31 173.88 67.78 173.88 67.78 158.57 64.52 158.57 64.52 168.61"/><path id="_Path_24" data-name="&lt;Path&gt;" class="cls-1" d="M433.64,372.28a4.73,4.73,0,0,1,1.37-1.14h3.69a3.84,3.84,0,0,1,1.62,1.59l.14.35,3.24-.79-.23-.42a6.24,6.24,0,0,0-.85-1.31,5.36,5.36,0,0,0-3.9-2.12h-3.81a4.63,4.63,0,0,0-1.87.47,10.44,10.44,0,0,0-2.21,1.83,2.28,2.28,0,0,0-.51,1.48v8a2.35,2.35,0,0,0,.51,1.5,9.51,9.51,0,0,0,2.22,1.82,4.78,4.78,0,0,0,1.89.46h3.78a5.61,5.61,0,0,0,3.89-2.11h0a5.44,5.44,0,0,0,.87-1.36l.19-.41-3.21-.71-.14.34a3.69,3.69,0,0,1-1.59,1.56H435a4,4,0,0,1-1.37-1.12v-7.79S433.64,372.31,433.64,372.28Z" transform="translate(-359.52 -210.01)"/><rect id="_Path_25" data-name="&lt;Path&gt;" class="cls-1" x="86.72" y="158.57" width="3.28" height="15.3"/><path id="_Compound_Path_12" data-name="&lt;Compound Path&gt;" class="cls-1" d="M458.06,368.58l-6.31,15.3h3.48l1.32-3.24h6.78l1.29,3.24h3.52l-6.31-15.3Zm4.21,9.41h-4.65l2.33-5.76Z" transform="translate(-359.52 -210.01)"/><polygon id="_Path_26" data-name="&lt;Path&gt;" class="cls-1" points="114.33 171.2 114.33 158.57 111.05 158.57 111.05 173.88 122.36 173.88 122.36 171.2 114.33 171.2"/></g></g><g id="_Group_12" data-name="&lt;Group&gt;"><g id="_Group_13" data-name="&lt;Group&gt;"><polygon id="_Path_27" data-name="&lt;Path&gt;" class="cls-2" points="0 61.18 48.67 61.18 44.84 34.41 0 34.41 0 61.18"/><polygon id="_Path_28" data-name="&lt;Path&gt;" class="cls-1" points="0 122.36 34.97 122.36 27.32 68.83 0 68.83 0 122.36"/><rect id="_Path_29" data-name="&lt;Path&gt;" class="cls-2" width="57.36" height="26.77"/></g><g id="_Group_14" data-name="&lt;Group&gt;"><polygon id="_Path_30" data-name="&lt;Path&gt;" class="cls-2" points="122.36 61.18 73.69 61.18 77.51 34.41 122.36 34.41 122.36 61.18"/><polygon id="_Path_31" data-name="&lt;Path&gt;" class="cls-1" points="122.36 122.36 87.39 122.36 95.04 68.83 122.36 68.83 122.36 122.36"/><rect id="_Path_32" data-name="&lt;Path&gt;" class="cls-2" x="65" width="57.36" height="26.77"/></g></g></g><g id="_Group_15" data-name="&lt;Group&gt;"><g id="_Group_16" data-name="&lt;Group&gt;"><g id="_Group_17" data-name="&lt;Group&gt;"><polygon id="_Path_33" data-name="&lt;Path&gt;" class="cls-1" points="0 154.74 3.59 154.74 3.59 147.72 12.18 147.72 12.18 144.8 3.59 144.8 3.59 140.71 12.66 140.71 12.66 137.79 0 137.79 0 154.74"/><path id="_Compound_Path_13" data-name="&lt;Compound Path&gt;" class="cls-1" d="M386.35,348.17a5.28,5.28,0,0,0-2.09-.51h-5a5.11,5.11,0,0,0-2.07.52,10.89,10.89,0,0,0-2.47,2,2.55,2.55,0,0,0-.53,1.66v8.84a2.55,2.55,0,0,0,.53,1.65,10.82,10.82,0,0,0,2.49,2,5.09,5.09,0,0,0,2.05.51h5a5.29,5.29,0,0,0,2.1-.52,10.75,10.75,0,0,0,2.44-2,2.59,2.59,0,0,0,.56-1.66v-8.84a2.59,2.59,0,0,0-.57-1.66A11.53,11.53,0,0,0,386.35,348.17Zm-.57,12.49a4.23,4.23,0,0,1-1.54,1.28h-4.84l-.08,0a5.13,5.13,0,0,1-1.56-1.26v-8.75a4.5,4.5,0,0,1,1.58-1.34h4.91a4.85,4.85,0,0,1,1.53,1.27.11.11,0,0,1,0,.06Z" transform="translate(-359.52 -210.01)"/><path id="_Compound_Path_14" data-name="&lt;Compound Path&gt;" class="cls-1" d="M403.74,357.41a10.24,10.24,0,0,0,1.81-1.54,2.8,2.8,0,0,0,.62-1.73v-2.42a2.92,2.92,0,0,0-.62-1.76,10.25,10.25,0,0,0-1.81-1.53,4.9,4.9,0,0,0-2.42-.64h-9.46v16.95h3.59V358h3.62l4.49,6.72h4l-4.74-6.91A4,4,0,0,0,403.74,357.41Zm-1.16-3.17a2.72,2.72,0,0,1-1.29.86h-5.84v-4.39h6a3.81,3.81,0,0,1,1.14.92c0,.05,0,.12,0,.14v2.31A1.37,1.37,0,0,1,402.58,354.24Z" transform="translate(-359.52 -210.01)"/><polygon id="_Path_34" data-name="&lt;Path&gt;" class="cls-1" points="58.86 146.05 54.07 137.79 49.97 137.79 49.97 154.74 53.53 154.74 53.53 143.32 57.66 150.57 59.99 150.57 64.19 143.3 64.19 154.74 67.72 154.74 67.72 137.79 63.68 137.79 58.86 146.05"/><path id="_Compound_Path_15" data-name="&lt;Compound Path&gt;" class="cls-1" d="M441.92,348.17a5.28,5.28,0,0,0-2.09-.51h-5a5.11,5.11,0,0,0-2.07.52,10.89,10.89,0,0,0-2.47,2,2.55,2.55,0,0,0-.53,1.66v8.84a2.55,2.55,0,0,0,.53,1.65,10.82,10.82,0,0,0,2.49,2,5.09,5.09,0,0,0,2.05.51h5a5.28,5.28,0,0,0,2.1-.52,10.75,10.75,0,0,0,2.44-2,2.59,2.59,0,0,0,.56-1.66v-8.84a2.59,2.59,0,0,0-.57-1.66A11.54,11.54,0,0,0,441.92,348.17Zm-.57,12.49a4.23,4.23,0,0,1-1.54,1.28H435l-.08,0a5.13,5.13,0,0,1-1.56-1.26v-8.75a4.5,4.5,0,0,1,1.58-1.34h4.91a4.84,4.84,0,0,1,1.53,1.27.11.11,0,0,1,0,.06Z" transform="translate(-359.52 -210.01)"/><path id="_Path_35" data-name="&lt;Path&gt;" class="cls-1" d="M452.69,350.6h0l.08,0h4.47a4.63,4.63,0,0,1,1.56,1.3l.5.84,3.49-.85-.24-.44a6.9,6.9,0,0,0-.95-1.45,5.93,5.93,0,0,0-4.3-2.34h-4.68a5.11,5.11,0,0,0-2.07.52,10.89,10.89,0,0,0-2.47,2,2.55,2.55,0,0,0-.53,1.66v1.64a3.25,3.25,0,0,0,2.63,3.14l8.66,1.88a.57.57,0,0,1,.36.51v1.62A4.37,4.37,0,0,1,457.6,362h-5.15a4.86,4.86,0,0,1-1.61-1.32l-.46-.78-3.46.78.24.45a8.7,8.7,0,0,0,.91,1.47,6,6,0,0,0,4.34,2.34h5.31a5.11,5.11,0,0,0,2.07-.52,10.84,10.84,0,0,0,2.48-2,2.55,2.55,0,0,0,.53-1.66v-1.83a3.31,3.31,0,0,0-2.69-3.09l-8.63-1.94a.5.5,0,0,1-.33-.46v-1.5A4.85,4.85,0,0,1,452.69,350.6Z" transform="translate(-359.52 -210.01)"/><path id="_Compound_Path_16" data-name="&lt;Compound Path&gt;" class="cls-1" d="M474.89,347.79h-4.13l-7,16.95h3.81l1.46-3.6h7.57l1.43,3.6h3.84Zm.56,10.45H470.2l2.63-6.5Z" transform="translate(-359.52 -210.01)"/></g><g id="_Group_18" data-name="&lt;Group&gt;"><polygon id="_Path_36" data-name="&lt;Path&gt;" class="cls-1" points="0 173.88 3.29 173.88 3.29 167.56 11.02 167.56 11.02 164.89 3.29 164.89 3.29 161.25 11.45 161.25 11.45 158.57 0 158.57 0 173.88"/><rect id="_Path_37" data-name="&lt;Path&gt;" class="cls-1" x="14.2" y="158.57" width="3.28" height="15.3"/><polygon id="_Path_38" data-name="&lt;Path&gt;" class="cls-1" points="30.55 168.61 24.13 158.57 20.6 158.57 20.6 173.88 23.86 173.88 23.86 163.94 30.34 173.88 33.8 173.88 33.8 158.57 30.55 158.57 30.55 168.61"/><path id="_Compound_Path_17" data-name="&lt;Compound Path&gt;" class="cls-1" d="M401.86,368.58l-6.31,15.3H399l1.32-3.24h6.78l1.29,3.24h3.52l-6.31-15.3Zm4.21,9.41h-4.65l2.33-5.76Z" transform="translate(-359.52 -210.01)"/><polygon id="_Path_39" data-name="&lt;Path&gt;" class="cls-1" points="64.52 168.61 58.11 158.57 54.58 158.57 54.58 173.88 57.84 173.88 57.84 163.94 64.31 173.88 67.78 173.88 67.78 158.57 64.52 158.57 64.52 168.61"/><path id="_Path_40" data-name="&lt;Path&gt;" class="cls-1" d="M433.64,372.28a4.73,4.73,0,0,1,1.37-1.14h3.69a3.84,3.84,0,0,1,1.62,1.59l.14.35,3.24-.79-.23-.42a6.24,6.24,0,0,0-.85-1.31,5.36,5.36,0,0,0-3.9-2.12h-3.81a4.63,4.63,0,0,0-1.87.47,10.44,10.44,0,0,0-2.21,1.83,2.28,2.28,0,0,0-.51,1.48v8a2.35,2.35,0,0,0,.51,1.5,9.51,9.51,0,0,0,2.22,1.82,4.78,4.78,0,0,0,1.89.46h3.78a5.61,5.61,0,0,0,3.89-2.11h0a5.44,5.44,0,0,0,.87-1.36l.19-.41-3.21-.71-.14.34a3.69,3.69,0,0,1-1.59,1.56H435a4,4,0,0,1-1.37-1.12v-7.79S433.64,372.31,433.64,372.28Z" transform="translate(-359.52 -210.01)"/><rect id="_Path_41" data-name="&lt;Path&gt;" class="cls-1" x="86.72" y="158.57" width="3.28" height="15.3"/><path id="_Compound_Path_18" data-name="&lt;Compound Path&gt;" class="cls-1" d="M458.06,368.58l-6.31,15.3h3.48l1.32-3.24h6.78l1.29,3.24h3.52l-6.31-15.3Zm4.21,9.41h-4.65l2.33-5.76Z" transform="translate(-359.52 -210.01)"/><polygon id="_Path_42" data-name="&lt;Path&gt;" class="cls-1" points="114.33 171.2 114.33 158.57 111.05 158.57 111.05 173.88 122.36 173.88 122.36 171.2 114.33 171.2"/></g></g><g id="_Group_19" data-name="&lt;Group&gt;"><g id="_Group_20" data-name="&lt;Group&gt;"><polygon id="_Path_43" data-name="&lt;Path&gt;" class="cls-2" points="0 61.18 48.67 61.18 44.84 34.41 0 34.41 0 61.18"/><polygon id="_Path_44" data-name="&lt;Path&gt;" class="cls-1" points="0 122.36 34.97 122.36 27.32 68.83 0 68.83 0 122.36"/><rect id="_Path_45" data-name="&lt;Path&gt;" class="cls-2" width="57.36" height="26.77"/></g><g id="_Group_21" data-name="&lt;Group&gt;"><polygon id="_Path_46" data-name="&lt;Path&gt;" class="cls-2" points="122.36 61.18 73.69 61.18 77.51 34.41 122.36 34.41 122.36 61.18"/><polygon id="_Path_47" data-name="&lt;Path&gt;" class="cls-1" points="122.36 122.36 87.39 122.36 95.04 68.83 122.36 68.83 122.36 122.36"/><rect id="_Path_48" data-name="&lt;Path&gt;" class="cls-2" x="65" width="57.36" height="26.77"/></g></g></g><g id="_Group_22" data-name="&lt;Group&gt;"><g id="_Group_23" data-name="&lt;Group&gt;"><g id="_Group_24" data-name="&lt;Group&gt;"><polygon id="_Path_49" data-name="&lt;Path&gt;" class="cls-1" points="0 154.74 3.59 154.74 3.59 147.72 12.18 147.72 12.18 144.8 3.59 144.8 3.59 140.71 12.66 140.71 12.66 137.79 0 137.79 0 154.74"/><path id="_Compound_Path_19" data-name="&lt;Compound Path&gt;" class="cls-1" d="M386.35,348.17a5.28,5.28,0,0,0-2.09-.51h-5a5.11,5.11,0,0,0-2.07.52,10.89,10.89,0,0,0-2.47,2,2.55,2.55,0,0,0-.53,1.66v8.84a2.55,2.55,0,0,0,.53,1.65,10.82,10.82,0,0,0,2.49,2,5.09,5.09,0,0,0,2.05.51h5a5.29,5.29,0,0,0,2.1-.52,10.75,10.75,0,0,0,2.44-2,2.59,2.59,0,0,0,.56-1.66v-8.84a2.59,2.59,0,0,0-.57-1.66A11.53,11.53,0,0,0,386.35,348.17Zm-.57,12.49a4.23,4.23,0,0,1-1.54,1.28h-4.84l-.08,0a5.13,5.13,0,0,1-1.56-1.26v-8.75a4.5,4.5,0,0,1,1.58-1.34h4.91a4.85,4.85,0,0,1,1.53,1.27.11.11,0,0,1,0,.06Z" transform="translate(-359.52 -210.01)"/><path id="_Compound_Path_20" data-name="&lt;Compound Path&gt;" class="cls-1" d="M403.74,357.41a10.24,10.24,0,0,0,1.81-1.54,2.8,2.8,0,0,0,.62-1.73v-2.42a2.92,2.92,0,0,0-.62-1.76,10.25,10.25,0,0,0-1.81-1.53,4.9,4.9,0,0,0-2.42-.64h-9.46v16.95h3.59V358h3.62l4.49,6.72h4l-4.74-6.91A4,4,0,0,0,403.74,357.41Zm-1.16-3.17a2.72,2.72,0,0,1-1.29.86h-5.84v-4.39h6a3.81,3.81,0,0,1,1.14.92c0,.05,0,.12,0,.14v2.31A1.37,1.37,0,0,1,402.58,354.24Z" transform="translate(-359.52 -210.01)"/><polygon id="_Path_50" data-name="&lt;Path&gt;" class="cls-1" points="58.86 146.05 54.07 137.79 49.97 137.79 49.97 154.74 53.53 154.74 53.53 143.32 57.66 150.57 59.99 150.57 64.19 143.3 64.19 154.74 67.72 154.74 67.72 137.79 63.68 137.79 58.86 146.05"/><path id="_Compound_Path_21" data-name="&lt;Compound Path&gt;" class="cls-1" d="M441.92,348.17a5.28,5.28,0,0,0-2.09-.51h-5a5.11,5.11,0,0,0-2.07.52,10.89,10.89,0,0,0-2.47,2,2.55,2.55,0,0,0-.53,1.66v8.84a2.55,2.55,0,0,0,.53,1.65,10.82,10.82,0,0,0,2.49,2,5.09,5.09,0,0,0,2.05.51h5a5.28,5.28,0,0,0,2.1-.52,10.75,10.75,0,0,0,2.44-2,2.59,2.59,0,0,0,.56-1.66v-8.84a2.59,2.59,0,0,0-.57-1.66A11.54,11.54,0,0,0,441.92,348.17Zm-.57,12.49a4.23,4.23,0,0,1-1.54,1.28H435l-.08,0a5.13,5.13,0,0,1-1.56-1.26v-8.75a4.5,4.5,0,0,1,1.58-1.34h4.91a4.84,4.84,0,0,1,1.53,1.27.11.11,0,0,1,0,.06Z" transform="translate(-359.52 -210.01)"/><path id="_Path_51" data-name="&lt;Path&gt;" class="cls-1" d="M452.69,350.6h0l.08,0h4.47a4.63,4.63,0,0,1,1.56,1.3l.5.84,3.49-.85-.24-.44a6.9,6.9,0,0,0-.95-1.45,5.93,5.93,0,0,0-4.3-2.34h-4.68a5.11,5.11,0,0,0-2.07.52,10.89,10.89,0,0,0-2.47,2,2.55,2.55,0,0,0-.53,1.66v1.64a3.25,3.25,0,0,0,2.63,3.14l8.66,1.88a.57.57,0,0,1,.36.51v1.62A4.37,4.37,0,0,1,457.6,362h-5.15a4.86,4.86,0,0,1-1.61-1.32l-.46-.78-3.46.78.24.45a8.7,8.7,0,0,0,.91,1.47,6,6,0,0,0,4.34,2.34h5.31a5.11,5.11,0,0,0,2.07-.52,10.84,10.84,0,0,0,2.48-2,2.55,2.55,0,0,0,.53-1.66v-1.83a3.31,3.31,0,0,0-2.69-3.09l-8.63-1.94a.5.5,0,0,1-.33-.46v-1.5A4.85,4.85,0,0,1,452.69,350.6Z" transform="translate(-359.52 -210.01)"/><path id="_Compound_Path_22" data-name="&lt;Compound Path&gt;" class="cls-1" d="M474.89,347.79h-4.13l-7,16.95h3.81l1.46-3.6h7.57l1.43,3.6h3.84Zm.56,10.45H470.2l2.63-6.5Z" transform="translate(-359.52 -210.01)"/></g><g id="_Group_25" data-name="&lt;Group&gt;"><polygon id="_Path_52" data-name="&lt;Path&gt;" class="cls-1" points="0 173.88 3.29 173.88 3.29 167.56 11.02 167.56 11.02 164.89 3.29 164.89 3.29 161.25 11.45 161.25 11.45 158.57 0 158.57 0 173.88"/><rect id="_Path_53" data-name="&lt;Path&gt;" class="cls-1" x="14.2" y="158.57" width="3.28" height="15.3"/><polygon id="_Path_54" data-name="&lt;Path&gt;" class="cls-1" points="30.55 168.61 24.13 158.57 20.6 158.57 20.6 173.88 23.86 173.88 23.86 163.94 30.34 173.88 33.8 173.88 33.8 158.57 30.55 158.57 30.55 168.61"/><path id="_Compound_Path_23" data-name="&lt;Compound Path&gt;" class="cls-1" d="M401.86,368.58l-6.31,15.3H399l1.32-3.24h6.78l1.29,3.24h3.52l-6.31-15.3Zm4.21,9.41h-4.65l2.33-5.76Z" transform="translate(-359.52 -210.01)"/><polygon id="_Path_55" data-name="&lt;Path&gt;" class="cls-1" points="64.52 168.61 58.11 158.57 54.58 158.57 54.58 173.88 57.84 173.88 57.84 163.94 64.31 173.88 67.78 173.88 67.78 158.57 64.52 158.57 64.52 168.61"/><path id="_Path_56" data-name="&lt;Path&gt;" class="cls-1" d="M433.64,372.28a4.73,4.73,0,0,1,1.37-1.14h3.69a3.84,3.84,0,0,1,1.62,1.59l.14.35,3.24-.79-.23-.42a6.24,6.24,0,0,0-.85-1.31,5.36,5.36,0,0,0-3.9-2.12h-3.81a4.63,4.63,0,0,0-1.87.47,10.44,10.44,0,0,0-2.21,1.83,2.28,2.28,0,0,0-.51,1.48v8a2.35,2.35,0,0,0,.51,1.5,9.51,9.51,0,0,0,2.22,1.82,4.78,4.78,0,0,0,1.89.46h3.78a5.61,5.61,0,0,0,3.89-2.11h0a5.44,5.44,0,0,0,.87-1.36l.19-.41-3.21-.71-.14.34a3.69,3.69,0,0,1-1.59,1.56H435a4,4,0,0,1-1.37-1.12v-7.79S433.64,372.31,433.64,372.28Z" transform="translate(-359.52 -210.01)"/><rect id="_Path_57" data-name="&lt;Path&gt;" class="cls-1" x="86.72" y="158.57" width="3.28" height="15.3"/><path id="_Compound_Path_24" data-name="&lt;Compound Path&gt;" class="cls-1" d="M458.06,368.58l-6.31,15.3h3.48l1.32-3.24h6.78l1.29,3.24h3.52l-6.31-15.3Zm4.21,9.41h-4.65l2.33-5.76Z" transform="translate(-359.52 -210.01)"/><polygon id="_Path_58" data-name="&lt;Path&gt;" class="cls-1" points="114.33 171.2 114.33 158.57 111.05 158.57 111.05 173.88 122.36 173.88 122.36 171.2 114.33 171.2"/></g></g><g id="_Group_26" data-name="&lt;Group&gt;"><g id="_Group_27" data-name="&lt;Group&gt;"><polygon id="_Path_59" data-name="&lt;Path&gt;" class="cls-2" points="0 61.18 48.67 61.18 44.84 34.41 0 34.41 0 61.18"/><polygon id="_Path_60" data-name="&lt;Path&gt;" class="cls-1" points="0 122.36 34.97 122.36 27.32 68.83 0 68.83 0 122.36"/><rect id="_Path_61" data-name="&lt;Path&gt;" class="cls-2" width="57.36" height="26.77"/></g><g id="_Group_28" data-name="&lt;Group&gt;"><polygon id="_Path_62" data-name="&lt;Path&gt;" class="cls-2" points="122.36 61.18 73.69 61.18 77.51 34.41 122.36 34.41 122.36 61.18"/><polygon id="_Path_63" data-name="&lt;Path&gt;" class="cls-1" points="122.36 122.36 87.39 122.36 95.04 68.83 122.36 68.83 122.36 122.36"/><rect id="_Path_64" data-name="&lt;Path&gt;" class="cls-2" x="65" width="57.36" height="26.77"/></g></g></g></svg>