<svg version="1.1" id="Layer_1" xmlns="http://www.w3.org/2000/svg" xmlns:xlink="http://www.w3.org/1999/xlink" x="0px" y="0px" viewBox="0 0 1200.6 759.8" style="enable-background:new 0 0 1200.6 759.8;" xml:space="preserve">
<style type="text/css">
    .st0{fill:#485056;}
    .st1{fill:none;stroke:#BDBDBD;stroke-width:2;}
    .st2{fill:#333333;}
    .st3{fill:none;stroke:#999999;stroke-dasharray:5,5;}
    .st4{fill:#FF5722;}
    .st5{fill:#50565A;}
    .st6{fill:#FFFFFF;}
    .st7{fill:#B0B0B0;}
    .st8{fill:transparent;stroke:#414141;}
    .st9{fill:none;stroke:#000000;stroke-miterlimit:10;}
    .st10{fill:none;stroke:#999999;stroke-miterlimit:10;stroke-dasharray:5,5;}
    .st11{fill:#414141;}
    .st12{clip-path:url(#SVGID_2_);}
    .st13{fill:none;stroke:#50565A;stroke-width:2.2;stroke-linecap:round;stroke-linejoin:round;stroke-miterlimit:10;}

    @keyframes offset_one {

        15% {

                stroke-dashoffset: 55;
        }

        100% {

                stroke-dashoffset: 55;
        }
    }
 
    .feat line:nth-of-type(1) {

        stroke-dashoffset: 5;
        animation: offset_one 10s linear infinite;
    }

    @keyframes offset_two {

        15% {

                stroke-dashoffset: 55;
        }

        100% {

                stroke-dashoffset: 55;
        }
    }
 
    .feat_two polyline,
    .feat line:nth-of-type(2) {

        stroke-dashoffset: 5;
        animation: offset_two 10s linear infinite;
    }

    .feat line:nth-of-type(3),
    .feat line:nth-of-type(4) {

        stroke-dashoffset: 5;
        animation: offset_two 10s linear infinite;
    }

    @keyframes offset_ten {

        5% {
 
            stroke-dashoffset: 193;
        }

        15% {
 
            stroke-dashoffset: 0;
        }

        100% {
 
            stroke-dashoffset: 0;
        }
    }

    .circle path {

        stroke-dasharray: 193;
        stroke-dashoffset: 193;
        animation: offset_ten 10s linear infinite;
    }

    @keyframes fade_in_fifteen {

        15% {
 
            opacity: 0;
        }

        30% {
 
            opacity: 1;
        }

        100% {
 
            opacity: 1;
        }
   }

   .hgh path:nth-of-type(7), .hgh path:nth-of-type(2), .hgh path:nth-of-type(3),
   .hgh path:nth-of-type(4), .hgh path:nth-of-type(5), .hgh path:nth-of-type(6) {

       opacity: 0;
       animation: fade_in_fifteen 10s linear infinite;
   }

    @keyframes offset_three {

         7.5% {

            stroke-dashoffset: 0;
         }

         100% {

            stroke-dashoffset: 0;
         }
     }

    .icon_one g:nth-of-type(2) polyline {

       stroke-dasharray: 80;
       stroke-dashoffset: 80;
       animation: offset_three 10s linear infinite;
   }

   @keyframes fade_in_one {

       7% {

           opacity: 0;
       }

       12% {

           opacity: 1;
       }

       100% {

           opacity: 1;
       }
   }

    .icon_one g:nth-of-type(2) path {

       opacity: 0;
       animation: fade_in_one 10s linear infinite;
   }

   @keyframes fade_in_two {

       5% {

           opacity: 1;
       }

       100% {

           opacity: 1;
       }
   }

   .icon_one g:nth-of-type(3) {

       opacity: 0;
       animation: fade_in_two 10s linear infinite;
   }

   @keyframes fade_in_twelve {

       10% {

           opacity: 0;
       }

       15% {

           opacity: 1;
       }

       100% {

           opacity: 1;
       }
   }

   .icon_one g:nth-of-type(4) {

       opacity: 0;
       animation: fade_in_twelve 10s linear infinite;
   }

    @keyframes offset_nine {

         15% {

            stroke-dashoffset: 80;
         }

         20% {

            stroke-dashoffset: 0;
         }

         100% {

            stroke-dashoffset: 0;
         }
     }

    .icon_one g:nth-of-type(1) polyline {

       stroke-dasharray: 80;
       stroke-dashoffset: 80;
       animation: offset_nine 10s linear infinite;
   }

   @keyframes fade_in_thirteen {

       19% {

           opacity: 0;
       }

       24% {

           opacity: 1;
       }

       100% {

           opacity: 1;
       }
   }

    .icon_one g:nth-of-type(1) path {

       opacity: 0;
       animation: fade_in_thirteen 10s linear infinite;
   }

    @keyframes offset_four {

         20% {

            stroke-dashoffset: 105;
         }

         27.5% {

            stroke-dashoffset: 0;
         }

         100% {

            stroke-dashoffset: 0;
         }
     }

    .icon_two g:nth-of-type(2) path:nth-of-type(1),
    .icon_two g:nth-of-type(1) path:nth-of-type(1) {

       stroke-dasharray: 105;
       stroke-dashoffset: 105;
       animation: offset_four 10s linear infinite;
   }

    @keyframes fade_in_three {

       27% {

           opacity: 0;
       }

       32% {

           opacity: 1;
       }

       100% {

           opacity: 1;
       }
   }

    .icon_two g:nth-of-type(2) path:nth-of-type(2),
    .icon_two g:nth-of-type(1) path:nth-of-type(2) {

       opacity: 0;
       animation: fade_in_three 10s linear infinite;
   }

    @keyframes fade_in_four {

       30% {

           opacity: 0;
       }

       45% {

           opacity: 1;
       }

       100% {

           opacity: 1;
       }
   }

    .icon_two g:nth-of-type(3) {

       opacity: 0;
       animation: fade_in_four 10s linear infinite;
   }

    @keyframes slide_one {

        35% {
 
            opacity: 0;
            transform: translate(-100px, 0px);
        }

        48% {
 
            opacity: 1;
            transform: translate(0px, 0px);
        }

        100% {
 
            opacity: 1;
            transform: translate(0px, 0px);
        }
    }

   .icon_three g:nth-of-type(2) path:nth-of-type(1) {

        opacity: 0;
        transform: translate(-100px, 0px);
        animation: slide_one 10s cubic-bezier(.74,.02,.36,.97) infinite;
   }

    @keyframes slide_two {

        40% {
 
            opacity: 0;
            transform: translate(0px, 100px);
        }

        53% {
 
            opacity: 1;
            transform: translate(0px, 0px);
        }

        100% {
 
            opacity: 1;
            transform: translate(0px, 0px);
        }
    }

   .icon_three g:nth-of-type(2) path:nth-of-type(2) {

        opacity: 0;
        transform: translate(0px, 100px);
        animation: slide_two 10s cubic-bezier(.74,.02,.36,.97) infinite;
   }

     @keyframes offset_five {

         45% {

            stroke-dashoffset: 150;
         }

         57% {

            stroke-dashoffset: 0;
         }

         100% {

            stroke-dashoffset: 0;
         }
     }

   .icon_three g:nth-of-type(2) polyline {

        stroke-dasharray: 150;
        stroke-dashoffset: 150;
        animation: offset_five 10s linear infinite;
   }

    @keyframes fade_in_five {

       53% {

           opacity: 0;
       }

       63% {

           opacity: 1;
       }

       100% {

           opacity: 1;
       }
   }

    .icon_three g:nth-of-type(2) path:nth-of-type(3) {

        opacity: 0;
        animation: fade_in_five 10s linear infinite;
   }

     @keyframes offset_six {

         60% {

            stroke-dashoffset: 25;
         }

         63.5% {

            stroke-dashoffset: 50;
         }

         100% {

            stroke-dashoffset: 50;
         }
     }

   .icon_four g:nth-of-type(2) line {

        stroke-dasharray: 25;
        stroke-dashoffset: 25;
        animation: offset_six 10s linear infinite;
    } 

    @keyframes fade_in_six {

       63.25% {

           opacity: 0;
       }

       66% {

           opacity: 1;
       }

       100% {

           opacity: 1;
       }
   }

   .icon_four g:nth-of-type(2) path {

        opacity: 0;
        animation: fade_in_six 10s linear infinite;
    } 

    @keyframes fade_in_seven {

       62.5% {

           opacity: 0;
       }

       67.5% {

           opacity: 1;
       }

       100% {

           opacity: 1;
       }
   }

    .icon_four g:nth-of-type(1) path:nth-of-type(3) {

        opacity: 0;
        animation: fade_in_six 10s linear infinite;
    }

     @keyframes offset_seven {

         66.25% {

            stroke-dashoffset: 25;
         }

         70% {

            stroke-dashoffset: 50;
         }

         100% {

            stroke-dashoffset: 50;
         }
     }

    .icon_four g:nth-of-type(3) line {

        stroke-dasharray: 25;
        stroke-dashoffset: 25;
        animation: offset_seven 10s linear infinite;
    } 

    @keyframes fade_in_eight {

       70% {

           opacity: 0;
       }

       72.5% {

           opacity: 1;
       }

       100% {

           opacity: 1;
       }
   }

    .icon_four g:nth-of-type(3) path {

        opacity: 0;
        animation: fade_in_eight 10s linear infinite;
    } 

    @keyframes fade_in_nine {

       71.25% {

           opacity: 0;
       }

       76.25% {

           opacity: 1;
       }

       100% {

           opacity: 1;
       }
   }

    .icon_four g:nth-of-type(1) path:nth-of-type(2) {

        opacity: 0;
        animation: fade_in_six 10s linear infinite;
    }

    @keyframes offset_eight {

         71.25% {

            stroke-dashoffset: 25;
         }

         75% {

            stroke-dashoffset: 50;
         }

         100% {

            stroke-dashoffset: 50;
         }
     }

    .icon_four g:nth-of-type(4) line {

        stroke-dasharray: 25;
        stroke-dashoffset: 25;
        animation: offset_eight 10s linear infinite;
    } 

    @keyframes fade_in_ten {

       75% {

           opacity: 0;
       }

       77.5% {

           opacity: 1;
       }

       100% {

           opacity: 1;
       }
   }

    .icon_four g:nth-of-type(4) path {

        opacity: 0;
        animation: fade_in_ten 10s linear infinite;
    } 

    @keyframes fade_in_eleventh {

       76.25% {

           opacity: 0;
       }

       81.25% {

           opacity: 1;
       }

       100% {

           opacity: 1;
       }
   }

    .icon_four g:nth-of-type(1) path:nth-of-type(1) {

        opacity: 0;
        animation: fade_in_six 10s linear infinite;
    }

    @keyframes fade_out_one {

        1% {

            opacity: 0;
        }

        100% {

            opacity: 0;
        }
    }

    .ft_one {

        animation: fade_out_one 10s linear infinite;
    }

    @keyframes fade_out_two {

        20% {

            opacity: 1;
        }

        21% {

            opacity: 0;
        }

        100% {

            opacity: 0;
        }
    }

    .ft_two {

        animation: fade_out_two 10s linear infinite;
    }

    @keyframes fade_out_three {

        35% {

            opacity: 1;
        }

        36% {

            opacity: 0;
        }

        100% {

            opacity: 0;
        }
    }

    .ft_three {

        animation: fade_out_three 10s linear infinite;
    }

    @keyframes fade_out_four {

        60% {

            opacity: 1;
        }

        61% {

            opacity: 0;
        }

        100% {

            opacity: 0;
        }
    }

    .ft_four {

        animation: fade_out_four 10s linear infinite;
    }
</style>
<g class="feat">
        <line class="st3" x1="696.7" y1="325.5" x2="1016.4" y2="325.5"/>
        <line class="st3" x1="190.8" y1="325.5" x2="510.5" y2="325.5"/>
        <line class="st3" x1="460" y1="189.2" x2="534.7" y2="251.9"/>
        <line class="st3" x1="733.9" y1="196.9" x2="672.2" y2="252.7"/>
</g>
<g class="feat_two">
        <polyline class="st10" points="334.7,635.7 334.7,538.1 334.2,538 568.8,538 568.8,538 568.8,478.4        "/>
        <polyline class="st10" points="254.5,598.9 254.5,525 555.3,525 555.3,525 555.3,478.4    "/>
        <polyline class="st10" points="407.7,663 407.7,554 583,554 583,478.4    "/>
        <polyline class="st10" points="791.4,663 791.4,554 616.1,554 616.1,478.4        "/>
        <polyline class="st10" points="866.6,635.2 866.6,537.6 867.1,537.5 632.5,537.5 632.5,537.5 632.5,477.9  "/>
        <polyline class="st10" points="946.8,598.4 946.8,524.5 646,524.5 646,524.5 646,477.9    "/>
</g>
<g>
        <path class="st4" d="M547.6,270.8c17.2,0,34.4,0,51.5,0c0,8.1,0,16.2,0,24.3c-17.2,0-34.3,0-51.5,0                 C547.6,287.1,547.6,279,547.6,270.8z"/>
        <path class="st4" d="M605.9,271.5c0-0.3,0.1-0.7,0.5-0.7c17,0,34,0,51.1,0c0.1,0.3,0.2,0.6,0.2,0.9c0,7.7,0,15.4,0,23.2                 c-0.1,0.2-0.4,0.3-0.6,0.3c-16.9,0-33.8,0-50.6,0c-0.4,0.1-0.5-0.4-0.4-0.6C605.9,286.9,605.9,279.2,605.9,271.5z"/>
        <path class="st4" d="M547.6,301.9c13.5,0,27,0,40.4,0c0.9,6.9,2,13.7,2.8,20.5c0.3,1,0.4,2.1,0.5,3.1c-0.1,0.1-0.2,0.4-0.2,0.5                 c-14.3,0-28.6,0-42.9,0c-0.4,0-0.7-0.3-0.6-0.6C547.6,317.6,547.7,309.8,547.6,301.9z"/>
        <path class="st4" d="M617,302c13.5,0,27,0,40.4,0c0,7.7,0,15.5,0,23.2c0,0.3-0.1,0.6-0.2,0.9c-14.4,0-28.9,0-43.3,0                 c-0.1-0.1-0.2-0.3-0.2-0.5c0.6-2.6,0.7-5.3,1.2-7.9c0.1-1.8,0.5-3.5,0.7-5.2c0.4-1.4,0.4-2.9,0.7-4.3c0.2-0.6,0.1-1.3,0.2-1.9                 C616.7,304.8,616.9,303.4,617,302z"/>
        <path class="st5" d="M547.7,332.8c0.3-0.1,0.6-0.3,0.9-0.2c7.9,0,15.8,0,23.7,0c0.3,0.7,0.3,1.5,0.4,2.3c0.3,3.2,1,6.3,1.3,9.5                 c0.6,3.6,1,7.3,1.6,10.9c0.9,6.8,2,13.5,2.8,20.3c0.4,1.6,0.4,3.3,0.8,4.9c-0.3,0.1-0.6,0.1-0.9,0.1c-10,0-20,0-30,0                 c-0.3,0-0.7,0-0.6-0.4C547.7,364.4,547.7,348.6,547.7,332.8z"/>
        <path class="st5" d="M632.9,332.6c7.3,0,14.7,0,22,0c0.8,0.1,1.7-0.1,2.4,0.1c0.2,0.5,0.1,1,0.1,1.5c0,15.5,0,30.9,0,46.4                 c-10.5,0.1-20.9,0-31.4,0c0-1.1,0.3-2.3,0.5-3.4c0.9-6.7,1.9-13.4,2.8-20.1c0.5-2.6,0.8-5.2,1.1-7.9c0.6-3.1,0.8-6.2,1.4-9.2                 C632.2,337.6,632.3,335.1,632.9,332.6z"/>
        <path class="st5" d="M564.9,394.3c1.6-0.2,3.2,0,4.8-0.1c1.8,0,3.3,1.2,4.4,2.4c0.3,0.4,0.5,0.9,0.4,1.4c0,2.7,0,5.4,0,8.1                 c0,0.7-0.5,1.3-1,1.8c-0.9,0.8-1.9,1.7-3.2,1.7c-1.9,0-3.7,0.1-5.6,0c-1.3-0.1-2.4-1.1-3.3-2c-0.6-0.6-0.7-1.4-0.7-2.2                 c0-2.5,0-5,0-7.4c0-1.2,1-2.1,1.9-2.8C563.4,394.8,564.1,394.5,564.9,394.3z M565.5,397c-0.6,0.4-1.5,0.9-1.4,1.8                 c0,2.4,0,4.7,0,7.1c0.5,0.5,1,1.2,1.9,1.1c1.3,0,2.6,0,3.9,0c0.6-0.2,1.4-0.7,1.3-1.5c0-2.3,0-4.6,0-7c0.1-0.8-0.8-1.2-1.4-1.6                 C568.4,397,567,396.8,565.5,397z"/>
        <path class="st5" d="M614.8,394.3c1.4-0.1,2.7,0,4.1,0c1.5-0.1,3,0.4,4,1.5c0.6,0.6,1.4,1.2,1.4,2.1c0,2.8,0.1,5.6,0,8.4                 c0,1.1-1,1.8-1.7,2.5c-0.7,0.6-1.5,1-2.5,1c-1.8,0-3.6,0-5.3,0c-1.3,0-2.4-1-3.3-1.8c-0.6-0.5-0.9-1.3-0.8-2.1c0-2.4,0-4.8,0-7.2                 c0-0.7,0.1-1.6,0.6-2.1C612.2,395.4,613.4,394.5,614.8,394.3z M613.9,398.6c0,2.3,0,4.6,0,6.9c-0.1,0.8,0.7,1.1,1.3,1.5                 c1.3,0.2,2.6,0,4,0.1c0.8,0.1,1.5-0.6,1.9-1.2c-0.1-2.5,0-5,0-7.5c-0.3-0.8-1.2-1.5-2.1-1.4c-1.2,0-2.3,0-3.5,0                 C614.8,397.3,613.9,397.7,613.9,398.6z"/>
        <path class="st5" d="M630.1,394.4c1-0.3,2.1-0.1,3.2-0.2c1.2,0,2.4-0.2,3.5,0.4c1.6,0.6,2.8,2,3.5,3.5c-1.1,0.4-2.1,0.7-3.3,0.8                 c-0.3-0.8-1-1.4-1.8-1.9c-1.3,0-2.6-0.1-3.8,0c-0.7,0.2-1.1,0.8-1.6,1.2c0,0.5,0,1,0,1.4c0.3,0.2,0.6,0.4,0.9,0.4                 c1.6,0.3,3.2,0.6,4.8,1.1c1.1,0.3,2.4,0.3,3.3,0.9c0.6,0.5,1.2,1,1.3,1.8s0,1.6,0,2.4c0,0.7-0.4,1.3-0.9,1.8                 c-0.9,0.7-1.8,1.6-3,1.7c-1.5,0.1-3,0-4.5,0c-1,0-2,0.1-2.9-0.4c-1.3-0.7-2.6-1.9-3-3.5c1.1-0.2,2.1-0.5,3.2-0.6                 c0.4,0.9,1.2,1.8,2.2,1.8c1.2,0,2.5,0,3.7,0c0.8,0.1,1.3-0.6,1.8-1.1c0-0.6,0-1.2-0.1-1.8c-1.3-0.2-2.6-0.6-3.9-0.9                 c-1.5-0.3-3-0.6-4.5-1c-1.2-0.4-2-1.6-1.9-2.8c0-1-0.2-2.2,0.5-3C628,395.6,628.9,394.7,630.1,394.4z"/>
        <path class="st5" d="M547.7,394.8c-0.1-0.4,0.3-0.5,0.6-0.5c3.6,0,7.1,0,10.7,0c0.1,0,0.2,0.1,0.2,0.2c0,0.8,0,1.5,0,2.3                 c-0.1,0-0.2,0.1-0.2,0.2c-2.6,0.1-5.3,0-7.9,0c0,1.2,0,2.3,0,3.5c2.5,0,5,0,7.5,0c0.1,0,0.2,0.2,0.2,0.2c0.1,0.8,0,1.7,0,2.5                 c-2.5,0.1-5.1,0-7.6,0c-0.1,2.1,0.1,4.1-0.1,6.2c-1.1,0.2-2.2,0.1-3.3,0C547.7,404.7,547.7,399.8,547.7,394.8z"/>
        <path class="st5" d="M576.9,394.4c2.8-0.1,5.6,0,8.4,0c1.3,0,2.6,0.7,3.4,1.6c0.7,0.5,1,1.4,1,2.3c0,1.1,0.2,2.5-0.6,3.4                 c-0.7,0.8-1.5,1.4-2.4,1.8c1.2,1.6,2.3,3.4,3.5,5c0.3,0.4,0.5,0.7,0.7,1.1c-1.2,0-2.4,0-3.6,0c-1.3-1.9-2.5-3.7-3.8-5.6                 c-0.1-0.3-0.4-0.4-0.7-0.4c-0.9-0.1-1.8,0-2.6,0c-0.2,2,0.2,4.1-0.2,6c-1.1,0-2.1,0-3.2,0C576.7,404.6,576.8,399.6,576.9,394.4                 C576.7,394.6,576.8,394.5,576.9,394.4z M580.1,397.1c-0.1,1.3-0.1,2.5,0,3.8c1.6,0,3.1,0,4.7,0c0.6,0,1.2-0.3,1.5-0.8                 c0.1-0.8,0.1-1.5,0-2.3c-0.2-0.3-0.5-0.5-0.8-0.7C583.7,397.1,581.9,397.1,580.1,397.1z"/>
        <path class="st5" d="M592.5,394.8c-0.1-0.5,0.5-0.4,0.9-0.4c0.9,0,1.8,0,2.8,0c0.3,0.3,0.5,0.7,0.8,1.1c1.2,2.1,2.4,4.1,3.6,6.2                 c1-1.6,1.9-3.3,2.9-5c0.5-0.8,0.8-1.7,1.4-2.3c1.2-0.1,2.4,0,3.6,0c0.1,5.1,0,10.2,0,15.3c-1.1,0-2.1,0-3.2,0                 c-0.1-3.3,0-6.5-0.1-9.8c-1.5,1.9-2.3,4.2-3.7,6.1c-0.7-0.1-1.4,0.1-2.1-0.1c-1.3-1.9-2.2-4-3.5-5.9c-0.2,3.3,0,6.5-0.1,9.8                 c-1.1,0-2.2,0.1-3.3,0C592.4,404.7,592.5,399.7,592.5,394.8z"/>
        <path class="st5" d="M647.5,394.4c1.2-0.1,2.4,0,3.6,0c1.7,3.9,3.2,7.8,4.9,11.7c0.4,1.2,1.1,2.3,1.4,3.6c-1.1,0-2.2,0-3.3,0                 c-0.6-1-0.9-2.2-1.4-3.3c-2.2,0-4.4,0-6.7,0c-0.4,1.1-0.9,2.1-1.3,3.2c-1.2,0-2.3,0-3.5,0c1.8-4.8,3.9-9.5,5.8-14.2                 C647.1,395.1,647.1,394.6,647.5,394.4z M647,403.7c1.5,0,3,0,4.5,0c-0.8-1.8-1.5-3.7-2.3-5.5C648.4,400,647.8,401.9,647,403.7z"/>
        <path class="st5" d="M547.8,413c3.4,0,6.9,0,10.3,0c0,0.8,0,1.7,0,2.5c-2.4,0-4.8,0-7.2,0c-0.1,1,0,2.1-0.1,3.1c2,0.1,4.1,0,6.1,0                 c0.3,0,0.6,0.1,0.8,0.2c0,0.8,0,1.5,0,2.3c-2.3,0.3-4.7-0.1-7,0.2c0,1.8,0,3.6,0,5.4c-0.2,0.4-0.7,0.2-1.1,0.3                 c-0.7,0-1.4,0.1-2.1-0.2c0-3.6,0-7.3,0-10.9C547.7,414.8,547.6,413.9,547.8,413z"/>
        <path class="st5" d="M560.4,412.9c1,0,2,0,3,0c0,4.7,0,9.4,0,14.1c-0.9,0-1.8,0-2.7,0c-0.1,0-0.2-0.1-0.2-0.2                 C560.4,422.2,560.4,417.6,560.4,412.9z"/>
        <path class="st5" d="M566.2,413c1.1,0,2.1-0.1,3.2,0c2,2.8,3.7,5.9,5.7,8.7c0-2.9,0-5.8,0-8.7c1-0.1,2,0,3,0c0,4.6,0,9.2,0,13.8                 c-1,0-2.1,0.1-3.1-0.1c-2-2.8-3.7-5.8-5.7-8.6c0,2.8,0,5.6,0,8.4c-1,0.4-2.1,0.2-3.1,0.1C566.2,422.1,566.1,417.5,566.2,413z"/>
        <path class="st5" d="M585.7,412.9c1.1,0,2.2,0,3.2,0c0.9,1.7,1.5,3.6,2.3,5.3c1.1,2.8,2.3,5.6,3.5,8.4c-0.3,0.3-0.8,0.1-1.2,0.2                 c-0.7,0-1.5,0.1-2.2-0.2c-0.3-0.9-0.6-1.8-1-2.7c-2,0-4,0-6,0c-0.3,0.9-0.8,1.8-1.1,2.7c-1,0.4-2.2,0.1-3.2,0.2                 c0.2-1.3,0.9-2.4,1.3-3.6c0.8-2.1,1.7-4.2,2.6-6.3C584.6,415.6,585,414.2,585.7,412.9z M586.1,419.8c-0.2,0.5-0.5,1-0.6,1.6                 c1.3,0,2.6,0,3.9,0c-0.4-1.7-1.4-3.2-1.8-4.8C586.8,417.5,586.5,418.7,586.1,419.8z"/>
        <path class="st5" d="M596.7,413c1,0,2.1-0.1,3.1,0c2,2.8,3.7,5.9,5.7,8.6c0.1-2.9-0.1-5.7,0.1-8.6c1-0.2,2-0.1,2.9-0.1                 c0.1,4.6,0,9.1,0.1,13.7c-1,0.2-2,0-3,0.1c-0.2-0.2-0.4-0.4-0.6-0.6c-1.4-2.1-2.7-4.2-4.1-6.3c-0.4-0.6-0.7-1.2-1.2-1.6                 c0,2.8,0,5.5,0,8.3c-0.1,0.1-0.2,0.2-0.2,0.2c-0.9,0-1.9,0.1-2.8-0.1C596.7,422.1,596.5,417.5,596.7,413z"/>
        <path class="st5" d="M613.1,413.6c1.4-1.1,3.3-0.5,4.9-0.7c2.3-0.3,4.5,1.4,5.2,3.5c-0.9,0.3-1.9,0.4-2.8,0.7                 c-0.4-0.7-0.9-1.4-1.7-1.7c-1.1,0-2.2-0.1-3.3,0c-0.6,0.2-1.3,0.7-1.2,1.4c0,2.2,0,4.4,0,6.6c0.4,0.3,0.8,0.9,1.4,0.8c1,0,2,0,3,0                 c0.7-0.3,1.2-1,1.6-1.6c0.8,0.1,1.5,0.4,2.3,0.5c0.2,0,0.4,0.2,0.6,0.4c-0.7,1.3-1.8,2.4-3.1,3c-1.2,0.5-2.6,0.3-3.9,0.3                 c-1.2,0-2.5-0.2-3.4-1c-0.7-0.6-1.6-1.2-1.6-2.3c0-2.4,0-4.8,0-7.2C611,415.1,612.2,414.3,613.1,413.6z"/>
        <path class="st5" d="M625.4,412.9c1,0,2,0,3.1,0c0,4.6,0,9.2,0,13.9c-0.1,0.1-0.2,0.2-0.2,0.2c-0.9,0-1.8,0-2.7,0l-0.2-0.2                 C625.3,422.2,625.3,417.6,625.4,412.9z"/>
        <path class="st5" d="M636,413c1.1,0,2.2,0,3.3,0c0.6,1,0.9,2.1,1.3,3.1c1.6,3.5,2.8,7.1,4.4,10.6c-0.6,0.3-1.4,0.1-2,0.2                 c-0.5-0.1-1.2,0.2-1.4-0.4c-0.3-0.9-0.7-1.7-1-2.5c-2,0-3.9,0.1-5.8,0c-0.5,0.8-0.8,1.8-1.1,2.7c-0.5,0.4-1.2,0.2-1.8,0.2                 c-0.5,0-1.2,0.1-1.6-0.2c1-1.9,1.6-3.9,2.5-5.8C633.8,418.1,634.9,415.6,636,413z M637.6,416.6c-0.2,0.5-0.3,0.9-0.5,1.4                 c-0.4,1.2-1,2.2-1.3,3.4c1.3,0,2.6,0,3.8,0c-0.3-1-0.8-1.9-1.2-2.9C638.2,417.8,638.1,417.1,637.6,416.6z"/>
        <path class="st5" d="M647.3,412.9c1,0,2,0,2.9,0.1c0.1,3.8,0,7.5,0,11.3c2.4,0,4.8,0,7.2,0c0,0.8,0,1.5,0,2.3                 c-0.3,0.1-0.6,0.2-0.9,0.2c-2.9,0-5.7,0-8.6,0c-0.3,0-0.6-0.1-0.8-0.2c0.1-4.3,0-8.7,0-13C647.1,413.4,647.2,413.2,647.3,412.9z"/>
</g>
<g class="circle">
        <path class="st1" d="M284.4,636.2c0,16.8-13.6,30.4-30.4,30.4s-30.4-13.6-30.4-30.4c0-16.8,13.6-30.4,30.4-30.4
                S284.4,619.4,284.4,636.2z"/>
        <path class="st1" d="M364.1,674c0,16.8-13.6,30.4-30.4,30.4s-30.4-13.6-30.4-30.4c0-16.8,13.6-30.4,30.4-30.4
                C350.5,643.7,364.1,657.3,364.1,674z"/>
        <path class="st1" d="M439.8,705.9c0,16.8-13.6,30.4-30.4,30.4S379,722.7,379,705.9s13.6-30.4,30.4-30.4
                C426.2,675.5,439.8,689.1,439.8,705.9z"/>
        <path class="st1" d="M918.8,636.2c0,16.8,13.6,30.4,30.4,30.4c16.8,0,30.4-13.6,30.4-30.4c0-16.8-13.6-30.4-30.4-30.4
                C932.4,605.8,918.8,619.4,918.8,636.2z"/>
        <path class="st1" d="M839.2,674c0,16.8,13.6,30.4,30.4,30.4c16.8,0,30.4-13.6,30.4-30.4c0-16.8-13.6-30.4-30.4-30.4
                C852.8,643.7,839.2,657.3,839.2,674z"/>
        <path class="st1" d="M763.5,705.9c0,16.8,13.6,30.4,30.4,30.4s30.4-13.6,30.4-30.4s-13.6-30.4-30.4-30.4S763.5,689.1,763.5,705.9z"
                />
</g>
<g class="hgh">
        <path class="st0" d="M553.7,628h-1.6l-0.4-2.4c-0.4-0.4-0.8-0.7-1.4-0.9c-0.5-0.2-1.2-0.4-2-0.4c-1.8,0-3.1,0.6-4.1,1.9
                c-1,1.3-1.4,2.9-1.4,4.9v0.3c0,2,0.5,3.6,1.4,4.9c0.9,1.3,2.2,1.9,3.9,1.9c0.8,0,1.5-0.1,2.1-0.4c0.6-0.2,1.1-0.5,1.5-0.9l0.4-2.4
                h1.6v3c-0.5,0.6-1.2,1.2-2.2,1.7s-2.1,0.7-3.4,0.7c-2.2,0-4-0.8-5.5-2.5c-1.4-1.6-2.1-3.7-2.1-6.2V631c0-2.5,0.7-4.6,2.1-6.2
                c1.4-1.6,3.2-2.5,5.5-2.5c1.3,0,2.4,0.3,3.4,0.8s1.7,1.1,2.2,1.7V628z M565.2,637.9c-0.4,0.7-0.9,1.2-1.5,1.6
                c-0.6,0.4-1.3,0.6-2.2,0.6c-1.4,0-2.4-0.4-3.2-1.3c-0.8-0.9-1.2-2.3-1.2-4.1V629l-1.5-0.3v-1.5h1.5h2.3v7.5c0,1.4,0.2,2.3,0.6,2.8
                c0.4,0.5,1,0.8,1.9,0.8c0.8,0,1.5-0.2,2-0.5s0.9-0.8,1.2-1.4v-7.3l-1.7-0.3v-1.5h1.7h2.3V638l1.5,0.3v1.5h-3.5L565.2,637.9z
                 M580.4,631.1h-1.7l-0.4-1.5c-0.3-0.3-0.6-0.5-1.1-0.6c-0.4-0.2-0.9-0.2-1.4-0.2c-0.8,0-1.4,0.2-1.8,0.5c-0.4,0.4-0.6,0.8-0.6,1.3
                s0.2,0.9,0.5,1.2c0.4,0.3,1.1,0.5,2.1,0.8c1.6,0.3,2.8,0.8,3.6,1.4c0.8,0.6,1.2,1.4,1.2,2.4c0,1.1-0.5,2-1.4,2.7s-2.1,1-3.6,1
                c-1,0-1.8-0.1-2.6-0.3s-1.5-0.6-2.1-1v-2.9h1.7l0.4,1.7c0.3,0.2,0.6,0.4,1.1,0.5s0.9,0.2,1.4,0.2c0.8,0,1.5-0.2,1.9-0.5
                c0.5-0.3,0.7-0.8,0.7-1.3s-0.2-0.9-0.6-1.3c-0.4-0.3-1.1-0.6-2.2-0.9c-1.5-0.3-2.7-0.8-3.5-1.4c-0.8-0.6-1.2-1.4-1.2-2.3
                c0-1,0.4-1.9,1.3-2.6c0.9-0.7,2-1.1,3.4-1.1c1,0,1.8,0.1,2.6,0.4c0.8,0.3,1.4,0.6,1.9,1L580.4,631.1z M587,624.1v3.1h2.4v1.7H587
                v7.7c0,0.6,0.1,1,0.4,1.3c0.3,0.2,0.6,0.4,1,0.4c0.2,0,0.4,0,0.7,0s0.5-0.1,0.6-0.1l0.3,1.6c-0.2,0.1-0.5,0.3-1,0.3
                c-0.4,0.1-0.8,0.1-1.3,0.1c-0.9,0-1.7-0.3-2.2-0.8c-0.6-0.6-0.8-1.5-0.8-2.7V629h-2v-1.7h2v-3.1L587,624.1L587,624.1z M591.5,633.3
                c0-1.9,0.5-3.4,1.5-4.6c1-1.2,2.4-1.8,4.1-1.8c1.8,0,3.1,0.6,4.1,1.8s1.5,2.8,1.5,4.6v0.3c0,1.9-0.5,3.4-1.5,4.6
                c-1,1.2-2.4,1.8-4.1,1.8c-1.8,0-3.1-0.6-4.2-1.8c-1-1.2-1.5-2.8-1.5-4.6v-0.3H591.5z M593.8,633.6c0,1.3,0.3,2.5,0.8,3.3
                c0.6,0.9,1.4,1.3,2.5,1.3s1.9-0.4,2.5-1.3c0.6-0.9,0.9-2,0.9-3.3v-0.3c0-1.3-0.3-2.4-0.9-3.3c-0.6-0.9-1.4-1.3-2.5-1.3
                s-1.9,0.4-2.5,1.3c-0.6,0.9-0.8,2-0.8,3.3V633.6z M604.5,638.3l1.9-0.3v-9.1l-1.9-0.3v-1.5h4l0.2,1.7c0.4-0.6,0.9-1.1,1.6-1.4
                c0.6-0.3,1.4-0.5,2.2-0.5s1.6,0.2,2.2,0.6c0.6,0.4,1.1,1,1.4,1.8c0.4-0.7,0.9-1.3,1.6-1.7c0.7-0.4,1.4-0.6,2.3-0.6
                c1.3,0,2.3,0.4,3.1,1.3c0.8,0.9,1.1,2.2,1.1,4v5.8l1.9,0.3v1.5H620v-1.5l1.9-0.3v-5.8c0-1.3-0.2-2.1-0.6-2.6
                c-0.4-0.5-1.1-0.8-1.9-0.8c-0.8,0-1.5,0.3-1.9,0.9c-0.5,0.6-0.8,1.3-0.8,2.1v6.2l1.9,0.3v1.5h-6.1v-1.5l1.9-0.3v-5.8
                c0-1.2-0.2-2.1-0.7-2.6c-0.4-0.6-1.1-0.8-1.9-0.8c-0.7,0-1.3,0.1-1.7,0.4s-0.8,0.7-1,1.2v7.6l1.9,0.3v1.5h-6.1v-1.6H604.5z
                 M633.4,640c-1.8,0-3.2-0.6-4.2-1.8s-1.6-2.7-1.6-4.6v-0.5c0-1.8,0.5-3.3,1.6-4.5s2.4-1.8,3.8-1.8c1.7,0,3,0.5,3.9,1.5
                s1.3,2.4,1.3,4.1v1.4H630v0.1c0,1.2,0.3,2.2,0.9,3c0.6,0.8,1.4,1.2,2.5,1.2c0.8,0,1.5-0.1,2.1-0.3s1.1-0.5,1.5-0.9l0.9,1.5
                c-0.5,0.4-1.1,0.8-1.8,1.1C635.3,639.9,634.4,640,633.4,640z M633,628.7c-0.8,0-1.4,0.3-2,1c-0.5,0.6-0.9,1.5-1,2.4v0.1h5.8v-0.3
                c0-0.9-0.2-1.7-0.7-2.3C634.7,629,634,628.7,633,628.7z M640.5,628.6v-1.5h4l0.2,1.8c0.4-0.6,0.8-1.2,1.3-1.5
                c0.5-0.4,1.1-0.6,1.8-0.6c0.2,0,0.4,0,0.6,0c0.2,0,0.3,0.1,0.4,0.1l-0.3,2.1l-1.3-0.1c-0.6,0-1.1,0.1-1.5,0.4
                c-0.4,0.3-0.7,0.7-1,1.2v7.3l1.9,0.3v1.5h-6.1v-1.5l1.9-0.3v-9.1L640.5,628.6z M660.1,631.1h-1.7l-0.4-1.5
                c-0.3-0.3-0.6-0.5-1.1-0.6c-0.4-0.2-0.9-0.2-1.4-0.2c-0.8,0-1.4,0.2-1.8,0.5c-0.4,0.4-0.6,0.8-0.6,1.3s0.2,0.9,0.5,1.2
                s1.1,0.5,2.1,0.8c1.6,0.3,2.8,0.8,3.6,1.4c0.8,0.6,1.2,1.4,1.2,2.4c0,1.1-0.5,2-1.4,2.7s-2.1,1-3.6,1c-1,0-1.8-0.1-2.6-0.3
                s-1.4-0.6-2.1-1v-2.9h1.7l0.4,1.7c0.3,0.2,0.6,0.4,1.1,0.5s0.9,0.2,1.4,0.2c0.8,0,1.5-0.2,1.9-0.5c0.5-0.3,0.7-0.8,0.7-1.3
                s-0.2-0.9-0.6-1.3c-0.4-0.3-1.1-0.6-2.2-0.9c-1.5-0.3-2.7-0.8-3.5-1.4c-0.8-0.6-1.2-1.4-1.2-2.3c0-1,0.4-1.9,1.3-2.6
                c0.9-0.7,2-1.1,3.4-1.1c1,0,1.8,0.1,2.6,0.4c0.8,0.3,1.4,0.6,1.9,1L660.1,631.1z"/>
        <path class="st2" d="M259.6,636.9c2.8-1.7,4.6-4.7,4.6-8.2c0-5.3-4.3-9.6-9.6-9.6c-5.3,0-9.6,4.3-9.6,9.6c0,3.5,1.9,6.5,4.6,8.2
                c-5.4,2-9.2,7.2-9.2,13.2c0,0.6,0.5,1.1,1.1,1.1s1.1-0.5,1.1-1.1c0-6.3,5-11.5,11.3-11.8l0,0c0.2,0,0.4,0,0.6,0c0.2,0,0.4,0,0.6,0
                l0,0c6.3,0.3,11.3,5.5,11.3,11.8c0,0.6,0.5,1.1,1.1,1.1s1.1-0.5,1.1-1.1C268.8,644.1,265,638.9,259.6,636.9z M254.6,636.1
                c-0.2,0-0.4,0-0.6,0c-3.8-0.3-6.8-3.5-6.8-7.3c0-4,3.3-7.3,7.4-7.3s7.4,3.3,7.4,7.3c0,3.9-3,7-6.8,7.3
                C255,636.1,254.8,636.1,254.6,636.1z"/>
        <path class="st2" d="M339.3,674.8c2.8-1.7,4.6-4.7,4.6-8.2c0-5.3-4.3-9.6-9.6-9.6c-5.3,0-9.6,4.3-9.6,9.6c0,3.5,1.9,6.5,4.6,8.2
                c-5.4,2-9.2,7.2-9.2,13.2c0,0.6,0.5,1.1,1.1,1.1s1.1-0.5,1.1-1.1c0-6.3,5-11.5,11.3-11.8l0,0c0.2,0,0.4,0,0.6,0s0.4,0,0.6,0l0,0
                c6.3,0.3,11.3,5.5,11.3,11.8c0,0.6,0.5,1.1,1.1,1.1s1.1-0.5,1.1-1.1C348.5,682,344.7,676.8,339.3,674.8z M334.3,673.9
                c-0.2,0-0.4,0-0.6,0c-3.8-0.3-6.8-3.5-6.8-7.3c0-4,3.3-7.3,7.4-7.3s7.4,3.3,7.4,7.3c0,3.9-3,7-6.8,7.3
                C334.7,673.9,334.5,673.9,334.3,673.9z"/>
        <path class="st2" d="M415,706.6c2.8-1.7,4.6-4.7,4.6-8.2c0-5.3-4.3-9.6-9.6-9.6c-5.3,0-9.6,4.3-9.6,9.6c0,3.5,1.9,6.5,4.6,8.2
                c-5.4,2-9.2,7.2-9.2,13.2c0,0.6,0.5,1.1,1.1,1.1s1.1-0.5,1.1-1.1c0-6.3,5-11.5,11.3-11.8l0,0c0.2,0,0.4,0,0.6,0s0.4,0,0.6,0l0,0
                c6.3,0.3,11.3,5.5,11.3,11.8c0,0.6,0.5,1.1,1.1,1.1s1.1-0.5,1.1-1.1C424.2,713.8,420.3,708.7,415,706.6z M410,705.8
                c-0.2,0-0.4,0-0.6,0c-3.8-0.3-6.8-3.5-6.8-7.3c0-4,3.3-7.3,7.4-7.3s7.4,3.3,7.4,7.3c0,3.9-3,7-6.8,7.3
                C410.4,705.8,410.2,705.8,410,705.8z"/>
        <path class="st2" d="M943.6,636.9c-2.8-1.7-4.6-4.7-4.6-8.2c0-5.3,4.3-9.6,9.6-9.6s9.6,4.3,9.6,9.6c0,3.5-1.9,6.5-4.6,8.2
                c5.4,2,9.2,7.2,9.2,13.2c0,0.6-0.5,1.1-1.1,1.1s-1.1-0.5-1.1-1.1c0-6.3-5-11.5-11.3-11.8l0,0c-0.2,0-0.4,0-0.6,0
                c-0.2,0-0.4,0-0.6,0l0,0c-6.3,0.3-11.3,5.5-11.3,11.8c0,0.6-0.5,1.1-1.1,1.1s-1.1-0.5-1.1-1.1C934.4,644.1,938.2,638.9,943.6,636.9
                z M948.6,636.1c0.2,0,0.4,0,0.6,0c3.8-0.3,6.8-3.5,6.8-7.3c0-4-3.3-7.3-7.4-7.3c-4.1,0-7.4,3.3-7.4,7.3c0,3.9,3,7,6.8,7.3
                C948.2,636.1,948.4,636.1,948.6,636.1z"/>
        <path class="st2" d="M863.9,674.8c-2.8-1.7-4.6-4.7-4.6-8.2c0-5.3,4.3-9.6,9.6-9.6s9.6,4.3,9.6,9.6c0,3.5-1.9,6.5-4.6,8.2
                c5.4,2,9.2,7.2,9.2,13.2c0,0.6-0.5,1.1-1.1,1.1s-1.1-0.5-1.1-1.1c0-6.3-5-11.5-11.3-11.8l0,0c-0.2,0-0.4,0-0.6,0s-0.4,0-0.6,0l0,0
                c-6.3,0.3-11.3,5.5-11.3,11.8c0,0.6-0.5,1.1-1.1,1.1s-1.1-0.5-1.1-1.1C854.8,682,858.6,676.8,863.9,674.8z M868.9,673.9
                c0.2,0,0.4,0,0.6,0c3.8-0.3,6.8-3.5,6.8-7.3c0-4-3.3-7.3-7.4-7.3c-4.1,0-7.4,3.3-7.4,7.3c0,3.9,3,7,6.8,7.3
                C868.5,673.9,868.7,673.9,868.9,673.9z"/>
        <path class="st2" d="M788.2,706.6c-2.8-1.7-4.6-4.7-4.6-8.2c0-5.3,4.3-9.6,9.6-9.6s9.6,4.3,9.6,9.6c0,3.5-1.9,6.5-4.6,8.2
                c5.4,2,9.2,7.2,9.2,13.2c0,0.6-0.5,1.1-1.1,1.1s-1.1-0.5-1.1-1.1c0-6.3-5-11.5-11.3-11.8l0,0c-0.2,0-0.4,0-0.6,0s-0.4,0-0.6,0l0,0
                c-6.3,0.3-11.3,5.5-11.3,11.8c0,0.6-0.5,1.1-1.1,1.1s-1.1-0.5-1.1-1.1C779.1,713.8,782.9,708.7,788.2,706.6z M793.2,705.8
                c0.2,0,0.4,0,0.6,0c3.8-0.3,6.8-3.5,6.8-7.3c0-4-3.3-7.3-7.4-7.3c-4.1,0-7.4,3.3-7.4,7.3c0,3.9,3,7,6.8,7.3
                C792.8,705.8,793,705.8,793.2,705.8z"/>
</g>
<g>
        <path class="st0" d="M29.1,221.5V220l1.9-0.3v-13.4l-1.9-0.3v-1.5h13.1v4.1h-2l-0.2-2.3h-6.7v5.5h6.5v1.8h-6.5v6.1h6.9l0.2-2.3h2
                v4.1L29.1,221.5L29.1,221.5z M44.3,220l1.4-0.3l3.7-4.7l-3.6-4.5l-1.4-0.3v-1.5h5v1.5l-1.1,0.1l2.4,3l2.4-3.1l-1.1-0.1v-1.5h5v1.5
                l-1.4,0.3l-3.6,4.5l3.7,4.7L57,220v1.5h-5V220l1.1-0.1l-2.5-3.2l-2.5,3.2l1.1,0.1v1.5h-5V220H44.3z M64.1,220c0.8,0,1.4-0.2,2-0.7
                s0.9-1.1,0.9-1.7h2.1v0.1c0,1.1-0.4,2.1-1.5,2.9c-1,0.8-2.2,1.3-3.5,1.3c-1.8,0-3.3-0.6-4.2-1.8c-1-1.2-1.5-2.7-1.5-4.5v-0.5
                c0-1.8,0.5-3.3,1.5-4.5s2.4-1.8,4.2-1.8c1,0,1.9,0.2,2.7,0.5c0.8,0.3,1.5,0.8,2,1.4l0.1,2.8h-1.8l-0.5-2c-0.3-0.3-0.6-0.5-1.1-0.6
                c-0.4-0.2-0.9-0.2-1.5-0.2c-1.2,0-2.1,0.4-2.6,1.3c-0.5,0.9-0.8,1.9-0.8,3.2v0.5c0,1.3,0.3,2.4,0.8,3.2C62,219.5,62.9,220,64.1,220
                z M71,220l1.9-0.3V205l-1.9-0.3v-1.5h4.2v7.3c0.4-0.6,1-1.1,1.6-1.4c0.6-0.3,1.3-0.5,2.1-0.5c1.4,0,2.4,0.4,3.2,1.2
                c0.8,0.8,1.1,2.1,1.1,3.8v6.1l1.9,0.3v1.5H79V220l1.9-0.3v-6.2c0-1-0.2-1.8-0.7-2.3c-0.4-0.5-1.1-0.8-2-0.8c-0.6,0-1.2,0.2-1.7,0.5
                s-0.9,0.7-1.3,1.2v7.6l1.9,0.3v1.5H71V220z M95.1,221.5c-0.1-0.3-0.1-0.7-0.2-0.9c0-0.3-0.1-0.5-0.1-0.8c-0.4,0.6-1,1-1.7,1.4
                s-1.4,0.6-2.1,0.6c-1.3,0-2.3-0.3-3-1c-0.7-0.6-1-1.6-1-2.7c0-1.2,0.5-2.1,1.5-2.8s2.3-1,4-1h2.4v-1.5c0-0.7-0.2-1.3-0.7-1.8
                c-0.5-0.4-1.1-0.7-2-0.7c-0.6,0-1.1,0.1-1.5,0.2c-0.4,0.1-0.8,0.4-1.1,0.6l-0.2,1.3h-1.8v-2.5c0.6-0.5,1.3-0.8,2.1-1.1
                c0.8-0.3,1.7-0.4,2.7-0.4c1.4,0,2.6,0.4,3.5,1.1c0.9,0.7,1.3,1.8,1.3,3.2v6.1c0,0.2,0,0.3,0,0.5s0,0.3,0,0.5l0.9,0.1v1.5
                L95.1,221.5L95.1,221.5z M91.4,219.8c0.8,0,1.5-0.2,2.1-0.6c0.6-0.4,1.1-0.8,1.4-1.3v-2.1h-2.5c-0.9,0-1.7,0.2-2.3,0.7
                c-0.5,0.4-0.8,1-0.8,1.6s0.2,1,0.5,1.3C90.2,219.7,90.7,219.8,91.4,219.8z M99.7,220l1.9-0.3v-9.1l-1.9-0.3v-1.5h4l0.2,1.9
                c0.4-0.7,0.9-1.2,1.6-1.6c0.6-0.4,1.4-0.6,2.2-0.6c1.4,0,2.4,0.4,3.2,1.2c0.8,0.8,1.1,2,1.1,3.7v6.2l1.9,0.3v1.5h-6.1V220l1.9-0.3
                v-6.2c0-1.1-0.2-1.9-0.7-2.4c-0.4-0.5-1.1-0.7-2-0.7c-0.7,0-1.3,0.2-1.8,0.5s-0.9,0.8-1.2,1.3v7.4l1.9,0.3v1.5h-6.1L99.7,220
                L99.7,220z M115.4,215.4c0-2,0.4-3.7,1.3-4.9c0.9-1.3,2.1-1.9,3.7-1.9c0.8,0,1.5,0.2,2.1,0.5s1.1,0.8,1.5,1.4l0.2-1.6h1.9v12.5
                c0,1.6-0.5,2.9-1.4,3.9c-0.9,0.9-2.2,1.4-3.9,1.4c-0.6,0-1.3-0.1-2-0.3s-1.3-0.4-1.9-0.7l0.6-1.8c0.4,0.2,0.9,0.4,1.5,0.6
                c0.6,0.1,1.2,0.2,1.7,0.2c1,0,1.8-0.3,2.3-0.9c0.5-0.6,0.7-1.4,0.7-2.5v-1.2c-0.4,0.5-0.9,0.9-1.5,1.2s-1.2,0.4-2,0.4
                c-1.6,0-2.8-0.6-3.7-1.7c-0.9-1.1-1.3-2.6-1.3-4.4v-0.2H115.4z M117.7,215.7c0,1.3,0.3,2.3,0.8,3.1s1.4,1.2,2.5,1.2
                c0.7,0,1.3-0.2,1.7-0.5c0.5-0.3,0.9-0.8,1.2-1.3v-5.8c-0.3-0.5-0.7-1-1.2-1.3s-1.1-0.5-1.7-0.5c-1.1,0-1.9,0.5-2.5,1.4
                c-0.5,0.9-0.8,2.1-0.8,3.6V215.7z M134.8,221.8c-1.8,0-3.2-0.6-4.2-1.8s-1.6-2.7-1.6-4.6v-0.5c0-1.8,0.5-3.3,1.6-4.5
                s2.4-1.8,3.8-1.8c1.7,0,3,0.5,3.9,1.5s1.3,2.4,1.3,4.1v1.4h-8.2v0.1c0,1.2,0.3,2.2,0.9,3c0.6,0.8,1.4,1.2,2.5,1.2
                c0.8,0,1.5-0.1,2.1-0.3s1.1-0.5,1.5-0.9l0.9,1.5c-0.5,0.4-1.1,0.8-1.8,1.1C136.7,221.6,135.8,221.8,134.8,221.8z M134.4,210.4
                c-0.8,0-1.4,0.3-2,1c-0.5,0.6-0.9,1.5-1,2.4v0.1h5.8v-0.3c0-0.9-0.2-1.7-0.7-2.3C136.1,210.7,135.4,210.4,134.4,210.4z
                 M151.6,212.8h-1.7l-0.4-1.5c-0.3-0.3-0.6-0.5-1.1-0.6c-0.4-0.2-0.9-0.2-1.4-0.2c-0.8,0-1.4,0.2-1.8,0.5c-0.4,0.4-0.6,0.8-0.6,1.3
                s0.2,0.9,0.5,1.2c0.4,0.3,1.1,0.5,2.1,0.8c1.6,0.3,2.8,0.8,3.6,1.4c0.8,0.6,1.2,1.4,1.2,2.4c0,1.1-0.5,2-1.4,2.7s-2.1,1-3.6,1
                c-1,0-1.8-0.1-2.6-0.3s-1.4-0.6-2.1-1v-2.9h1.7l0.4,1.7c0.3,0.2,0.6,0.4,1.1,0.5s0.9,0.2,1.4,0.2c0.8,0,1.5-0.2,1.9-0.5
                c0.5-0.3,0.7-0.8,0.7-1.3s-0.2-0.9-0.6-1.3c-0.4-0.3-1.1-0.6-2.2-0.9c-1.5-0.3-2.7-0.8-3.5-1.4c-0.8-0.6-1.2-1.4-1.2-2.3
                c0-1,0.4-1.9,1.3-2.6c0.9-0.7,2-1.1,3.4-1.1c1,0,1.8,0.1,2.6,0.4c0.8,0.3,1.4,0.6,1.9,1L151.6,212.8z"/>
        <path class="st0" d="M394,30.9c0,2.5-0.7,4.5-2.1,6.2c-1.4,1.6-3.3,2.5-5.5,2.5s-4-0.8-5.4-2.5c-1.4-1.6-2.1-3.7-2.1-6.2v-0.2
                c0-2.5,0.7-4.5,2.1-6.2c1.4-1.6,3.2-2.5,5.4-2.5c2.3,0,4.1,0.8,5.5,2.5c1.4,1.6,2.1,3.7,2.1,6.2V30.9z M391.7,30.6
                c0-2-0.5-3.6-1.4-4.9s-2.3-1.9-3.9-1.9s-2.9,0.6-3.8,1.9s-1.3,2.9-1.3,4.9v0.3c0,2,0.4,3.6,1.3,4.9s2.2,1.9,3.8,1.9
                c1.7,0,3-0.6,4-1.9c0.9-1.3,1.4-2.9,1.4-4.9v-0.3H391.7z M409.2,22.2V26h-2l-0.2-2h-3.8v13.4l1.9,0.3v1.5H399v-1.5l1.9-0.3V24h-3.8
                l-0.2,2h-2v-3.8H409.2z M423.4,27.5h-1.6l-0.4-2.4c-0.4-0.4-0.8-0.7-1.4-0.9c-0.5-0.2-1.2-0.4-2-0.4c-1.8,0-3.1,0.6-4.1,1.9
                s-1.4,2.9-1.4,4.9v0.3c0,2,0.5,3.6,1.4,4.9s2.2,1.9,3.9,1.9c0.8,0,1.5-0.1,2.1-0.4c0.6-0.2,1.1-0.5,1.5-0.9l0.4-2.4h1.6v3
                c-0.5,0.6-1.2,1.2-2.2,1.7s-2.1,0.7-3.4,0.7c-2.2,0-4-0.8-5.5-2.5c-1.4-1.6-2.1-3.7-2.1-6.2v-0.2c0-2.5,0.7-4.6,2.1-6.2
                s3.2-2.5,5.5-2.5c1.3,0,2.4,0.3,3.4,0.8s1.7,1.1,2.2,1.7V27.5z"/>
        <path class="st0" d="M756.5,22.2c1.8,0,3.2,0.4,4.2,1.2c1,0.8,1.5,1.9,1.5,3.5c0,0.8-0.2,1.4-0.7,2s-1.1,1-1.9,1.3
                c1,0.2,1.8,0.7,2.4,1.5c0.6,0.8,0.9,1.7,0.9,2.8c0,1.6-0.5,2.8-1.5,3.6s-2.4,1.2-4.1,1.2h-8.2v-1.5l1.9-0.3V24l-1.9-0.3v-1.5h1.9
                H756.5z M753.3,31.3v6.2h4c1.1,0,1.9-0.3,2.4-0.8c0.6-0.5,0.9-1.3,0.9-2.2c0-1-0.2-1.8-0.7-2.4c-0.5-0.6-1.2-0.9-2.2-0.9h-4.4V31.3
                z M753.3,29.5h3.9c0.8,0,1.5-0.3,2-0.7c0.5-0.5,0.8-1.1,0.8-1.9c0-0.9-0.3-1.6-0.9-2.1c-0.6-0.5-1.4-0.7-2.5-0.7h-3.3V29.5z
                 M773.3,39.3c-0.1-0.3-0.1-0.7-0.2-0.9c0-0.3-0.1-0.5-0.1-0.8c-0.4,0.6-1,1-1.7,1.4s-1.4,0.6-2.1,0.6c-1.3,0-2.3-0.3-3-1
                c-0.7-0.6-1-1.6-1-2.7c0-1.2,0.5-2.1,1.5-2.8s2.3-1,4-1h2.4v-1.5c0-0.7-0.2-1.3-0.7-1.8c-0.5-0.4-1.1-0.7-2-0.7
                c-0.6,0-1.1,0.1-1.5,0.2s-0.8,0.4-1.1,0.6l-0.2,1.3h-1.8v-2.5c0.6-0.5,1.3-0.8,2.1-1.1c0.8-0.3,1.7-0.4,2.7-0.4
                c1.4,0,2.6,0.4,3.5,1.1s1.3,1.8,1.3,3.2v6.1c0,0.2,0,0.3,0,0.5s0,0.3,0,0.5l0.9,0.1v1.5h-3V39.3z M769.6,37.6
                c0.8,0,1.5-0.2,2.1-0.6c0.6-0.4,1.1-0.8,1.4-1.3v-2.1h-2.5c-0.9,0-1.7,0.2-2.3,0.7c-0.5,0.4-0.8,1-0.8,1.6s0.2,1,0.5,1.3
                C768.4,37.4,768.9,37.6,769.6,37.6z M777.9,37.8l1.9-0.3v-9.1l-1.9-0.3v-1.5h4l0.2,1.9c0.4-0.7,0.9-1.2,1.6-1.6
                c0.6-0.4,1.4-0.6,2.2-0.6c1.4,0,2.4,0.4,3.2,1.2c0.8,0.8,1.1,2,1.1,3.7v6.2l1.9,0.3v1.5H786v-1.5l1.9-0.3v-6.2
                c0-1.1-0.2-1.9-0.7-2.4c-0.4-0.5-1.1-0.7-2-0.7c-0.7,0-1.3,0.2-1.8,0.5s-0.9,0.8-1.2,1.3v7.4l1.9,0.3v1.5H778v-1.3H777.9z
                 M793.4,22.5V21h4.2v10.6h1.5l2.7-3.4l-1.2-0.2v-1.5h5.3V28l-1.5,0.3l-3.3,4l4.1,5.1l1.4,0.3v1.5h-5.3v-1.5l1.2-0.2l-3.4-4.2h-1.5
                v4l1.9,0.3v1.5h-6.1v-1.5l1.9-0.3V22.8L793.4,22.5z M818,30.6h-1.7l-0.4-1.5c-0.3-0.3-0.6-0.5-1.1-0.6c-0.4-0.2-0.9-0.2-1.4-0.2
                c-0.8,0-1.4,0.2-1.8,0.5c-0.4,0.4-0.6,0.8-0.6,1.3s0.2,0.9,0.5,1.2c0.4,0.3,1.1,0.5,2.1,0.8c1.6,0.3,2.8,0.8,3.6,1.4
                c0.8,0.6,1.2,1.4,1.2,2.4c0,1.1-0.5,2-1.4,2.7s-2.1,1-3.6,1c-1,0-1.8-0.1-2.6-0.3s-1.4-0.6-2.1-1v-2.9h1.7L811,37
                c0.3,0.2,0.6,0.4,1.1,0.5s0.9,0.2,1.4,0.2c0.8,0,1.5-0.2,1.9-0.5c0.5-0.3,0.7-0.8,0.7-1.3s-0.2-0.9-0.6-1.3
                c-0.4-0.3-1.1-0.6-2.2-0.9c-1.5-0.3-2.7-0.8-3.5-1.4c-0.8-0.6-1.2-1.4-1.2-2.3c0-1,0.4-1.9,1.3-2.6c0.9-0.7,2-1.1,3.4-1.1
                c1,0,1.8,0.1,2.6,0.4s1.4,0.6,1.9,1L818,30.6z"/>
        <path class="st0" d="M1043.3,204.5c1.8,0,3.2,0.4,4.2,1.2s1.5,1.9,1.5,3.5c0,0.8-0.2,1.4-0.7,2s-1.1,1-1.9,1.3
                c1,0.2,1.8,0.7,2.4,1.5s0.9,1.7,0.9,2.8c0,1.6-0.5,2.8-1.5,3.6s-2.4,1.2-4.1,1.2h-8.2V220l1.9-0.3v-13.4l-1.9-0.3v-1.5h1.9H1043.3z
                 M1040.1,213.5v6.2h4c1,0,1.9-0.3,2.4-0.8c0.6-0.5,0.9-1.3,0.9-2.2c0-1-0.2-1.8-0.7-2.4c-0.5-0.6-1.2-0.9-2.2-0.9L1040.1,213.5
                L1040.1,213.5z M1040.1,211.7h3.9c0.8,0,1.5-0.3,2-0.7c0.5-0.5,0.8-1.1,0.8-1.9c0-0.9-0.3-1.6-0.9-2.1s-1.4-0.7-2.5-0.7h-3.3V211.7
                z M1051.5,204.7v-1.5h4.2v16.5l1.9,0.3v1.5h-6.1V220l1.9-0.3V205L1051.5,204.7z M1059.2,215.1c0-1.9,0.5-3.4,1.5-4.6
                c1-1.2,2.4-1.8,4.1-1.8c1.8,0,3.1,0.6,4.2,1.8c1,1.2,1.5,2.8,1.5,4.6v0.3c0,1.9-0.5,3.4-1.5,4.6c-1,1.2-2.4,1.8-4.1,1.8
                c-1.8,0-3.2-0.6-4.2-1.8s-1.5-2.8-1.5-4.6V215.1z M1061.5,215.3c0,1.3,0.3,2.5,0.8,3.3c0.6,0.9,1.4,1.3,2.5,1.3s1.9-0.4,2.5-1.3
                c0.6-0.9,0.9-2,0.9-3.3V215c0-1.3-0.3-2.4-0.9-3.3c-0.6-0.9-1.4-1.3-2.5-1.3s-1.9,0.4-2.5,1.3c-0.6,0.9-0.8,2-0.8,3.3V215.3z
                 M1078.3,220c0.8,0,1.4-0.2,2-0.7s0.9-1.1,0.9-1.7h2.1v0.1c0,1.1-0.4,2.1-1.5,2.9c-1,0.8-2.2,1.3-3.5,1.3c-1.8,0-3.3-0.6-4.2-1.8
                c-1-1.2-1.4-2.7-1.4-4.5v-0.5c0-1.8,0.5-3.3,1.5-4.5s2.4-1.8,4.2-1.8c1,0,1.9,0.2,2.7,0.5c0.8,0.3,1.5,0.8,2,1.4l0.1,2.8h-1.8
                l-0.5-2c-0.3-0.3-0.6-0.5-1-0.6c-0.4-0.2-0.9-0.2-1.5-0.2c-1.2,0-2.1,0.4-2.6,1.3c-0.5,0.9-0.8,1.9-0.8,3.2v0.5
                c0,1.3,0.3,2.4,0.8,3.2C1076.2,219.5,1077.1,220,1078.3,220z M1085.3,204.7v-1.5h4.2v10.6h1.5l2.7-3.4l-1.2-0.2v-1.5h5.3v1.5
                l-1.6,0.3l-3.3,4l4.1,5.1l1.4,0.3v1.5h-5.3V220l1.2-0.2l-3.4-4.2h-1.5v4l1.9,0.3v1.5h-6.1V220l1.9-0.3V205L1085.3,204.7z
                 M1105.6,220c0.8,0,1.4-0.2,2-0.7s0.9-1.1,0.9-1.7h2.1v0.1c0,1.1-0.4,2.1-1.5,2.9c-1,0.8-2.2,1.3-3.5,1.3c-1.8,0-3.3-0.6-4.2-1.8
                c-1-1.2-1.5-2.7-1.5-4.5v-0.5c0-1.8,0.5-3.3,1.5-4.5s2.4-1.8,4.2-1.8c1,0,1.9,0.2,2.7,0.5c0.8,0.3,1.5,0.8,2,1.4l0.1,2.8h-1.8
                l-0.5-2c-0.3-0.3-0.6-0.5-1.1-0.6c-0.4-0.2-0.9-0.2-1.4-0.2c-1.2,0-2.1,0.4-2.6,1.3c-0.5,0.9-0.8,1.9-0.8,3.2v0.5
                c0,1.3,0.3,2.4,0.8,3.2C1103.5,219.5,1104.4,220,1105.6,220z M1112.6,220l1.9-0.3V205l-1.9-0.3v-1.5h4.2v7.3c0.4-0.6,1-1.1,1.6-1.4
                s1.3-0.5,2.1-0.5c1.4,0,2.4,0.4,3.2,1.2c0.8,0.8,1.1,2.1,1.1,3.8v6.1l1.9,0.3v1.5h-6.1V220l1.9-0.3v-6.2c0-1-0.2-1.8-0.7-2.3
                s-1.1-0.8-2-0.8c-0.6,0-1.2,0.2-1.7,0.5s-0.9,0.7-1.3,1.2v7.6l1.9,0.3v1.5h-6.1V220z M1136.6,221.5c-0.1-0.3-0.1-0.7-0.2-0.9
                c0-0.3-0.1-0.5-0.1-0.8c-0.4,0.6-1,1-1.7,1.4s-1.4,0.6-2.1,0.6c-1.3,0-2.3-0.3-3-1c-0.7-0.6-1-1.6-1-2.7c0-1.2,0.5-2.1,1.4-2.8
                c1-0.7,2.3-1,4-1h2.4v-1.5c0-0.7-0.2-1.3-0.7-1.8c-0.5-0.4-1.1-0.7-2-0.7c-0.6,0-1.1,0.1-1.5,0.2c-0.4,0.1-0.8,0.4-1.1,0.6
                l-0.3,1.3h-1.8v-2.5c0.6-0.5,1.3-0.8,2.1-1.1c0.8-0.3,1.7-0.4,2.7-0.4c1.4,0,2.6,0.4,3.5,1.1c0.9,0.7,1.3,1.8,1.3,3.2v6.1
                c0,0.2,0,0.3,0,0.5s0,0.3,0,0.5l0.9,0.1v1.5L1136.6,221.5L1136.6,221.5z M1132.9,219.8c0.8,0,1.5-0.2,2.1-0.6
                c0.6-0.4,1.1-0.8,1.4-1.3v-2.1h-2.5c-1,0-1.7,0.2-2.3,0.7c-0.6,0.4-0.8,1-0.8,1.6s0.2,1,0.5,1.3
                C1131.7,219.7,1132.2,219.8,1132.9,219.8z M1141.6,220l1.9-0.3v-9.1l-1.9-0.3v-1.5h4.2v10.9l1.9,0.3v1.5h-6.1V220z M1145.8,205.6
                h-2.3v-2.4h2.3V205.6z M1149.1,220l1.9-0.3v-9.1l-1.9-0.3v-1.5h4l0.2,1.9c0.4-0.7,0.9-1.2,1.6-1.6c0.6-0.4,1.4-0.6,2.2-0.6
                c1.4,0,2.4,0.4,3.2,1.2c0.8,0.8,1.1,2,1.1,3.7v6.2l1.9,0.3v1.5h-6.1V220l1.9-0.3v-6.2c0-1.1-0.2-1.9-0.7-2.4
                c-0.4-0.5-1.1-0.7-2-0.7c-0.7,0-1.3,0.2-1.8,0.5s-0.9,0.8-1.2,1.3v7.4l1.9,0.3v1.5h-6.1L1149.1,220L1149.1,220z M1174.6,212.8h-1.7
                l-0.4-1.5c-0.3-0.3-0.6-0.5-1.1-0.6c-0.4-0.2-0.9-0.2-1.4-0.2c-0.8,0-1.4,0.2-1.8,0.5c-0.4,0.4-0.6,0.8-0.6,1.3s0.2,0.9,0.5,1.2
                c0.4,0.3,1.1,0.5,2.2,0.8c1.6,0.3,2.8,0.8,3.6,1.4c0.8,0.6,1.2,1.4,1.2,2.4c0,1.1-0.4,2-1.4,2.7c-0.9,0.7-2.1,1-3.6,1
                c-1,0-1.8-0.1-2.6-0.3c-0.8-0.2-1.4-0.6-2-1v-2.9h1.7l0.4,1.7c0.3,0.2,0.6,0.4,1.1,0.5s0.9,0.2,1.4,0.2c0.8,0,1.5-0.2,1.9-0.5
                c0.5-0.3,0.7-0.8,0.7-1.3s-0.2-0.9-0.6-1.3c-0.4-0.3-1.1-0.6-2.2-0.9c-1.5-0.3-2.7-0.8-3.5-1.4c-0.8-0.6-1.2-1.4-1.2-2.3
                c0-1,0.4-1.9,1.3-2.6c0.9-0.7,2-1.1,3.4-1.1c1,0,1.8,0.1,2.6,0.4c0.8,0.3,1.4,0.6,1.9,1L1174.6,212.8z"/>
</g>
<g>
    <path class="st7" d="M82.9,249.9c13.7-1.3,27.8,1.6,39.8,8.4c12.1,6.7,22,17.2,28,29.6c9.3,18.7,9.2,41.7-0.2,60.4                 c-7,14.3-19.2,25.9-33.8,32.2c-18.2,8.1-40.1,7.6-57.9-1.4c-15.9-7.8-28.4-22.1-34.1-38.8c-4.1-11.9-4.9-25-2.1-37.3                 c2.8-12.7,9.4-24.6,18.7-33.7C52.4,258.3,67.4,251.3,82.9,249.9z M82,252c-10.1,1.1-20,4.6-28.5,10.1                 c-12.7,8.1-22.4,20.6-27.1,34.9c-4.8,14.4-4.5,30.5,1,44.7c5.5,14.6,16.4,27,30.1,34.4c16.8,9.3,37.7,10.7,55.6,3.7                 c14.2-5.4,26.4-16,33.9-29.2c9.7-16.8,11.3-37.9,4.4-56.1c-5.2-13.9-15.3-25.9-28-33.6C111.1,253.6,96.3,250.4,82,252z"/>
    <path class="st7" d="M395.6,65.1c18.9-2.2,38.6,3.9,52.8,16.5c13.9,12.1,22.5,30,23.1,48.4c1,19.8-7.3,39.8-21.9,53.1                 c-13.1,12.2-31.2,18.9-49.1,18c-19.4-0.6-38.2-10.1-50.3-25.3c-11.5-14-16.9-32.8-14.7-50.8c1.8-16.4,9.9-32,22.2-42.9                 C368.1,72.7,381.6,66.7,395.6,65.1z M398.7,66.8c-17.2,1.1-33.8,9.3-45.1,22.3c-11.7,13.1-17.8,31-16.4,48.5                 c1.1,17,9.2,33.5,22,44.8c13.4,12.1,31.9,18.3,49.9,16.6c17.1-1.4,33.5-9.8,44.6-22.8c11.5-13.2,17.4-31.2,15.8-48.6                 c-1.3-17.6-10.2-34.4-23.7-45.6C432.7,71.1,415.5,65.6,398.7,66.8z"/>
    <path class="st7" d="M771.2,65.4c19.2-3,39.6,2.8,54.3,15.4c13.9,11.7,22.8,29.1,23.9,47.3c1.4,18.2-5,36.8-17.2,50.4                 c-12.2,13.7-30.1,22.2-48.4,22.7c-18,0.8-36.2-6-49.3-18.4c-14-13-22.1-32.1-21.5-51.3c0.2-18.4,8.4-36.4,22-48.8                 C744.9,73.5,757.7,67.4,771.2,65.4z M775.6,66.9c-14.5,1.2-28.5,7.4-39.2,17.3C723,96.4,715,114.3,715,132.5                 c-0.3,17.7,7.1,35.3,19.7,47.6c13.2,13.3,32.3,20.4,51,19c17.1-1.1,33.7-9.2,45-22.1c12.2-13.6,18.4-32.3,16.5-50.5                 c-1.5-16.8-9.9-32.8-22.7-43.8C811.3,71.2,793.2,65.3,775.6,66.9z"/>
    <path class="st7" d="M1102,249.9c17.4-1.7,35.3,3.6,48.9,14.5c11.2,8.9,19.5,21.4,23.3,35.2c4.7,17.1,2.6,36.1-6.2,51.6                 c-7.4,13.2-19.3,23.9-33.3,29.7c-15.3,6.4-33.1,7-48.8,1.5c-17.7-6-32.5-19.7-40-36.7c-7.8-17.3-7.8-38-0.1-55.3                 c6.7-15.5,19.5-28.2,34.9-35C1087.4,252.5,1094.6,250.6,1102,249.9z M1101.1,252c-19.6,2-37.8,13.4-48.4,29.9                 c-10.7,16.3-13.5,37.4-7.6,56c5,16,16.4,29.9,31.1,38c15.7,8.8,35.1,10.7,52.2,5.2c14.4-4.5,27.1-14.2,35.4-26.8                 c8.9-13.4,12.6-30,10.2-45.9c-2.3-16.7-11.5-32.4-24.8-42.7C1135.8,255.1,1118.1,250.1,1101.1,252z"/>
</g>
<g class="icon_one">
  <g>
    <polyline class="st13" points="114.2,337.5 114.2,354.6 61.2,354.6 61.2,346.9 "/>
    <path class="st5" d="M62.4,346.7c1.3,0,2.7,0,4.1,0c-1.8-3.1-3.5-6.2-5.4-9.2c-1.8,3.1-3.6,6.1-5.3,9.2c1.4,0,2.8,0,4.2,0c0,0,0,0.1,0,0.1  C60.8,346.8,61.6,346.8,62.4,346.7C62.4,346.8,62.4,346.7,62.4,346.7z"/>
  </g>
  <g>
    <polyline class="st13" points="61.3,299 61.3,281.9 114.3,281.9 114.3,289.6 "/>
    <path class="st5" d="M115.4,290.1c0-0.1,0-0.2,0-0.3c-0.8,0-1.6,0-2.2,0c0,0.1,0,0.2,0,0.3c-1.4,0-2.8,0-4.2,0c1.8,3,3.4,6.2,5.4,9.1  c1.9-2.9,3.5-6.1,5.3-9.1C118.2,290.1,116.8,290.1,115.4,290.1z"/>
  </g>
  <g>
    <path class="st5" d="M60.3,299.6c-7.6,0.5-14.6,5.8-16.9,13c-2.3,6.6-0.4,14.5,4.7,19.4c5.4,5.6,14.4,7,21.4,3.6c5.6-2.6,9.7-8.2,10.6-14.3  c0.8-5.2-0.7-10.7-4.1-14.8c-3.2-4-8.2-6.5-13.4-6.9c0-0.3,0-0.5,0-0.8c-0.7,0-1.4,0-2.3,0C60.3,299.1,60.3,299.3,60.3,299.6z   M76.5,311.8c3.1,6.7,0.8,15.4-5.1,19.8c-4.7,3.7-11.4,4.6-16.8,2.1c-6.7-2.8-11-10.2-9.9-17.4c0.8-6.6,6.1-12.5,12.6-14  C65,300.3,73.5,304.6,76.5,311.8z"/>
    <path class="st5" d="M59.4,309.3c0.5,0,1-0.1,1.6-0.1c0,0.7,0.1,1.4,0.1,2.1c2.3,0.4,3.6,2.5,3.6,4.7h-2.9c-0.3-0.9-0.4-2.5-1.7-2.4  c-1.5-0.2-2.2,2-1.1,2.9c1.7,1.2,4.1,1.5,5.2,3.4c0.7,1.6,0.6,3.8-0.9,4.9c-0.7,0.6-1.7,0.7-2.6,1.1v1.8h-1.6v-1.8  c-1.1-0.3-2.2-0.6-3-1.5c-0.9-0.9-1-2.2-1.1-3.3h2.8c0.2,1.1,0.8,2.6,2.2,2.4c1.6,0.2,2.2-2.2,1-3c-1.5-1-3.5-1.3-4.7-2.7  c-1-1.1-0.9-2.7-0.5-4c0.6-1.5,2.2-2.1,3.6-2.5C59.5,310.5,59.5,309.9,59.4,309.3z"/>
  </g>
  <g>
    <path class="st5" d="M131.7,312.3c-2.4-7.3-9.8-12.7-17.5-12.7c-6.4-0.2-12.7,3.1-16.2,8.5c-4.4,6.5-4.1,15.7,0.6,22c3.4,4.5,8.8,7.3,14.4,7.5  c0,0.1,0,0.1,0,0.2c0.9,0,1.6,0,2.3,0c0-0.1,0-0.3,0-0.4c5.4-0.4,10.5-3.2,13.7-7.6C132.7,324.9,133.7,318.1,131.7,312.3z   M122.3,332.8c-6.5,4-15.5,2.7-20.6-2.9c-4-4.1-5.6-10.4-3.9-15.9c1.6-5.7,6.4-10.4,12.2-11.7c8-2,17,2.9,19.6,10.7  C132.3,320.2,129,329,122.3,332.8z"/>
    <path class="st5" d="M110.3,309.1c0.7,0,1.4,0.1,2.1,0.1c0,0.7,0,1.4,0,2.1c0.6,0,1.1,0,1.7,0c0-0.7,0-1.4,0-2.1c0.7,0,1.5,0,2.3,0  c0,0.7,0,1.3,0,2c1.4,0.2,3.1,0.2,4,1.6c1.5,1.6,0.5,4.1-1.1,5.2c2.4,0.8,3.3,3.8,1.9,5.8c-1,1.7-3,1.7-4.7,1.8c0,0.7,0,1.3-0.1,2  c-0.7,0-1.5,0-2.2,0c0-0.7,0-1.3,0-2c-0.6,0-1.1,0-1.7,0c0,0.7,0,1.3,0,2c-0.7,0-1.4,0-2.1,0c0-0.7,0-1.3-0.1-2c-0.9,0-1.7,0-2.6,0  c0-0.8,0-1.5,0-2.3c0.7,0,1.5,0,2.2,0c0-3.3,0-6.6,0-9.9c-0.7,0-1.5,0-2.2,0c0-0.7,0-1.4,0-2.1c0.9,0,1.7,0,2.6,0  C110.2,310.6,110.3,309.9,110.3,309.1z M112.5,313.4c0,1.2,0,2.4,0,3.6c1.7-0.1,3.4,0.2,5-0.2c1.2-0.5,0.7-1.9,0.6-2.8  C116.3,313.4,114.4,313.5,112.5,313.4z M112.5,319.3c0,1.4,0,2.7,0,4.1c2-0.2,4.3,0.6,6-0.8c0.7-0.7,0.2-1.8,0.1-2.6  C116.7,319,114.5,319.4,112.5,319.3z"/>
  </g>
</g>
<g class="icon_two">
    <g>
        <path class="st13" d="M369.1,123.1c3.5-11.4,14.1-25.5,33.8-25.5c19.7,0,35.1,14.7,35.1,34.4"/>
        <path class="st5" d="M367.9,122.8c-1.4-0.2-2.8-0.4-4.2-0.6c1.4,3.3,2.7,6.7,4.2,9.9c2.1-2.9,4.3-5.6,6.4-8.5  c-1.4-0.1-2.8-0.3-4.2-0.5c0.1-0.4,0.3-0.9,0.4-1.3c-0.8,0-1.6,0-2.3,0C368.1,122.1,368,122.5,367.9,122.8z"/>
    </g>
    <g>
        <path class="st13" d="M436.8,144.5c-3.5,11.4-14.1,25.5-33.8,25.5s-35.1-14.7-35.1-34.4"/>
        <path class="st5" d="M441.6,145c-1.4-3.2-2.7-6.5-4.1-9.8c-2.3,2.8-4.4,5.6-6.5,8.5c1.4,0.2,2.8,0.3,4.2,0.5  c-0.1,0.2-0.1,0.4-0.2,0.6c0.9,0,1.6,0,2.3,0c0,0,0-0.1,0-0.1C438.6,144.2,440.2,145,441.6,145z"/>
    </g>
    <g>
        <path class="st5" d="M397.3,116.1c2.8-1.7,6.5-2,9.5-0.7c3.6,1.4,6.1,5,6.4,8.8c0.4,3.8-1.6,7.6-4.7,9.8c5.7,2.3,9.9,8.3,9.6,14.5  c0.1,1.1-1.3,1.3-2.1,1c-0.5-0.7-0.4-1.7-0.6-2.5c-0.3-3.8-2.6-7.5-5.9-9.5c-4.1-2.7-9.8-2.6-13.8,0.2c-3.6,2.3-5.7,6.5-5.8,10.7  c0.2,1.6-2.6,1.6-2.5,0c-0.3-6.3,3.9-12.2,9.6-14.5c-2.5-1.6-4.2-4.3-4.7-7.2C391.6,122.6,393.7,118.1,397.3,116.1z M400.8,117.4  c-3.9,0.9-6.7,5.2-5.8,9.1c0.7,4,4.9,7,9,6.3c4-0.6,7.1-4.7,6.5-8.7C410.1,119.6,405.1,116.1,400.8,117.4z"/>
    </g>
</g>
<g class="icon_three">
    <g>
    <defs>
        <circle id="SVGID_1_" cx="781.2" cy="133" r="67"/>
    </defs>
    <clipPath id="SVGID_2_">
        <use xlink:href="#SVGID_1_"  style="overflow:visible;"/>
    </clipPath>
    </g>
    <g class="st12">
        <path class="st5" d="M750.6,123.7c-1.3-0.8-0.5-2.8,1-2.5c20.2,0,40.4,0,60.6,0c1.4-0.3,2.1,1.8,0.9,2.4c-1.3,0.4-2.7,0.2-4,0.2  c0,1.5,0.1,3-0.1,4.5c-0.4,0.7-1.3,0.6-1.9,0.8c0,7.4,0,14.7,0,22.1c0.6,0.3,1.6,0.3,1.9,1.1c0.1,1.4,0,2.9,0.1,4.3  c1.3,0,2.7-0.1,4,0.2c0.8,0.3,0.6,1.2,0.6,1.9c-0.6,0.8-1.6,0.7-2.5,0.7c-19.9,0-39.7,0-59.6,0c-1.3,0.3-2.1-1.4-1.2-2.4  c1.3-0.7,2.9-0.3,4.3-0.4c0-1.4-0.1-2.9,0.1-4.3c0.2-0.9,1.3-0.7,1.9-1.1c0-7.4,0-14.7,0-22.1c-0.7-0.2-1.3-0.4-2-0.6  c0-1.6,0-3.1,0-4.7C753.3,123.9,751.9,124,750.6,123.7z M777,123.9c0,0.8,0,1.6,0,2.4c0.7,0.2,2.1,0.1,2,1.3c0.1,8.4,0,16.9,0,25.3  c0.2,1.2-1.2,1.2-2,1.6c0,0.7,0,1.5,0,2.2c3.2,0,6.4,0,9.7,0c0-0.7,0-1.5,0-2.2c-0.6-0.2-1.3-0.4-1.8-0.7c-0.3-1.4-0.1-2.9-0.1-4.4  c0-7.3,0-14.6,0-21.9c-0.1-1.1,1.3-1,2-1.2c0-0.8,0-1.6,0-2.4C783.4,123.9,780.2,123.9,777,123.9z M789.3,123.9c0,1.4,0.1,2.8,0,4.2  c-0.2,0.9-1.3,0.9-1.9,1.1c0,7.4,0,14.7,0,22.1c0.6,0.3,1.6,0.3,1.9,1.1c0.1,1.4,0,2.9,0.1,4.4c1.6,0,3.2,0,4.8,0  c0-1.6-0.2-3.2,0.3-4.8c0.6-0.3,1.2-0.5,1.8-0.6c0-7.4,0-14.8,0-22.1c-0.7-0.2-1.5-0.1-1.9-0.7c-0.3-1.5-0.2-3.1-0.2-4.6  C792.5,123.9,790.9,123.9,789.3,123.9z M757.3,123.9c0,0.8,0,1.6,0,2.4c0.8,0.2,2,0.2,2,1.3c0.1,8.4,0.1,16.9,0,25.3  c0.1,1.2-1.2,1.3-2,1.7c0,0.7,0,1.5,0,2.2c3.2,0,6.3,0,9.5,0c0-0.7,0-1.5,0-2.2c-0.8-0.4-2.1-0.4-2-1.6c-0.1-8.4-0.1-16.9,0-25.4  c-0.1-1.1,1.2-1.1,2-1.2c0-0.8-0.1-1.6-0.1-2.5C763.6,123.9,760.4,123.9,757.3,123.9z M769.4,123.9c0,1.6,0,3.2,0,4.8  c-0.7,0.2-1.3,0.4-2,0.5c0,7.4,0,14.8,0,22.1c0.6,0.2,1.3,0.4,1.9,0.7c0.2,1.6,0.1,3.2,0.1,4.8c1.6,0,3.3,0,4.9,0c0-1.5,0-3,0-4.5  c0.6-0.4,1.3-0.7,2-0.9c0-7.4,0-14.7,0-22.1c-0.7-0.2-1.8-0.2-1.9-1.1c-0.1-1.4,0-2.8,0-4.2C772.7,123.9,771.1,123.9,769.4,123.9z   M796.8,123.9c0,0.8,0,1.7,0,2.5c0.4,0,1.1,0,1.5,0c0.6,1.3,0.5,2.7,0.5,4.1c-0.1,7.5,0,14.9,0,22.4c0.1,1.1-1.2,1.2-2,1.6  c0,0.7,0,1.5,0,2.2c3.2,0,6.3,0,9.5,0c0-0.7,0-1.5,0-2.2c-0.6-0.2-1.2-0.4-1.7-0.7c-0.4-0.7-0.2-1.6-0.3-2.4c0-7.5,0-14.9,0-22.4  c0.1-0.8-0.2-1.7,0.4-2.4c0.4-0.1,1.2-0.3,1.6-0.4c0-0.8,0-1.6,0-2.4C803.2,123.9,800,123.9,796.8,123.9z"/>
        <path class="st5" d="M747.1,164.7c3.9-0.4,7.9,0,11.9-0.1c18.9,0,37.7,0,56.6,0c1.2-0.2,1.7,1.2,1.3,2.1c-0.6,0.6-1.5,0.6-2.2,0.6  c-22.2,0-44.4,0-66.6,0C746.7,167.3,746,165.5,747.1,164.7z"/>
        <polyline class="st13" points="802,115.3 746.4,115.3 781.4,92.2 809.6,111.1 "/>
        <path class="st5" d="M806.6,115.3c3.5,0.3,7,0.5,10.5,0.8c-1.5-3.2-3.1-6.4-4.6-9.6c-0.8,1.1-1.6,2.3-2.5,3.4  c-0.2-0.1-0.4-0.2-0.5-0.4c-0.5,0.6-0.9,1.3-1.2,1.9c0.2,0.1,0.4,0.3,0.6,0.4C808,112.9,807.2,114,806.6,115.3z"/>
    </g>
</g>
<g class="icon_four">
    <g>
    <path class="st5" d="M1099.6,279.6c3.8-1.4,7.4-3.1,11.2-4.3c3.7,1.3,7.4,2.8,11,4.3c-0.1,4.9,0,9.9,0,14.8   c-3.7,1.3-7.3,2.9-11,4.2c-3.8-1.2-7.5-2.9-11.3-4.2C1099.5,289.4,1099.6,284.5,1099.6,279.6z M1102.9,280.7   c2.1,0.8,4.3,1.7,6.4,2.5c0.6,0.2,1.4,0.7,2.1,0.3c2.5-0.9,4.9-1.9,7.4-2.9c-2.6-1-5.2-2.2-7.9-3   C1108.1,278.5,1105.5,279.6,1102.9,280.7z M1101.7,282.7c0,3.4,0,6.7,0,10.1c2.6,1,5.3,2,7.9,3.1c0-3.4,0-6.7,0-10.1   C1107,284.7,1104.4,283.7,1101.7,282.7z M1111.8,285.8c0,3.3,0,6.7,0,10c2.6-1,5.2-2.1,7.9-3c0-3.4,0-6.7,0-10.1   C1117.1,283.7,1114.5,284.7,1111.8,285.8z"/>
    <path class="st5" d="M1069.1,331c3.7-1.3,7.3-2.9,11.1-4.2c3.8,1.2,7.4,2.9,11.1,4.2c0.1,4.9,0,9.9,0,14.8   c-3.7,1.4-7.4,2.9-11.1,4.3c-3.7-1.4-7.4-2.9-11.1-4.3C1069.1,340.8,1069,335.9,1069.1,331z M1072.2,332.1c2.2,0.9,4.5,1.8,6.8,2.7   c0.6,0.2,1.2,0.6,1.9,0.2c2.4-0.9,4.9-1.9,7.3-2.9c-2.7-1-5.3-2.1-8-3.1C1077.5,330.1,1074.9,331.1,1072.2,332.1z M1071.2,334.2   c0,3.3,0,6.7,0,10c2.6,1,5.3,2.1,7.9,3.1c0-3.3,0-6.7,0-10C1076.5,336.2,1073.8,335.2,1071.2,334.2z M1081.2,337.3   c0,3.3,0,6.7,0,10c2.6-1,5.3-2,7.9-3.1c0-3.3,0-6.7,0-10C1086.5,335.2,1083.9,336.2,1081.2,337.3z"/>
    <path class="st5" d="M1128.9,331c3.5-1.3,6.9-2.7,10.4-4c0.7-0.4,1.4,0,2,0.2c3.3,1.3,6.5,2.6,9.8,3.8c0,4.9,0,9.8,0,14.8   c-3.8,1.4-7.5,3.1-11.3,4.2c-3.7-1.3-7.3-2.8-11-4.3C1128.9,340.8,1128.9,335.9,1128.9,331z M1132,332.1c2.6,1.1,5.3,2.2,8,3.1   c2.7-0.9,5.3-2,7.9-3.1c-2.8-0.9-5.4-2.3-8.2-3C1137.2,330,1134.6,331.2,1132,332.1z M1131,334.2c0,3.3,0,6.7,0,10   c2.6,1,5.3,2.1,7.9,3.1c0-3.3,0-6.7,0-10C1136.3,336.2,1133.7,335.2,1131,334.2z M1141.1,337.3c0,3.3,0,6.7,0,10   c2.6-1,5.3-2,7.9-3.1c0-3.3,0-6.7,0-10C1146.3,335.2,1143.7,336.2,1141.1,337.3z"/>
    </g>
    <g>
        <line class="st13" x1="1128.5" y1="318.2" x2="1117.7" y2="300.4"/>
        <path class="st5" d="M1123.8,321.1c3.1,1.9,6.2,3.5,9.3,5.3c0-3.6,0-7.2-0.2-10.7c-1.2,0.7-2.4,1.5-3.5,2.2  c-0.1-0.1-0.1-0.2-0.2-0.3c-0.6,0.4-1.3,0.7-2.1,1.1c0.1,0.1,0.2,0.3,0.2,0.4C1126.2,319.6,1125,320.3,1123.8,321.1z"/>
    </g>
    <g>
        <line class="st13" x1="1104.5" y1="338.6" x2="1125.3" y2="338.4"/>
        <path class="st5" d="M1104.4,333.1c-3.2,1.7-6.2,3.5-9.3,5.3c3.1,1.8,6.2,3.6,9.3,5.3c0-1.4-0.1-2.8-0.1-4.2c0.1,0,0.2,0,0.3,0  c0-0.7,0-1.5,0.1-2.3c-0.2,0-0.3,0-0.5,0C1104.5,335.9,1104.4,334.5,1104.4,333.1z"/>
    </g>
    <g>
        <line class="st13" x1="1096.5" y1="307.4" x2="1085.8" y2="325.4"/>
        <path class="st5" d="M1101.2,310.2c0.2-3.6,0.2-7.1,0.3-10.7c-3.2,1.7-6.3,3.4-9.4,5.2c1.2,0.7,2.4,1.4,3.6,2.1   c-0.1,0.1-0.1,0.2-0.2,0.3c0.6,0.4,1.3,0.8,1.9,1.3c0.1-0.1,0.2-0.3,0.2-0.4C1098.8,308.8,1100,309.5,1101.2,310.2z"/>
    </g>
</g>
<g class="ft_one">
  <g>
    <polyline class="st13" points="114.2,337.5 114.2,354.6 61.2,354.6 61.2,346.9 "/>
    <path class="st5" d="M62.4,346.7c1.3,0,2.7,0,4.1,0c-1.8-3.1-3.5-6.2-5.4-9.2c-1.8,3.1-3.6,6.1-5.3,9.2c1.4,0,2.8,0,4.2,0c0,0,0,0.1,0,0.1  C60.8,346.8,61.6,346.8,62.4,346.7C62.4,346.8,62.4,346.7,62.4,346.7z"/>
  </g>
  <g>
    <polyline class="st13" points="61.3,299 61.3,281.9 114.3,281.9 114.3,289.6 "/>
    <path class="st5" d="M115.4,290.1c0-0.1,0-0.2,0-0.3c-0.8,0-1.6,0-2.2,0c0,0.1,0,0.2,0,0.3c-1.4,0-2.8,0-4.2,0c1.8,3,3.4,6.2,5.4,9.1  c1.9-2.9,3.5-6.1,5.3-9.1C118.2,290.1,116.8,290.1,115.4,290.1z"/>
  </g>
  <g>
    <path class="st5" d="M60.3,299.6c-7.6,0.5-14.6,5.8-16.9,13c-2.3,6.6-0.4,14.5,4.7,19.4c5.4,5.6,14.4,7,21.4,3.6c5.6-2.6,9.7-8.2,10.6-14.3  c0.8-5.2-0.7-10.7-4.1-14.8c-3.2-4-8.2-6.5-13.4-6.9c0-0.3,0-0.5,0-0.8c-0.7,0-1.4,0-2.3,0C60.3,299.1,60.3,299.3,60.3,299.6z   M76.5,311.8c3.1,6.7,0.8,15.4-5.1,19.8c-4.7,3.7-11.4,4.6-16.8,2.1c-6.7-2.8-11-10.2-9.9-17.4c0.8-6.6,6.1-12.5,12.6-14  C65,300.3,73.5,304.6,76.5,311.8z"/>
    <path class="st5" d="M59.4,309.3c0.5,0,1-0.1,1.6-0.1c0,0.7,0.1,1.4,0.1,2.1c2.3,0.4,3.6,2.5,3.6,4.7h-2.9c-0.3-0.9-0.4-2.5-1.7-2.4  c-1.5-0.2-2.2,2-1.1,2.9c1.7,1.2,4.1,1.5,5.2,3.4c0.7,1.6,0.6,3.8-0.9,4.9c-0.7,0.6-1.7,0.7-2.6,1.1v1.8h-1.6v-1.8  c-1.1-0.3-2.2-0.6-3-1.5c-0.9-0.9-1-2.2-1.1-3.3h2.8c0.2,1.1,0.8,2.6,2.2,2.4c1.6,0.2,2.2-2.2,1-3c-1.5-1-3.5-1.3-4.7-2.7  c-1-1.1-0.9-2.7-0.5-4c0.6-1.5,2.2-2.1,3.6-2.5C59.5,310.5,59.5,309.9,59.4,309.3z"/>
  </g>
  <g>
    <path class="st5" d="M131.7,312.3c-2.4-7.3-9.8-12.7-17.5-12.7c-6.4-0.2-12.7,3.1-16.2,8.5c-4.4,6.5-4.1,15.7,0.6,22c3.4,4.5,8.8,7.3,14.4,7.5  c0,0.1,0,0.1,0,0.2c0.9,0,1.6,0,2.3,0c0-0.1,0-0.3,0-0.4c5.4-0.4,10.5-3.2,13.7-7.6C132.7,324.9,133.7,318.1,131.7,312.3z   M122.3,332.8c-6.5,4-15.5,2.7-20.6-2.9c-4-4.1-5.6-10.4-3.9-15.9c1.6-5.7,6.4-10.4,12.2-11.7c8-2,17,2.9,19.6,10.7  C132.3,320.2,129,329,122.3,332.8z"/>
    <path class="st5" d="M110.3,309.1c0.7,0,1.4,0.1,2.1,0.1c0,0.7,0,1.4,0,2.1c0.6,0,1.1,0,1.7,0c0-0.7,0-1.4,0-2.1c0.7,0,1.5,0,2.3,0  c0,0.7,0,1.3,0,2c1.4,0.2,3.1,0.2,4,1.6c1.5,1.6,0.5,4.1-1.1,5.2c2.4,0.8,3.3,3.8,1.9,5.8c-1,1.7-3,1.7-4.7,1.8c0,0.7,0,1.3-0.1,2  c-0.7,0-1.5,0-2.2,0c0-0.7,0-1.3,0-2c-0.6,0-1.1,0-1.7,0c0,0.7,0,1.3,0,2c-0.7,0-1.4,0-2.1,0c0-0.7,0-1.3-0.1-2c-0.9,0-1.7,0-2.6,0  c0-0.8,0-1.5,0-2.3c0.7,0,1.5,0,2.2,0c0-3.3,0-6.6,0-9.9c-0.7,0-1.5,0-2.2,0c0-0.7,0-1.4,0-2.1c0.9,0,1.7,0,2.6,0  C110.2,310.6,110.3,309.9,110.3,309.1z M112.5,313.4c0,1.2,0,2.4,0,3.6c1.7-0.1,3.4,0.2,5-0.2c1.2-0.5,0.7-1.9,0.6-2.8  C116.3,313.4,114.4,313.5,112.5,313.4z M112.5,319.3c0,1.4,0,2.7,0,4.1c2-0.2,4.3,0.6,6-0.8c0.7-0.7,0.2-1.8,0.1-2.6  C116.7,319,114.5,319.4,112.5,319.3z"/>
  </g>
</g>
<g class="ft_two">
    <g>
        <path class="st13" d="M369.1,123.1c3.5-11.4,14.1-25.5,33.8-25.5c19.7,0,35.1,14.7,35.1,34.4"/>
        <path class="st5" d="M367.9,122.8c-1.4-0.2-2.8-0.4-4.2-0.6c1.4,3.3,2.7,6.7,4.2,9.9c2.1-2.9,4.3-5.6,6.4-8.5  c-1.4-0.1-2.8-0.3-4.2-0.5c0.1-0.4,0.3-0.9,0.4-1.3c-0.8,0-1.6,0-2.3,0C368.1,122.1,368,122.5,367.9,122.8z"/>
    </g>
    <g>
        <path class="st13" d="M436.8,144.5c-3.5,11.4-14.1,25.5-33.8,25.5s-35.1-14.7-35.1-34.4"/>
        <path class="st5" d="M441.6,145c-1.4-3.2-2.7-6.5-4.1-9.8c-2.3,2.8-4.4,5.6-6.5,8.5c1.4,0.2,2.8,0.3,4.2,0.5  c-0.1,0.2-0.1,0.4-0.2,0.6c0.9,0,1.6,0,2.3,0c0,0,0-0.1,0-0.1C438.6,144.2,440.2,145,441.6,145z"/>
    </g>
    <g>
        <path class="st5" d="M397.3,116.1c2.8-1.7,6.5-2,9.5-0.7c3.6,1.4,6.1,5,6.4,8.8c0.4,3.8-1.6,7.6-4.7,9.8c5.7,2.3,9.9,8.3,9.6,14.5  c0.1,1.1-1.3,1.3-2.1,1c-0.5-0.7-0.4-1.7-0.6-2.5c-0.3-3.8-2.6-7.5-5.9-9.5c-4.1-2.7-9.8-2.6-13.8,0.2c-3.6,2.3-5.7,6.5-5.8,10.7  c0.2,1.6-2.6,1.6-2.5,0c-0.3-6.3,3.9-12.2,9.6-14.5c-2.5-1.6-4.2-4.3-4.7-7.2C391.6,122.6,393.7,118.1,397.3,116.1z M400.8,117.4  c-3.9,0.9-6.7,5.2-5.8,9.1c0.7,4,4.9,7,9,6.3c4-0.6,7.1-4.7,6.5-8.7C410.1,119.6,405.1,116.1,400.8,117.4z"/>
    </g>
</g>
<g class="ft_three">
    <g>
    <defs>
        <circle id="SVGID_1_" cx="781.2" cy="133" r="67"/>
    </defs>
    <clipPath id="SVGID_2_">
        <use xlink:href="#SVGID_1_"  style="overflow:visible;"/>
    </clipPath>
    </g>
    <g class="st12">
        <path class="st5" d="M750.6,123.7c-1.3-0.8-0.5-2.8,1-2.5c20.2,0,40.4,0,60.6,0c1.4-0.3,2.1,1.8,0.9,2.4c-1.3,0.4-2.7,0.2-4,0.2  c0,1.5,0.1,3-0.1,4.5c-0.4,0.7-1.3,0.6-1.9,0.8c0,7.4,0,14.7,0,22.1c0.6,0.3,1.6,0.3,1.9,1.1c0.1,1.4,0,2.9,0.1,4.3  c1.3,0,2.7-0.1,4,0.2c0.8,0.3,0.6,1.2,0.6,1.9c-0.6,0.8-1.6,0.7-2.5,0.7c-19.9,0-39.7,0-59.6,0c-1.3,0.3-2.1-1.4-1.2-2.4  c1.3-0.7,2.9-0.3,4.3-0.4c0-1.4-0.1-2.9,0.1-4.3c0.2-0.9,1.3-0.7,1.9-1.1c0-7.4,0-14.7,0-22.1c-0.7-0.2-1.3-0.4-2-0.6  c0-1.6,0-3.1,0-4.7C753.3,123.9,751.9,124,750.6,123.7z M777,123.9c0,0.8,0,1.6,0,2.4c0.7,0.2,2.1,0.1,2,1.3c0.1,8.4,0,16.9,0,25.3  c0.2,1.2-1.2,1.2-2,1.6c0,0.7,0,1.5,0,2.2c3.2,0,6.4,0,9.7,0c0-0.7,0-1.5,0-2.2c-0.6-0.2-1.3-0.4-1.8-0.7c-0.3-1.4-0.1-2.9-0.1-4.4  c0-7.3,0-14.6,0-21.9c-0.1-1.1,1.3-1,2-1.2c0-0.8,0-1.6,0-2.4C783.4,123.9,780.2,123.9,777,123.9z M789.3,123.9c0,1.4,0.1,2.8,0,4.2  c-0.2,0.9-1.3,0.9-1.9,1.1c0,7.4,0,14.7,0,22.1c0.6,0.3,1.6,0.3,1.9,1.1c0.1,1.4,0,2.9,0.1,4.4c1.6,0,3.2,0,4.8,0  c0-1.6-0.2-3.2,0.3-4.8c0.6-0.3,1.2-0.5,1.8-0.6c0-7.4,0-14.8,0-22.1c-0.7-0.2-1.5-0.1-1.9-0.7c-0.3-1.5-0.2-3.1-0.2-4.6  C792.5,123.9,790.9,123.9,789.3,123.9z M757.3,123.9c0,0.8,0,1.6,0,2.4c0.8,0.2,2,0.2,2,1.3c0.1,8.4,0.1,16.9,0,25.3  c0.1,1.2-1.2,1.3-2,1.7c0,0.7,0,1.5,0,2.2c3.2,0,6.3,0,9.5,0c0-0.7,0-1.5,0-2.2c-0.8-0.4-2.1-0.4-2-1.6c-0.1-8.4-0.1-16.9,0-25.4  c-0.1-1.1,1.2-1.1,2-1.2c0-0.8-0.1-1.6-0.1-2.5C763.6,123.9,760.4,123.9,757.3,123.9z M769.4,123.9c0,1.6,0,3.2,0,4.8  c-0.7,0.2-1.3,0.4-2,0.5c0,7.4,0,14.8,0,22.1c0.6,0.2,1.3,0.4,1.9,0.7c0.2,1.6,0.1,3.2,0.1,4.8c1.6,0,3.3,0,4.9,0c0-1.5,0-3,0-4.5  c0.6-0.4,1.3-0.7,2-0.9c0-7.4,0-14.7,0-22.1c-0.7-0.2-1.8-0.2-1.9-1.1c-0.1-1.4,0-2.8,0-4.2C772.7,123.9,771.1,123.9,769.4,123.9z   M796.8,123.9c0,0.8,0,1.7,0,2.5c0.4,0,1.1,0,1.5,0c0.6,1.3,0.5,2.7,0.5,4.1c-0.1,7.5,0,14.9,0,22.4c0.1,1.1-1.2,1.2-2,1.6  c0,0.7,0,1.5,0,2.2c3.2,0,6.3,0,9.5,0c0-0.7,0-1.5,0-2.2c-0.6-0.2-1.2-0.4-1.7-0.7c-0.4-0.7-0.2-1.6-0.3-2.4c0-7.5,0-14.9,0-22.4  c0.1-0.8-0.2-1.7,0.4-2.4c0.4-0.1,1.2-0.3,1.6-0.4c0-0.8,0-1.6,0-2.4C803.2,123.9,800,123.9,796.8,123.9z"/>
        <path class="st5" d="M747.1,164.7c3.9-0.4,7.9,0,11.9-0.1c18.9,0,37.7,0,56.6,0c1.2-0.2,1.7,1.2,1.3,2.1c-0.6,0.6-1.5,0.6-2.2,0.6  c-22.2,0-44.4,0-66.6,0C746.7,167.3,746,165.5,747.1,164.7z"/>
        <polyline class="st13" points="802,115.3 746.4,115.3 781.4,92.2 809.6,111.1 "/>
        <path class="st5" d="M806.6,115.3c3.5,0.3,7,0.5,10.5,0.8c-1.5-3.2-3.1-6.4-4.6-9.6c-0.8,1.1-1.6,2.3-2.5,3.4  c-0.2-0.1-0.4-0.2-0.5-0.4c-0.5,0.6-0.9,1.3-1.2,1.9c0.2,0.1,0.4,0.3,0.6,0.4C808,112.9,807.2,114,806.6,115.3z"/>
    </g>
</g>
<g class="ft_four">
    <g>
    <path class="st5" d="M1099.6,279.6c3.8-1.4,7.4-3.1,11.2-4.3c3.7,1.3,7.4,2.8,11,4.3c-0.1,4.9,0,9.9,0,14.8   c-3.7,1.3-7.3,2.9-11,4.2c-3.8-1.2-7.5-2.9-11.3-4.2C1099.5,289.4,1099.6,284.5,1099.6,279.6z M1102.9,280.7   c2.1,0.8,4.3,1.7,6.4,2.5c0.6,0.2,1.4,0.7,2.1,0.3c2.5-0.9,4.9-1.9,7.4-2.9c-2.6-1-5.2-2.2-7.9-3   C1108.1,278.5,1105.5,279.6,1102.9,280.7z M1101.7,282.7c0,3.4,0,6.7,0,10.1c2.6,1,5.3,2,7.9,3.1c0-3.4,0-6.7,0-10.1   C1107,284.7,1104.4,283.7,1101.7,282.7z M1111.8,285.8c0,3.3,0,6.7,0,10c2.6-1,5.2-2.1,7.9-3c0-3.4,0-6.7,0-10.1   C1117.1,283.7,1114.5,284.7,1111.8,285.8z"/>
    <path class="st5" d="M1069.1,331c3.7-1.3,7.3-2.9,11.1-4.2c3.8,1.2,7.4,2.9,11.1,4.2c0.1,4.9,0,9.9,0,14.8   c-3.7,1.4-7.4,2.9-11.1,4.3c-3.7-1.4-7.4-2.9-11.1-4.3C1069.1,340.8,1069,335.9,1069.1,331z M1072.2,332.1c2.2,0.9,4.5,1.8,6.8,2.7   c0.6,0.2,1.2,0.6,1.9,0.2c2.4-0.9,4.9-1.9,7.3-2.9c-2.7-1-5.3-2.1-8-3.1C1077.5,330.1,1074.9,331.1,1072.2,332.1z M1071.2,334.2   c0,3.3,0,6.7,0,10c2.6,1,5.3,2.1,7.9,3.1c0-3.3,0-6.7,0-10C1076.5,336.2,1073.8,335.2,1071.2,334.2z M1081.2,337.3   c0,3.3,0,6.7,0,10c2.6-1,5.3-2,7.9-3.1c0-3.3,0-6.7,0-10C1086.5,335.2,1083.9,336.2,1081.2,337.3z"/>
    <path class="st5" d="M1128.9,331c3.5-1.3,6.9-2.7,10.4-4c0.7-0.4,1.4,0,2,0.2c3.3,1.3,6.5,2.6,9.8,3.8c0,4.9,0,9.8,0,14.8   c-3.8,1.4-7.5,3.1-11.3,4.2c-3.7-1.3-7.3-2.8-11-4.3C1128.9,340.8,1128.9,335.9,1128.9,331z M1132,332.1c2.6,1.1,5.3,2.2,8,3.1   c2.7-0.9,5.3-2,7.9-3.1c-2.8-0.9-5.4-2.3-8.2-3C1137.2,330,1134.6,331.2,1132,332.1z M1131,334.2c0,3.3,0,6.7,0,10   c2.6,1,5.3,2.1,7.9,3.1c0-3.3,0-6.7,0-10C1136.3,336.2,1133.7,335.2,1131,334.2z M1141.1,337.3c0,3.3,0,6.7,0,10   c2.6-1,5.3-2,7.9-3.1c0-3.3,0-6.7,0-10C1146.3,335.2,1143.7,336.2,1141.1,337.3z"/>
    </g>
    <g>
        <line class="st13" x1="1128.5" y1="318.2" x2="1117.7" y2="300.4"/>
        <path class="st5" d="M1123.8,321.1c3.1,1.9,6.2,3.5,9.3,5.3c0-3.6,0-7.2-0.2-10.7c-1.2,0.7-2.4,1.5-3.5,2.2  c-0.1-0.1-0.1-0.2-0.2-0.3c-0.6,0.4-1.3,0.7-2.1,1.1c0.1,0.1,0.2,0.3,0.2,0.4C1126.2,319.6,1125,320.3,1123.8,321.1z"/>
    </g>
    <g>
        <line class="st13" x1="1104.5" y1="338.6" x2="1125.3" y2="338.4"/>
        <path class="st5" d="M1104.4,333.1c-3.2,1.7-6.2,3.5-9.3,5.3c3.1,1.8,6.2,3.6,9.3,5.3c0-1.4-0.1-2.8-0.1-4.2c0.1,0,0.2,0,0.3,0  c0-0.7,0-1.5,0.1-2.3c-0.2,0-0.3,0-0.5,0C1104.5,335.9,1104.4,334.5,1104.4,333.1z"/>
    </g>
    <g>
        <line class="st13" x1="1096.5" y1="307.4" x2="1085.8" y2="325.4"/>
        <path class="st5" d="M1101.2,310.2c0.2-3.6,0.2-7.1,0.3-10.7c-3.2,1.7-6.3,3.4-9.4,5.2c1.2,0.7,2.4,1.4,3.6,2.1   c-0.1,0.1-0.1,0.2-0.2,0.3c0.6,0.4,1.3,0.8,1.9,1.3c0.1-0.1,0.2-0.3,0.2-0.4C1098.8,308.8,1100,309.5,1101.2,310.2z"/>
    </g>
</g>
</svg>