<svg width="15" height="15" viewBox="0 0 15 15" fill="none" xmlns="http://www.w3.org/2000/svg">
<path fill-rule="evenodd" clip-rule="evenodd" d="M15 7.5C15 11.6421 11.6421 15 7.5 15C3.35785 15 0 11.6421 0 7.5C0 3.35787 3.35785 0 7.5 0C11.6421 0 15 3.35787 15 7.5ZM9.80983 11.0682L11.1494 4.31428C11.1494 3.86465 10.5312 4.13626 10.5312 4.13626L3.00908 7.087C3.00908 7.087 2.65312 7.20881 2.68121 7.43362C2.70931 7.65844 2.99968 7.76146 2.99968 7.76146L4.89192 8.39849L9.43515 5.51333C9.43515 5.51333 9.69743 5.3541 9.68808 5.51333C9.68808 5.51333 9.73493 5.54144 9.5944 5.67259C9.4539 5.80375 6.0254 8.88562 6.0254 8.88562L6.02045 8.92784L6.01253 8.92165L5.7784 10.9924C5.88296 11.0378 5.97853 10.9653 5.97853 10.9653L7.20129 9.85051L9.10728 11.3118C9.62247 11.5366 9.80983 11.0682 9.80983 11.0682Z" fill="#959595"/>
</svg>
