<svg width="35" height="35" viewBox="0 0 35 35" fill="none" xmlns="http://www.w3.org/2000/svg">
<circle cx="17.5" cy="17.5" r="17.5" fill="url(#paint0_linear)"/>
<path d="M25.9336 12.6079C25.4237 12.8306 24.8774 12.9827 24.3083 13.0551C24.9117 12.6728 25.3818 12.0791 25.6275 11.3689C25.6429 11.3244 25.5972 11.2839 25.5587 11.307C24.9901 11.6484 24.3659 11.8985 23.7033 12.0364C23.1401 11.3989 22.3352 11 21.4438 11C19.7364 11 18.3495 12.4699 18.3495 14.2817C18.3495 14.5394 18.3771 14.7891 18.4293 15.0298C15.8658 14.8926 13.5919 13.5943 12.0654 11.6209C12.0578 11.611 12.0432 11.6123 12.0372 11.6234C11.7807 12.1031 11.6307 12.6593 11.6307 13.2508C11.6307 14.3631 12.1541 15.3479 12.9539 15.9417C12.9695 15.9534 12.9614 15.9801 12.9424 15.979C12.4698 15.9522 12.0242 15.8122 11.6314 15.5862C11.6202 15.5797 11.6069 15.5873 11.6078 15.6011C11.6154 15.7453 11.6591 16.3884 11.8167 16.802C12.2069 17.826 13.0474 18.6091 14.0906 18.8317C13.8297 18.9049 13.5548 18.9479 13.2734 18.9479C13.0852 18.9479 12.9002 18.9278 12.7182 18.8921C12.7055 18.8894 12.6945 18.903 12.6989 18.9163C13.0981 20.1868 14.2086 21.1161 15.5288 21.1637C15.5465 21.1642 15.5542 21.1881 15.54 21.1996C14.4867 22.0605 13.171 22.5711 11.7369 22.5711C11.4865 22.5711 11.2432 22.556 11 22.5262C12.3697 23.4568 13.9966 24 15.7438 24C18.1517 24 20.098 23.1055 21.5423 21.7452C22.9996 20.3723 23.946 18.5253 24.3399 16.6436C24.4786 15.9818 24.5516 15.3143 24.5516 14.6624C24.5516 14.5212 24.5481 14.3789 24.5413 14.2383C25.1013 13.8092 25.5927 13.2823 25.9909 12.6843C26.0187 12.6425 25.9779 12.5884 25.9336 12.6079Z" fill="#FF2B0A"/>
<defs>
<linearGradient id="paint0_linear" x1="-4" y1="45" x2="27.5" y2="3" gradientUnits="userSpaceOnUse">
<stop stop-color="#CFCFCF"/>
<stop offset="1" stop-color="#F1F1F1"/>
</linearGradient>
</defs>
</svg>
