<svg width="15" height="13" viewBox="0 0 15 13" fill="none" xmlns="http://www.w3.org/2000/svg">
<path d="M14.9336 1.60788C14.4237 1.83064 13.8774 1.98272 13.3083 2.05513C13.9117 1.67283 14.3818 1.07905 14.6275 0.368917C14.6429 0.324403 14.5972 0.283899 14.5587 0.307016C13.9901 0.648422 13.3659 0.898509 12.7033 1.03645C12.1401 0.398913 11.3352 -3.96466e-07 10.4438 -3.96466e-07C8.73641 -3.96466e-07 7.34948 1.46994 7.34948 3.28167C7.34948 3.53939 7.37715 3.7891 7.42929 4.02982C4.86578 3.89264 2.59189 2.59427 1.06538 0.620912C1.05775 0.610978 1.04321 0.612315 1.03718 0.623396C0.780722 1.10312 0.63068 1.65927 0.63068 2.25076C0.63068 3.36305 1.15406 4.34792 1.95394 4.9417C1.96954 4.95335 1.96139 4.9801 1.94241 4.97896C1.46975 4.95221 1.02424 4.81217 0.631395 4.58616C0.620221 4.57966 0.606909 4.5873 0.607796 4.60106C0.615422 4.7453 0.659059 5.38838 0.816729 5.802C1.20691 6.82603 2.0474 7.60914 3.09062 7.83171C2.82972 7.90489 2.55483 7.94787 2.27336 7.94787C2.08519 7.94787 1.9002 7.92781 1.71823 7.89209C1.70546 7.88941 1.69447 7.90297 1.6989 7.91635C2.09813 9.18683 3.20856 10.1161 4.5288 10.1637C4.54654 10.1642 4.55416 10.1881 4.53997 10.1996C3.48665 11.0605 2.17102 11.5711 0.736917 11.5711C0.486489 11.5711 0.243151 11.556 -5.19599e-06 11.5262C1.36972 12.4568 2.99661 13 4.74375 13C7.15172 13 9.09804 12.1055 10.5423 10.7452C11.9996 9.37234 12.946 7.52527 13.3399 5.64362C13.4786 4.98182 13.5516 4.31429 13.5516 3.66243C13.5516 3.52124 13.5481 3.37891 13.5413 3.2383C14.1013 2.8092 14.5927 2.28229 14.9909 1.6843C15.0187 1.64246 14.9779 1.58839 14.9336 1.60788Z" fill="#FF2B0A"/>
</svg>
