<svg width="19" height="19" viewBox="0 0 19 19" fill="none" xmlns="http://www.w3.org/2000/svg">
<path d="M0.511054 0.511054C1.19246 -0.170352 2.29724 -0.170351 2.97864 0.511055L18.1887 15.7211C18.8701 16.4025 18.8701 17.5073 18.1887 18.1887C17.5073 18.8701 16.4025 18.8701 15.7211 18.1887L0.511055 2.97864C-0.170351 2.29724 -0.170352 1.19246 0.511054 0.511054Z" fill="#221835"/>
<path d="M18.1888 0.511056C18.8702 1.19246 18.8702 2.29724 18.1888 2.97865L2.97871 18.1887C2.2973 18.8701 1.19253 18.8701 0.511119 18.1887C-0.170286 17.5073 -0.170286 16.4025 0.51112 15.7211L15.7212 0.511057C16.4026 -0.170349 17.5074 -0.170349 18.1888 0.511056Z" fill="#221835"/>
</svg>
