<?xml version="1.0" encoding="UTF-8"?>
<svg width="166px" height="62px" viewBox="0 0 166 62" version="1.1" xmlns="http://www.w3.org/2000/svg" xmlns:xlink="http://www.w3.org/1999/xlink">
    <!-- Generator: Sketch 51.3 (57544) - http://www.bohemiancoding.com/sketch -->
    <title>svg</title>
    <desc>Created with Sketch.</desc>
    <defs></defs>
    <g id="svg" stroke="none" stroke-width="1" fill="none" fill-rule="evenodd">
        <g id="logo/el/enWords" transform="translate(61.000000, 16.000000)" fill="#535759">
            <g id="Group" transform="translate(0.000000, 0.428571)">
                <polygon id="Fill-30" points="0.0416369017 13.1776673 3.0230993 13.1776673 3.0230993 7.75303697 10.1617461 7.75303697 10.1617461 5.49247148 3.0230993 5.49247148 3.0230993 2.32840668 10.5583376 2.32840668 10.5583376 0.0678411935 0.0416369017 0.0678411935"></polygon>
                <path d="M21.4029289,10.1248136 C21.354526,10.334879 20.5090366,10.9636214 20.1202521,11.1162641 C20.1124451,11.1191716 20.0952699,11.1242597 20.0632616,11.1242597 L16.0981274,11.1242597 C16.066119,11.1242597 16.0489438,11.1191716 16.0317685,11.1126298 C15.7038779,10.9926962 14.8021788,10.323249 14.7326972,10.1349897 L14.7319165,3.37001129 C14.7811001,3.1570384 15.6671854,2.48322997 16.0411369,2.33640225 C16.0473824,2.33349477 16.0653383,2.32840668 16.0981274,2.32840668 L20.0632616,2.32840668 C20.0960506,2.32840668 20.1140065,2.33349477 20.1194714,2.33567538 C20.4247219,2.45560891 21.149204,2.96805222 21.3927799,3.31549604 C21.395122,3.31985726 21.4021482,3.33366779 21.4021482,3.35910824 L21.4029289,10.1248136 Z M21.8760282,0.461804696 C21.4443055,0.271364774 20.7627615,0.0678411935 20.1428921,0.0678411935 L15.9654097,0.0678411935 C15.4556179,0.0678411935 14.8177926,0.215395789 14.2494489,0.466165915 C13.6654914,0.741649619 12.541295,1.62479658 12.1931064,2.0354781 C11.900347,2.37056513 11.7520155,2.801599 11.7520155,3.31767665 L11.7520155,10.1553421 C11.7520155,10.6714197 11.900347,11.1031805 12.1899837,11.4346332 C12.528804,11.8336848 13.6514389,12.7037481 14.2588172,12.9908617 C14.8177926,13.2372706 15.4556179,13.3848252 15.9654097,13.3848252 L20.1428921,13.3848252 C20.7627615,13.3848252 21.4450862,13.1813016 21.8861772,12.9857736 C22.4615471,12.7146511 23.5685682,11.8453147 23.9167568,11.4360869 C24.2220073,11.0864625 24.3836106,10.6437987 24.3836106,10.1553421 L24.3836106,3.31767665 C24.3836106,2.82849319 24.2212267,2.38510253 23.9120727,2.03184375 C23.5951117,1.67931183 22.4966782,0.754733278 21.8760282,0.461804696 Z" id="Fill-31"></path>
                <path d="M35.4920757,5.05344205 C35.3101745,5.29403599 34.665323,5.72143551 34.4217471,5.72143551 L29.5666241,5.72143551 L29.5666241,2.32840668 L34.5474385,2.32840668 C34.7504184,2.38001444 35.3132973,2.82049762 35.4936371,3.04291982 C35.4967599,3.08362453 35.4951985,3.13377856 35.4951985,3.15195031 L35.4951985,4.93932347 C35.4951985,4.95894896 35.4967599,5.01201046 35.4920757,5.05344205 M36.4562302,7.50662806 C36.8653128,7.27621029 37.7225125,6.601675 37.9621849,6.31819572 C38.304128,5.90315299 38.4766609,5.45322051 38.4766609,4.98075505 L38.4766609,3.11051872 C38.4766609,2.6373264 38.293979,2.15541163 37.9590621,1.74836447 C37.7225125,1.46924642 36.8653128,0.793984254 36.4577916,0.565020226 C35.9175528,0.258281115 35.1477906,0.0678411935 34.4475099,0.0678411935 L26.5851618,0.0678411935 L26.5851618,13.1776673 L29.5666241,13.1776673 L29.5666241,7.98127413 L32.5715073,7.98127413 L36.2993112,13.1776673 L39.5953924,13.1776673 L35.6568017,7.83371953 C35.9433156,7.75449071 36.231391,7.63891839 36.4562302,7.50662806" id="Fill-32"></path>
                <polygon id="Fill-33" points="48.8067762 6.45848162 44.8291509 0.0678411935 41.418308 0.0678411935 41.418308 13.1776673 44.3740076 13.1776673 44.3740076 4.34547073 47.8098326 9.95617973 49.7475099 9.95617973 53.2372028 4.3294796 53.2372028 13.1776673 56.1655781 13.1776673 56.1655781 0.0678411935 52.8093836 0.0678411935"></polygon>
                <path d="M67.4645321,10.1248136 C67.4161292,10.334879 66.5706399,10.9636214 66.1818553,11.1162641 C66.1740484,11.1191716 66.1568732,11.1242597 66.1248648,11.1242597 L62.1597306,11.1242597 C62.1277222,11.1242597 62.110547,11.1191716 62.0933718,11.1126298 C61.7654812,10.9926962 60.863782,10.323249 60.7943004,10.1349897 L60.7935197,3.37001129 C60.8427033,3.1570384 61.7287887,2.48322997 62.1027401,2.33640225 C62.1089856,2.33349477 62.1269415,2.32840668 62.1597306,2.32840668 L66.1248648,2.32840668 C66.1576538,2.32840668 66.1756098,2.33349477 66.1810746,2.33567538 C66.4863251,2.45560891 67.2108072,2.96805222 67.4543831,3.31549604 C67.4567252,3.31985726 67.4637514,3.33366779 67.4637514,3.35910824 L67.4645321,10.1248136 Z M67.9376314,0.461804696 C67.5059088,0.271364774 66.8243647,0.0678411935 66.2044954,0.0678411935 L62.027013,0.0678411935 C61.5172211,0.0678411935 60.8793959,0.215395789 60.3110521,0.466165915 C59.7270946,0.741649619 58.6028983,1.62479658 58.2547097,2.0354781 C57.9619502,2.37056513 57.812838,2.801599 57.812838,3.31767665 L57.812838,10.1553421 C57.812838,10.6714197 57.9619502,11.1031805 58.2515869,11.4346332 C58.5904072,11.8336848 59.7130421,12.7037481 60.3204205,12.9908617 C60.8793959,13.2372706 61.5172211,13.3848252 62.027013,13.3848252 L66.2044954,13.3848252 C66.8243647,13.3848252 67.5066895,13.1813016 67.9477804,12.9857736 C68.5231503,12.7146511 69.6301714,11.8453147 69.97836,11.4360869 C70.2836106,11.0864625 70.4452138,10.6437987 70.4452138,10.1553421 L70.4452138,3.31767665 C70.4452138,2.82849319 70.2828299,2.38510253 69.9736759,2.03184375 C69.656715,1.67931183 68.5582815,0.754733278 67.9376314,0.461804696 Z" id="Fill-34"></path>
                <path d="M77.4448974,2.34657843 L77.463634,2.34149034 C77.5096949,2.32913355 77.5096949,2.32913355 77.5276508,2.32913355 L81.2023676,2.32913355 C81.21642,2.32913355 81.2289111,2.32986042 81.2390601,2.33058729 C81.586468,2.49049867 82.2906521,2.95932978 82.5311052,3.33730214 L82.9464333,3.99003134 L85.8420196,3.3358484 L85.6437238,2.99712701 C85.2924125,2.39891306 85.0777222,2.09435456 84.8583478,1.87847419 C83.7021431,0.676958195 82.4983162,0.0678411935 81.2819982,0.0678411935 L77.3949332,0.0678411935 C76.8851413,0.0678411935 76.2473161,0.215395789 75.6789723,0.466892785 C75.0950148,0.742376489 73.9708185,1.62552345 73.6226299,2.0354781 C73.3298704,2.371292 73.1807582,2.80232587 73.1807582,3.31840352 L73.1807582,4.58606468 C73.1807582,5.54117177 73.8638637,6.70852488 75.3635728,7.01599086 L82.5584294,8.47118446 C82.678656,8.49517117 82.8582151,8.67180056 82.8582151,8.86732857 L82.8589958,10.1240867 C82.8074702,10.3319715 81.9448056,10.9614408 81.5193285,11.1249866 L77.2895397,11.1249866 C77.2551893,11.1249866 77.2536279,11.1249866 77.2426982,11.1213522 C76.893729,10.9752514 76.1973518,10.4976978 75.9077151,10.0964656 L75.5220533,9.48952923 L72.6459843,10.0906507 L72.8481835,10.4359139 C73.1573375,10.9621677 73.3618788,11.3103384 73.607016,11.5756459 C74.7632207,12.7764351 75.9756353,13.3855521 77.2099092,13.3855521 L81.6255026,13.3855521 C82.1352944,13.3855521 82.7739004,13.2379975 83.3414634,12.9865005 C83.9386927,12.7052018 85.0582049,11.8373191 85.3993673,11.4368138 C85.6913461,11.1024536 85.8396775,10.6714197 85.8396775,10.156069 L85.8396775,8.74303381 C85.8396775,7.63092282 84.9005052,6.62711545 83.6068987,6.35599296 L76.4362435,4.85791403 C76.3246046,4.83610794 76.1622206,4.6870996 76.1622206,4.50320151 L76.1590979,3.34239023 C76.2301408,3.13377856 77.1045158,2.48177623 77.4448974,2.34657843" id="Fill-35"></path>
                <path d="M96.4055618,8.15281543 L92.0422747,8.15281543 L94.2243086,3.12360238 L96.4055618,8.15281543 Z M95.9410501,0.0678411935 L92.5075671,0.0678411935 L86.6984386,13.1776673 L89.8610215,13.1776673 L91.0773395,10.3923017 L97.3689356,10.3923017 L98.5587101,13.1776673 L101.750179,13.1776673 L95.9410501,0.0678411935 Z" id="Fill-36"></path>
            </g>
            <g id="Group-2" transform="translate(0.000000, 15.857143)">
                <polygon id="Fill-37" points="0.0418111147 13.3692496 2.78252968 13.3692496 2.78252968 8.02755067 9.23607524 8.02755067 9.23607524 5.76335084 2.78252968 5.76335084 2.78252968 2.6858517 9.59434423 2.6858517 9.59434423 0.421651862 0.0418111147 0.421651862"></polygon>
                <polygon id="Fill-38" points="11.8011871 13.3692496 14.5411217 13.3692496 14.5411217 0.421651862 11.8011871 0.421651862"></polygon>
                <polygon id="Fill-39" points="25.5831758 8.90922118 20.2303078 0.421651862 17.2888959 0.421651862 17.2888959 13.3684546 20.0053118 13.3684546 20.0053118 4.96118172 25.4075691 13.3684546 28.2995917 13.3684546 28.2995917 0.421651862 25.5831758 0.421651862"></polygon>
                <path d="M38.6086446,8.38292192 L34.7272666,8.38292192 L36.6675636,3.5102812 L38.6086446,8.38292192 Z M35.0996468,0.421651862 L29.8322303,13.3692496 L32.7391481,13.3692496 L33.8390417,10.6272464 L39.4945176,10.6272464 L40.5701086,13.3692496 L43.5036809,13.3692496 L38.2354804,0.421651862 L35.0996468,0.421651862 Z" id="Fill-40"></path>
                <polygon id="Fill-41" points="53.8056782 8.90922118 48.4528103 0.421651862 45.5113984 0.421651862 45.5113984 13.3684546 48.2278142 13.3684546 48.2278142 4.96118172 53.6300716 13.3684546 56.5220941 13.3684546 56.5220941 0.421651862 53.8056782 0.421651862"></polygon>
                <path d="M61.6060643,3.65417873 C61.8710423,3.28767728 62.5005609,2.79794867 62.7506436,2.69141679 C62.7514275,2.69062178 62.7639709,2.6858517 62.7906255,2.6858517 L65.7782909,2.6858517 C65.7924022,2.6858517 65.8096493,2.68744172 65.8253284,2.68903175 C66.3521485,2.97921186 66.9714756,3.5214114 67.1784406,4.03658046 L67.2983863,4.33630073 L70.0046107,3.67007901 L69.8133248,3.3170928 C69.4950377,2.72560239 69.2998321,2.42349708 69.1014906,2.21122835 C68.0509863,1.02347745 66.9573644,0.421651862 65.8496311,0.421651862 L62.6706798,0.421651862 C62.2065765,0.421651862 61.6256633,0.567139422 61.1074668,0.816773814 C60.5524242,1.10218383 59.5560131,2.01565491 59.2659485,2.36705109 C58.9821556,2.7200373 58.8386912,3.14218972 58.8386912,3.62078814 L58.8386912,10.374432 C58.8386912,10.8593905 58.9860753,11.2998282 59.2628127,11.6440693 C59.5810998,12.0527065 60.5696713,12.9017814 61.1168743,13.1824214 C61.5088535,13.3716347 62.1297485,13.5735682 62.6949825,13.5735682 L65.8496311,13.5735682 C67.2388054,13.5735682 68.3136124,12.6211415 69.093651,11.7911469 L69.0967868,11.7879668 C69.4480002,11.4055651 69.7027867,10.9031163 69.8227323,10.6383766 L69.9818759,10.2893655 L67.2991702,9.68674486 L67.1792246,9.97612995 C66.963636,10.4976591 66.3074628,11.0859695 65.8535509,11.2990332 C65.8425755,11.3022133 65.8096493,11.3093684 65.7782909,11.3093684 L62.7906255,11.3093684 C62.7647548,11.3093684 62.7522115,11.3045983 62.7498596,11.3038033 C62.4064858,11.1567257 61.6515339,10.546155 61.6029285,10.3537616 L61.6029285,3.76389066 C61.6029285,3.72970506 61.6029285,3.68120921 61.6060643,3.65417873" id="Fill-42"></path>
                <polygon id="Fill-43" points="72.165984 13.3692496 74.9059186 13.3692496 74.9059186 0.421651862 72.165984 0.421651862"></polygon>
                <path d="M85.6461487,8.38292192 L81.7647706,8.38292192 L83.7050677,3.5102812 L85.6461487,8.38292192 Z M82.1371509,0.421651862 L76.8697344,13.3692496 L79.7766521,13.3692496 L80.8765458,10.6272464 L86.5320217,10.6272464 L87.6076126,13.3692496 L90.5411849,13.3692496 L85.2729845,0.421651862 L82.1371509,0.421651862 Z" id="Fill-44"></path>
                <polygon id="Fill-45" points="95.289621 11.1050498 95.289621 0.421651862 92.5489024 0.421651862 92.5489024 13.3692496 101.982274 13.3692496 101.982274 11.1050498"></polygon>
            </g>
        </g>
        <g id="logo/mark/standard" transform="translate(1.000000, 1.000000)">
            <g id="logo/el/mark" transform="translate(6.000000, 6.000000)">
                <g id="standard">
                    <polygon id="Fill-17" fill="#E0592A" points="0 23.8 19 23.8 17.5072136 13.4 0 13.4"></polygon>
                    <polygon id="Fill-17-Copy" fill="#E0592A" transform="translate(38.500000, 18.600000) scale(-1, 1) translate(-38.500000, -18.600000) " points="29 23.8 48 23.8 46.5072136 13.4 29 13.4"></polygon>
                    <polygon id="Fill-19" fill="#E0592A" points="0 10.4 22.4 10.4 22.4 0 0 0"></polygon>
                    <polygon id="Fill-19-Copy" fill="#E0592A" points="25.6 10.4 48 10.4 48 0 25.6 0"></polygon>
                    <polygon id="Fill-21" fill="#535759" points="48 48 34.4 48 37.3742917 27 48 27"></polygon>
                    <polygon id="Fill-21-Copy" fill="#535759" transform="translate(6.800000, 37.500000) scale(-1, 1) translate(-6.800000, -37.500000) " points="13.6 48 0 48 2.9742917 27 13.6 27"></polygon>
                </g>
            </g>
        </g>
    </g>
</svg>