<svg width="15" height="15" viewBox="0 0 15 15" fill="none" xmlns="http://www.w3.org/2000/svg">
<path fill-rule="evenodd" clip-rule="evenodd" d="M0 0H15V15H0V0ZM3.45253 4.68738C3.54489 4.77063 3.59206 4.8929 3.57954 5.0166V9.47045C3.60695 9.63111 3.5563 9.79524 3.44311 9.91254L2.38461 11.1965V11.3658H5.38605V11.1965L4.32755 9.91254C4.21353 9.79543 4.15975 9.63239 4.18171 9.47045V5.6186L6.8162 11.3658H7.12199L9.38483 5.6186V10.1994C9.38483 10.3217 9.38483 10.3452 9.30486 10.4252L8.49099 11.2153V11.3846H12.4427V11.2153L11.6571 10.444C11.5877 10.3911 11.5533 10.3042 11.5677 10.2182V4.55099C11.5533 4.46499 11.5877 4.3781 11.6571 4.32524L12.4615 3.55393V3.38462H9.6765L7.69123 8.337L5.4331 3.38462H2.51163V3.55393L3.45253 4.68738Z" fill="#959595"/>
</svg>
