<svg width="22" height="22" viewBox="0 0 22 22" fill="none" xmlns="http://www.w3.org/2000/svg">
<path fill-rule="evenodd" clip-rule="evenodd" d="M22 11C22 17.0751 17.0751 22 11 22C4.92485 22 0 17.0751 0 11C0 4.92487 4.92485 0 11 0C17.0751 0 22 4.92487 22 11ZM14.3878 16.2334L16.3525 6.32761C16.3525 5.66815 15.4457 6.06651 15.4457 6.06651L4.41332 10.3943C4.41332 10.3943 3.89124 10.5729 3.93244 10.9026C3.97365 11.2324 4.39953 11.3835 4.39953 11.3835L7.17482 12.3178L13.8382 8.08622C13.8382 8.08622 14.2229 7.85268 14.2092 8.08622C14.2092 8.08622 14.2779 8.12745 14.0718 8.3198C13.8657 8.51216 8.83725 13.0322 8.83725 13.0322L8.83 13.0942L8.81837 13.0851L8.47498 16.1222C8.62834 16.1888 8.76851 16.0825 8.76851 16.0825L10.5619 14.4474L13.3573 16.5906C14.1129 16.9203 14.3878 16.2334 14.3878 16.2334Z" fill="white"/>
</svg>
