<svg width="15" height="15" viewBox="0 0 15 15" fill="none" xmlns="http://www.w3.org/2000/svg">
<path d="M5.75317 7.5C5.3393 7.5 5.00186 7.83743 5.00186 8.2513C5.00186 8.66517 5.33743 8.99888 5.75317 9.00261C6.16704 9.00261 6.50447 8.66517 6.50447 8.2513C6.50447 7.83743 6.16704 7.5 5.75317 7.5Z" fill="#959595"/>
<path d="M7.50559 10.8911C8.17301 10.9191 8.8255 10.714 9.35869 10.3132V10.343C9.44072 10.2629 9.44258 10.1286 9.36241 10.0466C9.28225 9.96458 9.14802 9.96271 9.066 10.0429C8.60925 10.3691 8.05742 10.5295 7.49813 10.4996C6.93885 10.5257 6.38889 10.3579 5.93773 10.028C5.8613 9.96644 5.75503 9.96644 5.68046 10.028C5.5947 10.0988 5.58165 10.2274 5.6525 10.3132C6.18568 10.714 6.83818 10.9191 7.50559 10.8911Z" fill="#959595"/>
<path d="M8.47315 8.2774C8.47315 8.69127 8.81059 9.02871 9.22446 9.02871L9.21887 9.05667H9.25615C9.67002 9.0399 9.99254 8.69127 9.97576 8.2774C9.97576 7.86353 9.63833 7.5261 9.22446 7.5261C8.81059 7.5261 8.47315 7.86353 8.47315 8.2774Z" fill="#959595"/>
<path fill-rule="evenodd" clip-rule="evenodd" d="M15 7.5C15 11.6421 11.6421 15 7.5 15C3.35786 15 0 11.6421 0 7.5C0 3.35786 3.35786 0 7.5 0C11.6421 0 15 3.35786 15 7.5ZM11.3665 6.44482C11.9724 6.42431 12.4795 6.89597 12.5019 7.5C12.5093 7.92133 12.2726 8.3091 11.896 8.49739C11.9034 8.60738 11.9034 8.71737 11.896 8.82737C11.896 10.5089 9.93848 11.8736 7.52423 11.8736C5.10999 11.8736 3.1525 10.5071 3.1525 8.82737C3.14504 8.71737 3.14504 8.60738 3.1525 8.49739C3.0425 8.44892 2.9437 8.37994 2.85794 8.29977C2.41611 7.88591 2.3956 7.19239 2.80947 6.75242C3.22334 6.31059 3.91685 6.29008 4.35682 6.70395C5.22185 6.11857 6.23788 5.79791 7.28188 5.78113L7.83557 3.1786V3.17487C7.86354 3.0481 7.98844 2.9698 8.11335 2.99776L9.95153 3.36503C10.069 3.15996 10.2815 3.022 10.5183 2.99776C10.9303 2.95302 11.2994 3.25131 11.3441 3.66331C11.3889 4.07532 11.0906 4.44444 10.6786 4.48919C10.2666 4.53393 9.89746 4.23564 9.85272 3.82364L8.24758 3.4862L7.761 5.82588C8.79195 5.84825 9.79493 6.16704 10.6488 6.74869C10.8427 6.56413 11.0981 6.45414 11.3665 6.44482Z" fill="#959595"/>
</svg>
