<svg xmlns="http://www.w3.org/2000/svg" xmlns:xlink="http://www.w3.org/1999/xlink" viewBox="0 0 690 760"><defs><linearGradient id="a" x1="282.92" y1="412.75" x2="355.92" y2="412.75" gradientUnits="userSpaceOnUse"><stop offset="0.14" stop-color="#ffa1a1"/><stop offset="0.42" stop-color="#ff7606"/><stop offset="1" stop-color="#ff0d0d"/></linearGradient><linearGradient id="b" x1="285.87" y1="401.44" x2="353.12" y2="401.44" gradientUnits="userSpaceOnUse"><stop offset="0" stop-color="#ff0d0d"/><stop offset="0.07" stop-color="#ff170c"/><stop offset="0.18" stop-color="#ff310a"/><stop offset="0.31" stop-color="#ff5a06"/><stop offset="0.43" stop-color="#ff8102"/><stop offset="0.54" stop-color="#ff5c06"/><stop offset="0.67" stop-color="#ff3a09"/><stop offset="0.8" stop-color="#ff210b"/><stop offset="0.91" stop-color="#ff120d"/><stop offset="1" stop-color="#ff0d0d"/></linearGradient><linearGradient id="c" x1="220.94" y1="217.87" x2="359.27" y2="217.87" xlink:href="#a"/><linearGradient id="d" x1="226.54" y1="196.44" x2="353.95" y2="196.44" xlink:href="#b"/><linearGradient id="e" x1="236.65" y1="225.63" x2="374.97" y2="225.63" xlink:href="#b"/><linearGradient id="f" x1="245.52" y1="224.91" x2="366.1" y2="224.91" xlink:href="#a"/><linearGradient id="g" x1="291.2" y1="416.85" x2="364.21" y2="416.85" xlink:href="#b"/><linearGradient id="h" x1="295.88" y1="416.47" x2="359.53" y2="416.47" xlink:href="#a"/><linearGradient id="i" x1="373.71" y1="267.92" x2="472.43" y2="267.92" xlink:href="#a"/><linearGradient id="j" x1="377.7" y1="252.63" x2="468.63" y2="252.63" xlink:href="#b"/><linearGradient id="k" x1="384.91" y1="273.46" x2="483.63" y2="273.46" xlink:href="#b"/><linearGradient id="l" x1="391.24" y1="272.94" x2="477.3" y2="272.94" xlink:href="#a"/><clipPath id="n"><path d="M299.43,423.44c0-13.18,8.95-29.18,20-35.72s20-1.17,20,12-8.95,29.18-20,35.72a17.68,17.68,0,0,1-8.88,2.79c-6.58,0-11.11-5.43-11.11-14.8m20-55.45c-20.16,12-36.5,41.17-36.5,65.25,0,11.44,3.69,19.65,9.73,23.85h0l.12.07a16.54,16.54,0,0,0,2,1.17l7.2,4.29-.33-2.41c5.28.41,11.36-1.17,17.85-5,20.16-12,36.5-41.17,36.5-65.24,0-9-2.27-15.95-6.15-20.57l3.13.62-7.36-4.33c-.27-.17-.56-.34-.84-.49l-.27-.16h0a18.6,18.6,0,0,0-8.81-2.1c-4.88,0-10.38,1.63-16.2,5.09" style="fill:url(#a)"/></clipPath><linearGradient id="o" x1="94.73" y1="633.15" x2="97.02" y2="633.15" gradientTransform="matrix(0, -47.45, -47.45, 0, 30363.54, 4967.8)" xlink:href="#a"/><clipPath id="q"><path d="M285.87,414.3l13.63,7.55a37.86,37.86,0,0,1,1.36-8l-12.33-7.1q-1.51,3.77-2.66,7.6m45.59,9.18,12,6.65a90.61,90.61,0,0,0,9.66-21.73l-13.74-7.91c-.19,7.59-3.26,16-7.92,23M291,401.07l12,6.64c3.42-7.91,9-15.16,15.38-19.33l-13.74-7.92A90,90,0,0,0,291,401.07m18.17-25.26,15.61,8.64,2.92-3-15.06-8.67q-1.76,1.44-3.47,3" style="fill:url(#b)"/></clipPath><clipPath id="s"><path d="M307.72,428.32c0-13.18,8.95-29.18,20-35.72s20-1.17,20,12-8.95,29.17-20,35.72a17.67,17.67,0,0,1-8.88,2.79c-6.58,0-11.11-5.42-11.11-14.8m20-55.45c-20.16,12-36.5,41.17-36.5,65.25s16.34,33.9,36.5,21.94,36.5-41.17,36.5-65.25c0-17.12-8.26-27-20.29-27-4.88,0-10.39,1.64-16.22,5.09" style="fill:none"/></clipPath><linearGradient id="t" x1="90.81" y1="628.98" x2="93.1" y2="628.98" gradientTransform="matrix(31.86, 0, 0, -31.86, -2601.94, 20458.83)" gradientUnits="userSpaceOnUse"><stop offset="0" stop-color="#ff0dff"/><stop offset="0.53" stop-color="#f4ffff"/><stop offset="0.6" stop-color="#f5f9ff"/><stop offset="0.7" stop-color="#f6eaff"/><stop offset="0.8" stop-color="#f8d0ff"/><stop offset="0.91" stop-color="#fcacff"/><stop offset="1" stop-color="#ff8bff"/></linearGradient><clipPath id="v"><path d="M307.72,428.7c0-13.18,8.95-29.18,20-35.72s20-1.17,20,12-8.95,29.17-20,35.72a17.66,17.66,0,0,1-8.88,2.79c-6.58,0-11.11-5.43-11.11-14.8m20-55.45c-20.16,12-36.5,41.17-36.5,65.25s16.34,33.9,36.5,21.94,36.5-41.17,36.5-65.25c0-17.12-8.26-27-20.29-27-4.88,0-10.39,1.64-16.22,5.09" style="fill:url(#g)"/></clipPath><linearGradient id="w" x1="88.77" y1="629.46" x2="91.55" y2="629.46" gradientTransform="matrix(26.19, 0, 0, -40.56, -2033.72, 25949.09)" xlink:href="#b"/><clipPath id="y"><path d="M327.71,378.47c-17.58,10.42-31.82,35.89-31.82,56.88s14.25,29.55,31.82,19.13,31.82-35.89,31.82-56.88c0-14.92-7.2-23.57-17.68-23.57-4.26,0-9.06,1.43-14.14,4.44" style="fill:url(#h)"/></clipPath><linearGradient id="z" x1="282.65" y1="419.46" x2="372.76" y2="419.46" gradientTransform="translate(694.34 33.56) rotate(81.53)" xlink:href="#a"/><linearGradient id="aa" x1="274.78" y1="392.2" x2="361.54" y2="392.2" xlink:href="#a"/><linearGradient id="ab" x1="278.12" y1="395.55" x2="364.89" y2="395.55" xlink:href="#a"/><linearGradient id="ac" x1="281.47" y1="398.89" x2="368.24" y2="398.89" xlink:href="#a"/><linearGradient id="ad" x1="284.81" y1="402.24" x2="371.58" y2="402.24" xlink:href="#a"/><linearGradient id="ae" x1="288.16" y1="405.59" x2="374.93" y2="405.59" xlink:href="#a"/><linearGradient id="af" x1="291.51" y1="408.94" x2="378.27" y2="408.94" xlink:href="#a"/><linearGradient id="ag" x1="294.86" y1="412.28" x2="381.62" y2="412.28" xlink:href="#a"/><linearGradient id="ah" x1="298.2" y1="415.63" x2="384.97" y2="415.63" xlink:href="#a"/><linearGradient id="ai" x1="301.55" y1="418.98" x2="388.31" y2="418.98" xlink:href="#a"/><linearGradient id="aj" x1="304.9" y1="422.32" x2="391.66" y2="422.32" xlink:href="#a"/><linearGradient id="ak" x1="308.24" y1="425.67" x2="395.01" y2="425.67" xlink:href="#a"/><clipPath id="am"><path d="M396,282.37c0-17.83,12.1-39.45,27-48.31s27-1.58,27,16.25-12.1,39.45-27,48.3a23.92,23.92,0,0,1-12,3.77c-8.9,0-15-7.34-15-20m27-75c-27.26,16.17-49.36,55.67-49.36,88.22,0,15.47,5,26.57,13.15,32.25h0l.16.09a22.37,22.37,0,0,0,2.64,1.58l9.74,5.8-.45-3.26c7.14.55,15.37-1.58,24.14-6.79,27.26-16.17,49.36-55.67,49.36-88.22,0-12.12-3.06-21.56-8.31-27.82l4.24.84-10-5.85c-.37-.24-.75-.45-1.13-.66l-.37-.22h0A25.15,25.15,0,0,0,445,200.52c-6.6,0-14,2.21-21.9,6.88" style="fill:url(#i)"/></clipPath><linearGradient id="an" x1="97.33" y1="630.96" x2="100.43" y2="630.96" gradientTransform="matrix(0, -47.45, -47.45, 0, 30363.54, 4967.8)" xlink:href="#a"/><clipPath id="ap"><path d="M377.7,270l18.43,10.21A51,51,0,0,1,398,269.33l-16.67-9.6c-1.36,3.4-2.57,6.83-3.59,10.28m61.64,12.41,16.23,9A122.54,122.54,0,0,0,468.63,262l-18.58-10.7c-.26,10.26-4.4,21.64-10.72,31.09m-54.68-30.29,16.22,9c4.63-10.7,12.18-20.5,20.79-26.13l-18.57-10.7a121.73,121.73,0,0,0-18.44,27.85M409.23,218l21.1,11.69,3.95-4.08-20.36-11.73q-2.38,2-4.69,4.12" style="fill:url(#j)"/></clipPath><clipPath id="ar"><path d="M407.25,289c0-17.83,12.1-39.45,27-48.3s27-1.58,27,16.24-12.1,39.45-27,48.3a23.89,23.89,0,0,1-12,3.77c-8.9,0-15-7.34-15-20m27-75c-27.26,16.17-49.36,55.67-49.36,88.22s22.1,45.84,49.36,29.67,49.36-55.67,49.36-88.23c0-23.15-11.17-36.55-27.43-36.55-6.61,0-14.05,2.21-21.93,6.89" style="fill:none"/></clipPath><linearGradient id="as" x1="93.75" y1="633.45" x2="96.85" y2="633.45" xlink:href="#t"/><clipPath id="au"><path d="M407.25,289.49c0-17.82,12.1-39.45,27-48.3s27-1.58,27,16.25-12.1,39.45-27,48.3a23.89,23.89,0,0,1-12,3.77c-8.9,0-15-7.34-15-20m27-75c-27.26,16.17-49.36,55.67-49.36,88.22s22.1,45.84,49.36,29.67,49.36-55.67,49.36-88.22c0-23.15-11.17-36.55-27.43-36.55-6.61,0-14.05,2.21-21.93,6.88" style="fill:url(#k)"/></clipPath><linearGradient id="av" x1="92.34" y1="632.97" x2="96.11" y2="632.97" gradientTransform="matrix(26.19, 0, 0, -40.56, -2033.72, 25949.09)" xlink:href="#b"/><clipPath id="ax"><path d="M434.27,221.56c-23.76,14.09-43,48.53-43,76.91s19.26,40,43,25.87,43-48.53,43-76.91c0-20.18-9.74-31.86-23.91-31.87-5.76,0-12.25,1.93-19.12,6" style="fill:url(#l)"/></clipPath><linearGradient id="ay" x1="373.35" y1="276.99" x2="495.2" y2="276.99" gradientTransform="translate(644.3 -193.34) rotate(81.53)" xlink:href="#a"/><linearGradient id="az" x1="362.7" y1="240.13" x2="480.02" y2="240.13" xlink:href="#a"/><linearGradient id="ba" x1="367.23" y1="244.66" x2="484.55" y2="244.66" xlink:href="#a"/><linearGradient id="bb" x1="371.75" y1="249.18" x2="489.07" y2="249.18" xlink:href="#a"/><linearGradient id="bc" x1="376.28" y1="253.71" x2="493.6" y2="253.71" xlink:href="#a"/><linearGradient id="bd" x1="380.81" y1="258.23" x2="498.12" y2="258.23" xlink:href="#a"/><linearGradient id="be" x1="385.33" y1="262.76" x2="502.65" y2="262.76" xlink:href="#a"/><linearGradient id="bf" x1="389.86" y1="267.28" x2="507.17" y2="267.28" xlink:href="#a"/><linearGradient id="bg" x1="394.38" y1="271.81" x2="511.7" y2="271.81" xlink:href="#a"/><linearGradient id="bh" x1="398.91" y1="276.33" x2="516.22" y2="276.33" xlink:href="#a"/><linearGradient id="bi" x1="403.43" y1="280.86" x2="520.75" y2="280.86" xlink:href="#a"/><linearGradient id="bj" x1="407.96" y1="285.38" x2="525.27" y2="285.38" xlink:href="#a"/><clipPath id="bk"/><clipPath id="bm"><path d="M252.24,238.11c0-25,17-55.28,37.87-67.69S328,168.21,328,193.19,311,248.47,290.11,260.87c-6,3.58-11.76,5.28-16.83,5.28-12.47,0-21-10.29-21-28m37.87-105.06c-38.2,22.66-69.16,78-69.16,123.62,0,21.67,7,37.23,18.43,45.18h0l.22.13a31.43,31.43,0,0,0,3.71,2.21l13.65,8.12-.63-4.57c10,.78,21.53-2.21,33.82-9.51,38.2-22.65,69.16-78,69.16-123.61,0-17-4.29-30.21-11.65-39l5.94,1.18-13.95-8.2c-.52-.33-1.05-.64-1.59-.93l-.52-.3h0a35.23,35.23,0,0,0-16.69-4c-9.24,0-19.66,3.1-30.69,9.63" style="fill:url(#c)"/></clipPath><linearGradient id="bn" x1="97.7" y1="633.77" x2="102.04" y2="633.77" gradientTransform="matrix(0, -47.45, -47.45, 0, 30363.54, 4967.8)" xlink:href="#a"/><clipPath id="bp"><path d="M226.54,220.79l25.82,14.3a71.44,71.44,0,0,1,2.57-15.25l-23.36-13.45c-1.91,4.76-3.6,9.57-5,14.4m86.37,17.39,22.74,12.6a171.75,171.75,0,0,0,18.3-41.16l-26-15c-.36,14.38-6.17,30.32-15,43.56m-76.62-42.44L259,208.32c6.49-15,17.07-28.72,29.14-36.62l-26-15a170.49,170.49,0,0,0-25.84,39m34.43-47.86,29.57,16.38,5.53-5.72L277.28,142.1q-3.34,2.74-6.57,5.78" style="fill:url(#d)"/></clipPath><clipPath id="br"><path d="M267.94,247.37c0-25,17-55.28,37.87-67.69s37.86-2.22,37.86,22.76-16.95,55.27-37.86,67.69c-6,3.58-11.76,5.28-16.82,5.28-12.48,0-21-10.28-21-28m37.87-105.06c-38.2,22.66-69.16,78-69.16,123.62s31,64.23,69.16,41.57S375,229.5,375,183.88c0-32.43-15.65-51.22-38.43-51.22-9.26,0-19.69,3.1-30.73,9.65" style="fill:none"/></clipPath><linearGradient id="bs" x1="89.1" y1="634.89" x2="93.44" y2="634.89" xlink:href="#t"/><clipPath id="bu"><path d="M267.94,248.08c0-25,17-55.28,37.87-67.68s37.86-2.22,37.86,22.76-17,55.27-37.86,67.68c-6,3.58-11.75,5.28-16.82,5.28-12.48,0-21-10.28-21-28M305.81,143c-38.2,22.66-69.16,78-69.16,123.62s31,64.23,69.16,41.57S375,230.21,375,184.6c0-32.44-15.65-51.22-38.43-51.22-9.26,0-19.69,3.1-30.73,9.64" style="fill:url(#e)"/></clipPath><linearGradient id="bv" x1="86.68" y1="634.1" x2="91.97" y2="634.1" gradientTransform="matrix(26.19, 0, 0, -40.56, -2033.72, 25949.09)" xlink:href="#b"/><clipPath id="bx"><path d="M305.81,152.9c-33.3,19.75-60.29,68-60.29,107.77s27,56,60.29,36.24,60.29-68,60.29-107.77c0-28.28-13.65-44.65-33.5-44.65-8.07,0-17.16,2.71-26.79,8.41" style="fill:url(#f)"/></clipPath><linearGradient id="by" x1="220.44" y1="230.58" x2="391.18" y2="230.58" gradientTransform="translate(488.84 -105.85) rotate(81.53)" xlink:href="#a"/><linearGradient id="bz" x1="205.52" y1="178.93" x2="369.91" y2="178.93" xlink:href="#a"/><linearGradient id="ca" x1="211.87" y1="185.27" x2="376.25" y2="185.27" xlink:href="#a"/><linearGradient id="cb" x1="218.21" y1="191.61" x2="382.59" y2="191.61" xlink:href="#a"/><linearGradient id="cc" x1="224.54" y1="197.95" x2="388.93" y2="197.95" xlink:href="#a"/><linearGradient id="cd" x1="230.89" y1="204.29" x2="395.28" y2="204.29" xlink:href="#a"/><linearGradient id="ce" x1="237.23" y1="210.63" x2="401.62" y2="210.63" xlink:href="#a"/><linearGradient id="cf" x1="243.57" y1="216.97" x2="407.95" y2="216.97" xlink:href="#a"/><linearGradient id="cg" x1="249.91" y1="223.31" x2="414.3" y2="223.31" xlink:href="#a"/><linearGradient id="ch" x1="256.25" y1="229.65" x2="420.64" y2="229.65" xlink:href="#a"/><linearGradient id="ci" x1="262.59" y1="236" x2="426.98" y2="236" xlink:href="#a"/><linearGradient id="cj" x1="268.93" y1="242.34" x2="433.32" y2="242.34" xlink:href="#a"/></defs><title>b1-4</title><rect width="690" height="760" style="fill:none"/><path d="M299.43,423.44c0-13.18,8.95-29.18,20-35.72s20-1.17,20,12-8.95,29.18-20,35.72a17.68,17.68,0,0,1-8.88,2.79c-6.58,0-11.11-5.43-11.11-14.8m20-55.45c-20.16,12-36.5,41.17-36.5,65.25,0,11.44,3.69,19.65,9.73,23.85h0l.12.07a16.54,16.54,0,0,0,2,1.17l7.2,4.29-.33-2.41c5.28.41,11.36-1.17,17.85-5,20.16-12,36.5-41.17,36.5-65.24,0-9-2.27-15.95-6.15-20.57l3.13.62-7.36-4.33c-.27-.17-.56-.34-.84-.49l-.27-.16h0a18.6,18.6,0,0,0-8.81-2.1c-4.88,0-10.38,1.63-16.2,5.09" style="fill:url(#a)"/><g style="clip-path:url(#n)"><rect x="282.92" y="362.9" width="73.01" height="99.7" style="fill:url(#o)"/></g><path d="M285.87,414.3l13.63,7.55a37.86,37.86,0,0,1,1.36-8l-12.33-7.1q-1.51,3.77-2.66,7.6m45.59,9.18,12,6.65a90.61,90.61,0,0,0,9.66-21.73l-13.74-7.91c-.19,7.59-3.26,16-7.92,23M291,401.07l12,6.64c3.42-7.91,9-15.16,15.38-19.33l-13.74-7.92A90,90,0,0,0,291,401.07m18.17-25.26,15.61,8.64,2.92-3-15.06-8.67q-1.76,1.44-3.47,3" style="fill:url(#b)"/><g style="clip-path:url(#q)"><rect x="285.87" y="372.76" width="67.25" height="57.36" style="fill:url(#b)"/></g><g style="clip-path:url(#s)"><rect x="291.2" y="367.78" width="73.01" height="104.24" style="fill:url(#t)"/></g><path d="M307.72,428.7c0-13.18,8.95-29.18,20-35.72s20-1.17,20,12-8.95,29.17-20,35.72a17.66,17.66,0,0,1-8.88,2.79c-6.58,0-11.11-5.43-11.11-14.8m20-55.45c-20.16,12-36.5,41.17-36.5,65.25s16.34,33.9,36.5,21.94,36.5-41.17,36.5-65.25c0-17.12-8.26-27-20.29-27-4.88,0-10.39,1.64-16.22,5.09" style="fill:url(#g)"/><g style="clip-path:url(#v)"><rect x="291.2" y="368.16" width="73.01" height="104.24" style="fill:url(#w)"/></g><path d="M327.71,378.47c-17.58,10.42-31.82,35.89-31.82,56.88s14.25,29.55,31.82,19.13,31.82-35.89,31.82-56.88c0-14.92-7.2-23.57-17.68-23.57-4.26,0-9.06,1.43-14.14,4.44" style="fill:url(#h)"/><g style="clip-path:url(#y)"><rect x="278.08" y="381.3" width="99.25" height="76.33" transform="translate(-135.44 681.83) rotate(-81.53)" style="fill:url(#z)"/><path d="M361.54,348.82c-1.33,1.17-86.77,86.77-86.77,86.77h0s85.44-85.6,86.77-86.77Z" style="fill:url(#aa)"/><path d="M364.89,352.17c-1.33,1.17-86.76,86.76-86.76,86.76h0s85.44-85.59,86.76-86.76Z" style="fill:url(#ab)"/><path d="M368.24,355.51c-1.33,1.17-86.77,86.76-86.77,86.76h0s85.44-85.6,86.77-86.76Z" style="fill:url(#ac)"/><path d="M371.58,358.86c-1.33,1.17-86.77,86.77-86.77,86.77h0s85.44-85.6,86.77-86.77Z" style="fill:url(#ad)"/><path d="M374.93,362.21C373.6,363.38,288.16,449,288.16,449h0s85.44-85.59,86.77-86.76Z" style="fill:url(#ae)"/><path d="M378.27,365.55c-1.33,1.17-86.77,86.77-86.77,86.77h0s85.44-85.6,86.77-86.77Z" style="fill:url(#af)"/><path d="M381.62,368.9c-1.33,1.17-86.76,86.77-86.76,86.77h0s85.44-85.59,86.76-86.77Z" style="fill:url(#ag)"/><path d="M385,372.25C383.64,373.42,298.2,459,298.2,459h0s85.44-85.59,86.77-86.77Z" style="fill:url(#ah)"/><path d="M388.31,375.59c-1.33,1.17-86.76,86.76-86.76,86.76h0s85.44-85.59,86.76-86.76Z" style="fill:url(#ai)"/><path d="M391.66,378.94c-1.33,1.17-86.77,86.77-86.77,86.77h0s85.44-85.6,86.77-86.77Z" style="fill:url(#aj)"/><path d="M395,382.29c-1.33,1.17-86.76,86.77-86.76,86.77h0s85.44-85.6,86.76-86.77Z" style="fill:url(#ak)"/></g><path d="M334.92,390.25c-3.19,1.68-5.07,5.34-5.07,9.4a13.5,13.5,0,0,0,1.69,6.05A4.91,4.91,0,0,1,330,412a3.4,3.4,0,0,1-5.44-.93,18.43,18.43,0,0,0-4.13-4.68c-3.19-2.22-6.94-2-10.13.83-3.18,3-5.07,8.32-5.06,13.68s1.88,9.84,5.07,11.51c3.19,1.49,6.94.1,10.13-3.47a19.74,19.74,0,0,0,3.93-6.38c.75-1.8,2.81-4.33,5.44-3.24,1.87.76,2.43,3.3,1.5,5.68a17.68,17.68,0,0,0-1.5,6.71c0,4.06,1.87,6.93,5.07,7.25,3.18.15,6.94-2,10.12-5.58,3.19-3.38,5.07-7.2,5.07-10.19s-1.87-5.23-5.07-5.93a11.55,11.55,0,0,0-5.63.32c-1.69.46-3.93-.12-3.94-3.09a4.77,4.77,0,0,1,3.94-4.76,14.5,14.5,0,0,0,5.63-2.07c3.18-2.05,5.07-5.09,5.07-8.08s-1.87-6-5.07-8A11.87,11.87,0,0,0,340,389.6a8.44,8.44,0,0,0-5.06.65" style="fill:#fff"/><path d="M396,282.37c0-17.83,12.1-39.45,27-48.31s27-1.58,27,16.25-12.1,39.45-27,48.3a23.92,23.92,0,0,1-12,3.77c-8.9,0-15-7.34-15-20m27-75c-27.26,16.17-49.36,55.67-49.36,88.22,0,15.47,5,26.57,13.15,32.25h0l.16.09a22.37,22.37,0,0,0,2.64,1.58l9.74,5.8-.45-3.26c7.14.55,15.37-1.58,24.14-6.79,27.26-16.17,49.36-55.67,49.36-88.22,0-12.12-3.06-21.56-8.31-27.82l4.24.84-10-5.85c-.37-.24-.75-.45-1.13-.66l-.37-.22h0A25.15,25.15,0,0,0,445,200.52c-6.6,0-14,2.21-21.9,6.88" style="fill:url(#i)"/><g style="clip-path:url(#am)"><rect x="373.71" y="200.52" width="98.72" height="134.81" style="fill:url(#an)"/></g><path d="M377.7,270l18.43,10.21A51,51,0,0,1,398,269.33l-16.67-9.6c-1.36,3.4-2.57,6.83-3.59,10.28m61.64,12.41,16.23,9A122.54,122.54,0,0,0,468.63,262l-18.58-10.7c-.26,10.26-4.4,21.64-10.72,31.09m-54.68-30.29,16.22,9c4.63-10.7,12.18-20.5,20.79-26.13l-18.57-10.7a121.73,121.73,0,0,0-18.44,27.85M409.23,218l21.1,11.69,3.95-4.08-20.36-11.73q-2.38,2-4.69,4.12" style="fill:url(#j)"/><g style="clip-path:url(#ap)"><rect x="377.7" y="213.85" width="90.93" height="77.56" style="fill:url(#j)"/></g><g style="clip-path:url(#ar)"><rect x="384.91" y="207.11" width="98.72" height="140.95" style="fill:url(#as)"/></g><path d="M407.25,289.49c0-17.82,12.1-39.45,27-48.3s27-1.58,27,16.25-12.1,39.45-27,48.3a23.89,23.89,0,0,1-12,3.77c-8.9,0-15-7.34-15-20m27-75c-27.26,16.17-49.36,55.67-49.36,88.22s22.1,45.84,49.36,29.67,49.36-55.67,49.36-88.22c0-23.15-11.17-36.55-27.43-36.55-6.61,0-14.05,2.21-21.93,6.88" style="fill:url(#k)"/><g style="clip-path:url(#au)"><rect x="384.91" y="207.63" width="98.72" height="140.95" style="fill:url(#av)"/></g><path d="M434.27,221.56c-23.76,14.09-43,48.53-43,76.91s19.26,40,43,25.87,43-48.53,43-76.91c0-20.18-9.74-31.86-23.91-31.87-5.76,0-12.25,1.93-19.12,6" style="fill:url(#l)"/><g style="clip-path:url(#ax)"><rect x="367.17" y="225.38" width="134.2" height="103.21" transform="translate(96.35 665.74) rotate(-81.53)" style="fill:url(#ay)"/><path d="M480,181.47c-1.8,1.58-117.32,117.32-117.32,117.32h0S478.23,183.05,480,181.47Z" style="fill:url(#az)"/><path d="M484.55,186c-1.8,1.58-117.32,117.32-117.32,117.32h0S482.75,187.58,484.55,186Z" style="fill:url(#ba)"/><path d="M489.07,190.52c-1.8,1.58-117.32,117.32-117.32,117.32h0S487.28,192.1,489.07,190.52Z" style="fill:url(#bb)"/><path d="M493.6,195c-1.79,1.58-117.32,117.32-117.32,117.32h0S491.8,196.63,493.6,195Z" style="fill:url(#bc)"/><path d="M498.12,199.57c-1.8,1.58-117.32,117.32-117.32,117.32h0S496.33,201.16,498.12,199.57Z" style="fill:url(#bd)"/><path d="M502.65,204.1c-1.8,1.58-117.32,117.32-117.32,117.32h0S500.85,205.68,502.65,204.1Z" style="fill:url(#be)"/><path d="M507.17,208.62c-1.8,1.58-117.32,117.32-117.32,117.32h0S505.38,210.21,507.17,208.62Z" style="fill:url(#bf)"/><path d="M511.7,213.15c-1.8,1.58-117.32,117.32-117.32,117.32h0S509.9,214.73,511.7,213.15Z" style="fill:url(#bg)"/><path d="M516.22,217.67C514.43,219.26,398.91,335,398.91,335h0S514.43,219.26,516.22,217.67Z" style="fill:url(#bh)"/><path d="M520.75,222.2c-1.8,1.58-117.32,117.32-117.32,117.32h0S519,223.78,520.75,222.2Z" style="fill:url(#bi)"/><path d="M525.27,226.72C523.48,228.31,408,344,408,344h0S523.48,228.3,525.27,226.72Z" style="fill:url(#bj)"/></g><g style="clip-path:url(#bk)"><path d="M451.2,258.65c2.89-5.73,4.71-12,4.71-17.24,0-8.11-4.36-11.25-10.31-8.31v-9.26l-7.88,6.72v8.57l-7,6v-8.57l-7.88,6.72v8.57l-6,5.08v9.18l6-5.08v43.7l-6,5.08V319l6-5.08v8.44l7.88-6.72v-8.44l7-6v8.44l7.88-6.72v-9.14c5.94-7.22,10.31-17.8,10.31-25.91,0-5.24-1.82-8.41-4.71-9.2m-9.54-13.71c3.81-3.25,6.91-2,6.91,2.74s-3.1,11.28-6.91,14.53l-11,9.37V254.31Zm0,43.7-11,9.37V280.75l11-9.38c3.81-3.25,6.91-2,6.91,2.74s-3.1,11.28-6.91,14.52" style="fill:#fff"/></g><path d="M252.24,238.11c0-25,17-55.28,37.87-67.69S328,168.21,328,193.19,311,248.47,290.11,260.87c-6,3.58-11.76,5.28-16.83,5.28-12.47,0-21-10.29-21-28m37.87-105.06c-38.2,22.66-69.16,78-69.16,123.62,0,21.67,7,37.23,18.43,45.18h0l.22.13a31.43,31.43,0,0,0,3.71,2.21l13.65,8.12-.63-4.57c10,.78,21.53-2.21,33.82-9.51,38.2-22.65,69.16-78,69.16-123.61,0-17-4.29-30.21-11.65-39l5.94,1.18-13.95-8.2c-.52-.33-1.05-.64-1.59-.93l-.52-.3h0a35.23,35.23,0,0,0-16.69-4c-9.24,0-19.66,3.1-30.69,9.63" style="fill:url(#c)"/><g style="clip-path:url(#bm)"><rect x="220.94" y="123.42" width="138.33" height="188.9" style="fill:url(#bn)"/></g><path d="M226.54,220.79l25.82,14.3a71.44,71.44,0,0,1,2.57-15.25l-23.36-13.45c-1.91,4.76-3.6,9.57-5,14.4m86.37,17.39,22.74,12.6a171.75,171.75,0,0,0,18.3-41.16l-26-15c-.36,14.38-6.17,30.32-15,43.56m-76.62-42.44L259,208.32c6.49-15,17.07-28.72,29.14-36.62l-26-15a170.49,170.49,0,0,0-25.84,39m34.43-47.86,29.57,16.38,5.53-5.72L277.28,142.1q-3.34,2.74-6.57,5.78" style="fill:url(#d)"/><g style="clip-path:url(#bp)"><rect x="226.54" y="142.1" width="127.41" height="108.67" style="fill:url(#d)"/></g><g style="clip-path:url(#br)"><rect x="236.65" y="132.66" width="138.33" height="197.49" style="fill:url(#bs)"/></g><path d="M267.94,248.08c0-25,17-55.28,37.87-67.68s37.86-2.22,37.86,22.76-17,55.27-37.86,67.68c-6,3.58-11.75,5.28-16.82,5.28-12.48,0-21-10.28-21-28M305.81,143c-38.2,22.66-69.16,78-69.16,123.62s31,64.23,69.16,41.57S375,230.21,375,184.6c0-32.44-15.65-51.22-38.43-51.22-9.26,0-19.69,3.1-30.73,9.64" style="fill:url(#e)"/><g style="clip-path:url(#bu)"><rect x="236.65" y="133.38" width="138.33" height="197.5" style="fill:url(#bv)"/></g><path d="M305.81,152.9c-33.3,19.75-60.29,68-60.29,107.77s27,56,60.29,36.24,60.29-68,60.29-107.77c0-28.28-13.65-44.65-33.5-44.65-8.07,0-17.16,2.71-26.79,8.41" style="fill:url(#f)"/><g style="clip-path:url(#bx)"><rect x="211.79" y="158.26" width="188.05" height="144.63" transform="matrix(0.15, -0.99, 0.99, 0.15, 32.72, 499.1)" style="fill:url(#by)"/><path d="M369.91,96.73C367.39,99,205.52,261.12,205.52,261.12h0S367.39,99,369.91,96.73Z" style="fill:url(#bz)"/><path d="M376.25,103.07c-2.52,2.22-164.38,164.39-164.38,164.39h0S373.74,105.29,376.25,103.07Z" style="fill:url(#ca)"/><path d="M382.59,109.42c-2.52,2.21-164.39,164.38-164.39,164.38h0S380.08,111.63,382.59,109.42Z" style="fill:url(#cb)"/><path d="M388.93,115.75C386.42,118,224.54,280.14,224.54,280.14h0S386.42,118,388.93,115.75Z" style="fill:url(#cc)"/><path d="M395.28,122.1c-2.52,2.22-164.39,164.39-164.39,164.39h0S392.76,124.32,395.28,122.1Z" style="fill:url(#cd)"/><path d="M401.62,128.44c-2.52,2.22-164.39,164.39-164.39,164.39h0S399.1,130.66,401.62,128.44Z" style="fill:url(#ce)"/><path d="M408,134.78C405.44,137,243.57,299.16,243.57,299.16h0S405.44,137,408,134.78Z" style="fill:url(#cf)"/><path d="M414.3,141.12c-2.52,2.22-164.39,164.39-164.39,164.39h0S411.78,143.34,414.3,141.12Z" style="fill:url(#cg)"/><path d="M420.64,147.46c-2.51,2.22-164.38,164.39-164.38,164.39h0S418.12,149.68,420.64,147.46Z" style="fill:url(#ch)"/><path d="M427,153.8C424.46,156,262.59,318.19,262.59,318.19h0S424.46,156,427,153.8Z" style="fill:url(#ci)"/><path d="M433.32,160.14c-2.51,2.22-164.38,164.39-164.38,164.39h0S430.81,162.36,433.32,160.14Z" style="fill:url(#cj)"/></g><path d="M341,202l-29.85-36.13h0a.53.53,0,0,0-.18-.14h0a.69.69,0,0,0-.21,0h-.08l-.2,0-.08,0a1.66,1.66,0,0,0-.3.15,2.48,2.48,0,0,0-.3.24l-.08.08-.21.22-.08.1a3.51,3.51,0,0,0-.21.31l0,0a3.73,3.73,0,0,0-.19.38l0,0-29.85,74.46a2.07,2.07,0,0,0-.17,1,1,1,0,0,0,.17.77l29.85,36.12,0,0a.58.58,0,0,0,.19.14h0a.63.63,0,0,0,.21,0h.08l.21,0,.08,0a1.54,1.54,0,0,0,.3-.15,2.37,2.37,0,0,0,.3-.24l.08-.08.2-.22.08-.1a3,3,0,0,0,.21-.31l0,0a3.35,3.35,0,0,0,.18-.38l0,0L341,203.74a2.06,2.06,0,0,0,.17-1A1,1,0,0,0,341,202M308.75,241.1l-25.55-.88,25.55-28.67Zm2.57-31.19,25.55-4.15-25.55,33.69Zm0-3.07V171.63L337,202.68Zm-2.57,1.65L283.1,237.27l25.65-64Zm0,35.91v29.48l-25.07-30.34Zm2.57-1.65,25.07-33.05-25.07,62.53Z" style="fill:#fff"/></svg>