<?xml version="1.0" encoding="utf-8"?><svg xmlns="http://www.w3.org/2000/svg" xmlns:xlink="http://www.w3.org/1999/xlink"><symbol viewBox="0 0 690 760" id="b1-1" xmlns="http://www.w3.org/2000/svg"><defs><linearGradient id="ac" x1="95.18" y1="628.32" x2="97.53" y2="628.32" gradientTransform="matrix(124.28 0 0 -124.28 -11643.2 78700.5)" gradientUnits="userSpaceOnUse"><stop offset="0" stop-color="#fff"/><stop offset=".09" stop-color="#f8f8f8"/><stop offset=".22" stop-color="#e6e6e6"/><stop offset=".36" stop-color="#c7c7c7"/><stop offset=".53" stop-color="#9c9c9c"/><stop offset=".71" stop-color="#666"/><stop offset=".9" stop-color="#242424"/><stop offset="1"/><stop offset="1"/></linearGradient><linearGradient id="aa" x1="118.09" y1="616.26" x2="119.38" y2="616.26" gradientTransform="matrix(0 -13.93 12.13 -7.37 -7002.68 6343.72)" gradientUnits="userSpaceOnUse"><stop offset="0" stop-color="#fff"/><stop offset=".16" stop-color="#bdbdbd"/><stop offset=".36" stop-color="#6d6d6d"/><stop offset=".53" stop-color="#323232"/><stop offset=".66" stop-color="#0e0e0e"/><stop offset=".72"/><stop offset="1"/></linearGradient><linearGradient id="ab" x1="89.4" y1="633.12" x2="91.75" y2="633.12" gradientTransform="matrix(0 -31.68 -27.6 -16.76 17688.55 13968.34)" gradientUnits="userSpaceOnUse"><stop offset="0" stop-color="#fff"/><stop offset=".22" stop-color="#bbb"/><stop offset=".5" stop-color="#6c6c6c"/><stop offset=".73" stop-color="#323232"/><stop offset=".9" stop-color="#0e0e0e"/><stop offset=".99"/><stop offset="1"/></linearGradient><radialGradient id="ad" cx="95.16" cy="628.38" r="2.35" gradientTransform="matrix(92.17 0 0 -97.28 -8542.94 61653.97)" gradientUnits="userSpaceOnUse"><stop offset="0" stop-color="#fff"/><stop offset=".08" stop-color="#ddd"/><stop offset=".24" stop-color="#9b9b9b"/><stop offset=".4" stop-color="#636363"/><stop offset=".54" stop-color="#383838"/><stop offset=".67" stop-color="#1a1a1a"/><stop offset=".78" stop-color="#070707"/><stop offset=".86"/><stop offset="1"/></radialGradient><linearGradient id="af" x1="185.34" y1="615.44" x2="477.37" y2="615.44" gradientUnits="userSpaceOnUse"><stop offset=".12" stop-color="#e0e0e0"/><stop offset=".22" stop-color="#dddbd9"/><stop offset=".37" stop-color="#d5cdc7"/><stop offset=".54" stop-color="#c7b5a8"/><stop offset=".73" stop-color="#b4957e"/><stop offset=".94" stop-color="#9c6c48"/><stop offset="1" stop-color="#945f37"/></linearGradient><linearGradient id="ae" x1="418.4" y1="313.17" x2="418.4" y2="711.76" gradientUnits="userSpaceOnUse"><stop offset="0" stop-color="#bababa"/><stop offset="1" stop-color="#ebebeb"/></linearGradient><linearGradient id="ag" x1="213.08" y1="522.56" x2="213.08" y2="458.03" gradientUnits="userSpaceOnUse"><stop offset="0" stop-color="#fff"/><stop offset=".17" stop-color="#ececec"/><stop offset=".53" stop-color="#c8c8c8"/><stop offset=".72" stop-color="#bababa"/><stop offset="1" stop-color="#d6d6d6"/></linearGradient><linearGradient id="ah" x1="95.18" y1="628.32" x2="97.53" y2="628.32" gradientTransform="matrix(124.28 0 0 -124.28 -11643.2 78700.5)" gradientUnits="userSpaceOnUse"><stop offset="0" stop-color="#fff"/><stop offset=".25" stop-color="#fffcfc"/><stop offset=".46" stop-color="#fff1f1"/><stop offset=".66" stop-color="#ffe0e0"/><stop offset=".84" stop-color="#ffc8c8"/><stop offset="1" stop-color="#ffadad"/></linearGradient><linearGradient id="ai" x1="95.31" y1="628.37" x2="97.66" y2="628.37" gradientTransform="matrix(124.28 0 0 -124.28 -11631.01 78696.64)" gradientUnits="userSpaceOnUse"><stop offset="0" stop-color="#fff"/><stop offset=".24" stop-color="#f8f7f5"/><stop offset=".65" stop-color="#e5e2d9"/><stop offset="1" stop-color="#d1ccbd"/></linearGradient></defs><path d="M0 0h690v760H0z"/><path d="M0 0h690v760H0z"/><path d="M185.34 615.48c0 33.78 65.37 61.27 146 61.27s146-27.5 146-61.27-65.35-61.36-146-61.36-146 27.44-146 61.36"/><path d="M185.34 554.12h292.03v122.63H185.34z"/><path d="M185.34 544.99h292.03v122.63H185.34zM331.38 758c88.63 0 160.47-32.77 160.52-73v-.1a34.12 34.12 0 0 0-.49-5.41c-6.11 37.68-75.26 67.51-159.78 67.61h-.51c-84.55-.06-153.71-29.93-159.83-67.65a34 34 0 0 0-.49 5.46c0 40.29 71.88 73.09 160.58 73.09z"/><path d="M226.95 559.75c0 24.15 46.74 43.81 104.42 43.81s104.39-19.66 104.39-43.81-46.76-43.88-104.39-43.88-104.42 19.62-104.42 43.88"/><path d="M226.95 515.87h208.81v87.69H226.95z"/><path d="M226.95 509.34h208.81v87.69H226.95z"/><path d="M331.37 596.29c-57.39 0-103.92-19.46-104.4-43.45v.37c0 24.15 46.74 43.82 104.42 43.82s104.39-19.66 104.39-43.82v-.37c-.48 24-47 43.45-104.37 43.45"/><path d="M226.95 552.84h208.81v44.18H226.95z"/><path d="M225.69 703.1s5.66-263.25 0-398.59z"/><path d="M225.69 304.51h5.66V703.1h-5.66zM417.14 711.76s5.66-263.25 0-398.59z"/><path d="M417.14 313.17h5.66v398.59h-5.66zM453.94 565.07s5.66-262.47 0-397.41z"/><path d="M453.94 167.66h5.66v397.41h-5.66zM192.14 539.53s5.66-301.43 0-456.39z"/><path d="M192.14 83.14h5.66v456.39h-5.66z"/><path d="M170.8 127.76h321.1V758H170.8z"/><path d="M170.55 687.51c0 37.17 71.93 67.43 160.7 67.43s160.66-30.26 160.66-67.43c0-37.33-71.91-67.51-160.66-67.51s-160.7 30.19-160.7 67.52"/><path d="M170.55 619.99h321.36v134.95H170.55zM478.77 156.71l-8.53 5.18v-9.26l8.53-5.18v9.26z"/><path d="M478.77 161.89v-19.61l-8.53 5.17v19.61l8.53-5.17zM478.77 139.02l-8.53 5.18v-9.27l8.53-5.17v9.26z"/><path d="M478.77 144.2v-19.62l-8.53 5.18v19.61l8.53-5.17zM205.34 519.82l15.47 9.39v-51.74l-15.47-9.39v51.74z"/><path d="M205.34 529.21v-70.52l15.47 9.39v70.52l-15.47-9.39zM205.34 449.62l15.47 9.39V334.54l-15.47-9.39v124.47z"/><path d="M205.34 459.01V315.76l15.47 9.39V468.4l-15.47-9.39zM278.34 618.88l6.27 3.8v-50.46l-6.27-3.81v50.47z"/><path d="M278.34 622.68V564.6l6.27 3.81v58.08l-6.27-3.81zM232.02 466.07l5.24 3.18V427.1l-5.24-3.18v42.15z"/><path d="M232.02 469.25v-48.51l5.24 3.18v48.51l-5.24-3.18zM250.06 546.97l15.46 9.39v-16.81l-15.46-9.39v16.81z"/><path d="M250.06 556.36v-35.59l15.46 9.39v35.59l-15.46-9.39zM250.06 514.87l15.46 9.39v-16.81l-15.46-9.39v16.81z"/><path d="M250.06 524.26v-35.59l15.46 9.39v35.59l-15.46-9.39zM250.06 482.76l15.46 9.39v-16.8l-15.46-9.39v16.8z"/><path d="M250.06 492.15v-35.58l15.46 9.39v35.58l-15.46-9.39zM250.06 450.67l15.46 9.38v-16.8l-15.46-9.39v16.81z"/><path d="M250.06 460.05v-35.58l15.46 9.39v35.58l-15.46-9.39zM231.06 491.28l7.15 4.34v-7.76l-7.15-4.34v7.76z"/><path d="M231.06 495.62v-16.43l7.15 4.33v16.43l-7.15-4.33zM231.06 506.05l7.15 4.34v-7.76l-7.15-4.34v7.76z"/><path d="M231.06 510.39v-16.43l7.15 4.33v16.43l-7.15-4.33zM231.06 520.82l7.15 4.34v-7.76l-7.15-4.34v7.76z"/><path d="M231.06 525.16v-16.43l7.15 4.33v16.43l-7.15-4.33zM468.89 628.29v43.05l12.87-7.82v-43.04l-12.87 7.81z"/><path d="M481.76 671.34v-58.68l-12.87 7.82v58.67l12.87-7.81zM468.89 410.48v202.44l12.87-7.81V402.66l-12.87 7.82z"/><path d="M481.76 612.92V394.85l-12.87 7.81v218.08l12.87-7.82zM415.8 673.89v41.99l5.21-3.16v-42l-5.21 3.17z"/><path d="M421.01 715.88v-48.33l-5.21 3.17v48.33l5.21-3.17zM455.21 586.37v35.08l4.35-2.65v-35.07l-4.35 2.64z"/><path d="M459.56 621.45v-40.37l-4.35 2.65v40.36l4.35-2.64zM431.69 679.94v13.99l12.86-7.82v-13.98l-12.86 7.81z"/><path d="M444.55 693.93v-29.61l-12.86 7.81v29.61l12.86-7.81zM431.69 653.23v13.99l12.86-7.82v-13.98l-12.86 7.81z"/><path d="M444.55 667.22v-29.61l-12.86 7.81v29.61l12.86-7.81zM431.69 626.52v13.98l12.86-7.81v-13.98l-12.86 7.81z"/><path d="M444.55 640.5v-29.6l-12.86 7.81v29.61l12.86-7.82zM431.69 509.55V613.8l12.86-7.82V501.74l-12.86 7.81z"/><path d="M444.55 613.8V493.92l-12.86 7.82v119.87l12.86-7.81zM454.41 636.93v6.46l5.94-3.61v-6.46l-5.94 3.61z"/><path d="M460.35 643.39v-13.67l-5.94 3.6v13.67l5.94-3.6zM454.41 649.22v6.46l5.94-3.61v-6.46l-5.94 3.61z"/><path d="M460.35 655.68V642l-5.94 3.61v13.67l5.94-3.6zM454.41 661.51v6.46l5.94-3.61v-6.46l-5.94 3.61z"/><path d="M460.35 667.97V654.3l-5.94 3.6v13.67l5.94-3.6zM438.91 414.02v35.08l4.36-2.65v-35.07l-4.36 2.64z"/><path d="M443.27 449.1v-40.37l-4.36 2.65v40.36l4.36-2.64zM438.12 464.58v6.46l5.94-3.61v-6.46l-5.94 3.61z"/><path d="M444.06 471.04v-13.67l-5.94 3.6v13.67l5.94-3.6zM438.12 476.87v6.46l5.94-3.61v-6.46l-5.94 3.61z"/><path d="M444.06 483.33v-13.68l-5.94 3.61v13.68l5.94-3.61zM438.12 489.16v6.46l5.94-3.61v-6.45l-5.94 3.6z"/><path d="M444.06 495.62v-13.67l-5.94 3.61v13.66l5.94-3.6zM394.67 357.21v35.07l4.36-2.65v-35.07l-4.36 2.65z"/><path d="M399.03 392.28v-40.36l-4.36 2.64v40.36l4.36-2.64zM393.88 407.76v6.46l5.94-3.61v-6.46l-5.94 3.61z"/><path d="M399.82 414.22v-13.67l-5.94 3.6v13.68l5.94-3.61zM393.88 420.05v6.46l5.94-3.61v-6.46l-5.94 3.61z"/><path d="M399.82 426.51v-13.67l-5.94 3.6v13.68l5.94-3.61zM393.88 432.34v6.46l5.94-3.61v-6.45l-5.94 3.6z"/><path d="M399.82 438.8v-13.67l-5.94 3.61v13.67l5.94-3.61zM384.76 467.67v22.67l2.82-1.71v-22.67l-2.82 1.71z"/><path d="M387.58 490.34v-26.09l-2.82 1.71v26.09l2.82-1.71zM384.25 500.35v4.18l3.84-2.34v-4.17l-3.84 2.33z"/><path d="M388.09 504.53v-8.84l-3.84 2.33v8.84l3.84-2.33zM384.25 508.29v4.18l3.84-2.33v-4.18l-3.84 2.33z"/><path d="M388.09 512.47v-8.84l-3.84 2.33v8.84l3.84-2.33zM384.25 516.24v4.17l3.84-2.33v-4.17l-3.84 2.33z"/><path d="M388.09 520.41v-8.84l-3.84 2.34v8.83l3.84-2.33zM384.76 528.62v22.67l2.82-1.71v-22.67l-2.82 1.71z"/><path d="M387.58 551.29V525.2l-2.82 1.71V553l2.82-1.71zM384.25 561.3v4.17l3.84-2.33v-4.18l-3.84 2.34z"/><path d="M388.09 565.47v-8.84l-3.84 2.33v8.84l3.84-2.33zM384.25 569.24v4.18l3.84-2.33v-4.18l-3.84 2.33z"/><path d="M388.09 573.42v-8.84l-3.84 2.33v8.84l3.84-2.33zM384.25 577.19v4.17l3.84-2.33v-4.17l-3.84 2.33z"/><path d="M388.09 581.36v-8.84l-3.84 2.34v8.84l3.84-2.34zM384.76 589.57v22.67l2.82-1.71v-22.67l-2.82 1.71z"/><path d="M387.58 612.24v-26.09l-2.82 1.71v26.09l2.82-1.71zM384.25 622.25v4.17l3.84-2.33v-4.17l-3.84 2.33z"/><path d="M388.09 626.42v-8.84l-3.84 2.34v8.84l3.84-2.34zM384.25 630.19v4.18l3.84-2.34v-4.17l-3.84 2.33z"/><g><path d="M388.09 634.37v-8.84l-3.84 2.33v8.84l3.84-2.33z"/></g><path d="M384.25 638.14v4.17l3.84-2.33v-4.18l-3.84 2.34z"/><g><path d="M388.09 642.31v-8.84l-3.84 2.33v8.84l3.84-2.33z"/></g></symbol><symbol viewBox="0 0 690 760" id="b1-2" xmlns="http://www.w3.org/2000/svg"><defs><linearGradient id="ba" x1="118.09" y1="616.26" x2="119.38" y2="616.26" gradientTransform="matrix(0 -13.93 12.13 -7.37 -7002.68 6343.72)" gradientUnits="userSpaceOnUse"><stop offset="0" stop-color="#fff"/><stop offset=".16" stop-color="#bdbdbd"/><stop offset=".36" stop-color="#6d6d6d"/><stop offset=".53" stop-color="#323232"/><stop offset=".66" stop-color="#0e0e0e"/><stop offset=".72"/><stop offset="1"/></linearGradient><linearGradient id="bb" x1="64.95" y1="643.06" x2="67.3" y2="643.06" gradientTransform="matrix(0 -6.43 -5.6 -3.4 3836.79 3127.72)" gradientUnits="userSpaceOnUse"><stop offset="0" stop-color="#fff"/><stop offset=".22" stop-color="#bbb"/><stop offset=".5" stop-color="#6c6c6c"/><stop offset=".73" stop-color="#323232"/><stop offset=".9" stop-color="#0e0e0e"/><stop offset=".99"/><stop offset="1"/></linearGradient><linearGradient id="bc" x1="472.37" y1="154.67" x2="480.21" y2="154.67" gradientUnits="userSpaceOnUse"><stop offset="0" stop-color="#bababa"/><stop offset="1" stop-color="#ebebeb"/></linearGradient><linearGradient id="bd" x1="234.64" y1="492.63" x2="234.64" y2="481.51" gradientUnits="userSpaceOnUse"><stop offset="0" stop-color="#fff"/><stop offset=".17" stop-color="#ececec"/><stop offset=".53" stop-color="#c8c8c8"/><stop offset=".72" stop-color="#bababa"/><stop offset="1" stop-color="#d6d6d6"/></linearGradient></defs><path d="M0 0h690v760H0z"/><path d="M478.77 156.71l-8.53 5.18v-9.26l8.53-5.18v9.26z"/><path d="M478.77 161.89v-19.61l-8.53 5.17v19.61l8.53-5.17zM478.77 139.02l-8.53 5.18v-9.27l8.53-5.17v9.26z"/><path d="M478.77 144.2v-19.62l-8.53 5.18v19.61l8.53-5.17zM205.34 519.82l15.47 9.39v-51.74l-15.47-9.39v51.74z"/><path d="M205.34 529.21v-70.52l15.47 9.39v70.52l-15.47-9.39zM205.34 449.62l15.47 9.39V334.54l-15.47-9.39v124.47z"/><path d="M205.34 459.01V315.76l15.47 9.39V468.4l-15.47-9.39zM278.34 618.88l6.27 3.8v-50.46l-6.27-3.81v50.47z"/><path d="M278.34 622.68V564.6l6.27 3.81v58.08l-6.27-3.81zM232.02 466.07l5.24 3.18V427.1l-5.24-3.18v42.15z"/><path d="M232.02 469.25v-48.51l5.24 3.18v48.51l-5.24-3.18zM250.06 546.97l15.46 9.39v-16.81l-15.46-9.39v16.81z"/><path d="M250.06 556.36v-35.59l15.46 9.39v35.59l-15.46-9.39zM250.06 514.87l15.46 9.39v-16.81l-15.46-9.39v16.81z"/><path d="M250.06 524.26v-35.59l15.46 9.39v35.59l-15.46-9.39zM250.06 482.76l15.46 9.39v-16.8l-15.46-9.39v16.8z"/><path d="M250.06 492.15v-35.58l15.46 9.39v35.58l-15.46-9.39zM250.06 450.67l15.46 9.38v-16.8l-15.46-9.39v16.81z"/><path d="M250.06 460.05v-35.58l15.46 9.39v35.58l-15.46-9.39zM231.06 491.28l7.15 4.34v-7.76l-7.15-4.34v7.76z"/><path d="M231.06 495.62v-16.43l7.15 4.33v16.43l-7.15-4.33zM231.06 506.05l7.15 4.34v-7.76l-7.15-4.34v7.76z"/><path d="M231.06 510.39v-16.43l7.15 4.33v16.43l-7.15-4.33zM231.06 520.82l7.15 4.34v-7.76l-7.15-4.34v7.76z"/><path d="M231.06 525.16v-16.43l7.15 4.33v16.43l-7.15-4.33zM468.89 628.29v43.05l12.87-7.82v-43.04l-12.87 7.81z"/><path d="M481.76 671.34v-58.68l-12.87 7.82v58.67l12.87-7.81zM468.89 410.48v202.44l12.87-7.81V402.66l-12.87 7.82z"/><path d="M481.76 612.92V394.85l-12.87 7.81v218.08l12.87-7.82zM415.8 673.89v41.99l5.21-3.16v-42l-5.21 3.17z"/><path d="M421.01 715.88v-48.33l-5.21 3.17v48.33l5.21-3.17zM455.21 586.37v35.08l4.35-2.65v-35.07l-4.35 2.64z"/><path d="M459.56 621.45v-40.37l-4.35 2.65v40.36l4.35-2.64zM431.69 679.94v13.99l12.86-7.82v-13.98l-12.86 7.81z"/><path d="M444.55 693.93v-29.61l-12.86 7.81v29.61l12.86-7.81zM431.69 653.23v13.99l12.86-7.82v-13.98l-12.86 7.81z"/><path d="M444.55 667.22v-29.61l-12.86 7.81v29.61l12.86-7.81zM431.69 626.52v13.98l12.86-7.81v-13.98l-12.86 7.81z"/><path d="M444.55 640.5v-29.6l-12.86 7.81v29.61l12.86-7.82zM431.69 509.55V613.8l12.86-7.82V501.74l-12.86 7.81z"/><path d="M444.55 613.8V493.92l-12.86 7.82v119.87l12.86-7.81zM454.41 636.93v6.46l5.94-3.61v-6.46l-5.94 3.61z"/><path d="M460.35 643.39v-13.67l-5.94 3.6v13.67l5.94-3.6zM454.41 649.22v6.46l5.94-3.61v-6.46l-5.94 3.61z"/><path d="M460.35 655.68V642l-5.94 3.61v13.67l5.94-3.6zM454.41 661.51v6.46l5.94-3.61v-6.46l-5.94 3.61z"/><path d="M460.35 667.97V654.3l-5.94 3.6v13.67l5.94-3.6zM438.91 414.02v35.08l4.36-2.65v-35.07l-4.36 2.64z"/><path d="M443.27 449.1v-40.37l-4.36 2.65v40.36l4.36-2.64zM438.12 464.58v6.46l5.94-3.61v-6.46l-5.94 3.61z"/><path d="M444.06 471.04v-13.67l-5.94 3.6v13.67l5.94-3.6zM438.12 476.87v6.46l5.94-3.61v-6.46l-5.94 3.61z"/><path d="M444.06 483.33v-13.68l-5.94 3.61v13.68l5.94-3.61zM438.12 489.16v6.46l5.94-3.61v-6.45l-5.94 3.6z"/><path d="M444.06 495.62v-13.67l-5.94 3.61v13.66l5.94-3.6zM394.67 357.21v35.07l4.36-2.65v-35.07l-4.36 2.65z"/><path d="M399.03 392.28v-40.36l-4.36 2.64v40.36l4.36-2.64zM393.88 407.76v6.46l5.94-3.61v-6.46l-5.94 3.61z"/><path d="M399.82 414.22v-13.67l-5.94 3.6v13.68l5.94-3.61zM393.88 420.05v6.46l5.94-3.61v-6.46l-5.94 3.61z"/><path d="M399.82 426.51v-13.67l-5.94 3.6v13.68l5.94-3.61zM393.88 432.34v6.46l5.94-3.61v-6.45l-5.94 3.6z"/><path d="M399.82 438.8v-13.67l-5.94 3.61v13.67l5.94-3.61zM384.76 467.67v22.67l2.82-1.71v-22.67l-2.82 1.71z"/><path d="M387.58 490.34v-26.09l-2.82 1.71v26.09l2.82-1.71zM384.25 500.35v4.18l3.84-2.34v-4.17l-3.84 2.33z"/><path d="M388.09 504.53v-8.84l-3.84 2.33v8.84l3.84-2.33zM384.25 508.29v4.18l3.84-2.33v-4.18l-3.84 2.33z"/><path d="M388.09 512.47v-8.84l-3.84 2.33v8.84l3.84-2.33zM384.25 516.24v4.17l3.84-2.33v-4.17l-3.84 2.33z"/><path d="M388.09 520.41v-8.84l-3.84 2.34v8.83l3.84-2.33zM384.76 528.62v22.67l2.82-1.71v-22.67l-2.82 1.71z"/><path d="M387.58 551.29V525.2l-2.82 1.71V553l2.82-1.71zM384.25 561.3v4.17l3.84-2.33v-4.18l-3.84 2.34z"/><path d="M388.09 565.47v-8.84l-3.84 2.33v8.84l3.84-2.33zM384.25 569.24v4.18l3.84-2.33v-4.18l-3.84 2.33z"/><path d="M388.09 573.42v-8.84l-3.84 2.33v8.84l3.84-2.33zM384.25 577.19v4.17l3.84-2.33v-4.17l-3.84 2.33z"/><path d="M388.09 581.36v-8.84l-3.84 2.34v8.84l3.84-2.34zM384.76 589.57v22.67l2.82-1.71v-22.67l-2.82 1.71z"/><path d="M387.58 612.24v-26.09l-2.82 1.71v26.09l2.82-1.71zM384.25 622.25v4.17l3.84-2.33v-4.17l-3.84 2.33z"/><path d="M388.09 626.42v-8.84l-3.84 2.34v8.84l3.84-2.34zM384.25 630.19v4.18l3.84-2.34v-4.17l-3.84 2.33z"/><path d="M388.09 634.37v-8.84l-3.84 2.33v8.84l3.84-2.33zM384.25 638.14v4.17l3.84-2.33v-4.18l-3.84 2.34z"/><path d="M388.09 642.31v-8.84l-3.84 2.33v8.84l3.84-2.33z"/></symbol><symbol viewBox="0 0 690 760" id="b1-3" xmlns="http://www.w3.org/2000/svg"><defs><linearGradient id="ca" x1="91.96" y1="625.34" x2="93.88" y2="625.34" gradientTransform="matrix(.44 21.11 36.61 .28 -22845.99 -1816.19)" gradientUnits="userSpaceOnUse"><stop offset="0" stop-color="#fff"/><stop offset=".29" stop-color="#a6a6a6"/><stop offset=".54" stop-color="#5f5f5f"/><stop offset=".75" stop-color="#2c2c2c"/><stop offset=".91" stop-color="#0c0c0c"/><stop offset="1"/><stop offset="1"/></linearGradient><radialGradient id="cb" cx="73.82" cy="626.24" r="1.92" gradientTransform="matrix(7.97 4.61 0 -9.03 -512.34 5651.86)" gradientUnits="userSpaceOnUse"><stop offset="0"/><stop offset="0"/><stop offset=".2" stop-color="#030303"/><stop offset=".33" stop-color="#0c0c0c"/><stop offset=".45" stop-color="#1b1b1b"/><stop offset=".55" stop-color="#303030"/><stop offset=".65" stop-color="#4c4c4c"/><stop offset=".74" stop-color="#6f6f6f"/><stop offset=".83" stop-color="#979797"/><stop offset=".91" stop-color="#c7c7c7"/><stop offset=".99" stop-color="#fafafa"/><stop offset="1" stop-color="#fff"/></radialGradient><linearGradient id="ce" x1="88.24" y1="620.38" x2="90.46" y2="620.38" gradientTransform="matrix(.21 10.21 17.7 .13 -10911.42 -671.02)" gradientUnits="userSpaceOnUse"><stop offset="0" stop-color="#fff"/><stop offset="0" stop-color="#fff"/><stop offset=".25" stop-color="#fdfdfd"/><stop offset=".37" stop-color="#f5f5f5"/><stop offset=".46" stop-color="#e8e8e8"/><stop offset=".54" stop-color="#d6d6d6"/><stop offset=".6" stop-color="#bebebe"/><stop offset=".66" stop-color="#a1a1a1"/><stop offset=".72" stop-color="#7e7e7e"/><stop offset=".77" stop-color="#555"/><stop offset=".82" stop-color="#292929"/><stop offset=".86"/><stop offset="1"/></linearGradient><radialGradient id="cd" cx="61.93" cy="632.32" r="1.38" gradientTransform="matrix(-8.68 5.01 0 -9.83 1094.24 6117.95)" gradientUnits="userSpaceOnUse"><stop offset="0"/><stop offset="0"/><stop offset=".37" stop-color="#020202"/><stop offset=".51" stop-color="#090909"/><stop offset=".6" stop-color="#141414"/><stop offset=".68" stop-color="#252525"/><stop offset=".75" stop-color="#3b3b3b"/><stop offset=".81" stop-color="#575757"/><stop offset=".86" stop-color="#777"/><stop offset=".91" stop-color="#9d9d9d"/><stop offset=".95" stop-color="#c8c8c8"/><stop offset=".99" stop-color="#f6f6f6"/><stop offset="1" stop-color="#fff"/></radialGradient><linearGradient id="cc" x1="78.92" y1="644.74" x2="80.3" y2="644.74" gradientTransform="matrix(.25 11.7 20.29 .15 -12551.76 -827.58)" gradientUnits="userSpaceOnUse"><stop offset="0"/><stop offset="0"/><stop offset=".09" stop-color="#363636"/><stop offset=".2" stop-color="#6a6a6a"/><stop offset=".3" stop-color="#989898"/><stop offset=".4" stop-color="#bdbdbd"/><stop offset=".5" stop-color="#dadada"/><stop offset=".6" stop-color="#efefef"/><stop offset=".7" stop-color="#fbfbfb"/><stop offset=".8" stop-color="#fff"/><stop offset="1" stop-color="#fff"/></linearGradient><linearGradient id="ch" x1="97.22" y1="628.14" x2="99.1" y2="628.14" gradientTransform="matrix(0 -158.7 -158.7 0 100235.71 15636.37)" gradientUnits="userSpaceOnUse"><stop offset="0" stop-color="#fff"/><stop offset=".06" stop-color="#d3d3d3"/><stop offset=".14" stop-color="#a2a2a2"/><stop offset=".22" stop-color="#777"/><stop offset=".31" stop-color="#525252"/><stop offset=".4" stop-color="#343434"/><stop offset=".5" stop-color="#1d1d1d"/><stop offset=".6" stop-color="#0d0d0d"/><stop offset=".71" stop-color="#030303"/><stop offset=".86"/><stop offset="1"/></linearGradient><linearGradient id="cf" x1="100.34" y1="652.49" x2="106.09" y2="652.49" gradientTransform="matrix(0 -13.88 12.1 -7.34 -7247.68 6312.62)" gradientUnits="userSpaceOnUse"><stop offset="0" stop-color="#fff"/><stop offset=".22" stop-color="#bbb"/><stop offset=".5" stop-color="#6c6c6c"/><stop offset=".73" stop-color="#323232"/><stop offset=".9" stop-color="#0e0e0e"/><stop offset=".99"/><stop offset="1"/></linearGradient><linearGradient id="cg" x1="111.55" y1="720.31" x2="113.91" y2="720.31" gradientTransform="matrix(0 -3.46 3.01 -1.83 -1525.81 1843.79)" gradientUnits="userSpaceOnUse"><stop offset="0" stop-color="#fff"/><stop offset=".16" stop-color="#bdbdbd"/><stop offset=".36" stop-color="#6d6d6d"/><stop offset=".53" stop-color="#323232"/><stop offset=".66" stop-color="#0e0e0e"/><stop offset=".72"/><stop offset="1"/></linearGradient><linearGradient id="ci" x1="68.56" y1="321.91" x2="103.56" y2="321.91" gradientUnits="userSpaceOnUse"><stop offset="0" stop-color="#fff" stop-opacity="0"/><stop offset=".34" stop-color="#fff" stop-opacity=".12"/><stop offset="1" stop-color="#fff" stop-opacity=".4"/></linearGradient><linearGradient id="cj" x1="68.56" y1="336.75" x2="86.06" y2="336.75" gradientUnits="userSpaceOnUse"><stop offset="0" stop-color="#c2c2c2" stop-opacity=".2"/><stop offset=".31" stop-color="#b2b2b2" stop-opacity=".17"/><stop offset=".7" stop-color="#858585" stop-opacity=".09"/><stop offset="1" stop-color="#545454" stop-opacity="0"/></linearGradient><linearGradient id="ck" x1="553.95" y1="207.38" x2="563.72" y2="217.16" gradientUnits="userSpaceOnUse"><stop offset="0" stop-color="#919191" stop-opacity="0"/><stop offset=".74" stop-color="#767676" stop-opacity=".29"/><stop offset="1" stop-color="#6b6b6b" stop-opacity=".4"/></linearGradient><linearGradient id="cl" x1="643.12" y1="98.51" x2="646.64" y2="98.51" gradientUnits="userSpaceOnUse"><stop offset="0" stop-color="#bababa"/><stop offset="1" stop-color="#ebebeb"/></linearGradient><linearGradient id="cn" x1="91.96" y1="625.34" x2="93.88" y2="625.34" gradientTransform="matrix(.44 21.11 36.61 .28 -22845.99 -1816.19)" gradientUnits="userSpaceOnUse"><stop offset="0" stop-color="#7d7d7d"/><stop offset="1" stop-color="#e5f7ff"/><stop offset="1" stop-color="#d1d1d1"/></linearGradient><linearGradient id="cm" x1="72.87" y1="626.3" x2="75.07" y2="626.3" gradientTransform="matrix(7.97 4.61 0 -9.03 -512.34 5651.87)" gradientUnits="userSpaceOnUse"><stop offset="0" stop-color="#36ffff" stop-opacity=".1"/><stop offset=".21" stop-color="#2f8bcb" stop-opacity=".05"/><stop offset=".49" stop-color="#2b34a4" stop-opacity=".01"/><stop offset=".86" stop-color="#291898" stop-opacity="0"/></linearGradient><linearGradient id="co" x1="96.45" y1="631.08" x2="99.07" y2="631.08" gradientTransform="matrix(0 -158.7 -158.7 0 100235.71 15636.37)" gradientUnits="userSpaceOnUse"><stop offset="0" stop-color="#c6b89e"/><stop offset=".2" stop-color="#b7ad9c" stop-opacity=".67"/><stop offset=".4" stop-color="#a9a49a" stop-opacity=".38"/><stop offset=".56" stop-color="#a09e99" stop-opacity=".17"/><stop offset=".69" stop-color="#9a9998" stop-opacity=".05"/><stop offset=".77" stop-color="#989898" stop-opacity="0"/></linearGradient><linearGradient id="cp" x1="88.24" y1="620.38" x2="90.46" y2="620.38" gradientTransform="matrix(.21 10.21 17.7 .13 -10911.42 -671.02)" gradientUnits="userSpaceOnUse"><stop offset="0" stop-color="#ff0d0d"/><stop offset=".07" stop-color="#ff170c"/><stop offset=".18" stop-color="#ff310a"/><stop offset=".31" stop-color="#ff5a06"/><stop offset=".43" stop-color="#ff8102"/><stop offset=".54" stop-color="#ff5c06"/><stop offset=".67" stop-color="#ff3a09"/><stop offset=".8" stop-color="#ff210b"/><stop offset=".91" stop-color="#ff120d"/><stop offset="1" stop-color="#ff0d0d"/></linearGradient></defs><path d="M0 0h690v760H0z"/><path d="M68.56 321.77l17.48 10.09 17.52-10.08-17.94-9.83-17.06 9.82z"/><path d="M103.56 311.95l.43 20.18-35.43-.27-.43-20.18 35.43.27z"/><path d="M68.56 341.61l17.5 10.11v-19.83l-17.5-10.11v19.83z"/><path d="M68.56 311.67l17.5 10.11v40.05l-17.5-10.11v-40.05zM86.06 331.89v19.83l17.5-10.11v-19.83l-17.5 10.11z"/><path d="M103.56 311.67l-17.5 10.11v40.05l17.5-10.11v-40.05z"/><path d="M96.06 326.27l-9.72 5.6-9.69-5.6 9.46-5.45 9.95 5.45z"/><path d="M96.06 320.82l.23 11.2-19.64-.15-.24-11.2 19.65.15z"/><path d="M86.36 342.87l-9.71-5.6v-11l9.71 5.61v10.99z"/><path d="M83.98 322.21l9.7 16.6-14.65 8.13-9.71-16.6 14.66-8.13z"/><path d="M86.36 342.87l9.7-5.6v-11l-9.7 5.61v10.99z"/><path d="M88.73 322.21l-9.7 16.6 14.65 8.13 9.7-16.6-14.65-8.13z"/><path d="M81.83 326.71h9.05v5.15h-9.05z"/><path d="M90.88 329.25l-4.53 2.61-4.52-2.61 4.41-2.55 4.64 2.55z"/><path d="M90.88 326.7l.11 5.23-9.16-.07-.11-5.23 9.16.07z"/><path d="M81.83 329.25h4.53v7.74h-4.53z"/><path d="M86.36 336.99l-4.53-2.61v-5.13l4.53 2.61v5.13z"/><path d="M85.25 327.35l4.52 7.75-6.83 3.79-4.53-7.74 6.84-3.8z"/><path d="M86.36 329.25h4.53v7.74h-4.53z"/><path d="M86.36 336.99l4.52-2.61v-5.13l-4.52 2.61v5.13z"/><path d="M87.46 327.35l-4.52 7.75 6.83 3.79 4.53-7.74-6.84-3.8z"/><path d="M71.11 41.15h29.9v289.12h-29.9z"/><path d="M95.86 315.27l.23 11.3-19.82-.15-.24-11.3 19.83.15zM539.99 201.52l12.55 7.24 12.58-7.24-12.88-7.06-12.25 7.06z"/><path d="M565.12 194.46l.31 14.5-25.44-.2-.31-14.49 25.44.19z"/><path d="M539.99 215.76l12.56 7.26v-14.24l-12.56-7.26v14.24z"/><path d="M539.99 194.26l12.56 7.26v28.76l-12.56-7.26v-28.76zM552.55 208.78v14.24l12.57-7.26v-14.24l-12.57 7.26z"/><path d="M565.12 194.26l-12.57 7.26v28.76l12.57-7.26v-28.76z"/><path d="M559.73 204.75l-6.98 4.02-6.96-4.02 6.8-3.92 7.14 3.92z"/><path d="M559.73 200.83l.17 8.04-14.11-.1-.16-8.04 14.1.1z"/><path d="M552.76 216.67l-6.97-4.03v-7.89l6.97 4.03v7.89z"/><path d="M551.06 201.83l6.96 11.92-10.52 5.84-6.97-11.92 10.53-5.84z"/><path d="M552.76 216.67l6.97-4.03v-7.89l-6.97 4.03v7.89z"/><path d="M554.47 201.83l-6.97 11.92 10.52 5.84 6.97-11.92-10.52-5.84z"/><path d="M549.51 205.06h6.5v3.7h-6.5z"/><path d="M556.01 206.89l-3.25 1.87-3.25-1.87 3.17-1.83 3.33 1.83z"/><path d="M556.01 205.06l.08 3.75-6.58-.05-.07-3.75 6.57.05z"/><path d="M549.51 206.89h3.25v5.56h-3.25z"/><path d="M552.76 212.45l-3.25-1.88v-3.68l3.25 1.87v3.69z"/><path d="M551.97 205.52l3.25 5.56-4.91 2.73-3.25-5.56 4.91-2.73z"/><path d="M552.77 206.89h3.25v5.56h-3.25z"/><path d="M552.76 212.45l3.25-1.88v-3.68l-3.25 1.87v3.69z"/><path d="M553.56 205.52l-3.25 5.56 4.91 2.73 3.25-5.56-4.91-2.73z"/><path d="M541.82 0h21.47v207.62h-21.47z"/><path d="M559.59 196.84l.17 8.12-14.24-.11-.17-8.11 14.24.1zM643.01 73.81v53.44l2.82-1.68V69.78l-2.82 4.03z"/><path d="M645.83 129.6V68.09l-2.82 1.69v61.51l2.82-1.69zM642.5 137.26v4.17l3.85-2.33v-4.17l-3.85 2.33z"/><path d="M646.35 141.43v-8.84l-3.85 2.34v8.84l3.85-2.34zM642.5 153.15v4.17l3.85-2.33v-4.17l-3.85 2.33z"/><path d="M646.35 157.32v-8.83l-3.85 2.33v8.83l3.85-2.33zM642.5 144.82V149l3.85-2.34v-4.17l-3.85 2.33z"/><path d="M646.35 149v-8.84l-3.85 2.33v8.84l3.85-2.33zM6.53 235.29v53.45l-2.82-1.69v-55.79l2.82 4.03z"/><path d="M3.71 291.09v-61.51l2.82 1.68v61.51l-2.82-1.68zM7.04 298.75v4.17l-3.85-2.34v-4.17l3.85 2.34z"/><path d="M3.19 302.92v-8.84l3.85 2.33v8.84l-3.85-2.33zM7.04 314.63v4.18l-3.85-2.34v-4.17l3.85 2.33z"/><path d="M3.19 318.81v-8.84l3.85 2.33v8.84l-3.85-2.33zM7.04 306.31v4.17l-3.85-2.34v-4.17l3.85 2.34z"/><path d="M3.19 310.48v-8.84l3.85 2.33v8.84l-3.85-2.33zM93.06 421.39v31.3l-3.89-2.36v-31.3l3.89 2.36z"/><path d="M89.17 452.69v-36.03l3.89 2.37v36.02l-3.89-2.36zM93.76 466.51v5.76l-5.3-3.22v-5.77l5.3 3.23z"/><path d="M88.46 472.27v-12.21l5.3 3.22v12.21l-5.3-3.22zM93.76 488.44v5.76l-5.3-3.22v-5.76l5.3 3.22z"/><path d="M88.46 494.2V482l5.3 3.22v12.2l-5.3-3.22zM93.76 476.94v5.76l-5.3-3.22v-5.76l5.3 3.22z"/><path d="M88.46 482.7v-12.2l5.3 3.22v12.21l-5.3-3.23zM538.12 329.86l-2.88 1.75v-23.23l2.88-1.75v23.23z"/><path d="M538.12 331.61v-26.73l-2.88 1.75v26.73l2.88-1.75zM538.64 343.75l-3.93 2.39v-4.28l3.93-2.38v4.27z"/><g><path d="M538.64 346.14v-9.05l-3.93 2.39v9.05l3.93-2.39z"/></g><path d="M538.64 351.89l-3.93 2.39V350l3.93-2.39v4.28z"/><g><path d="M538.64 354.28v-9.05l-3.93 2.38v9.06l3.93-2.39z"/></g><path d="M538.64 360.03l-3.93 2.39v-4.28l3.93-2.39v4.28z"/><g><path d="M538.64 362.42v-9.05l-3.93 2.38v9.06l3.93-2.39z"/></g><path d="M136.85 401.02l8.53 5.17v-9.26l-8.53-5.17v9.26z"/><g><path d="M136.85 406.19v-19.61l8.53 5.18v19.61l-8.53-5.18z"/></g><path d="M136.85 383.33l8.53 5.17v-9.26l-8.53-5.17v9.26z"/><g><path d="M136.85 388.5v-19.61l8.53 5.18v19.61l-8.53-5.18z"/></g><path d="M136.85 366.97l8.53 5.18v-9.27l-8.53-5.17v9.26z"/><g><path d="M136.85 372.15v-19.61l8.53 5.17v19.61l-8.53-5.17z"/></g></symbol><symbol viewBox="0 0 690 760" id="b1-4" xmlns="http://www.w3.org/2000/svg"><defs><linearGradient id="dd" x1="102.92" y1="624.48" x2="107.14" y2="624.48" gradientTransform="matrix(.44 21.11 36.61 .28 -22845.99 -1816.19)" gradientUnits="userSpaceOnUse"><stop offset="0" stop-color="#fff"/><stop offset=".29" stop-color="#a6a6a6"/><stop offset=".54" stop-color="#5f5f5f"/><stop offset=".75" stop-color="#2c2c2c"/><stop offset=".91" stop-color="#0c0c0c"/><stop offset="1"/><stop offset="1"/></linearGradient><radialGradient id="da" cx="69.06" cy="593.32" r="4.22" gradientTransform="matrix(7.97 4.61 0 -9.03 -512.34 5651.86)" gradientUnits="userSpaceOnUse"><stop offset="0"/><stop offset="0"/><stop offset=".2" stop-color="#030303"/><stop offset=".33" stop-color="#0c0c0c"/><stop offset=".45" stop-color="#1b1b1b"/><stop offset=".55" stop-color="#303030"/><stop offset=".65" stop-color="#4c4c4c"/><stop offset=".74" stop-color="#6f6f6f"/><stop offset=".83" stop-color="#979797"/><stop offset=".91" stop-color="#c7c7c7"/><stop offset=".99" stop-color="#fafafa"/><stop offset="1" stop-color="#fff"/></radialGradient><radialGradient id="dc" cx="118.31" cy="629.16" r="2.4" gradientTransform="matrix(-8.68 5.01 0 -9.83 1094.24 6117.95)" gradientUnits="userSpaceOnUse"><stop offset="0"/><stop offset="0"/><stop offset=".37" stop-color="#020202"/><stop offset=".51" stop-color="#090909"/><stop offset=".6" stop-color="#141414"/><stop offset=".68" stop-color="#252525"/><stop offset=".75" stop-color="#3b3b3b"/><stop offset=".81" stop-color="#575757"/><stop offset=".86" stop-color="#777"/><stop offset=".91" stop-color="#9d9d9d"/><stop offset=".95" stop-color="#c8c8c8"/><stop offset=".99" stop-color="#f6f6f6"/><stop offset="1" stop-color="#fff"/></radialGradient><linearGradient id="db" x1="104.95" y1="620.16" x2="107.35" y2="620.16" gradientTransform="matrix(.25 11.7 20.29 .15 -12551.76 -827.58)" gradientUnits="userSpaceOnUse"><stop offset="0"/><stop offset="0"/><stop offset=".09" stop-color="#363636"/><stop offset=".2" stop-color="#6a6a6a"/><stop offset=".3" stop-color="#989898"/><stop offset=".4" stop-color="#bdbdbd"/><stop offset=".5" stop-color="#dadada"/><stop offset=".6" stop-color="#efefef"/><stop offset=".7" stop-color="#fbfbfb"/><stop offset=".8" stop-color="#fff"/><stop offset="1" stop-color="#fff"/></linearGradient><linearGradient id="de" x1="21.63" y1="579.78" x2="98.56" y2="579.78" gradientUnits="userSpaceOnUse"><stop offset="0" stop-color="#fff" stop-opacity="0"/><stop offset=".34" stop-color="#fff" stop-opacity=".12"/><stop offset="1" stop-color="#fff" stop-opacity=".4"/></linearGradient><linearGradient id="df" x1="21.63" y1="612.4" x2="60.09" y2="612.4" gradientUnits="userSpaceOnUse"><stop offset="0" stop-color="#c2c2c2" stop-opacity=".2"/><stop offset=".31" stop-color="#b2b2b2" stop-opacity=".17"/><stop offset=".7" stop-color="#858585" stop-opacity=".09"/><stop offset="1" stop-color="#545454" stop-opacity="0"/></linearGradient><linearGradient id="dg" x1="62.53" y1="516.75" x2="79.52" y2="533.75" gradientUnits="userSpaceOnUse"><stop offset="0" stop-color="#919191" stop-opacity="0"/><stop offset=".74" stop-color="#767676" stop-opacity=".29"/><stop offset="1" stop-color="#6b6b6b" stop-opacity=".4"/></linearGradient><linearGradient id="di" x1="102.92" y1="624.48" x2="107.14" y2="624.48" gradientTransform="matrix(.44 21.11 36.61 .28 -22845.99 -1816.19)" gradientUnits="userSpaceOnUse"><stop offset="0" stop-color="#7d7d7d"/><stop offset="1" stop-color="#e5f7ff"/><stop offset="1" stop-color="#d1d1d1"/></linearGradient><linearGradient id="dh" x1="66.98" y1="593.44" x2="71.81" y2="593.44" gradientTransform="matrix(7.97 4.61 0 -9.03 -512.34 5651.87)" gradientUnits="userSpaceOnUse"><stop offset="0" stop-color="#36ffff" stop-opacity=".1"/><stop offset=".21" stop-color="#2f8bcb" stop-opacity=".05"/><stop offset=".49" stop-color="#2b34a4" stop-opacity=".01"/><stop offset=".86" stop-color="#291898" stop-opacity="0"/></linearGradient></defs><path d="M0 0h690v760H0z"/><path d="M21.63 579.5l38.41 22.16 38.52-22.16-39.44-21.6-37.49 21.6z"/><path d="M98.56 557.9l.93 44.36-77.86-.6-.93-44.35 77.86.59z"/><path d="M21.63 623.07l38.46 22.22v-43.57L21.63 579.5v43.57z"/><path d="M21.63 557.29l38.46 22.21v88.01l-38.46-22.22v-88zM60.09 601.72v43.57l38.47-22.22V579.5l-38.47 22.22z"/><path d="M98.56 557.28L60.09 579.5v88.02l38.47-22.23v-88.01z"/><path d="M82.06 589.38l-21.35 12.29-21.3-12.29L60.2 577.4l21.86 11.98z"/><path d="M82.06 577.4l.52 24.6-43.17-.33-.51-24.6 43.16.33z"/><path d="M60.74 625.86l-21.33-12.32v-24.16l21.33 12.32v24.16z"/><path d="M55.52 580.44l21.32 36.48-32.2 17.88-21.32-36.48 32.2-17.88z"/><path d="M60.74 625.86l21.32-12.32v-24.16L60.74 601.7v24.16z"/><path d="M65.97 580.45l-21.33 36.47 32.2 17.87 21.32-36.47-32.19-17.87z"/><path d="M50.79 590.33h19.89v11.31H50.79z"/><path d="M70.69 595.92l-9.96 5.73-9.93-5.73 9.69-5.59 10.2 5.59z"/><path d="M70.69 590.33l.24 11.47-20.13-.15-.25-11.48 20.14.16z"/><path d="M50.79 595.92h9.95v17.01h-9.95z"/><path d="M60.74 612.93l-9.94-5.74v-11.27l9.94 5.74v11.27z"/><path d="M58.3 591.75l9.95 17.01-15.02 8.34-9.95-17.01 15.02-8.34z"/><path d="M60.74 595.92h9.94v17.01h-9.94z"/><path d="M60.74 612.93l9.95-5.74v-11.27l-9.95 5.74v11.27z"/><path d="M63.18 591.75l-9.95 17.01 15.02 8.34 9.95-17.01-15.02-8.34zM38.23 506.55l21.83 12.6 21.9-12.6-22.42-12.28-21.31 12.28z"/><path d="M81.96 494.27l.53 25.21-44.26-.33-.53-25.22 44.26.34z"/><path d="M38.23 531.32l21.86 12.63v-24.77l-21.86-12.63v24.77z"/><path d="M38.23 493.92l21.86 12.63v50.03l-21.86-12.63v-50.03zM60.09 519.18v24.77l21.87-12.63v-24.77l-21.87 12.63z"/><path d="M81.96 493.92l-21.87 12.63v50.03l21.87-12.63v-50.03z"/><path d="M72.58 512.16l-12.13 6.99-12.11-6.99 11.82-6.8 12.42 6.8z"/><path d="M72.58 505.36l.3 13.98-24.54-.19-.29-13.98 24.53.19z"/><path d="M60.46 532.9l-12.12-7.01v-13.73l12.12 7.01v13.73z"/><path d="M57.49 507.08l12.12 20.74-18.3 10.16-12.12-20.73 18.3-10.17z"/><path d="M60.46 532.9l12.12-7.01v-13.73l-12.12 7.01v13.73z"/><path d="M63.43 507.09l-12.12 20.73 18.3 10.16 12.12-20.73-18.3-10.16z"/><path d="M54.81 512.71h11.31v6.43H54.81z"/><path d="M66.11 515.88l-5.66 3.26-5.64-3.26 5.51-3.18 5.79 3.18z"/><path d="M66.11 512.7l.14 6.52-11.44-.08-.14-6.52 11.44.08z"/><path d="M54.81 515.88h5.66v9.67h-5.66z"/><g><path d="M60.46 525.55l-5.65-3.26v-6.41l5.65 3.27v6.4z"/><path d="M59.08 513.51l5.65 9.67-8.54 4.74-5.65-9.67 8.54-4.74z"/></g><path d="M60.46 515.88h5.65v9.67h-5.65z"/><g><path d="M60.46 525.55l5.65-3.26v-6.41l-5.65 3.27v6.4z"/><path d="M61.85 513.51l-5.66 9.67 8.54 4.74 5.66-9.67-8.54-4.74z"/></g><g><path d="M79.33 568.24l.45 21.44-37.62-.28-.46-21.45 37.63.29z"/></g><g><path d="M21.63 472.76h76.92v128.91H21.63z"/></g><path d="M57.28 667a3.78 3.78 0 0 1-1 2.74 3.63 3.63 0 0 1-2.73 1.08 3.58 3.58 0 0 1-2.71-1.08 3.8 3.8 0 0 1-1-2.74v-1.6a3.81 3.81 0 0 1 1-2.74 3.56 3.56 0 0 1 2.7-1.09 3.63 3.63 0 0 1 2.73 1.09 3.78 3.78 0 0 1 1.05 2.74zm-1.81-1.63a2.73 2.73 0 0 0-.53-1.73 1.73 1.73 0 0 0-1.45-.68 1.69 1.69 0 0 0-1.43.67 2.8 2.8 0 0 0-.51 1.73V667a2.81 2.81 0 0 0 .51 1.75 1.7 1.7 0 0 0 1.43.68 1.73 1.73 0 0 0 1.45-.68 2.79 2.79 0 0 0 .52-1.75zM64.72 663.1h-2.55v7.62h-1.81v-7.62h-2.53v-1.39h6.9zM72.33 667.65a2.93 2.93 0 0 1-.89 2.31 3.56 3.56 0 0 1-2.53.85 3.52 3.52 0 0 1-2.64-1 3.71 3.71 0 0 1-1-2.69v-1.79a3.77 3.77 0 0 1 1-2.69 3.38 3.38 0 0 1 2.58-1.05 3.74 3.74 0 0 1 2.61.86 2.93 2.93 0 0 1 .92 2.34h-1.8a2 2 0 0 0-.43-1.36 1.7 1.7 0 0 0-1.33-.47 1.51 1.51 0 0 0-1.29.66 2.8 2.8 0 0 0-.48 1.68v1.8a2.72 2.72 0 0 0 .5 1.69 1.61 1.61 0 0 0 1.36.66 1.59 1.59 0 0 0 1.25-.46 2 2 0 0 0 .41-1.35z"/></symbol></svg>